G04*
G04 #@! TF.GenerationSoftware,Altium Limited,Altium Designer,20.2.6 (244)*
G04*
G04 Layer_Physical_Order=1*
G04 Layer_Color=255*
%FSLAX25Y25*%
%MOIN*%
G70*
G04*
G04 #@! TF.SameCoordinates,53242240-AA46-4597-B95F-6874191C8742*
G04*
G04*
G04 #@! TF.FilePolarity,Positive*
G04*
G01*
G75*
%ADD10C,0.00984*%
%ADD11C,0.02362*%
%ADD12C,0.01000*%
%ADD14C,0.01968*%
%ADD17C,0.00394*%
%ADD19C,0.00787*%
%ADD23R,0.03000X0.03000*%
%ADD24O,0.06693X0.02362*%
%ADD25R,0.05709X0.02362*%
%ADD26R,0.05709X0.01181*%
%ADD27R,0.01575X0.11811*%
%ADD28R,0.07874X0.02756*%
%ADD29R,0.02362X0.03937*%
%ADD30R,0.12598X0.12598*%
%ADD31R,0.03543X0.00787*%
%ADD32R,0.00787X0.03543*%
%ADD33R,0.02165X0.00984*%
%ADD34R,0.03937X0.06693*%
%ADD35C,0.03150*%
%ADD36R,0.03000X0.03000*%
%ADD37R,0.05000X0.03500*%
%ADD38R,0.04331X0.14567*%
%ADD39P,0.03247X8X112.5*%
%ADD40O,0.01968X0.05906*%
%ADD41R,0.01968X0.05906*%
%ADD42R,0.01968X0.03543*%
%ADD43R,0.02559X0.03543*%
%ADD44R,0.09055X0.04724*%
%ADD45R,0.07874X0.03937*%
%ADD46R,0.03937X0.07874*%
%ADD47R,0.03150X0.03937*%
%ADD48R,0.03150X0.03937*%
%ADD49R,0.03543X0.01968*%
%ADD50R,0.03543X0.02559*%
%ADD51R,0.03937X0.01280*%
%ADD52P,0.03247X8X202.5*%
%ADD53O,0.00984X0.03150*%
%ADD54O,0.03150X0.00984*%
%ADD55R,0.07874X0.07874*%
%ADD56R,0.00984X0.03150*%
%ADD57R,0.03600X0.05000*%
%ADD58R,0.03600X0.03600*%
%ADD59R,0.07874X0.07874*%
G04:AMPARAMS|DCode=60|XSize=51.18mil|YSize=74.8mil|CornerRadius=12.8mil|HoleSize=0mil|Usage=FLASHONLY|Rotation=90.000|XOffset=0mil|YOffset=0mil|HoleType=Round|Shape=RoundedRectangle|*
%AMROUNDEDRECTD60*
21,1,0.05118,0.04921,0,0,90.0*
21,1,0.02559,0.07480,0,0,90.0*
1,1,0.02559,0.02461,0.01280*
1,1,0.02559,0.02461,-0.01280*
1,1,0.02559,-0.02461,-0.01280*
1,1,0.02559,-0.02461,0.01280*
%
%ADD60ROUNDEDRECTD60*%
%ADD61O,0.05906X0.01575*%
%ADD62R,0.02756X0.07087*%
%ADD63R,0.04724X0.05118*%
%ADD64R,0.03600X0.03600*%
%ADD65O,0.04331X0.00984*%
%ADD66R,0.03937X0.03937*%
%ADD67R,0.05118X0.04724*%
%ADD68R,0.04724X0.02362*%
%ADD69R,0.04331X0.00984*%
%ADD70O,0.00984X0.04331*%
%ADD71R,0.07480X0.05118*%
%ADD72R,0.04724X0.05512*%
%ADD73R,0.08000X0.08661*%
%ADD74R,0.06299X0.05512*%
%ADD75R,0.05906X0.02362*%
%ADD76R,0.03150X0.05512*%
%ADD77R,0.08268X0.02362*%
G04:AMPARAMS|DCode=78|XSize=70.87mil|YSize=118.11mil|CornerRadius=0mil|HoleSize=0mil|Usage=FLASHONLY|Rotation=90.000|XOffset=0mil|YOffset=0mil|HoleType=Round|Shape=Octagon|*
%AMOCTAGOND78*
4,1,8,-0.05906,-0.01772,-0.05906,0.01772,-0.04134,0.03543,0.04134,0.03543,0.05906,0.01772,0.05906,-0.01772,0.04134,-0.03543,-0.04134,-0.03543,-0.05906,-0.01772,0.0*
%
%ADD78OCTAGOND78*%

%ADD79R,0.05906X0.01575*%
%ADD80R,0.05000X0.03600*%
%ADD149C,0.02756*%
%ADD150O,0.06299X0.03937*%
%ADD151O,0.08268X0.03937*%
%ADD152C,0.02559*%
%ADD153C,0.06000*%
%ADD154C,0.10630*%
%ADD155C,0.05906*%
%ADD156O,0.05906X0.07087*%
%ADD157C,0.06299*%
%ADD158R,0.06299X0.06299*%
%ADD159C,0.03937*%
%ADD160C,0.01968*%
G36*
X13780Y253497D02*
X91046D01*
X91237Y253035D01*
X88165Y249962D01*
X87787Y249665D01*
X86231D01*
X86091Y249981D01*
X86049Y250165D01*
X86330Y250585D01*
X86436Y251123D01*
X86330Y251660D01*
X86025Y252116D01*
X85569Y252421D01*
X85031Y252528D01*
X84494Y252421D01*
X84038Y252116D01*
X84036Y252113D01*
X84031Y252111D01*
X83458Y252148D01*
X83293Y252393D01*
X82838Y252698D01*
X82300Y252805D01*
X81762Y252698D01*
X81307Y252393D01*
X81002Y251938D01*
X80496Y251959D01*
X80438Y251998D01*
X79900Y252105D01*
X79362Y251998D01*
X78907Y251693D01*
X78602Y251238D01*
X78495Y250700D01*
X78602Y250162D01*
X78339Y249665D01*
X78339D01*
Y249665D01*
X75189D01*
Y247578D01*
X75174Y247500D01*
Y245252D01*
X67853D01*
Y245394D01*
X66158D01*
X65323Y246229D01*
Y247015D01*
X65889Y247582D01*
X66012Y247606D01*
X67853D01*
Y251394D01*
X64065D01*
Y250797D01*
X63854Y250655D01*
X62628Y249430D01*
X62128Y249637D01*
Y251787D01*
X60333D01*
Y249500D01*
Y247213D01*
X61710D01*
Y245787D01*
X60333D01*
Y243500D01*
X59841D01*
Y243008D01*
X57553D01*
Y242575D01*
X57054Y242368D01*
X55570Y243852D01*
X55118Y244039D01*
X54953D01*
Y245294D01*
X51165D01*
Y241533D01*
X49228D01*
Y242908D01*
X46941D01*
X44653D01*
Y241533D01*
X42922D01*
X42453Y241606D01*
Y245394D01*
X38665D01*
Y241606D01*
X40381D01*
Y241124D01*
X40568Y240672D01*
X40741Y240500D01*
X40568Y240328D01*
X40381Y239876D01*
Y239394D01*
X38665D01*
Y235606D01*
X42453D01*
Y239394D01*
X42922Y239467D01*
X44535D01*
X45004Y239394D01*
Y235606D01*
X48792D01*
Y235982D01*
X49292Y236249D01*
X49362Y236202D01*
X49900Y236095D01*
X50438Y236202D01*
X50622Y236325D01*
X51122Y236058D01*
Y235606D01*
X52087D01*
X52239Y235106D01*
X51909Y234886D01*
X51605Y234430D01*
X51498Y233892D01*
X51605Y233355D01*
X51671Y233256D01*
X48554Y230139D01*
X38656D01*
X38324Y230635D01*
X37803Y230983D01*
X37189Y231106D01*
X32858D01*
X32244Y230983D01*
X31723Y230635D01*
X31375Y230115D01*
X31253Y229500D01*
X31375Y228886D01*
X31658Y228462D01*
X28248Y225052D01*
X28061Y224600D01*
Y208500D01*
X28248Y208048D01*
X30748Y205548D01*
X31200Y205361D01*
X31391D01*
X31723Y204865D01*
X32244Y204517D01*
X32858Y204394D01*
X37189D01*
X37803Y204517D01*
X38324Y204865D01*
X38672Y205385D01*
X38795Y206000D01*
X38672Y206614D01*
X38324Y207135D01*
X37803Y207483D01*
X37189Y207606D01*
X32858D01*
X32244Y207483D01*
X31723Y207135D01*
X31640Y207011D01*
X31142Y206962D01*
X29339Y208765D01*
Y217850D01*
X29839Y218057D01*
X31248Y216648D01*
X31484Y216550D01*
X31558Y215999D01*
X31439Y215919D01*
X31004Y215268D01*
X30949Y214992D01*
X35024D01*
X39098D01*
X39043Y215268D01*
X38608Y215919D01*
X38546Y215961D01*
X38698Y216461D01*
X40836D01*
Y202240D01*
X40235Y201639D01*
X38656D01*
X38324Y202135D01*
X37803Y202483D01*
X37189Y202606D01*
X32858D01*
X32244Y202483D01*
X31723Y202135D01*
X31375Y201614D01*
X31253Y201000D01*
X31375Y200385D01*
X31723Y199865D01*
X32244Y199517D01*
X32858Y199394D01*
X37189D01*
X37803Y199517D01*
X38324Y199865D01*
X38656Y200361D01*
X40500D01*
X40952Y200548D01*
X41927Y201523D01*
X42114Y201975D01*
Y202854D01*
X42614Y203137D01*
X42722Y203073D01*
Y201357D01*
X38485Y197120D01*
X38324Y197135D01*
X37803Y197483D01*
X37189Y197606D01*
X32858D01*
X32244Y197483D01*
X31723Y197135D01*
X31375Y196615D01*
X31253Y196000D01*
X31375Y195386D01*
X31473Y195239D01*
X31205Y194739D01*
X28565D01*
X26310Y196994D01*
X25858Y197181D01*
X23205D01*
Y198117D01*
X16512D01*
Y194967D01*
X23205D01*
Y195903D01*
X25594D01*
X27848Y193648D01*
X28300Y193461D01*
X32576D01*
X32626Y192961D01*
X32090Y192854D01*
X31439Y192419D01*
X31004Y191768D01*
X30949Y191492D01*
X35024D01*
X39098D01*
X39043Y191768D01*
X38608Y192419D01*
X37957Y192854D01*
X37422Y192961D01*
X37471Y193461D01*
X40800D01*
X41252Y193648D01*
X47552Y199948D01*
X47739Y200400D01*
Y205761D01*
X49350D01*
X49617Y205261D01*
X49602Y205238D01*
X49495Y204700D01*
X49602Y204162D01*
X49907Y203707D01*
X50261Y203470D01*
Y200125D01*
X50448Y199673D01*
X55360Y194761D01*
X55812Y194573D01*
X58499D01*
X60131Y192941D01*
X60008Y192357D01*
X59676Y192135D01*
X59328Y191614D01*
X59205Y191000D01*
X59328Y190385D01*
X59676Y189865D01*
X60197Y189517D01*
X60585Y189439D01*
X60536Y188939D01*
X57594D01*
X57142Y188752D01*
X55142Y186752D01*
X54955Y186300D01*
Y185996D01*
X54892Y185901D01*
X54328D01*
X54265Y185997D01*
X53972Y186193D01*
X53626Y186261D01*
X53280Y186193D01*
X52987Y185997D01*
X52924Y185901D01*
X52360D01*
X52296Y185997D01*
X52003Y186193D01*
X51657Y186261D01*
X51312Y186193D01*
X51019Y185997D01*
X50823Y185704D01*
X50754Y185358D01*
Y182012D01*
X50823Y181666D01*
X51019Y181373D01*
X51312Y181177D01*
X51657Y181109D01*
X52003Y181177D01*
X52296Y181373D01*
X52360Y181469D01*
X52924D01*
X52987Y181373D01*
X53280Y181177D01*
X53626Y181109D01*
X53972Y181177D01*
X54265Y181373D01*
X54328Y181469D01*
X54892D01*
X54956Y181373D01*
X55249Y181177D01*
X55594Y181109D01*
X55940Y181177D01*
X56233Y181373D01*
X56297Y181469D01*
X56861D01*
X56924Y181373D01*
X57217Y181177D01*
X57563Y181109D01*
X57909Y181177D01*
X58202Y181373D01*
X58265Y181469D01*
X58829D01*
X58893Y181373D01*
X59186Y181177D01*
X59531Y181109D01*
X59877Y181177D01*
X60170Y181373D01*
X60234Y181469D01*
X60798D01*
X60861Y181373D01*
X61154Y181177D01*
X61500Y181109D01*
X61846Y181177D01*
X62139Y181373D01*
X62202Y181469D01*
X62766D01*
X62830Y181373D01*
X63123Y181177D01*
X63468Y181109D01*
X63814Y181177D01*
X64107Y181373D01*
X64303Y181666D01*
X64372Y182012D01*
Y185358D01*
X64303Y185704D01*
X64107Y185997D01*
X63814Y186193D01*
X63468Y186261D01*
X63123Y186193D01*
X62830Y185997D01*
X62766Y185901D01*
X62202D01*
X62139Y185997D01*
X61846Y186193D01*
X61500Y186261D01*
X61154Y186193D01*
X60861Y185997D01*
X60798Y185901D01*
X60234D01*
X60170Y185997D01*
X59877Y186193D01*
X59531Y186261D01*
X59186Y186193D01*
X58893Y185997D01*
X58410Y186161D01*
X58207Y186368D01*
X58206Y186377D01*
X58630Y186801D01*
X65917D01*
X69848Y182870D01*
Y180901D01*
X69587Y180705D01*
X69348Y180598D01*
X69079Y180651D01*
X65732D01*
X65387Y180582D01*
X65094Y180387D01*
X64898Y180094D01*
X64829Y179748D01*
X64898Y179402D01*
X65094Y179109D01*
X65189Y179046D01*
Y178482D01*
X65094Y178418D01*
X64898Y178125D01*
X64829Y177779D01*
X64898Y177434D01*
X65094Y177141D01*
X65189Y177077D01*
Y176513D01*
X65094Y176450D01*
X64898Y176157D01*
X64829Y175811D01*
X64898Y175465D01*
X65094Y175172D01*
X65189Y175109D01*
Y174545D01*
X65094Y174481D01*
X64898Y174188D01*
X64829Y173843D01*
X64898Y173497D01*
X65094Y173204D01*
X65189Y173140D01*
Y172576D01*
X65094Y172513D01*
X64898Y172220D01*
X64829Y171874D01*
X64898Y171528D01*
X65094Y171235D01*
X65189Y171172D01*
Y170608D01*
X65094Y170544D01*
X64898Y170251D01*
X64829Y169905D01*
X64898Y169560D01*
X65094Y169267D01*
X65189Y169203D01*
Y168639D01*
X65094Y168576D01*
X64898Y168283D01*
X64829Y167937D01*
X64860Y167780D01*
X64466Y167490D01*
X64059Y167662D01*
X64091Y167740D01*
Y179945D01*
X63967Y180246D01*
X63665Y180371D01*
X52740D01*
X52740Y180371D01*
X52439Y180246D01*
X51159Y178967D01*
X51034Y178665D01*
Y176490D01*
X51029Y176488D01*
X50534Y176407D01*
X50316Y176734D01*
X50316Y176734D01*
X50032Y177141D01*
X50228Y177434D01*
X50297Y177779D01*
X50228Y178125D01*
X50070Y178362D01*
X50134Y178610D01*
X50268Y178862D01*
X50279D01*
Y180634D01*
X45161D01*
Y178862D01*
X45173D01*
X45307Y178610D01*
X45371Y178362D01*
X45213Y178125D01*
X45144Y177779D01*
X45213Y177434D01*
X45409Y177141D01*
X45125Y176734D01*
X45125Y176734D01*
X44842Y176310D01*
X44840Y176303D01*
X47721D01*
Y175319D01*
X44840D01*
X44842Y175312D01*
X45063Y174982D01*
X44954Y174644D01*
X44841Y174482D01*
X44768D01*
X44715Y174460D01*
X44094Y174583D01*
X43523Y174965D01*
X43141Y175536D01*
X43017Y176157D01*
X43039Y176210D01*
Y185400D01*
X43013Y185463D01*
X42887Y186099D01*
X42491Y186691D01*
X41899Y187087D01*
X41263Y187213D01*
X41200Y187239D01*
X35400D01*
X35310Y187202D01*
X34818Y187104D01*
X34325Y186775D01*
X33996Y186282D01*
X33960Y186099D01*
X33507Y185797D01*
X33202Y185341D01*
X33095Y184803D01*
Y180866D01*
X33202Y180329D01*
X33507Y179873D01*
X33962Y179568D01*
X34500Y179461D01*
X35038Y179568D01*
X35493Y179873D01*
X35798Y180329D01*
X35905Y180866D01*
Y184803D01*
X35798Y185341D01*
X35718Y185461D01*
X35985Y185961D01*
X38122D01*
Y179488D01*
X38927D01*
X39037Y178367D01*
X39541Y176706D01*
X40359Y175176D01*
X41460Y173834D01*
X42802Y172733D01*
X44332Y171915D01*
X45188Y171655D01*
X45213Y171528D01*
X45409Y171235D01*
X45504Y171172D01*
Y170608D01*
X45409Y170544D01*
X45213Y170251D01*
X45144Y169905D01*
X45213Y169560D01*
X45409Y169267D01*
X45504Y169203D01*
Y168639D01*
X45409Y168576D01*
X45213Y168283D01*
X45144Y167937D01*
X45213Y167591D01*
X45409Y167298D01*
X45702Y167103D01*
X46047Y167034D01*
X49314D01*
X50754Y165594D01*
Y162327D01*
X50773Y162235D01*
X48331Y159794D01*
X45447D01*
Y156006D01*
X46702D01*
Y153994D01*
X45447D01*
Y150206D01*
X46027D01*
X46149Y150026D01*
X46248Y149706D01*
X46002Y149338D01*
X45895Y148800D01*
X45960Y148474D01*
X42442Y144956D01*
X41980Y145148D01*
Y145661D01*
X39126D01*
Y143004D01*
X39837D01*
X40028Y142542D01*
X37761Y140275D01*
X37566Y139982D01*
X37497Y139637D01*
Y121287D01*
X34744D01*
Y122441D01*
X31102D01*
Y123425D01*
X34744D01*
Y124902D01*
X31311D01*
X31160Y125402D01*
X31368Y125541D01*
X31890Y126322D01*
X32074Y127244D01*
X31890Y128166D01*
X31368Y128947D01*
X30587Y129469D01*
X29665Y129653D01*
X25335D01*
X24413Y129469D01*
X23632Y128947D01*
X23110Y128166D01*
X22926Y127244D01*
X23110Y126322D01*
X23632Y125541D01*
X24413Y125019D01*
X25335Y124836D01*
X27461D01*
Y122633D01*
X27379Y122575D01*
X26700Y122701D01*
X26620Y122820D01*
X26066Y123190D01*
X25413Y123320D01*
X24760Y123190D01*
X24207Y122820D01*
X23837Y122267D01*
X23707Y121614D01*
X23837Y120961D01*
X23912Y120850D01*
X23644Y120350D01*
X21985D01*
X17444Y124892D01*
Y138106D01*
X18535D01*
Y141894D01*
X15572D01*
X15139Y142141D01*
Y143225D01*
X15313Y143654D01*
X15639Y143654D01*
X17108D01*
Y145941D01*
Y148228D01*
X15313D01*
X15139Y148656D01*
Y157967D01*
X15494Y158203D01*
X15798Y158659D01*
X15905Y159197D01*
Y163134D01*
X15798Y163672D01*
X15494Y164127D01*
X15038Y164432D01*
X14500Y164539D01*
X13962Y164432D01*
X13507Y164127D01*
X13202Y163672D01*
X13095Y163134D01*
Y159197D01*
X13202Y158659D01*
X13507Y158203D01*
X13861Y157967D01*
Y153953D01*
X10106D01*
Y150165D01*
X10520D01*
X10787Y149665D01*
X10702Y149538D01*
X10595Y149000D01*
X10702Y148462D01*
X10787Y148335D01*
X10520Y147835D01*
X10106D01*
Y146037D01*
X8394D01*
Y147291D01*
X4777D01*
Y149154D01*
X5239Y149346D01*
X5356Y149228D01*
X6008D01*
Y151516D01*
Y153803D01*
X5356D01*
X5263Y153710D01*
X4812Y153862D01*
X4767Y153921D01*
X4861Y154393D01*
X5175Y154863D01*
X5645Y155177D01*
X6157Y155279D01*
X6200Y155261D01*
X6253Y155283D01*
X7216Y155410D01*
X8162Y155802D01*
X8975Y156425D01*
X9598Y157238D01*
X9857Y157863D01*
X10038Y157899D01*
X10493Y158203D01*
X10798Y158659D01*
X10905Y159197D01*
Y163134D01*
X10798Y163672D01*
X10493Y164127D01*
X10038Y164432D01*
X9500Y164539D01*
X8962Y164432D01*
X8507Y164127D01*
X8202Y163672D01*
X8095Y163134D01*
Y159197D01*
X8202Y158659D01*
X8507Y158203D01*
X8398Y157695D01*
X8097Y157303D01*
X7541Y156877D01*
X6894Y156609D01*
X6240Y156523D01*
X6200Y156539D01*
X6109Y156501D01*
X5601Y156435D01*
X5526Y156461D01*
X5346Y156592D01*
X5139Y156811D01*
Y157967D01*
X5493Y158203D01*
X5798Y158659D01*
X5905Y159197D01*
Y163134D01*
X5798Y163672D01*
X5493Y164127D01*
X5038Y164432D01*
X4500Y164539D01*
X3962Y164432D01*
X3507Y164127D01*
X3202Y163672D01*
X3095Y163134D01*
Y159197D01*
X3202Y158659D01*
X3507Y158203D01*
X3861Y157967D01*
Y156851D01*
X3638Y156807D01*
X3162Y156489D01*
X2908Y156110D01*
X2409Y156194D01*
Y187216D01*
X2908Y187409D01*
X3821Y186496D01*
X3790Y185986D01*
X3507Y185797D01*
X3202Y185341D01*
X3095Y184803D01*
Y180866D01*
X3202Y180329D01*
X3507Y179873D01*
X3962Y179568D01*
X4500Y179461D01*
X5038Y179568D01*
X5493Y179873D01*
X5798Y180329D01*
X5905Y180866D01*
Y184803D01*
X5901Y184822D01*
X6362Y185069D01*
X8095Y183336D01*
Y180866D01*
X8202Y180329D01*
X8507Y179873D01*
X8962Y179568D01*
X9500Y179461D01*
X10038Y179568D01*
X10493Y179873D01*
X10798Y180329D01*
X10905Y180866D01*
Y184803D01*
X10798Y185341D01*
X10493Y185797D01*
X10038Y186101D01*
X9500Y186208D01*
X8962Y186101D01*
X8507Y185797D01*
X8363Y185582D01*
X7759Y185480D01*
X5820Y187418D01*
X6012Y187880D01*
X9047D01*
Y194179D01*
X5110D01*
Y194179D01*
X4651Y194278D01*
Y216522D01*
X5110Y216620D01*
X5151Y216620D01*
X9047D01*
Y218597D01*
X9248Y218666D01*
X9547Y218680D01*
X9673Y218491D01*
X14897Y213267D01*
Y203200D01*
X14958Y202893D01*
X15132Y202632D01*
X15618Y202147D01*
X15618Y202147D01*
X15878Y201973D01*
X16186Y201911D01*
X16512Y201574D01*
Y200872D01*
X23205D01*
Y204022D01*
X16512D01*
X16503Y204518D01*
Y212187D01*
X16512Y212684D01*
X17003Y212684D01*
X23205D01*
Y215833D01*
X22990D01*
X22799Y216295D01*
X22952Y216448D01*
X23139Y216900D01*
Y218770D01*
X23494Y219007D01*
X23798Y219462D01*
X23905Y220000D01*
X23798Y220538D01*
X23494Y220993D01*
X23038Y221298D01*
X22500Y221405D01*
X21962Y221298D01*
X21507Y220993D01*
X21202Y220538D01*
X21095Y220000D01*
X21202Y219462D01*
X21507Y219007D01*
X21861Y218770D01*
Y217165D01*
X20947Y216251D01*
X20774Y215833D01*
X16512D01*
Y214631D01*
X16012Y214423D01*
X11044Y219392D01*
Y224706D01*
X12135D01*
Y225120D01*
X12635Y225387D01*
X12762Y225302D01*
X13300Y225195D01*
X13572Y225249D01*
X14072Y224903D01*
Y224313D01*
X15867D01*
Y226600D01*
X16359D01*
Y227092D01*
X18646D01*
Y228692D01*
X18646Y228887D01*
X19020Y229192D01*
X19831D01*
X20283Y229380D01*
X27765Y236861D01*
X32547D01*
Y235606D01*
X36335D01*
Y239394D01*
X32547D01*
Y238139D01*
X30637D01*
X30446Y238601D01*
X33451Y241606D01*
X36335D01*
Y245394D01*
X32547D01*
Y242510D01*
X28987Y238950D01*
X27198D01*
X26746Y238763D01*
X19241Y231258D01*
X16644D01*
X16585Y231758D01*
X17108Y231884D01*
X18669Y232530D01*
X20110Y233413D01*
X21395Y234511D01*
X22492Y235796D01*
X23375Y237237D01*
X24022Y238798D01*
X24416Y240441D01*
X24549Y242126D01*
X24416Y243811D01*
X24022Y245454D01*
X23375Y247015D01*
X22492Y248456D01*
X21395Y249741D01*
X20110Y250839D01*
X18669Y251722D01*
X17108Y252368D01*
X15464Y252763D01*
X13780Y252895D01*
X12095Y252763D01*
X10452Y252368D01*
X8890Y251722D01*
X7449Y250839D01*
X6164Y249741D01*
X5067Y248456D01*
X4184Y247015D01*
X3537Y245454D01*
X3143Y243811D01*
X3010Y242126D01*
X3143Y240441D01*
X3537Y238798D01*
X4184Y237237D01*
X5067Y235796D01*
X6164Y234511D01*
X7449Y233413D01*
X8890Y232530D01*
X10452Y231884D01*
X10975Y231758D01*
X10915Y231258D01*
X7505D01*
X7053Y231071D01*
X4722Y228739D01*
X4722Y228739D01*
X3548Y227566D01*
X3548Y227566D01*
X2908Y226926D01*
X2409Y227118D01*
Y242126D01*
X2386Y242239D01*
X2517Y243910D01*
X2935Y245650D01*
X3620Y247303D01*
X4555Y248828D01*
X5717Y250189D01*
X7077Y251351D01*
X8603Y252286D01*
X10256Y252970D01*
X11996Y253388D01*
X13666Y253520D01*
X13780Y253497D01*
D02*
G37*
G36*
X130061Y236935D02*
Y235816D01*
X129561Y235549D01*
X129338Y235698D01*
X128800Y235805D01*
X128262Y235698D01*
X128071Y235570D01*
X127667Y235902D01*
X127760Y236126D01*
X127875Y237000D01*
X127760Y237874D01*
X127423Y238688D01*
X126887Y239387D01*
X126188Y239923D01*
X125374Y240260D01*
X124500Y240375D01*
X123626Y240260D01*
X122812Y239923D01*
X122113Y239387D01*
X121577Y238688D01*
X121240Y237874D01*
X121125Y237000D01*
X121240Y236126D01*
X121577Y235312D01*
X122113Y234613D01*
X122812Y234077D01*
X123626Y233740D01*
X124500Y233625D01*
X125374Y233740D01*
X126188Y234077D01*
X126887Y234613D01*
X126942Y234685D01*
X127410Y234473D01*
X127395Y234400D01*
X127502Y233862D01*
X127806Y233407D01*
X128262Y233102D01*
X128800Y232995D01*
X129218Y233078D01*
X130486Y231810D01*
Y192180D01*
X130674Y191728D01*
X133073Y189328D01*
Y185547D01*
X134243D01*
Y183394D01*
X132988D01*
Y179900D01*
X130491D01*
X130094Y180147D01*
Y183935D01*
X129438D01*
X129388Y184435D01*
X129507Y184458D01*
X129768Y184632D01*
X129942Y184893D01*
X130003Y185200D01*
X129989Y185271D01*
Y185872D01*
X130487D01*
Y187667D01*
X128200D01*
X125913D01*
Y185872D01*
X128383D01*
Y185214D01*
X128444Y184907D01*
X128618Y184646D01*
X128632Y184632D01*
X128893Y184458D01*
X129012Y184435D01*
X128962Y183935D01*
X126306D01*
Y183094D01*
X109356D01*
Y183264D01*
X106400D01*
Y186020D01*
X111794D01*
Y185626D01*
X113762Y183658D01*
X122424D01*
X124392Y185626D01*
Y189563D01*
X122424Y191532D01*
X117169D01*
X116800Y191605D01*
X116431Y191532D01*
X113762D01*
X111794Y189563D01*
Y189169D01*
X111027D01*
X110724Y189229D01*
X110422Y189169D01*
X106400D01*
Y191532D01*
X109750D01*
Y192300D01*
Y193008D01*
X106600D01*
Y193500D01*
X106108D01*
Y195468D01*
X104200D01*
Y199500D01*
X106400D01*
Y200386D01*
X114421D01*
Y205898D01*
X106400D01*
Y216110D01*
X106693Y216307D01*
X106998Y216762D01*
X107105Y217300D01*
X106998Y217838D01*
X106693Y218293D01*
X106400Y218490D01*
Y222040D01*
X114421D01*
Y227552D01*
X106400D01*
Y235032D01*
X109008D01*
Y238181D01*
Y241331D01*
X106400D01*
Y243367D01*
X123629D01*
X130061Y236935D01*
D02*
G37*
G36*
X158506Y251749D02*
Y248865D01*
X162294D01*
Y250120D01*
X167793D01*
Y247024D01*
X168728D01*
Y243530D01*
X168374Y243293D01*
X168070Y242838D01*
X167963Y242300D01*
X168070Y241762D01*
X168374Y241307D01*
X168728Y241070D01*
Y237576D01*
X167793D01*
Y234361D01*
X167331Y234169D01*
X162712Y238788D01*
X162294Y238962D01*
Y240953D01*
X158506D01*
Y239398D01*
X157009D01*
Y240709D01*
X154450D01*
Y241694D01*
X157009D01*
Y242894D01*
Y244174D01*
X154450D01*
Y245158D01*
X157009D01*
Y246044D01*
Y247323D01*
X154450D01*
Y248308D01*
X157009D01*
Y249213D01*
Y250788D01*
X154450D01*
Y251772D01*
X157009D01*
Y252511D01*
X157744D01*
X158506Y251749D01*
D02*
G37*
G36*
X57653Y237992D02*
X59941D01*
Y237500D01*
X60433D01*
Y235213D01*
X62228D01*
Y235803D01*
X62728Y236149D01*
X63000Y236095D01*
X63538Y236202D01*
X63665Y236287D01*
X64165Y236020D01*
Y235606D01*
X67953D01*
Y236112D01*
X68453Y236319D01*
X68765Y236007D01*
X68765Y236007D01*
X69025Y235833D01*
X69332Y235772D01*
X69361Y235509D01*
X69366Y235461D01*
X69384Y235373D01*
X69393Y235125D01*
X69040Y234833D01*
X68862Y234798D01*
X68407Y234493D01*
X68102Y234038D01*
X67995Y233500D01*
X68102Y232962D01*
X68407Y232507D01*
X68862Y232202D01*
X69400Y232095D01*
X69862Y232187D01*
X70038Y232006D01*
X70156Y231774D01*
X67054Y228672D01*
X66844Y228776D01*
X66641Y228966D01*
X66747Y229500D01*
X66625Y230115D01*
X66277Y230635D01*
X65756Y230983D01*
X65142Y231106D01*
X60811D01*
X60197Y230983D01*
X59676Y230635D01*
X59344Y230139D01*
X51069D01*
X50862Y230639D01*
X52743Y232519D01*
X52903Y232488D01*
X53440Y232594D01*
X53896Y232899D01*
X54201Y233355D01*
X54308Y233892D01*
X54201Y234430D01*
X53896Y234886D01*
X53655Y235047D01*
Y235606D01*
X54910D01*
Y238951D01*
X57653D01*
Y237992D01*
D02*
G37*
G36*
X158506Y237165D02*
X162294D01*
X162294Y237165D01*
Y237165D01*
X162718Y236974D01*
X168153Y231539D01*
X168043Y231111D01*
X168000Y231039D01*
X162687D01*
Y232449D01*
X160400D01*
X158113D01*
Y231039D01*
X156253D01*
Y232294D01*
X152465D01*
Y232294D01*
X151965Y232199D01*
X151878Y232258D01*
Y233293D01*
X152072Y233713D01*
X153867D01*
Y236000D01*
X154359D01*
Y236492D01*
X156647D01*
Y238120D01*
X158506D01*
Y237165D01*
D02*
G37*
G36*
X79126Y234705D02*
X86213D01*
Y233720D01*
X79126D01*
Y227929D01*
X76779D01*
Y235000D01*
Y240496D01*
X79126D01*
Y234705D01*
D02*
G37*
G36*
X105974Y241331D02*
X105596Y240937D01*
X104579D01*
Y235426D01*
X105596D01*
X105974Y235032D01*
Y227552D01*
X104600D01*
X104600Y227552D01*
X104600Y227552D01*
X104202Y227816D01*
X104191Y227823D01*
X103993Y228119D01*
Y228495D01*
X104298Y228951D01*
X104405Y229488D01*
X104298Y230026D01*
X103993Y230482D01*
X103592Y230750D01*
X103483Y230966D01*
X103394Y231259D01*
X103568Y231432D01*
X103742Y231693D01*
X103803Y232000D01*
X103742Y232307D01*
X103568Y232568D01*
X103307Y232742D01*
X103000Y232803D01*
X102693Y232742D01*
X102432Y232568D01*
X102127Y232263D01*
X101665Y232454D01*
Y235287D01*
X101665Y235787D01*
X101665D01*
Y235787D01*
X101665D01*
Y240512D01*
X101665D01*
X101665Y241012D01*
Y242316D01*
X101920Y242422D01*
X102865Y243367D01*
X105974D01*
Y241331D01*
D02*
G37*
G36*
X218700Y243495D02*
X219118Y243578D01*
X219576Y243121D01*
Y213220D01*
X219557Y213208D01*
X219057Y213475D01*
Y221982D01*
X218870Y222434D01*
X216238Y225066D01*
X215786Y225253D01*
X144264D01*
X144230Y225239D01*
X143619D01*
X143587Y225255D01*
X143226Y225600D01*
Y235426D01*
X143421D01*
Y240937D01*
X143226D01*
Y241645D01*
X145985D01*
Y239528D01*
X147511D01*
Y237894D01*
X146347D01*
Y234106D01*
X149231D01*
X149692Y233645D01*
Y232687D01*
X148733D01*
Y230400D01*
Y228113D01*
X150528D01*
Y228860D01*
X150990Y229051D01*
X151801Y228240D01*
X151816Y228203D01*
X152163Y227857D01*
X152199Y227842D01*
X152493Y227548D01*
X152945Y227361D01*
X213100D01*
X213552Y227548D01*
X217320Y231316D01*
X217507Y231768D01*
Y232851D01*
X218443D01*
Y237576D01*
X217507D01*
Y240648D01*
X217893Y240907D01*
X218198Y241362D01*
X218305Y241900D01*
X218198Y242438D01*
X217893Y242893D01*
X217738Y242997D01*
X217748Y243278D01*
X217921Y243413D01*
X218247Y243585D01*
X218700Y243495D01*
D02*
G37*
G36*
X135591Y244213D02*
X135237Y243977D01*
X134932Y243521D01*
X134826Y242983D01*
X134932Y242446D01*
X135237Y241990D01*
X135693Y241685D01*
X136231Y241578D01*
X136768Y241685D01*
X136956Y241811D01*
X137356Y241645D01*
X142800D01*
Y240937D01*
X133579D01*
Y235426D01*
X136994D01*
X137261Y234926D01*
X137202Y234838D01*
X137095Y234300D01*
X137202Y233762D01*
X137506Y233307D01*
X137962Y233002D01*
X138500Y232895D01*
X139038Y233002D01*
X139494Y233307D01*
X139798Y233762D01*
X139905Y234300D01*
X139798Y234838D01*
X139739Y234926D01*
X140006Y235426D01*
X142800D01*
Y225600D01*
X142464Y225239D01*
X140008D01*
X139771Y225593D01*
X139316Y225898D01*
X138778Y226005D01*
X138240Y225898D01*
X137785Y225593D01*
X137480Y225138D01*
X137373Y224600D01*
X137480Y224062D01*
X137785Y223607D01*
X138240Y223302D01*
X138778Y223195D01*
X139316Y223302D01*
X139771Y223607D01*
X140008Y223961D01*
X142869D01*
X143057Y223728D01*
X147000D01*
Y222744D01*
X143327D01*
X143351Y222622D01*
X143699Y222101D01*
Y221813D01*
X143351Y221292D01*
X143327Y221169D01*
X147000D01*
Y220185D01*
X143327D01*
X143351Y220063D01*
X143699Y219542D01*
X143819Y219462D01*
X143983Y218970D01*
X143838Y218752D01*
X143398Y218570D01*
X141814Y216986D01*
X140418D01*
X134127Y223277D01*
Y233053D01*
X133940Y233505D01*
X132914Y234531D01*
Y237852D01*
X132727Y238304D01*
X124998Y246033D01*
X124546Y246220D01*
X106400D01*
Y246900D01*
X135591D01*
Y244213D01*
D02*
G37*
G36*
X81844Y218408D02*
X81877Y218260D01*
X81781Y217776D01*
X81888Y217238D01*
X82192Y216782D01*
X82474Y216594D01*
X82323Y216094D01*
X79724D01*
Y212306D01*
X83512D01*
Y213561D01*
X85898D01*
Y209239D01*
X83512D01*
Y210494D01*
X79724D01*
Y206706D01*
X83512D01*
Y207961D01*
X90267D01*
X90475Y207699D01*
X90260Y207213D01*
X89146D01*
Y204358D01*
X91803D01*
Y205780D01*
X92251Y205977D01*
X92591Y205716D01*
Y200913D01*
X98102D01*
Y205742D01*
X98134Y205755D01*
X98602Y205825D01*
X98844Y205463D01*
X99300Y205158D01*
X99838Y205052D01*
X100375Y205158D01*
X100831Y205463D01*
X101136Y205919D01*
X101243Y206456D01*
X101156Y206891D01*
X101163Y207402D01*
X101619Y207707D01*
X101923Y208162D01*
X102030Y208700D01*
X101985Y208928D01*
X102179Y209349D01*
X102357Y209426D01*
X102738Y209502D01*
X103193Y209807D01*
X103498Y210262D01*
X103605Y210800D01*
X103498Y211338D01*
X103668Y211984D01*
X103819Y212085D01*
X104123Y212540D01*
X104230Y213078D01*
X104180Y213329D01*
X104373Y213738D01*
X104552Y213825D01*
X104938Y213902D01*
X105394Y214207D01*
X105474Y214327D01*
X105974Y214175D01*
Y205898D01*
X104579D01*
Y200386D01*
X104579D01*
X104482Y199926D01*
X104200D01*
X103899Y199801D01*
X103774Y199500D01*
Y195546D01*
X103774Y195468D01*
X103844Y195075D01*
X103844Y195075D01*
Y191925D01*
X105596D01*
X105974Y191532D01*
Y189169D01*
X103765D01*
Y186020D01*
X105974D01*
Y183264D01*
X103844D01*
Y180114D01*
X109356D01*
Y180284D01*
X118231D01*
X118280Y179784D01*
X118031Y179734D01*
X117738Y179539D01*
X117161Y178962D01*
X116966Y178669D01*
X116897Y178323D01*
Y171501D01*
X116435Y171309D01*
X116011Y171734D01*
X115359D01*
Y169447D01*
X114867D01*
Y168954D01*
X112580D01*
Y168303D01*
X112739Y168143D01*
X112548Y167681D01*
X111405D01*
X111213Y168143D01*
X111373Y168303D01*
Y168954D01*
X109086D01*
X106799D01*
Y168303D01*
X106958Y168143D01*
X106767Y167681D01*
X105624D01*
X105432Y168143D01*
X105592Y168303D01*
Y168954D01*
X103305D01*
X101017D01*
Y168303D01*
X101177Y168143D01*
X100986Y167681D01*
X99843D01*
X99651Y168143D01*
X99811Y168303D01*
Y168954D01*
X97524D01*
X95236D01*
Y168303D01*
X95396Y168143D01*
X95205Y167681D01*
X94062D01*
X93870Y168143D01*
X94030Y168303D01*
Y168954D01*
X91743D01*
X89455D01*
Y168303D01*
X89615Y168143D01*
X89424Y167681D01*
X88281D01*
X88090Y168143D01*
X88249Y168303D01*
Y168954D01*
X85962D01*
X83675D01*
Y168303D01*
X83834Y168143D01*
X83643Y167681D01*
X82500D01*
X82309Y168143D01*
X82468Y168303D01*
Y168954D01*
X80181D01*
X77894D01*
Y168303D01*
X78080Y168116D01*
X78077Y168110D01*
X77823Y167666D01*
X77554Y167612D01*
X77261Y167416D01*
X76684Y166840D01*
X76488Y166547D01*
X76420Y166201D01*
Y165670D01*
X76294Y165222D01*
X72506D01*
Y161435D01*
X73761D01*
Y144915D01*
X72487D01*
Y140584D01*
X72631D01*
X72819Y140232D01*
X72852Y140084D01*
X72756Y139600D01*
X72852Y139116D01*
X72819Y138968D01*
X72631Y138616D01*
X72487D01*
Y134285D01*
X75834D01*
Y134285D01*
X76247D01*
Y134285D01*
X78742D01*
X78950Y133785D01*
X74830Y129665D01*
X72387D01*
Y129665D01*
X71914Y129729D01*
Y167795D01*
X72414Y168002D01*
X73256Y167159D01*
X73908D01*
Y169447D01*
Y171734D01*
X73256D01*
X72414Y170891D01*
X71914Y171098D01*
Y187173D01*
X71726Y187626D01*
X71668Y187684D01*
X71762Y188157D01*
X71655Y188694D01*
X71350Y189150D01*
X70894Y189455D01*
X70357Y189562D01*
X70352Y189561D01*
X69798Y189960D01*
X69783Y190075D01*
X72352Y192644D01*
X72539Y193096D01*
Y198412D01*
X73039Y198682D01*
X73475Y198595D01*
X73877Y198180D01*
Y197984D01*
X73925Y197867D01*
Y194638D01*
X74861D01*
Y185189D01*
X73925D01*
Y180465D01*
X77075D01*
Y185189D01*
X76139D01*
Y194638D01*
X77075D01*
Y199362D01*
X75261D01*
X74852Y199862D01*
X74880Y200000D01*
X74773Y200538D01*
X74727Y200606D01*
X74994Y201106D01*
X77335D01*
Y201420D01*
X77835Y201687D01*
X77962Y201602D01*
X78500Y201495D01*
X79038Y201602D01*
X79165Y201687D01*
X79665Y201420D01*
Y201106D01*
X83453D01*
Y201249D01*
X83915Y201441D01*
X85138Y200218D01*
X84946Y199756D01*
X84457D01*
Y197492D01*
X85933D01*
Y198769D01*
X86395Y198960D01*
X87180Y198176D01*
X87632Y197988D01*
X89693D01*
Y194724D01*
X90628D01*
Y185276D01*
X89693D01*
Y180551D01*
X92843D01*
Y185276D01*
X91907D01*
Y194724D01*
X92843D01*
Y195595D01*
X93343Y195862D01*
X93432Y195802D01*
X93970Y195695D01*
X94508Y195802D01*
X94964Y196107D01*
X95268Y196563D01*
X95375Y197100D01*
X95268Y197638D01*
X94964Y198094D01*
X94508Y198398D01*
X93970Y198505D01*
X93432Y198398D01*
X93343Y198338D01*
X92843Y198605D01*
Y199449D01*
X89693D01*
Y199267D01*
X87897D01*
X87106Y200058D01*
X87297Y200520D01*
X88161D01*
Y203374D01*
X85504D01*
Y202313D01*
X85042Y202121D01*
X83871Y203292D01*
X83453Y203466D01*
Y204894D01*
X79665D01*
Y204380D01*
X79165Y204113D01*
X79038Y204198D01*
X78500Y204305D01*
X77962Y204198D01*
X77835Y204113D01*
X77335Y204380D01*
Y204894D01*
X73547D01*
Y201464D01*
X73475Y201405D01*
X73039Y201318D01*
X72539Y201588D01*
Y215505D01*
X72713Y215635D01*
X73213Y215386D01*
Y214692D01*
X77787D01*
Y216473D01*
X77971D01*
X78423Y216661D01*
X79184Y217422D01*
X79372Y217874D01*
Y218298D01*
X79578Y218505D01*
X79684Y218760D01*
X81656D01*
X81844Y218408D01*
D02*
G37*
G36*
X165232Y219411D02*
X165227Y219374D01*
X164806Y219093D01*
X164502Y218638D01*
X164395Y218100D01*
X164502Y217562D01*
X164806Y217107D01*
X165262Y216802D01*
X165800Y216695D01*
X166338Y216802D01*
X166755Y217081D01*
X166975Y217170D01*
X167234Y216992D01*
X167227Y216421D01*
X167211Y216411D01*
X166950Y216020D01*
X166859Y215559D01*
X166950Y215098D01*
X167059Y214936D01*
X153260Y201137D01*
X152755Y201339D01*
X152551Y201644D01*
X152492Y202135D01*
Y202206D01*
X152494Y202206D01*
X152798Y202662D01*
X152905Y203200D01*
X152798Y203738D01*
X152494Y204193D01*
X152574Y204741D01*
X152779Y205049D01*
X152886Y205586D01*
X152779Y206124D01*
X152474Y206580D01*
X152112Y206821D01*
X152031Y207067D01*
X152023Y207134D01*
X152028Y207392D01*
X152068Y207432D01*
X152242Y207693D01*
X152303Y208000D01*
X152242Y208307D01*
X152068Y208568D01*
X151807Y208742D01*
X151500Y208803D01*
X151193Y208742D01*
X151107Y208685D01*
X150523D01*
X150301Y209017D01*
Y209230D01*
X150663Y209638D01*
X151441D01*
X151748Y209699D01*
X152009Y209873D01*
X152068Y209932D01*
X152242Y210193D01*
X152303Y210500D01*
X152242Y210807D01*
X152068Y211068D01*
X151807Y211242D01*
X151500Y211303D01*
X151203Y211244D01*
X150523D01*
X150301Y211576D01*
X150181Y211656D01*
X150017Y212148D01*
X150162Y212366D01*
X150602Y212548D01*
X150611Y212558D01*
X151670D01*
X151907Y212203D01*
X152362Y211899D01*
X152900Y211792D01*
X153438Y211899D01*
X153893Y212203D01*
X154198Y212659D01*
X154305Y213197D01*
X154198Y213735D01*
X153893Y214190D01*
Y214566D01*
X154198Y215021D01*
X154305Y215559D01*
X154198Y216097D01*
X153893Y216552D01*
Y216928D01*
X154198Y217384D01*
X154305Y217921D01*
X154198Y218459D01*
X153893Y218915D01*
X153438Y219219D01*
X152900Y219326D01*
X152362Y219219D01*
X151907Y218915D01*
X151670Y218561D01*
X150611D01*
X150602Y218570D01*
X150162Y218752D01*
X150017Y218970D01*
X150181Y219462D01*
X150301Y219542D01*
X150523Y219874D01*
X164931D01*
X165232Y219411D01*
D02*
G37*
G36*
X175400Y208057D02*
X174938Y207866D01*
X174470Y208334D01*
X174018Y208521D01*
X173387D01*
X173245Y208733D01*
X173020Y208884D01*
X173013Y208905D01*
Y209418D01*
X173020Y209439D01*
X173245Y209589D01*
X173506Y209980D01*
X173598Y210441D01*
X173506Y210902D01*
X173245Y211293D01*
X173020Y211443D01*
X173013Y211463D01*
Y211977D01*
X173020Y211998D01*
X173245Y212148D01*
X173506Y212539D01*
X173598Y213000D01*
X173506Y213461D01*
X173245Y213851D01*
X173020Y214002D01*
X173013Y214023D01*
Y214536D01*
X173020Y214557D01*
X173245Y214707D01*
X173506Y215098D01*
X173598Y215559D01*
X173506Y216020D01*
X173245Y216411D01*
X173020Y216561D01*
X173013Y216582D01*
Y217095D01*
X173020Y217116D01*
X173245Y217267D01*
X173506Y217657D01*
X173598Y218118D01*
X173506Y218579D01*
X173245Y218970D01*
X173409Y219462D01*
X173529Y219542D01*
X173877Y220063D01*
X173901Y220185D01*
X170228D01*
Y221169D01*
X173901D01*
X173877Y221292D01*
X173529Y221813D01*
Y222101D01*
X173877Y222622D01*
X173901Y222744D01*
X170228D01*
Y223728D01*
X174153D01*
X174350Y223975D01*
X175400D01*
Y208057D01*
D02*
G37*
G36*
X163586Y207834D02*
Y195394D01*
X162668D01*
Y191606D01*
X162207Y191511D01*
X162170D01*
X160727Y192954D01*
Y195453D01*
X159995D01*
X159886Y195698D01*
X159824Y195953D01*
X160098Y196362D01*
X160205Y196900D01*
X160098Y197438D01*
X159793Y197894D01*
X159338Y198198D01*
X158800Y198305D01*
X158262Y198198D01*
X157807Y197894D01*
X157502Y197438D01*
X157395Y196900D01*
X157502Y196362D01*
X157776Y195953D01*
X157722Y195734D01*
X157586Y195453D01*
X156940D01*
Y191665D01*
X158662D01*
X158712Y191165D01*
X158593Y191142D01*
X158332Y190968D01*
X158158Y190707D01*
X158097Y190400D01*
Y189728D01*
X156546D01*
Y187933D01*
X158833D01*
X161121D01*
Y189373D01*
X161199Y189466D01*
X161621Y189723D01*
X161792Y189689D01*
X162290D01*
X162668Y189394D01*
Y185606D01*
X166455D01*
Y188490D01*
X166836Y188870D01*
X167435D01*
X167887Y189058D01*
X168330Y189501D01*
X168786Y189249D01*
Y185606D01*
X172573D01*
Y188490D01*
X174938Y190854D01*
X175400Y190663D01*
Y179900D01*
X172573D01*
Y183394D01*
X168786D01*
Y182966D01*
X168286Y182699D01*
X168138Y182798D01*
X167600Y182905D01*
X167349Y182855D01*
X166849Y183211D01*
Y183787D01*
X165054D01*
Y181500D01*
X164069D01*
Y183787D01*
X162274D01*
Y182303D01*
X161087D01*
Y183747D01*
X159292D01*
Y181459D01*
X158308D01*
Y183747D01*
X156512D01*
Y182303D01*
X155246D01*
Y183787D01*
X153451D01*
Y181500D01*
X152959D01*
Y181008D01*
X150672D01*
Y179900D01*
X148735D01*
Y183394D01*
X145885D01*
X142827Y186451D01*
Y189335D01*
X141572D01*
Y190000D01*
X141385Y190452D01*
X140885Y190952D01*
X140433Y191139D01*
X134634D01*
X134616Y191165D01*
X134884Y191665D01*
X136860D01*
Y194549D01*
X138972Y196661D01*
X142478D01*
X142669Y196199D01*
X141923Y195453D01*
X139040D01*
Y191665D01*
X142827D01*
Y194549D01*
X145678Y197400D01*
X148412D01*
X148682Y196900D01*
X148595Y196465D01*
X148646Y196209D01*
X147890Y195453D01*
X145006D01*
Y191665D01*
X148794D01*
Y194549D01*
X149432Y195187D01*
X149462Y195167D01*
X150000Y195060D01*
X150473Y195154D01*
X150628Y195102D01*
X150973Y194856D01*
Y191665D01*
X154760D01*
Y195453D01*
X154411D01*
X154144Y195953D01*
X154269Y196140D01*
X154376Y196678D01*
X154269Y197215D01*
X153964Y197671D01*
X153640Y197888D01*
X153494Y198450D01*
X154555Y199510D01*
X154555Y199510D01*
X163086Y208041D01*
X163586Y207834D01*
D02*
G37*
G36*
X139702Y189835D02*
X139454Y189335D01*
X139040D01*
Y185547D01*
X141923D01*
X143183Y184287D01*
X142976Y183787D01*
X141492D01*
Y181500D01*
X140508D01*
Y183787D01*
X138713D01*
Y182303D01*
X137900D01*
X137593Y182242D01*
X137332Y182068D01*
X137276Y181983D01*
X136776Y182134D01*
Y183394D01*
X135521D01*
Y185547D01*
X136860D01*
Y189335D01*
X135203D01*
X135189Y189361D01*
X135488Y189861D01*
X139683D01*
X139702Y189835D01*
D02*
G37*
G36*
X144947Y182523D02*
Y179606D01*
X148430D01*
X148433Y179599D01*
X148735Y179474D01*
X150620D01*
X150672Y179474D01*
X151065Y179606D01*
X151065Y179606D01*
X154853D01*
Y180041D01*
X155353Y180308D01*
X155362Y180302D01*
X155900Y180195D01*
X156406Y180296D01*
X156449Y180295D01*
X156906Y180014D01*
Y179566D01*
X160693D01*
Y179714D01*
X161152Y179996D01*
X161193Y179996D01*
X161700Y179895D01*
X162168Y179988D01*
X162501Y179861D01*
X162668Y179772D01*
Y179606D01*
X166455D01*
Y180006D01*
X166955Y180273D01*
X167062Y180202D01*
X167600Y180095D01*
X168138Y180202D01*
X168286Y180301D01*
X168786Y180034D01*
Y179606D01*
X168849D01*
X168975Y179319D01*
X169002Y179106D01*
X165989Y176093D01*
X165802Y175641D01*
Y175394D01*
X164547D01*
Y174139D01*
X163600D01*
X163148Y173952D01*
X161948Y172752D01*
X161761Y172300D01*
Y166865D01*
X158439Y163543D01*
X128886D01*
X128844Y163526D01*
X125804D01*
X125352Y163338D01*
X124853Y162840D01*
X124045D01*
X123808Y163194D01*
X123465Y163423D01*
X123357Y163932D01*
X123358Y163981D01*
X123583Y164261D01*
X128900D01*
X129352Y164448D01*
X129952Y165048D01*
X130139Y165500D01*
Y166136D01*
X130493Y166373D01*
X130798Y166829D01*
X130905Y167366D01*
Y171303D01*
X130798Y171841D01*
X130493Y172297D01*
X130038Y172601D01*
X129500Y172708D01*
X128962Y172601D01*
X128507Y172297D01*
X128202Y171841D01*
X128095Y171303D01*
Y167366D01*
X128202Y166829D01*
X128507Y166373D01*
X128560Y165781D01*
X128333Y165539D01*
X124941D01*
X124892Y166039D01*
X125038Y166068D01*
X125494Y166373D01*
X125798Y166829D01*
X125905Y167366D01*
Y171303D01*
X125798Y171841D01*
X125494Y172297D01*
X125139Y172533D01*
Y174106D01*
X125235D01*
Y174520D01*
X125735Y174787D01*
X125862Y174702D01*
X126400Y174595D01*
X126938Y174702D01*
X127065Y174787D01*
X127565Y174520D01*
Y174106D01*
X131353D01*
Y175361D01*
X138226D01*
X138493Y174861D01*
X138478Y174838D01*
X138371Y174300D01*
X138454Y173882D01*
X136269Y171698D01*
X135997Y171781D01*
X135761Y171896D01*
X135494Y172297D01*
X135038Y172601D01*
X134500Y172708D01*
X133962Y172601D01*
X133507Y172297D01*
X133202Y171841D01*
X133095Y171303D01*
Y167366D01*
X133202Y166829D01*
X133507Y166373D01*
X133962Y166068D01*
X134500Y165961D01*
X135038Y166068D01*
X135494Y166373D01*
X135798Y166829D01*
X135905Y167366D01*
Y169525D01*
X137595Y171215D01*
X138095Y171008D01*
Y167366D01*
X138202Y166829D01*
X138506Y166373D01*
X138962Y166068D01*
X139500Y165961D01*
X140038Y166068D01*
X140494Y166373D01*
X140798Y166829D01*
X140905Y167366D01*
Y169836D01*
X142590Y171520D01*
X142664Y171700D01*
X143145Y171554D01*
X143095Y171303D01*
Y167366D01*
X143202Y166829D01*
X143507Y166373D01*
X143962Y166068D01*
X144500Y165961D01*
X145038Y166068D01*
X145493Y166373D01*
X145798Y166829D01*
X145905Y167366D01*
Y171303D01*
X145855Y171554D01*
X146336Y171700D01*
X146410Y171520D01*
X148095Y169836D01*
Y167366D01*
X148202Y166829D01*
X148506Y166373D01*
X148962Y166068D01*
X149500Y165961D01*
X150038Y166068D01*
X150494Y166373D01*
X150798Y166829D01*
X150905Y167366D01*
Y171008D01*
X151405Y171215D01*
X153095Y169525D01*
Y167366D01*
X153202Y166829D01*
X153507Y166373D01*
X153962Y166068D01*
X154500Y165961D01*
X155038Y166068D01*
X155493Y166373D01*
X155798Y166829D01*
X155905Y167366D01*
Y171303D01*
X155798Y171841D01*
X155493Y172297D01*
X155038Y172601D01*
X154500Y172708D01*
X153962Y172601D01*
X153507Y172297D01*
X153239Y171896D01*
X153003Y171781D01*
X152731Y171698D01*
X150546Y173882D01*
X150629Y174300D01*
X150522Y174838D01*
X150218Y175294D01*
X149762Y175598D01*
X149224Y175705D01*
X148687Y175598D01*
X148231Y175294D01*
X147856D01*
X147400Y175598D01*
X146862Y175705D01*
X146325Y175598D01*
X145869Y175294D01*
X145493D01*
X145038Y175598D01*
X144500Y175705D01*
X143962Y175598D01*
X143507Y175294D01*
X143131D01*
X142675Y175598D01*
X142138Y175705D01*
X141720Y175622D01*
X140890Y176452D01*
X140438Y176639D01*
X131353D01*
Y177894D01*
X128158D01*
X127971Y178394D01*
X128580Y179002D01*
X128776Y179296D01*
X128844Y179641D01*
Y179821D01*
X129285Y180082D01*
X129766Y179909D01*
X129792Y179846D01*
X129839Y179826D01*
X129869Y179785D01*
X130266Y179538D01*
X130383Y179519D01*
X130491Y179474D01*
X132988D01*
X133290Y179599D01*
X133293Y179606D01*
X136776D01*
Y179993D01*
X137276Y180260D01*
X137362Y180202D01*
X137900Y180095D01*
X138438Y180202D01*
X138606Y180315D01*
X139106Y180047D01*
Y179606D01*
X142894D01*
Y182960D01*
X143139Y183394D01*
X143199Y183454D01*
X143277Y183486D01*
X143492Y183579D01*
X143863Y183608D01*
X144947Y182523D01*
D02*
G37*
G36*
X217779Y221717D02*
Y212075D01*
X216205Y210501D01*
X216017Y210049D01*
Y195418D01*
X216205Y194966D01*
X231883Y179288D01*
X232335Y179101D01*
X236899D01*
X237069Y178601D01*
X236973Y178527D01*
X236405Y177787D01*
X236048Y176925D01*
X236010Y176639D01*
X229111D01*
X224103Y181648D01*
X224101Y182248D01*
X224406Y182704D01*
X224513Y183241D01*
X224406Y183779D01*
X224101Y184235D01*
X223645Y184539D01*
X223108Y184646D01*
X222570Y184539D01*
X222114Y184235D01*
X221878Y183880D01*
X183350D01*
X182898Y183693D01*
X178544Y179339D01*
X176095D01*
X175801Y179839D01*
X175826Y179900D01*
Y190663D01*
X175794Y190741D01*
Y190826D01*
X175734Y190886D01*
X175701Y190964D01*
X175542Y191459D01*
X175752Y191668D01*
X175939Y192120D01*
Y206600D01*
X175752Y207052D01*
X175542Y207262D01*
X175701Y207756D01*
X175734Y207834D01*
X175794Y207894D01*
Y207979D01*
X175826Y208057D01*
Y223975D01*
X215521D01*
X217779Y221717D01*
D02*
G37*
G36*
X192222Y174399D02*
X192391Y173961D01*
X192175Y173638D01*
X192068Y173100D01*
X192175Y172562D01*
X192418Y172199D01*
X192310Y171863D01*
X192196Y171699D01*
X192095Y171699D01*
X191702D01*
X191595Y171699D01*
X189446D01*
X189339Y171699D01*
X188946D01*
X188839Y171699D01*
X186583D01*
Y159101D01*
X188839D01*
X188946Y159101D01*
X189339D01*
X189446Y159101D01*
X191595D01*
X191702Y159101D01*
X192137D01*
X192637Y158945D01*
Y151681D01*
X192207Y151393D01*
X191902Y150938D01*
X191795Y150400D01*
X191902Y149862D01*
X192207Y149407D01*
X192208Y149405D01*
X192314Y148733D01*
X192239Y148639D01*
X174453D01*
Y149894D01*
X170665D01*
Y146106D01*
X171920D01*
Y145303D01*
X171607Y145094D01*
X171302Y144638D01*
X171195Y144100D01*
X171302Y143562D01*
X171607Y143106D01*
X172062Y142802D01*
X172600Y142695D01*
X173138Y142802D01*
X173593Y143106D01*
X173898Y143562D01*
X174005Y144100D01*
X173898Y144638D01*
X173593Y145094D01*
X173198Y145358D01*
Y146106D01*
X174453D01*
Y147361D01*
X196200D01*
X196652Y147548D01*
X199252Y150148D01*
X199439Y150600D01*
Y153655D01*
X201072Y155288D01*
X201194Y155257D01*
X201220Y155227D01*
X201375Y154697D01*
X201202Y154438D01*
X201095Y153900D01*
X201202Y153362D01*
X201506Y152907D01*
X201962Y152602D01*
X202500Y152495D01*
X203038Y152602D01*
X203493Y152907D01*
X203797Y153361D01*
X236537D01*
X236933Y153525D01*
X236973Y153473D01*
X237713Y152905D01*
X238575Y152548D01*
X239500Y152426D01*
X240425Y152548D01*
X241287Y152905D01*
X242027Y153473D01*
X242595Y154213D01*
X242952Y155075D01*
X242953Y155080D01*
X243453Y155048D01*
Y152908D01*
X243640Y152456D01*
X246808Y149288D01*
X247026Y149198D01*
X247119Y148639D01*
X246973Y148527D01*
X246405Y147787D01*
X246048Y146925D01*
X245926Y146000D01*
X246048Y145075D01*
X246405Y144213D01*
X246580Y143984D01*
X244635Y142039D01*
X240392D01*
X240359Y142539D01*
X240425Y142548D01*
X241287Y142905D01*
X242027Y143473D01*
X242595Y144213D01*
X242952Y145075D01*
X243074Y146000D01*
X242952Y146925D01*
X242595Y147787D01*
X242027Y148527D01*
X241287Y149095D01*
X240425Y149452D01*
X239500Y149574D01*
X238575Y149452D01*
X237713Y149095D01*
X237484Y148920D01*
X235352Y151052D01*
X234900Y151239D01*
X203730D01*
X203493Y151593D01*
X203038Y151898D01*
X202500Y152005D01*
X201962Y151898D01*
X201506Y151593D01*
X201202Y151138D01*
X201095Y150600D01*
X201202Y150062D01*
X201506Y149607D01*
X201962Y149302D01*
X202500Y149195D01*
X203038Y149302D01*
X203493Y149607D01*
X203730Y149961D01*
X234635D01*
X236580Y148016D01*
X236405Y147787D01*
X236048Y146925D01*
X235926Y146000D01*
X236048Y145075D01*
X236405Y144213D01*
X236973Y143473D01*
X237713Y142905D01*
X238575Y142548D01*
X238641Y142539D01*
X238608Y142039D01*
X220900D01*
X220448Y141852D01*
X185635Y107039D01*
X135100D01*
X134648Y106852D01*
X131367Y103571D01*
X130867Y103778D01*
Y104335D01*
X126791D01*
Y101440D01*
X127793D01*
X128203Y100940D01*
X128195Y100900D01*
X128302Y100362D01*
X128451Y100139D01*
X128184Y99639D01*
X126600D01*
X126148Y99452D01*
X113249Y86553D01*
X113086Y86159D01*
X111240D01*
X110587Y86029D01*
X110034Y85659D01*
X109664Y85106D01*
X109534Y84453D01*
Y81894D01*
X109547Y81830D01*
X109136Y81339D01*
X107827D01*
X107777Y81839D01*
X108038Y81891D01*
X108493Y82196D01*
X108798Y82651D01*
X108905Y83189D01*
Y87126D01*
X108798Y87664D01*
X108493Y88119D01*
X108139Y88356D01*
Y91800D01*
X107952Y92252D01*
X106252Y93952D01*
X105800Y94139D01*
X85453D01*
Y95394D01*
X81665D01*
Y91606D01*
X82920D01*
Y89494D01*
X81665D01*
Y85706D01*
X82920D01*
Y84441D01*
X83107Y83989D01*
X85676Y81420D01*
X85931Y81314D01*
Y77738D01*
X89868D01*
Y82462D01*
X86639D01*
X86522Y82511D01*
X86393D01*
X84198Y84706D01*
Y85706D01*
X85453D01*
Y89494D01*
X84198D01*
Y91606D01*
X85453D01*
Y92861D01*
X105535D01*
X106861Y91535D01*
Y88356D01*
X106507Y88119D01*
X106202Y87664D01*
X106095Y87126D01*
Y83189D01*
X106202Y82651D01*
X106507Y82196D01*
X106962Y81891D01*
X107223Y81839D01*
X107173Y81339D01*
X102827D01*
X102777Y81839D01*
X103038Y81891D01*
X103493Y82196D01*
X103798Y82651D01*
X103905Y83189D01*
Y87126D01*
X103798Y87664D01*
X103582Y87986D01*
X103594Y88507D01*
X103898Y88962D01*
X104005Y89500D01*
X103898Y90038D01*
X103594Y90493D01*
X103138Y90798D01*
X102600Y90905D01*
X102062Y90798D01*
X101607Y90493D01*
X101302Y90038D01*
X101195Y89500D01*
X101302Y88962D01*
X101518Y88640D01*
X101507Y88119D01*
X101202Y87664D01*
X101095Y87126D01*
Y83189D01*
X101202Y82651D01*
X101507Y82196D01*
X101962Y81891D01*
X102223Y81839D01*
X102173Y81339D01*
X98165D01*
X98139Y81365D01*
Y81959D01*
X98493Y82196D01*
X98798Y82651D01*
X98905Y83189D01*
Y87126D01*
X98798Y87664D01*
X98493Y88119D01*
X98038Y88424D01*
X97500Y88531D01*
X96962Y88424D01*
X96507Y88119D01*
X96202Y87664D01*
X96095Y87126D01*
Y83189D01*
X96202Y82651D01*
X96507Y82196D01*
X96861Y81959D01*
Y81100D01*
X97010Y80739D01*
X96874Y80409D01*
X96750Y80239D01*
X94565D01*
X93493Y81311D01*
X93700Y81811D01*
X93878D01*
Y88504D01*
X91122D01*
Y81811D01*
X91861D01*
Y81400D01*
X92048Y80948D01*
X93848Y79148D01*
X94300Y78961D01*
X104308D01*
X104499Y78499D01*
X100937Y74937D01*
X98244D01*
Y67063D01*
X100883D01*
X105598Y62348D01*
X106050Y62161D01*
X108004D01*
X108274Y61757D01*
X108730Y61452D01*
X109268Y61345D01*
X109805Y61452D01*
X110128Y61668D01*
X110636Y61807D01*
X111092Y61502D01*
X111630Y61395D01*
X112168Y61502D01*
X112623Y61807D01*
X112999D01*
X113454Y61502D01*
X113992Y61395D01*
X114410Y61478D01*
X114928Y60960D01*
Y58606D01*
X115115Y58154D01*
X117396Y55873D01*
X117848Y55686D01*
X127952D01*
X128404Y55873D01*
X133992Y61461D01*
X152327D01*
X152779Y61648D01*
X156715Y65584D01*
X157177Y65393D01*
Y63043D01*
X165839D01*
Y64766D01*
X173705D01*
X174158Y64954D01*
X185398Y76195D01*
X228880D01*
X229332Y76382D01*
X229526Y76575D01*
X229988Y76384D01*
Y74106D01*
X231243D01*
Y52247D01*
X229331Y50335D01*
X228831Y50542D01*
Y51862D01*
X220169D01*
Y47138D01*
X228831D01*
Y48861D01*
X229400D01*
X229852Y49048D01*
X232334Y51530D01*
X232521Y51982D01*
Y74106D01*
X233776D01*
Y77894D01*
X234165Y78161D01*
X235717D01*
X236106Y77894D01*
X236106Y77661D01*
Y74106D01*
X239894D01*
Y74481D01*
X240394Y74748D01*
X240462Y74702D01*
X241000Y74595D01*
X241538Y74702D01*
X241606Y74748D01*
X242106Y74481D01*
Y74106D01*
X245894D01*
Y77661D01*
X245894Y77894D01*
X246283Y78161D01*
X247053D01*
X248224Y76990D01*
Y74106D01*
X249479D01*
Y72083D01*
X246548Y69152D01*
X246361Y68700D01*
Y46084D01*
X245226Y44949D01*
X242193D01*
Y40224D01*
X243128D01*
Y30776D01*
X242193D01*
Y26051D01*
X245342D01*
Y30776D01*
X244407D01*
Y40224D01*
X245342D01*
Y43502D01*
X245761Y43676D01*
X247452Y45367D01*
X247639Y45819D01*
Y50206D01*
X247731Y50276D01*
X248139Y50387D01*
X248165Y50342D01*
Y46606D01*
X251953D01*
Y50394D01*
X250753D01*
X250485Y50894D01*
X250598Y51062D01*
X250705Y51600D01*
X250693Y51657D01*
X251104Y52157D01*
X251740D01*
Y54421D01*
X250264D01*
Y53126D01*
X250244Y53115D01*
X249764Y52913D01*
X249300Y53005D01*
X248762Y52898D01*
X248307Y52593D01*
X248139Y52343D01*
X247639Y52495D01*
Y68435D01*
X249802Y70598D01*
X250264Y70407D01*
Y69579D01*
X251740D01*
Y71842D01*
X250757D01*
Y74106D01*
X252012D01*
Y77894D01*
X249128D01*
X247770Y79252D01*
X247318Y79439D01*
X230847D01*
X230395Y79252D01*
X228616Y77473D01*
X185134D01*
X184682Y77286D01*
X173441Y66045D01*
X165839D01*
Y67768D01*
X165839D01*
X165855Y68261D01*
X172027D01*
X172479Y68448D01*
X194827Y90796D01*
X195014Y91248D01*
Y92383D01*
X195138Y92832D01*
X199862D01*
Y101493D01*
X196647D01*
X196456Y101955D01*
X196934Y102434D01*
X198310D01*
X198761Y102621D01*
X220901Y124761D01*
X234546D01*
X237499Y121808D01*
X237951Y121621D01*
X241049D01*
X241501Y121808D01*
X243692Y123999D01*
X243879Y124451D01*
Y127549D01*
X243692Y128001D01*
X240139Y131554D01*
Y132510D01*
X240425Y132548D01*
X241287Y132905D01*
X242027Y133473D01*
X242595Y134213D01*
X242952Y135075D01*
X243074Y136000D01*
X242952Y136925D01*
X242595Y137787D01*
X242027Y138527D01*
X241287Y139095D01*
X240425Y139452D01*
X239500Y139574D01*
X238575Y139452D01*
X237713Y139095D01*
X236973Y138527D01*
X236405Y137787D01*
X236048Y136925D01*
X235926Y136000D01*
X236048Y135075D01*
X236405Y134213D01*
X236973Y133473D01*
X237713Y132905D01*
X238575Y132548D01*
X238861Y132510D01*
Y131289D01*
X239048Y130837D01*
X239854Y130032D01*
X239620Y129558D01*
X239500Y129574D01*
X238575Y129452D01*
X237713Y129095D01*
X236973Y128527D01*
X236405Y127787D01*
X236048Y126925D01*
X236035Y126827D01*
X230588D01*
X230318Y127327D01*
X230405Y127762D01*
X230298Y128300D01*
X229993Y128756D01*
X229538Y129060D01*
X229000Y129167D01*
X228462Y129060D01*
X228007Y128756D01*
X227702Y128300D01*
X227595Y127762D01*
X227473Y127614D01*
X223787D01*
X223695Y127736D01*
X223565Y128114D01*
X223798Y128462D01*
X223905Y129000D01*
X223798Y129538D01*
X223493Y129993D01*
X223038Y130298D01*
X222500Y130405D01*
X221962Y130298D01*
X221507Y129993D01*
X221202Y129538D01*
X221095Y129000D01*
X221125Y128849D01*
X220743Y128401D01*
X219658D01*
X219206Y128214D01*
X197066Y106075D01*
X195691D01*
X195239Y105887D01*
X193891Y104539D01*
X160900D01*
X160448Y104352D01*
X154448Y98352D01*
X154261Y97900D01*
Y87865D01*
X149189Y82793D01*
X148727Y82984D01*
Y83035D01*
X144940D01*
Y79247D01*
X146194D01*
Y77098D01*
X140735Y71639D01*
X132102D01*
Y74937D01*
X128559D01*
Y67063D01*
X129668D01*
X129682Y66563D01*
X126558Y63439D01*
X123189D01*
X123070Y63852D01*
X123066Y63939D01*
X126190Y67063D01*
X127772D01*
Y74937D01*
X124228D01*
Y67063D01*
X124228Y67063D01*
X124228D01*
X123988Y66669D01*
X122333Y65014D01*
X120426D01*
X119975Y64827D01*
X119651Y65193D01*
X121103Y66645D01*
X121276Y67063D01*
X123441D01*
Y74937D01*
X119898D01*
Y67247D01*
X119537Y66887D01*
X119110Y67167D01*
Y74937D01*
X118579D01*
X118372Y75437D01*
X119232Y76297D01*
X131459D01*
X131766Y76358D01*
X132027Y76532D01*
X134742Y79247D01*
X135376D01*
Y78921D01*
X135437Y78614D01*
X135611Y78353D01*
X136999Y76965D01*
X136955Y76740D01*
X137062Y76203D01*
X137366Y75747D01*
X137822Y75442D01*
X138360Y75335D01*
X138897Y75442D01*
X139353Y75747D01*
X139658Y76203D01*
X139765Y76740D01*
X139658Y77278D01*
X139353Y77734D01*
X138897Y78038D01*
X138360Y78145D01*
X138135Y78101D01*
X137275Y78961D01*
X137394Y79247D01*
X137394D01*
Y82961D01*
X138443D01*
X139273Y82131D01*
Y79247D01*
X143060D01*
Y83035D01*
X140177D01*
X139160Y84052D01*
X138708Y84239D01*
X134124D01*
X133672Y84052D01*
X132957Y83337D01*
X132957Y83337D01*
X130895Y81275D01*
X130433Y81466D01*
Y86126D01*
X126938D01*
Y87934D01*
X131465Y92461D01*
X133629D01*
Y91206D01*
X137417D01*
Y94994D01*
X133629D01*
Y93739D01*
X131200D01*
X130748Y93552D01*
X125847Y88651D01*
X125660Y88199D01*
Y86126D01*
X122165D01*
Y83812D01*
X121167D01*
X120715Y83625D01*
X118218Y81128D01*
X117766Y81383D01*
X117867Y81894D01*
Y84453D01*
X117738Y85106D01*
X117368Y85659D01*
X116814Y86029D01*
X116161Y86159D01*
X115316D01*
X115125Y86621D01*
X126865Y98361D01*
X133629D01*
Y97106D01*
X137417D01*
Y100894D01*
X133629D01*
Y99639D01*
X131016D01*
X130749Y100139D01*
X130898Y100362D01*
X131005Y100900D01*
X130922Y101318D01*
X135365Y105761D01*
X185900D01*
X186352Y105948D01*
X221165Y140761D01*
X244900D01*
X245352Y140948D01*
X247484Y143080D01*
X247713Y142905D01*
X248575Y142548D01*
X249500Y142426D01*
X250425Y142548D01*
X251287Y142905D01*
X252027Y143473D01*
X252207Y143708D01*
X252707Y143538D01*
Y138462D01*
X252207Y138292D01*
X252027Y138527D01*
X251287Y139095D01*
X250425Y139452D01*
X249500Y139574D01*
X248575Y139452D01*
X247713Y139095D01*
X246973Y138527D01*
X246405Y137787D01*
X246048Y136925D01*
X245926Y136000D01*
X246048Y135075D01*
X246405Y134213D01*
X246973Y133473D01*
X247713Y132905D01*
X248575Y132548D01*
X249500Y132426D01*
X250425Y132548D01*
X251287Y132905D01*
X252027Y133473D01*
X252207Y133708D01*
X252707Y133538D01*
Y128462D01*
X252207Y128292D01*
X252027Y128527D01*
X251287Y129095D01*
X250425Y129452D01*
X249500Y129574D01*
X248575Y129452D01*
X247713Y129095D01*
X246973Y128527D01*
X246405Y127787D01*
X246048Y126925D01*
X245926Y126000D01*
X246048Y125075D01*
X246405Y124213D01*
X246973Y123473D01*
X247713Y122905D01*
X248575Y122548D01*
X249500Y122426D01*
X250425Y122548D01*
X251287Y122905D01*
X252027Y123473D01*
X252207Y123708D01*
X252707Y123538D01*
Y118462D01*
X252207Y118292D01*
X252027Y118527D01*
X251287Y119095D01*
X250425Y119452D01*
X249500Y119574D01*
X248575Y119452D01*
X247713Y119095D01*
X246973Y118527D01*
X246405Y117787D01*
X246048Y116925D01*
X245926Y116000D01*
X246048Y115075D01*
X246405Y114213D01*
X246973Y113473D01*
X247713Y112905D01*
X248575Y112548D01*
X249500Y112426D01*
X250425Y112548D01*
X251287Y112905D01*
X252027Y113473D01*
X252207Y113708D01*
X252707Y113538D01*
Y108462D01*
X252207Y108292D01*
X252027Y108527D01*
X251287Y109095D01*
X250425Y109452D01*
X249500Y109574D01*
X248575Y109452D01*
X247713Y109095D01*
X246973Y108527D01*
X246405Y107787D01*
X246048Y106925D01*
X245926Y106000D01*
X246048Y105075D01*
X246405Y104213D01*
X246973Y103473D01*
X247713Y102905D01*
X248575Y102548D01*
X249500Y102426D01*
X250425Y102548D01*
X251287Y102905D01*
X252027Y103473D01*
X252207Y103708D01*
X252707Y103538D01*
Y98462D01*
X252207Y98292D01*
X252027Y98527D01*
X251287Y99095D01*
X250425Y99452D01*
X249500Y99574D01*
X248575Y99452D01*
X247713Y99095D01*
X247484Y98920D01*
X243692Y102712D01*
X243240Y102899D01*
X242101D01*
X241931Y103399D01*
X242027Y103473D01*
X242595Y104213D01*
X242952Y105075D01*
X243074Y106000D01*
X242952Y106925D01*
X242595Y107787D01*
X242027Y108527D01*
X241287Y109095D01*
X240425Y109452D01*
X239500Y109574D01*
X238575Y109452D01*
X237713Y109095D01*
X236973Y108527D01*
X236405Y107787D01*
X236048Y106925D01*
X235926Y106000D01*
X236048Y105075D01*
X236200Y104708D01*
X235866Y104208D01*
X217296D01*
X212322Y109182D01*
X212405Y109600D01*
X212298Y110138D01*
X211993Y110593D01*
X211538Y110898D01*
X211000Y111005D01*
X210462Y110898D01*
X210007Y110593D01*
X209702Y110138D01*
X209595Y109600D01*
X209702Y109062D01*
X210007Y108607D01*
X210462Y108302D01*
X211000Y108195D01*
X211418Y108278D01*
X216579Y103117D01*
X217031Y102929D01*
X236377D01*
X237499Y101808D01*
X237951Y101621D01*
X242975D01*
X246580Y98016D01*
X246405Y97787D01*
X246048Y96925D01*
X245926Y96000D01*
X246048Y95075D01*
X246405Y94213D01*
X246973Y93473D01*
X247713Y92905D01*
X248575Y92548D01*
X249500Y92426D01*
X250425Y92548D01*
X251287Y92905D01*
X252027Y93473D01*
X252207Y93708D01*
X252707Y93538D01*
Y90111D01*
X251516Y88920D01*
X251287Y89095D01*
X250425Y89452D01*
X249500Y89574D01*
X248575Y89452D01*
X247713Y89095D01*
X246973Y88527D01*
X246405Y87787D01*
X246048Y86925D01*
X245926Y86000D01*
X246048Y85075D01*
X246405Y84213D01*
X246973Y83473D01*
X247713Y82905D01*
X248575Y82548D01*
X249500Y82426D01*
X250425Y82548D01*
X251287Y82905D01*
X252027Y83473D01*
X252595Y84213D01*
X252952Y85075D01*
X252997Y85416D01*
X253497Y85384D01*
Y71842D01*
X252724D01*
Y69087D01*
Y66331D01*
X253497D01*
Y57669D01*
X252724D01*
Y54913D01*
Y52157D01*
X253497D01*
Y45342D01*
X252724D01*
Y42587D01*
Y39831D01*
X253497D01*
Y31169D01*
X252724D01*
Y28413D01*
Y25657D01*
X253497D01*
Y14276D01*
X253497Y14273D01*
X253497Y13780D01*
X253489Y13283D01*
X253388Y11996D01*
X252970Y10256D01*
X252286Y8603D01*
X251351Y7077D01*
X250189Y5717D01*
X248828Y4555D01*
X247303Y3620D01*
X245650Y2935D01*
X243910Y2517D01*
X242239Y2386D01*
X242126Y2409D01*
X226602D01*
Y24400D01*
X226477Y24701D01*
X226176Y24826D01*
X159876D01*
X159575Y24701D01*
X159450Y24400D01*
Y2409D01*
X13780D01*
X13666Y2386D01*
X11996Y2517D01*
X10256Y2935D01*
X8603Y3620D01*
X7077Y4555D01*
X5717Y5717D01*
X4555Y7077D01*
X3620Y8603D01*
X2935Y10256D01*
X2517Y11996D01*
X2386Y13666D01*
X2409Y13780D01*
Y52696D01*
X6088D01*
Y52034D01*
X6275Y51582D01*
X6505Y51351D01*
X6807Y51226D01*
Y46606D01*
X10249D01*
X10440Y46144D01*
X7815Y43519D01*
X7395Y43694D01*
Y43694D01*
X3007D01*
Y39306D01*
X7395D01*
Y41535D01*
X7813Y41709D01*
X9651Y43547D01*
X10113Y43356D01*
Y41992D01*
X12209D01*
Y44087D01*
X10845D01*
X10653Y44549D01*
X14024Y47920D01*
X16606D01*
Y46665D01*
X20394D01*
Y47920D01*
X22606D01*
Y46665D01*
X24884D01*
X25076Y46203D01*
X24048Y45176D01*
X23861Y44724D01*
Y44335D01*
X22606D01*
Y40547D01*
X26394D01*
Y44335D01*
X25722D01*
X25515Y44835D01*
X27042Y46363D01*
X27230Y46814D01*
Y48526D01*
X28982Y50278D01*
X29400Y50195D01*
X29938Y50302D01*
X30393Y50607D01*
X30698Y51062D01*
X30805Y51600D01*
X30698Y52138D01*
X30627Y52244D01*
X30926Y52696D01*
X31152Y52696D01*
X39404D01*
Y61357D01*
X30742D01*
Y53129D01*
X30742Y52916D01*
X30716Y52891D01*
X30244Y52694D01*
X29938Y52898D01*
X29400Y53005D01*
X28862Y52898D01*
X28407Y52593D01*
X28102Y52138D01*
X27995Y51600D01*
X28078Y51182D01*
X26856Y49960D01*
X26394Y50151D01*
Y50453D01*
X22606D01*
Y49198D01*
X20394D01*
Y50453D01*
X16606D01*
Y49198D01*
X13759D01*
X13307Y49011D01*
X11656Y47360D01*
X11195Y47552D01*
Y52394D01*
X11195D01*
X11057Y52696D01*
Y61357D01*
X2409D01*
Y81042D01*
X11057D01*
Y89704D01*
X2409D01*
Y118015D01*
X2908Y118074D01*
X3283Y116513D01*
X3969Y114858D01*
X4904Y113331D01*
X6067Y111969D01*
X7429Y110806D01*
X8956Y109870D01*
X10611Y109185D01*
X12352Y108767D01*
X14098Y108629D01*
X14138Y108613D01*
X24802D01*
X25006Y108307D01*
X25462Y108002D01*
X26000Y107895D01*
X26538Y108002D01*
X26994Y108307D01*
X27074Y108427D01*
X27433Y108457D01*
X27854Y108064D01*
Y106299D01*
Y102665D01*
X27854Y102362D01*
X27854Y101862D01*
Y99860D01*
X27638Y99666D01*
X27354Y99514D01*
X26972Y99537D01*
X26620Y100065D01*
X26066Y100434D01*
X25413Y100564D01*
X24760Y100434D01*
X24207Y100065D01*
X23837Y99511D01*
X23707Y98858D01*
X23837Y98205D01*
X24207Y97652D01*
X24760Y97282D01*
X25413Y97152D01*
X26066Y97282D01*
X26620Y97652D01*
X26700Y97771D01*
X27379Y97897D01*
X27461Y97840D01*
Y95637D01*
X25335D01*
X24413Y95454D01*
X23632Y94931D01*
X23110Y94150D01*
X22926Y93228D01*
X23110Y92307D01*
X23632Y91525D01*
X24413Y91003D01*
X25335Y90820D01*
X29665D01*
X30587Y91003D01*
X31368Y91525D01*
X31890Y92307D01*
X32074Y93228D01*
X31890Y94150D01*
X31368Y94931D01*
X31160Y95071D01*
X31311Y95571D01*
X34744D01*
Y97047D01*
X31102D01*
Y98032D01*
X34744D01*
Y99508D01*
X34350D01*
X34350Y102354D01*
X34704Y102707D01*
X36106D01*
Y101665D01*
X39894D01*
Y105453D01*
X36106D01*
Y103986D01*
X34350D01*
Y107038D01*
X34677D01*
X35129Y107225D01*
X35213Y107309D01*
X35713Y107102D01*
Y107053D01*
X37508D01*
Y109341D01*
X38492D01*
Y107053D01*
X40074D01*
X40574Y106672D01*
Y100110D01*
X40287Y99728D01*
X40074Y99728D01*
X38492D01*
Y97441D01*
Y95153D01*
X40074D01*
X40574Y94772D01*
Y84000D01*
X40699Y83699D01*
X41000Y83574D01*
X50000D01*
X50301Y83699D01*
X50426Y84000D01*
X50426Y97274D01*
X50426Y97774D01*
X51774D01*
Y83800D01*
X51899Y83499D01*
X52200Y83374D01*
X66100D01*
X66401Y83499D01*
X66526Y83800D01*
Y86718D01*
X67112D01*
Y86036D01*
X68908D01*
Y88324D01*
Y90611D01*
X67112D01*
Y89929D01*
X66526D01*
Y105000D01*
X66401Y105301D01*
X66100Y105426D01*
X66120Y105918D01*
X67923D01*
X67979Y105835D01*
X67711Y105335D01*
X67506D01*
Y101547D01*
X68597D01*
Y96336D01*
X67506D01*
Y92548D01*
X71293D01*
Y96336D01*
X70203D01*
Y101547D01*
X71294D01*
Y105335D01*
X70203D01*
Y106000D01*
X70203Y106000D01*
X70142Y106307D01*
X69968Y106568D01*
X69370Y107165D01*
X69538Y107650D01*
X69551Y107665D01*
X71294D01*
Y111453D01*
X67506D01*
Y110362D01*
X65394D01*
Y111453D01*
X65226D01*
Y134500D01*
X65101Y134801D01*
X64800Y134926D01*
X58396D01*
X58000Y135005D01*
X57604Y134926D01*
X49796D01*
X49400Y135005D01*
X49004Y134926D01*
X42600D01*
X42299Y134801D01*
X42174Y134500D01*
Y127347D01*
X41713D01*
Y125551D01*
X44000D01*
Y124567D01*
X41713D01*
Y122772D01*
X42174D01*
Y121287D01*
X39303D01*
Y139263D01*
X41443Y141403D01*
X41813Y141065D01*
X41813Y140598D01*
Y139043D01*
X44608D01*
Y141088D01*
X42312D01*
X41836Y141088D01*
X41499Y141458D01*
X47469Y147429D01*
X47838Y147502D01*
X48294Y147807D01*
X48598Y148262D01*
X48705Y148800D01*
X48598Y149338D01*
X48352Y149706D01*
X48451Y150026D01*
X48573Y150206D01*
X49235D01*
Y153994D01*
X47980D01*
Y156006D01*
X49235D01*
Y158890D01*
X49861Y159516D01*
X50361Y159309D01*
Y154559D01*
X50548Y154107D01*
X51565Y153090D01*
Y150206D01*
X55353D01*
Y153994D01*
X52469D01*
X51639Y154824D01*
Y155613D01*
X52967D01*
Y157900D01*
Y160187D01*
X52863D01*
X52672Y160649D01*
X53476Y161453D01*
X53626Y161424D01*
X53972Y161492D01*
X54265Y161688D01*
X54328Y161784D01*
X54892D01*
X54956Y161688D01*
X55249Y161492D01*
X55594Y161424D01*
X55940Y161492D01*
X56233Y161688D01*
X56297Y161784D01*
X56861D01*
X56924Y161688D01*
X57217Y161492D01*
X57563Y161424D01*
X57909Y161492D01*
X58202Y161688D01*
X58265Y161784D01*
X58829D01*
X58893Y161688D01*
X59186Y161492D01*
X59531Y161424D01*
X59877Y161492D01*
X60170Y161688D01*
X60234Y161784D01*
X60798D01*
X60861Y161688D01*
X61154Y161492D01*
X61500Y161424D01*
X61846Y161492D01*
X62139Y161688D01*
X62202Y161784D01*
X62766D01*
X62830Y161688D01*
X63123Y161492D01*
X63468Y161424D01*
X63814Y161492D01*
X64107Y161688D01*
X64303Y161981D01*
X64372Y162327D01*
Y164442D01*
X64872Y164709D01*
X64920Y164677D01*
Y159894D01*
X63665D01*
Y156106D01*
X67453D01*
Y159894D01*
X66198D01*
Y165415D01*
X66011Y165867D01*
X65218Y166659D01*
X65506Y167079D01*
X65732Y167034D01*
X69079D01*
X69348Y167087D01*
X69587Y166980D01*
X69848Y166784D01*
Y117213D01*
X70035Y116761D01*
X72767Y114029D01*
Y86505D01*
X72108Y85846D01*
X71687Y86132D01*
Y87832D01*
X69892D01*
Y86036D01*
X71591D01*
X71877Y85615D01*
X69361Y83099D01*
X69173Y82647D01*
Y56874D01*
X69361Y56422D01*
X84422Y41361D01*
X84874Y41173D01*
X153182D01*
X157780Y36576D01*
X157588Y36114D01*
X157177D01*
Y31390D01*
X165839D01*
Y36114D01*
X165839D01*
X165759Y36614D01*
X165760Y36617D01*
X171197D01*
X171649Y36804D01*
X205452Y70608D01*
X205870Y70525D01*
X206408Y70632D01*
X206864Y70936D01*
X207168Y71392D01*
X207275Y71930D01*
X207168Y72467D01*
X206864Y72923D01*
X206408Y73228D01*
X205870Y73335D01*
X205568Y73784D01*
X205498Y74138D01*
X205193Y74594D01*
X204738Y74898D01*
X204200Y75005D01*
X203662Y74898D01*
X203207Y74594D01*
X202902Y74138D01*
X202795Y73600D01*
X202878Y73182D01*
X168378Y38682D01*
X165760D01*
X165759Y38685D01*
X165839Y39185D01*
X165839D01*
Y43909D01*
X157177D01*
Y43301D01*
X156677Y43092D01*
X156321Y43239D01*
X85465D01*
X72584Y56120D01*
X72775Y56582D01*
X75393D01*
Y58747D01*
Y60913D01*
X71239D01*
Y62512D01*
X71554Y62881D01*
X71739Y62881D01*
X80216D01*
Y66424D01*
X78080D01*
Y85706D01*
X79335D01*
Y89494D01*
X75547D01*
Y85706D01*
X76802D01*
Y66424D01*
X71739D01*
X71554Y66424D01*
X71239Y66794D01*
Y77359D01*
X71531Y77738D01*
X72589D01*
Y76648D01*
X72507Y76593D01*
X72202Y76138D01*
X72095Y75600D01*
X72202Y75062D01*
X72507Y74607D01*
X72962Y74302D01*
X73500Y74195D01*
X74038Y74302D01*
X74493Y74607D01*
X74798Y75062D01*
X74905Y75600D01*
X74798Y76138D01*
X74493Y76593D01*
X74411Y76648D01*
Y77738D01*
X75468D01*
Y82462D01*
X72299D01*
X72108Y82924D01*
X74645Y85462D01*
X74832Y85914D01*
Y90846D01*
X75153Y91213D01*
X75332Y91213D01*
X76949D01*
Y93500D01*
X77441D01*
D01*
X76949D01*
Y95787D01*
X75332D01*
X75153Y95787D01*
X74832Y96154D01*
Y98268D01*
X75818D01*
Y99547D01*
X76802D01*
Y98268D01*
X78180D01*
Y98366D01*
X80149D01*
Y102500D01*
Y106634D01*
X78459D01*
X78385Y106724D01*
X78385Y106725D01*
Y108706D01*
X79476D01*
Y112494D01*
X78385D01*
Y113700D01*
X78693Y113907D01*
X78998Y114362D01*
X79105Y114900D01*
X78998Y115438D01*
X78693Y115893D01*
X78238Y116198D01*
X77700Y116305D01*
X77162Y116198D01*
X76707Y115893D01*
X76402Y115438D01*
X76295Y114900D01*
X76402Y114362D01*
X76707Y113907D01*
X76779Y113858D01*
Y112494D01*
X75688D01*
Y108706D01*
X76779D01*
Y107057D01*
X76432Y106709D01*
X76257Y106449D01*
X76236Y106339D01*
X74834D01*
X74832Y106838D01*
Y114620D01*
X74645Y115072D01*
X71914Y117804D01*
Y118972D01*
X72387Y119035D01*
Y119035D01*
X75734D01*
Y119035D01*
X76147D01*
Y119035D01*
X78903D01*
Y119035D01*
X79297D01*
Y119035D01*
X82053D01*
Y119035D01*
X82466D01*
Y119035D01*
X85813D01*
Y123366D01*
X85668D01*
X85397Y123866D01*
X85484Y124300D01*
X85377Y124838D01*
X85646Y125335D01*
X85813D01*
Y129665D01*
X85813Y129665D01*
X85813D01*
X86008Y130088D01*
X89503Y133583D01*
X89691Y134036D01*
Y154865D01*
X91987Y157161D01*
X103761D01*
X103987Y156661D01*
X103895Y156200D01*
X103912Y156114D01*
X103835Y155998D01*
X103479Y155730D01*
X103100Y155805D01*
X102562Y155698D01*
X102107Y155394D01*
X101802Y154938D01*
X101695Y154400D01*
X101229Y154179D01*
X101100Y154205D01*
X100562Y154098D01*
X100107Y153794D01*
X99802Y153338D01*
X99748Y153065D01*
X99689Y152799D01*
X99205Y152702D01*
X99110Y152721D01*
X98572Y152614D01*
X98117Y152309D01*
X97812Y151854D01*
X97705Y151316D01*
X97477Y151088D01*
X97259Y150997D01*
X96762Y150898D01*
X96307Y150593D01*
X96002Y150138D01*
X95926Y149754D01*
X95500Y149405D01*
X94962Y149298D01*
X94507Y148994D01*
X94202Y148538D01*
X94126Y148154D01*
X93700Y147805D01*
X93162Y147698D01*
X92707Y147394D01*
X92402Y146938D01*
X92295Y146400D01*
X92309Y146329D01*
X91880Y145925D01*
X91631Y145974D01*
X91093Y145867D01*
X90637Y145563D01*
X90333Y145107D01*
X90226Y144569D01*
X90333Y144032D01*
X90637Y143576D01*
X91093Y143271D01*
X91631Y143164D01*
X92168Y143271D01*
X92624Y143576D01*
X92929Y144032D01*
X92954Y144161D01*
X102808D01*
X103260Y144348D01*
X105938Y147026D01*
X123122D01*
Y144319D01*
X125878D01*
Y149730D01*
X126340Y149922D01*
X128095Y148166D01*
Y145697D01*
X128202Y145159D01*
X128507Y144703D01*
X128962Y144399D01*
X129500Y144292D01*
X130038Y144399D01*
X130493Y144703D01*
X130798Y145159D01*
X130905Y145697D01*
Y149634D01*
X130798Y150171D01*
X130493Y150627D01*
X130038Y150932D01*
X129951Y150949D01*
X130000Y151449D01*
X132962D01*
X133531Y150880D01*
X133507Y150627D01*
X133202Y150171D01*
X133095Y149634D01*
Y145697D01*
X133202Y145159D01*
X133507Y144703D01*
X133962Y144399D01*
X134500Y144292D01*
X135038Y144399D01*
X135494Y144703D01*
X135798Y145159D01*
X135905Y145697D01*
Y149634D01*
X135798Y150171D01*
X135494Y150627D01*
X135111Y150883D01*
X134952Y151267D01*
X134444Y151775D01*
X134636Y152236D01*
X138664D01*
Y150733D01*
X138506Y150627D01*
X138202Y150171D01*
X138095Y149634D01*
Y145697D01*
X138202Y145159D01*
X138506Y144703D01*
X138962Y144399D01*
X139500Y144292D01*
X140038Y144399D01*
X140494Y144703D01*
X140798Y145159D01*
X140905Y145697D01*
Y149634D01*
X140798Y150171D01*
X140494Y150627D01*
X140038Y150932D01*
X139942Y150951D01*
Y152645D01*
X140196Y153024D01*
X143168D01*
X143650Y152542D01*
Y150723D01*
X143507Y150627D01*
X143202Y150171D01*
X143095Y149634D01*
Y145697D01*
X143202Y145159D01*
X143507Y144703D01*
X143962Y144399D01*
X144500Y144292D01*
X145038Y144399D01*
X145493Y144703D01*
X145798Y145159D01*
X145905Y145697D01*
Y149634D01*
X145798Y150171D01*
X145493Y150627D01*
X145038Y150932D01*
X144928Y150954D01*
Y152807D01*
X144741Y153259D01*
X144650Y153349D01*
X144842Y153811D01*
X145435D01*
X148517Y150729D01*
X148506Y150627D01*
X148202Y150171D01*
X148095Y149634D01*
Y145697D01*
X148202Y145159D01*
X148506Y144703D01*
X148962Y144399D01*
X149500Y144292D01*
X150038Y144399D01*
X150494Y144703D01*
X150798Y145159D01*
X150905Y145697D01*
Y149634D01*
X150798Y150171D01*
X150494Y150627D01*
X150038Y150932D01*
X149886Y150962D01*
X149740Y151314D01*
X146917Y154137D01*
X147108Y154599D01*
X150963D01*
X153861Y151701D01*
Y150864D01*
X153507Y150627D01*
X153202Y150171D01*
X153095Y149634D01*
Y145697D01*
X153202Y145159D01*
X153507Y144703D01*
X153962Y144399D01*
X154500Y144292D01*
X155038Y144399D01*
X155493Y144703D01*
X155798Y145159D01*
X155905Y145697D01*
Y149634D01*
X155798Y150171D01*
X155493Y150627D01*
X155139Y150864D01*
Y151965D01*
X154952Y152418D01*
X151680Y155690D01*
X151228Y155877D01*
X125951D01*
X125800Y156377D01*
X125994Y156507D01*
X126298Y156962D01*
X126376Y157353D01*
X126559Y157566D01*
X126875Y157701D01*
X127242Y157627D01*
X127779Y157735D01*
X128235Y158039D01*
X128540Y158495D01*
X128647Y159032D01*
X128564Y159450D01*
X129804Y160690D01*
X159406D01*
X162448Y157648D01*
X162900Y157461D01*
X167200D01*
X167652Y157648D01*
X170106Y160102D01*
X170606Y159895D01*
Y155806D01*
X176394D01*
Y159989D01*
X185052Y168647D01*
X185239Y169099D01*
Y171335D01*
X188365Y174461D01*
X192170D01*
X192222Y174399D01*
D02*
G37*
G36*
X63665Y167740D02*
X51461D01*
Y178665D01*
X52740Y179945D01*
X63665D01*
Y167740D01*
D02*
G37*
G36*
X224348Y165548D02*
X224800Y165361D01*
X236010D01*
X236048Y165075D01*
X236405Y164213D01*
X236973Y163473D01*
X237713Y162905D01*
X238575Y162548D01*
X239500Y162426D01*
X240425Y162548D01*
X241287Y162905D01*
X242027Y163473D01*
X242595Y164213D01*
X242952Y165075D01*
X242953Y165080D01*
X243453Y165048D01*
Y156952D01*
X242953Y156920D01*
X242952Y156925D01*
X242595Y157787D01*
X242027Y158527D01*
X241287Y159095D01*
X240425Y159452D01*
X239500Y159574D01*
X238575Y159452D01*
X237713Y159095D01*
X236973Y158527D01*
X236405Y157787D01*
X236048Y156925D01*
X235926Y156000D01*
X236039Y155139D01*
X235980Y154941D01*
X235778Y154639D01*
X203663D01*
X203493Y154894D01*
X203321Y155009D01*
X203473Y155509D01*
X210448D01*
X210900Y155696D01*
X212865Y157661D01*
X217000D01*
X217452Y157848D01*
X218287Y158683D01*
X218460Y159101D01*
X219261D01*
Y158707D01*
X220343D01*
Y165400D01*
X220835D01*
Y165892D01*
X222410D01*
Y166779D01*
X222910Y166986D01*
X224348Y165548D01*
D02*
G37*
G36*
X64800Y111453D02*
X61606D01*
Y110082D01*
X59770D01*
X59362Y110313D01*
Y110805D01*
X59362Y110813D01*
Y112872D01*
X56698D01*
Y116606D01*
X57953D01*
Y120394D01*
X54267D01*
X54165Y120394D01*
X53767Y120640D01*
Y121304D01*
X55069Y122606D01*
X57953D01*
Y126394D01*
X54165D01*
Y123510D01*
X52676Y122021D01*
X52489Y121569D01*
Y116389D01*
X48862Y112762D01*
X48362Y112872D01*
Y112872D01*
X43638D01*
X43638Y111289D01*
X43138Y111032D01*
X43005Y111126D01*
Y117047D01*
X45894D01*
Y117095D01*
X48047D01*
Y116606D01*
X51835D01*
Y120394D01*
X51346D01*
Y122606D01*
X51835D01*
Y126394D01*
X48047D01*
Y122606D01*
X48536D01*
Y120394D01*
X48047D01*
Y119905D01*
X45894D01*
Y120835D01*
X44093D01*
X44052Y120875D01*
X43597Y121180D01*
X43059Y121287D01*
X42600D01*
Y123165D01*
X45894D01*
Y126953D01*
X42600D01*
Y134500D01*
X64800D01*
Y111453D01*
D02*
G37*
G36*
X55420Y112872D02*
X54638D01*
Y110813D01*
X54638Y110805D01*
Y110313D01*
X54638Y110305D01*
Y108246D01*
X54638D01*
Y107754D01*
X54638D01*
Y105687D01*
X54246Y105426D01*
X52200D01*
X51899Y105301D01*
X51774Y105000D01*
Y98200D01*
X50426D01*
Y99000D01*
X50301Y99301D01*
X50000Y99426D01*
X43526D01*
Y105374D01*
X48500D01*
X48801Y105499D01*
X48926Y105800D01*
Y107500D01*
X48801Y107801D01*
X48649Y107865D01*
X48362Y108246D01*
Y110305D01*
X48362Y110313D01*
Y110805D01*
X48637Y111199D01*
X48842D01*
X49294Y111387D01*
X53580Y115672D01*
X53767Y116124D01*
Y116360D01*
X54165Y116606D01*
X54267Y116606D01*
X55420D01*
Y112872D01*
D02*
G37*
G36*
X66100Y89929D02*
X65394D01*
Y90217D01*
X61606D01*
Y86430D01*
X65394D01*
Y86718D01*
X66100D01*
Y83800D01*
X52200D01*
Y105000D01*
X66100D01*
Y89929D01*
D02*
G37*
G36*
X48500Y105800D02*
X43100D01*
Y99000D01*
X50000D01*
X50000Y84000D01*
X41000D01*
X41000Y107500D01*
X48500D01*
Y105800D01*
D02*
G37*
G36*
X193264Y102799D02*
X192348Y101883D01*
X192235Y101610D01*
X191783Y101493D01*
X191687Y101493D01*
X187059D01*
Y92832D01*
X191661D01*
X191783Y92832D01*
X192053Y92620D01*
X192076Y92080D01*
X171110Y71114D01*
X165839D01*
Y75721D01*
X157177D01*
Y70996D01*
X156859Y70628D01*
X154148Y67917D01*
X153961Y67465D01*
Y66865D01*
X152484Y65388D01*
X151984Y65595D01*
X151984Y65794D01*
Y71681D01*
X144898D01*
Y65382D01*
X151544D01*
X151771Y65382D01*
X151978Y64882D01*
X151410Y64314D01*
X133075D01*
X132623Y64127D01*
X127035Y58539D01*
X118765D01*
X117781Y59523D01*
Y60960D01*
X118299Y61478D01*
X118717Y61395D01*
X119254Y61502D01*
X119710Y61807D01*
X120085D01*
X120541Y61502D01*
X121079Y61395D01*
X121616Y61502D01*
X122072Y61807D01*
X122309Y62161D01*
X126823D01*
X127275Y62348D01*
X130783Y65856D01*
X130970Y66308D01*
Y67063D01*
X132102D01*
Y70361D01*
X141000D01*
X141452Y70548D01*
X147285Y76381D01*
X147473Y76833D01*
Y79247D01*
X148727D01*
Y80768D01*
X149145Y80941D01*
X155352Y87148D01*
X155539Y87600D01*
Y97635D01*
X161165Y103261D01*
X193073D01*
X193264Y102799D01*
D02*
G37*
G36*
X118154Y77490D02*
X116771Y76106D01*
X116597Y75846D01*
X116536Y75539D01*
Y74937D01*
X115567D01*
Y67063D01*
X119006D01*
X119286Y66636D01*
X116772Y64122D01*
X116354Y64205D01*
X115817Y64098D01*
X115361Y63793D01*
X115033D01*
X114631Y64145D01*
Y66276D01*
X114512Y66563D01*
X114762Y67063D01*
X114779D01*
Y74937D01*
X111236D01*
X110843Y75194D01*
Y75331D01*
X109169D01*
Y71000D01*
X108185D01*
Y75331D01*
X106512D01*
Y75194D01*
X106118Y74937D01*
X103399D01*
X103207Y75399D01*
X105798Y77990D01*
X117947D01*
X118154Y77490D01*
D02*
G37*
%LPC*%
G36*
X59349Y251787D02*
X57553D01*
Y251075D01*
X57054Y250815D01*
X56600Y250905D01*
X56062Y250798D01*
X55953Y250725D01*
X55453Y250992D01*
Y251394D01*
X51666D01*
Y247607D01*
X55453D01*
Y248008D01*
X55953Y248275D01*
X56062Y248202D01*
X56600Y248095D01*
X57054Y248185D01*
X57553Y247925D01*
Y247213D01*
X59349D01*
Y249500D01*
Y251787D01*
D02*
G37*
G36*
X48388Y251394D02*
X46494D01*
X45548Y250447D01*
Y250139D01*
X42394D01*
Y251394D01*
X38606D01*
Y247606D01*
X42394D01*
Y248861D01*
X45548D01*
Y248554D01*
X46494Y247607D01*
X48388D01*
X49335Y248554D01*
Y250447D01*
X48388Y251394D01*
D02*
G37*
G36*
X36669Y251787D02*
X34874D01*
Y249992D01*
X36669D01*
Y251787D01*
D02*
G37*
G36*
X33890D02*
X32094D01*
Y249992D01*
X33890D01*
Y251787D01*
D02*
G37*
G36*
X36669Y249008D02*
X34874D01*
Y247213D01*
X36669D01*
Y249008D01*
D02*
G37*
G36*
X33890D02*
X32094D01*
Y247213D01*
X33890D01*
Y249008D01*
D02*
G37*
G36*
X59349Y245787D02*
X57553D01*
Y243992D01*
X59349D01*
Y245787D01*
D02*
G37*
G36*
X49228Y245687D02*
X47433D01*
Y243892D01*
X49228D01*
Y245687D01*
D02*
G37*
G36*
X46449D02*
X44653D01*
Y243892D01*
X46449D01*
Y245687D01*
D02*
G37*
G36*
X18646Y226108D02*
X16851D01*
Y224313D01*
X18646D01*
Y226108D01*
D02*
G37*
G36*
X18890Y222920D02*
X14953D01*
Y216620D01*
X18890D01*
Y222920D01*
D02*
G37*
G36*
X39098Y214008D02*
X35516D01*
Y212493D01*
X37189D01*
X37957Y212646D01*
X38608Y213081D01*
X39043Y213732D01*
X39098Y214008D01*
D02*
G37*
G36*
X34532D02*
X30949D01*
X31004Y213732D01*
X31439Y213081D01*
X32090Y212646D01*
X32858Y212493D01*
X34532D01*
Y214008D01*
D02*
G37*
G36*
X12000Y213313D02*
X11232Y213160D01*
X10581Y212725D01*
X10146Y212074D01*
X9993Y211305D01*
X10146Y210537D01*
X10581Y209886D01*
X11232Y209451D01*
X12000Y209298D01*
X12768Y209451D01*
X13419Y209886D01*
X13854Y210537D01*
X14007Y211305D01*
X13854Y212074D01*
X13419Y212725D01*
X12768Y213160D01*
X12000Y213313D01*
D02*
G37*
G36*
Y201502D02*
X11232Y201349D01*
X10581Y200914D01*
X10146Y200263D01*
X9993Y199495D01*
X10146Y198726D01*
X10581Y198075D01*
X11232Y197640D01*
X12000Y197487D01*
X12768Y197640D01*
X13419Y198075D01*
X13854Y198726D01*
X14007Y199495D01*
X13854Y200263D01*
X13419Y200914D01*
X12768Y201349D01*
X12000Y201502D01*
D02*
G37*
G36*
X39098Y190508D02*
X35516D01*
Y188993D01*
X37189D01*
X37957Y189146D01*
X38608Y189581D01*
X39043Y190232D01*
X39098Y190508D01*
D02*
G37*
G36*
X34532D02*
X30949D01*
X31004Y190232D01*
X31439Y189581D01*
X32090Y189146D01*
X32858Y188993D01*
X34532D01*
Y190508D01*
D02*
G37*
G36*
X18890Y194179D02*
X14953D01*
Y187880D01*
X18890D01*
Y194179D01*
D02*
G37*
G36*
X29500Y186208D02*
X28962Y186101D01*
X28506Y185797D01*
X28202Y185341D01*
X28095Y184803D01*
Y180866D01*
X28202Y180329D01*
X28506Y179873D01*
X28962Y179568D01*
X29500Y179461D01*
X30038Y179568D01*
X30494Y179873D01*
X30798Y180329D01*
X30905Y180866D01*
Y184803D01*
X30798Y185341D01*
X30494Y185797D01*
X30038Y186101D01*
X29500Y186208D01*
D02*
G37*
G36*
X24500D02*
X23962Y186101D01*
X23506Y185797D01*
X23202Y185341D01*
X23095Y184803D01*
Y180866D01*
X23202Y180329D01*
X23506Y179873D01*
X23962Y179568D01*
X24500Y179461D01*
X25038Y179568D01*
X25493Y179873D01*
X25798Y180329D01*
X25905Y180866D01*
Y184803D01*
X25798Y185341D01*
X25493Y185797D01*
X25038Y186101D01*
X24500Y186208D01*
D02*
G37*
G36*
X19500D02*
X18962Y186101D01*
X18507Y185797D01*
X18202Y185341D01*
X18095Y184803D01*
Y180866D01*
X18202Y180329D01*
X18507Y179873D01*
X18962Y179568D01*
X19500Y179461D01*
X20038Y179568D01*
X20493Y179873D01*
X20798Y180329D01*
X20905Y180866D01*
Y184803D01*
X20798Y185341D01*
X20493Y185797D01*
X20038Y186101D01*
X19500Y186208D01*
D02*
G37*
G36*
X14500D02*
X13962Y186101D01*
X13507Y185797D01*
X13202Y185341D01*
X13095Y184803D01*
Y180866D01*
X13202Y180329D01*
X13507Y179873D01*
X13962Y179568D01*
X14500Y179461D01*
X15038Y179568D01*
X15494Y179873D01*
X15798Y180329D01*
X15905Y180866D01*
Y184803D01*
X15798Y185341D01*
X15494Y185797D01*
X15038Y186101D01*
X14500Y186208D01*
D02*
G37*
G36*
X19992Y164842D02*
Y161658D01*
X21306D01*
Y163134D01*
X21169Y163825D01*
X20777Y164411D01*
X20191Y164803D01*
X19992Y164842D01*
D02*
G37*
G36*
X19008D02*
X18809Y164803D01*
X18223Y164411D01*
X17831Y163825D01*
X17694Y163134D01*
Y161658D01*
X19008D01*
Y164842D01*
D02*
G37*
G36*
X21306Y160673D02*
X19992D01*
Y157488D01*
X20191Y157528D01*
X20777Y157920D01*
X21169Y158506D01*
X21306Y159197D01*
Y160673D01*
D02*
G37*
G36*
X19008D02*
X17694D01*
Y159197D01*
X17831Y158506D01*
X18223Y157920D01*
X18809Y157528D01*
X19008Y157488D01*
Y160673D01*
D02*
G37*
G36*
X29500Y164539D02*
X28962Y164432D01*
X28506Y164127D01*
X28202Y163672D01*
X28095Y163134D01*
Y159197D01*
X28202Y158659D01*
X28480Y158243D01*
X24190Y153953D01*
X21306D01*
Y150165D01*
X25094D01*
Y153049D01*
X26558Y154513D01*
X27020Y154322D01*
Y153339D01*
X29874D01*
Y155996D01*
X28694D01*
X28503Y156458D01*
X29651Y157606D01*
X29748Y157841D01*
X30038Y157899D01*
X30494Y158203D01*
X30798Y158659D01*
X30905Y159197D01*
Y163134D01*
X30798Y163672D01*
X30494Y164127D01*
X30038Y164432D01*
X29500Y164539D01*
D02*
G37*
G36*
X7644Y153803D02*
X6992D01*
Y152008D01*
X8787D01*
Y152659D01*
X7644Y153803D01*
D02*
G37*
G36*
X39500Y164539D02*
X38962Y164432D01*
X38506Y164127D01*
X38202Y163672D01*
X38095Y163134D01*
Y159197D01*
X38202Y158659D01*
X38506Y158203D01*
X38861Y157967D01*
Y155602D01*
X35681D01*
Y152350D01*
X35407Y152139D01*
X35039Y151660D01*
X34539Y151830D01*
Y157800D01*
X35038Y157899D01*
X35493Y158203D01*
X35798Y158659D01*
X35905Y159197D01*
Y163134D01*
X35798Y163672D01*
X35493Y164127D01*
X35038Y164432D01*
X34500Y164539D01*
X33962Y164432D01*
X33507Y164127D01*
X33202Y163672D01*
X33095Y163134D01*
Y159197D01*
X33202Y158659D01*
X33261Y158571D01*
Y155996D01*
X30858D01*
Y152847D01*
Y149697D01*
X32664D01*
X32973Y149276D01*
X32807Y148909D01*
X27413D01*
Y143398D01*
X28061D01*
Y140953D01*
X26806D01*
Y137165D01*
X30594D01*
Y140953D01*
X29339D01*
Y143398D01*
X33319D01*
Y146673D01*
X33561Y146891D01*
X34061Y146689D01*
Y140953D01*
X32806D01*
Y137165D01*
X36594D01*
Y140953D01*
X35339D01*
Y143004D01*
X38142D01*
Y146154D01*
Y149303D01*
X35743D01*
X35413Y149679D01*
X35416Y149700D01*
X35681Y150091D01*
X41587D01*
Y155602D01*
X40139D01*
Y157967D01*
X40494Y158203D01*
X40798Y158659D01*
X40905Y159197D01*
Y163134D01*
X40798Y163672D01*
X40494Y164127D01*
X40038Y164432D01*
X39500Y164539D01*
D02*
G37*
G36*
X24500D02*
X23962Y164432D01*
X23506Y164127D01*
X23202Y163672D01*
X23095Y163134D01*
Y159197D01*
X23202Y158659D01*
X23506Y158203D01*
X23502Y157605D01*
X22735Y156839D01*
X19500D01*
X19048Y156652D01*
X17148Y154752D01*
X16961Y154300D01*
Y153953D01*
X15706D01*
Y150165D01*
X19494D01*
Y153953D01*
X18864D01*
X18657Y154453D01*
X19765Y155561D01*
X23000D01*
X23452Y155748D01*
X24952Y157248D01*
X25139Y157700D01*
Y157967D01*
X25493Y158203D01*
X25798Y158659D01*
X25905Y159197D01*
Y163134D01*
X25798Y163672D01*
X25493Y164127D01*
X25038Y164432D01*
X24500Y164539D01*
D02*
G37*
G36*
X29874Y152354D02*
X27020D01*
Y149697D01*
X29874D01*
Y152354D01*
D02*
G37*
G36*
X8787Y151024D02*
X6992D01*
Y149228D01*
X7644D01*
X8787Y150372D01*
Y151024D01*
D02*
G37*
G36*
X41980Y149303D02*
X39126D01*
Y146646D01*
X41980D01*
Y149303D01*
D02*
G37*
G36*
X25487Y148228D02*
X23692D01*
Y146433D01*
X25487D01*
Y148228D01*
D02*
G37*
G36*
X18092D02*
Y146433D01*
X19887D01*
Y148228D01*
X18092D01*
D02*
G37*
G36*
X22708D02*
X20913D01*
Y146433D01*
X22708D01*
Y148228D01*
D02*
G37*
G36*
X25487Y145449D02*
X23692D01*
Y143654D01*
X25487D01*
Y145449D01*
D02*
G37*
G36*
X22708D02*
X20913D01*
Y143654D01*
X22708D01*
Y145449D01*
D02*
G37*
G36*
X19887D02*
X18092D01*
Y143654D01*
X19887D01*
Y145449D01*
D02*
G37*
G36*
X25047Y142287D02*
X23251D01*
Y140492D01*
X25047D01*
Y142287D01*
D02*
G37*
G36*
X22267D02*
X20472D01*
Y140492D01*
X22267D01*
Y142287D01*
D02*
G37*
G36*
X25047Y139508D02*
X23251D01*
Y137713D01*
X25047D01*
Y139508D01*
D02*
G37*
G36*
X22267D02*
X20472D01*
Y137713D01*
X22267D01*
Y139508D01*
D02*
G37*
G36*
X34208Y135228D02*
X32413D01*
Y133744D01*
X30987D01*
Y135228D01*
X29192D01*
Y132941D01*
Y130654D01*
X30987D01*
Y132138D01*
X32413D01*
Y130654D01*
X34208D01*
Y132941D01*
Y135228D01*
D02*
G37*
G36*
X36987D02*
X35192D01*
Y133433D01*
X36987D01*
Y135228D01*
D02*
G37*
G36*
X28208D02*
X26413D01*
Y133433D01*
X28208D01*
Y135228D01*
D02*
G37*
G36*
X36987Y132449D02*
X35192D01*
Y130654D01*
X36987D01*
Y132449D01*
D02*
G37*
G36*
X28208D02*
X26413D01*
Y130654D01*
X28208D01*
Y132449D01*
D02*
G37*
G36*
X114815Y241331D02*
X109992D01*
Y238674D01*
X114815D01*
Y241331D01*
D02*
G37*
G36*
Y237689D02*
X109992D01*
Y235032D01*
X114815D01*
Y237689D01*
D02*
G37*
G36*
X124500Y212423D02*
X123626Y212308D01*
X122812Y211970D01*
X122113Y211434D01*
X121577Y210735D01*
X121240Y209921D01*
X121125Y209047D01*
X121240Y208174D01*
X121577Y207360D01*
X122113Y206661D01*
X122812Y206124D01*
X123626Y205787D01*
X124500Y205672D01*
X125374Y205787D01*
X126188Y206124D01*
X126887Y206661D01*
X127423Y207360D01*
X127760Y208174D01*
X127875Y209047D01*
X127760Y209921D01*
X127423Y210735D01*
X126887Y211434D01*
X126188Y211970D01*
X125374Y212308D01*
X124500Y212423D01*
D02*
G37*
G36*
X109750Y195468D02*
X107092D01*
Y193992D01*
X109750D01*
Y195468D01*
D02*
G37*
G36*
X130487Y190446D02*
X128692D01*
Y188651D01*
X130487D01*
Y190446D01*
D02*
G37*
G36*
X127708D02*
X125913D01*
Y188651D01*
X127708D01*
Y190446D01*
D02*
G37*
G36*
X162687Y246928D02*
X160892D01*
Y245133D01*
X162687D01*
Y246928D01*
D02*
G37*
G36*
X159908D02*
X158113D01*
Y245133D01*
X159908D01*
Y246928D01*
D02*
G37*
G36*
X162687Y244149D02*
X160892D01*
Y242354D01*
X162687D01*
Y244149D01*
D02*
G37*
G36*
X159908D02*
X158113D01*
Y242354D01*
X159908D01*
Y244149D01*
D02*
G37*
G36*
X59449Y237008D02*
X57653D01*
Y235213D01*
X59449D01*
Y237008D01*
D02*
G37*
G36*
X156647Y235508D02*
X154851D01*
Y233713D01*
X156647D01*
Y235508D01*
D02*
G37*
G36*
X162687Y235228D02*
X160892D01*
Y233433D01*
X162687D01*
Y235228D01*
D02*
G37*
G36*
X159908D02*
X158113D01*
Y233433D01*
X159908D01*
Y235228D01*
D02*
G37*
G36*
X147749Y232687D02*
X145954D01*
Y230892D01*
X147749D01*
Y232687D01*
D02*
G37*
G36*
Y229908D02*
X145954D01*
Y228113D01*
X147749D01*
Y229908D01*
D02*
G37*
G36*
X77787Y213708D02*
X75992D01*
Y211913D01*
X77787D01*
Y213708D01*
D02*
G37*
G36*
X75008D02*
X73213D01*
Y211913D01*
X75008D01*
Y213708D01*
D02*
G37*
G36*
X77787Y210887D02*
X75992D01*
Y209092D01*
X77787D01*
Y210887D01*
D02*
G37*
G36*
X75008D02*
X73213D01*
Y209092D01*
X75008D01*
Y210887D01*
D02*
G37*
G36*
X77787Y208108D02*
X75992D01*
Y206313D01*
X77787D01*
Y208108D01*
D02*
G37*
G36*
X75008D02*
X73213D01*
Y206313D01*
X75008D01*
Y208108D01*
D02*
G37*
G36*
X88161Y207213D02*
X85504D01*
Y204358D01*
X88161D01*
Y207213D01*
D02*
G37*
G36*
X91803Y203374D02*
X89146D01*
Y200520D01*
X91803D01*
Y203374D01*
D02*
G37*
G36*
X101701Y199843D02*
X100224D01*
Y197579D01*
X101701D01*
Y199843D01*
D02*
G37*
G36*
X99240D02*
X97764D01*
Y197579D01*
X99240D01*
Y199843D01*
D02*
G37*
G36*
X83472Y199756D02*
X81996D01*
Y197492D01*
X83472D01*
Y199756D01*
D02*
G37*
G36*
X101701Y196595D02*
X100224D01*
Y194331D01*
X101701D01*
Y196595D01*
D02*
G37*
G36*
X99240D02*
X97764D01*
Y194331D01*
X99240D01*
Y196595D01*
D02*
G37*
G36*
X85933Y196508D02*
X84457D01*
Y194244D01*
X85933D01*
Y196508D01*
D02*
G37*
G36*
X83472D02*
X81996D01*
Y194244D01*
X83472D01*
Y196508D01*
D02*
G37*
G36*
X101701Y185669D02*
X100224D01*
Y183405D01*
X101701D01*
Y185669D01*
D02*
G37*
G36*
X99240D02*
X97764D01*
Y183405D01*
X99240D01*
Y185669D01*
D02*
G37*
G36*
X85933Y185583D02*
X84457D01*
Y183319D01*
X85933D01*
Y185583D01*
D02*
G37*
G36*
X83472D02*
X81996D01*
Y183319D01*
X83472D01*
Y185583D01*
D02*
G37*
G36*
X101701Y182421D02*
X100224D01*
Y180157D01*
X101701D01*
Y182421D01*
D02*
G37*
G36*
X99240D02*
X97764D01*
Y180157D01*
X99240D01*
Y182421D01*
D02*
G37*
G36*
X85933Y182335D02*
X84457D01*
Y180071D01*
X85933D01*
Y182335D01*
D02*
G37*
G36*
X83472D02*
X81996D01*
Y180071D01*
X83472D01*
Y182335D01*
D02*
G37*
G36*
X110230Y171734D02*
X109578D01*
Y169939D01*
X111373D01*
Y170590D01*
X110230Y171734D01*
D02*
G37*
G36*
X98668D02*
X98016D01*
Y169939D01*
X99811D01*
Y170590D01*
X98668Y171734D01*
D02*
G37*
G36*
X87106D02*
X86454D01*
Y169939D01*
X88249D01*
Y170590D01*
X87106Y171734D01*
D02*
G37*
G36*
X75544D02*
X74892D01*
Y169939D01*
X76687D01*
Y170590D01*
X75544Y171734D01*
D02*
G37*
G36*
X108594D02*
X107942D01*
X106799Y170590D01*
Y169939D01*
X108594D01*
Y171734D01*
D02*
G37*
G36*
X97032D02*
X96380D01*
X95236Y170590D01*
Y169939D01*
X97032D01*
Y171734D01*
D02*
G37*
G36*
X85470D02*
X84818D01*
X83675Y170590D01*
Y169939D01*
X85470D01*
Y171734D01*
D02*
G37*
G36*
X104449D02*
X103797D01*
Y169939D01*
X105592D01*
Y170590D01*
X104449Y171734D01*
D02*
G37*
G36*
X92887D02*
X92235D01*
Y169939D01*
X94030D01*
Y170590D01*
X92887Y171734D01*
D02*
G37*
G36*
X81325D02*
X80673D01*
Y169939D01*
X82468D01*
Y170590D01*
X81325Y171734D01*
D02*
G37*
G36*
X114375D02*
X113723D01*
X112580Y170590D01*
Y169939D01*
X114375D01*
Y171734D01*
D02*
G37*
G36*
X102813D02*
X102161D01*
X101017Y170590D01*
Y169939D01*
X102813D01*
Y171734D01*
D02*
G37*
G36*
X91251D02*
X90599D01*
X89455Y170590D01*
Y169939D01*
X91251D01*
Y171734D01*
D02*
G37*
G36*
X79689D02*
X79037D01*
X77894Y170590D01*
Y169939D01*
X79689D01*
Y171734D01*
D02*
G37*
G36*
X76687Y168954D02*
X74892D01*
Y167159D01*
X75544D01*
X76687Y168303D01*
Y168954D01*
D02*
G37*
G36*
X154760Y189335D02*
X150973D01*
Y188942D01*
X150473Y188674D01*
X150438Y188698D01*
X149900Y188805D01*
X149362Y188698D01*
X149294Y188652D01*
X148794Y188919D01*
Y189335D01*
X145006D01*
Y185547D01*
X148794D01*
Y185881D01*
X149294Y186148D01*
X149362Y186102D01*
X149900Y185995D01*
X150438Y186102D01*
X150473Y186126D01*
X150973Y185858D01*
Y185547D01*
X154760D01*
Y189335D01*
D02*
G37*
G36*
X161121Y186949D02*
X159325D01*
Y185153D01*
X161121D01*
Y186949D01*
D02*
G37*
G36*
X158341D02*
X156546D01*
Y185153D01*
X158341D01*
Y186949D01*
D02*
G37*
G36*
X152467Y183787D02*
X150672D01*
Y181992D01*
X152467D01*
Y183787D01*
D02*
G37*
G36*
X161087Y177629D02*
X159292D01*
Y175833D01*
X161087D01*
Y177629D01*
D02*
G37*
G36*
X158308D02*
X156512D01*
Y175833D01*
X158308D01*
Y177629D01*
D02*
G37*
G36*
X161087Y174849D02*
X158800D01*
X156512D01*
Y173054D01*
X158808D01*
X158879Y172845D01*
X158892Y172554D01*
X158507Y172297D01*
X158202Y171841D01*
X158095Y171303D01*
Y167366D01*
X158202Y166829D01*
X158507Y166373D01*
X158962Y166068D01*
X159500Y165961D01*
X160038Y166068D01*
X160494Y166373D01*
X160798Y166829D01*
X160905Y167366D01*
Y171303D01*
X160798Y171841D01*
X160494Y172297D01*
X160108Y172554D01*
X160121Y172845D01*
X160192Y173054D01*
X161087D01*
Y174849D01*
D02*
G37*
G36*
X179300Y194205D02*
X178762Y194098D01*
X178306Y193793D01*
X178002Y193338D01*
X177895Y192800D01*
X178002Y192262D01*
X178306Y191806D01*
X178762Y191502D01*
X179300Y191395D01*
X179838Y191502D01*
X180294Y191806D01*
X180598Y192262D01*
X180705Y192800D01*
X180598Y193338D01*
X180294Y193793D01*
X179838Y194098D01*
X179300Y194205D01*
D02*
G37*
G36*
X61728Y160287D02*
X59933D01*
Y158492D01*
X61728D01*
Y160287D01*
D02*
G37*
G36*
X58949D02*
X57153D01*
Y158492D01*
X58949D01*
Y160287D01*
D02*
G37*
G36*
X55747Y160187D02*
X53951D01*
Y158392D01*
X55747D01*
Y160187D01*
D02*
G37*
G36*
X61728Y157508D02*
X59933D01*
Y155713D01*
X61728D01*
Y157508D01*
D02*
G37*
G36*
X58949D02*
X57153D01*
Y155713D01*
X58949D01*
Y157508D01*
D02*
G37*
G36*
X55747Y157408D02*
X53951D01*
Y155613D01*
X55747D01*
Y157408D01*
D02*
G37*
G36*
X168087Y156887D02*
X165992D01*
Y154791D01*
X168087D01*
Y156887D01*
D02*
G37*
G36*
X165008D02*
X162913D01*
Y154791D01*
X165008D01*
Y156887D01*
D02*
G37*
G36*
X168087Y153807D02*
X165992D01*
Y151712D01*
X168087D01*
Y153807D01*
D02*
G37*
G36*
X165008D02*
X162913D01*
Y151712D01*
X165008D01*
Y153807D01*
D02*
G37*
G36*
X168728Y150287D02*
X166933D01*
Y148492D01*
X168728D01*
Y150287D01*
D02*
G37*
G36*
X165949D02*
X164154D01*
Y148492D01*
X165949D01*
Y150287D01*
D02*
G37*
G36*
X159992Y151342D02*
Y148158D01*
X161306D01*
Y149634D01*
X161169Y150325D01*
X160777Y150911D01*
X160191Y151303D01*
X159992Y151342D01*
D02*
G37*
G36*
X159008Y151342D02*
X158809Y151303D01*
X158223Y150911D01*
X157831Y150325D01*
X157694Y149634D01*
Y148158D01*
X159008D01*
Y151342D01*
D02*
G37*
G36*
X168728Y147508D02*
X166933D01*
Y145713D01*
X168728D01*
Y147508D01*
D02*
G37*
G36*
X165949D02*
X164154D01*
Y145713D01*
X165949D01*
Y147508D01*
D02*
G37*
G36*
X233200Y146805D02*
X232662Y146698D01*
X232207Y146394D01*
X231970Y146039D01*
X188500D01*
X188048Y145852D01*
X184135Y141939D01*
X162887D01*
X162434Y141752D01*
X158922Y138239D01*
X129774D01*
X129287Y138272D01*
X129287Y138739D01*
Y140067D01*
X127000D01*
X124713D01*
X124713Y138272D01*
X124226Y138239D01*
X123774D01*
X123287Y138272D01*
X123287Y138739D01*
Y140067D01*
X121000D01*
X118713D01*
X118713Y138272D01*
X118226Y138239D01*
X117774D01*
X117287Y138272D01*
Y140067D01*
X115000D01*
X112713D01*
Y139337D01*
X112213Y138963D01*
X112000Y139005D01*
X111582Y138922D01*
X110627Y139877D01*
Y140126D01*
X110439Y140578D01*
X110272Y140746D01*
Y141485D01*
X110626Y141722D01*
X110931Y142178D01*
X111038Y142715D01*
X110931Y143253D01*
X110626Y143709D01*
X110170Y144013D01*
X109633Y144120D01*
X109095Y144013D01*
X108639Y143709D01*
X108335Y143253D01*
X108228Y142715D01*
X108335Y142178D01*
X108568Y141828D01*
X108280Y141406D01*
X108200Y141439D01*
X105600D01*
X105148Y141252D01*
X104904Y141008D01*
X104486Y141091D01*
X103949Y140984D01*
X103493Y140680D01*
X103188Y140224D01*
X103082Y139686D01*
X103165Y139269D01*
X102048Y138152D01*
X101861Y137700D01*
Y136041D01*
X101507Y135804D01*
X101202Y135349D01*
X101095Y134811D01*
Y130874D01*
X101202Y130336D01*
X101507Y129881D01*
X101861Y129644D01*
Y117353D01*
X101875Y117318D01*
X101809Y116795D01*
X101223Y116403D01*
X100831Y115817D01*
X100694Y115126D01*
Y113650D01*
X102500D01*
Y112665D01*
X100694D01*
Y111189D01*
X100831Y110498D01*
X101223Y109912D01*
X101809Y109520D01*
X101875Y108997D01*
X101861Y108962D01*
Y108041D01*
X101507Y107805D01*
X101202Y107349D01*
X101095Y106811D01*
Y102874D01*
X101202Y102336D01*
X101507Y101881D01*
X101541Y101362D01*
X101170Y100974D01*
X93745D01*
X93593Y101474D01*
X93777Y101597D01*
X94169Y102183D01*
X94306Y102874D01*
Y104350D01*
X92500D01*
X90694D01*
Y102874D01*
X90772Y102479D01*
X90311Y102233D01*
X86913Y105631D01*
X86461Y105818D01*
X86448D01*
Y106339D01*
X83495D01*
X83397Y106634D01*
X81133D01*
Y102500D01*
Y98366D01*
X83397D01*
X83495Y98661D01*
X86448D01*
Y98908D01*
X106147D01*
X106599Y99095D01*
X107952Y100448D01*
X108139Y100900D01*
Y101644D01*
X108493Y101881D01*
X108798Y102336D01*
X108846Y102578D01*
X108915Y102603D01*
X109366Y102631D01*
X109750Y102057D01*
X110434Y101600D01*
X111240Y101440D01*
X113209D01*
Y104827D01*
Y108214D01*
X111240D01*
X110434Y108053D01*
X109750Y107597D01*
X109371Y107030D01*
X108891Y107067D01*
X108851Y107082D01*
X108798Y107349D01*
X108493Y107805D01*
X108139Y108041D01*
Y108791D01*
X108059Y108984D01*
X108179Y109470D01*
X108306Y109597D01*
X108777Y109912D01*
X109169Y110498D01*
X109306Y111189D01*
Y112665D01*
X107500D01*
Y113650D01*
X109306D01*
Y115126D01*
X109615Y115503D01*
X111469D01*
X111761Y115307D01*
X112106Y115239D01*
X112550D01*
Y111084D01*
X112737Y110632D01*
X114173Y109196D01*
X114173Y109196D01*
X114655Y108714D01*
X114448Y108214D01*
X114193D01*
Y105319D01*
X118269D01*
Y106106D01*
X118108Y106913D01*
X117659Y107586D01*
X117671Y107653D01*
X117819Y108086D01*
X122181D01*
X122329Y107653D01*
X122341Y107586D01*
X121892Y106913D01*
X121731Y106106D01*
Y105319D01*
X126299D01*
X130867D01*
Y106106D01*
X130707Y106913D01*
X130257Y107586D01*
X130269Y107653D01*
X130417Y108086D01*
X136325D01*
X136777Y108273D01*
X167590Y139086D01*
X193025D01*
X193477Y139273D01*
X195182Y140978D01*
X195600Y140895D01*
X196138Y141002D01*
X196593Y141306D01*
X196898Y141762D01*
X197005Y142300D01*
X196898Y142838D01*
X196593Y143293D01*
X196138Y143598D01*
X195600Y143705D01*
X195062Y143598D01*
X194621Y143303D01*
X194422Y143193D01*
X194093D01*
X193638Y143498D01*
X193100Y143605D01*
X192562Y143498D01*
X192106Y143193D01*
X191802Y142738D01*
X191695Y142200D01*
X191778Y141782D01*
X191148Y141152D01*
X185809D01*
X185618Y141614D01*
X188765Y144761D01*
X231970D01*
X232207Y144406D01*
X232662Y144102D01*
X233200Y143995D01*
X233738Y144102D01*
X234193Y144406D01*
X234498Y144862D01*
X234605Y145400D01*
X234498Y145938D01*
X234193Y146394D01*
X233738Y146698D01*
X233200Y146805D01*
D02*
G37*
G36*
X159008Y147173D02*
X157694D01*
Y145697D01*
X157831Y145006D01*
X158223Y144420D01*
X158809Y144028D01*
X159008Y143988D01*
Y147173D01*
D02*
G37*
G36*
X161306D02*
X159992D01*
Y143988D01*
X160191Y144028D01*
X160777Y144420D01*
X161169Y145006D01*
X161306Y145697D01*
Y147173D01*
D02*
G37*
G36*
X98008Y142787D02*
X96213D01*
Y142237D01*
X95713Y141863D01*
X95500Y141905D01*
X94962Y141798D01*
X94776Y141673D01*
X94276Y141940D01*
Y142394D01*
X90488D01*
Y138606D01*
X91579D01*
Y135853D01*
X91507Y135804D01*
X91202Y135349D01*
X91095Y134811D01*
Y130874D01*
X91202Y130336D01*
X91507Y129881D01*
X91962Y129576D01*
X92500Y129469D01*
X93038Y129576D01*
X93493Y129881D01*
X93798Y130336D01*
X93905Y130874D01*
Y134811D01*
X93798Y135349D01*
X93493Y135804D01*
X93185Y136011D01*
Y138606D01*
X94276D01*
Y139059D01*
X94776Y139327D01*
X94962Y139202D01*
X95500Y139095D01*
X95713Y139137D01*
X96213Y138763D01*
Y138213D01*
X98008D01*
Y140500D01*
Y142787D01*
D02*
G37*
G36*
X117287Y142847D02*
X115492D01*
Y141051D01*
X117287D01*
Y142847D01*
D02*
G37*
G36*
X114508D02*
X112713D01*
Y141051D01*
X114508D01*
Y142847D01*
D02*
G37*
G36*
X129287D02*
X127492D01*
Y141051D01*
X129287D01*
Y142847D01*
D02*
G37*
G36*
X123287D02*
X121492D01*
Y141051D01*
X123287D01*
Y142847D01*
D02*
G37*
G36*
X126508D02*
X124713D01*
Y141051D01*
X126508D01*
Y142847D01*
D02*
G37*
G36*
X120508D02*
X118713D01*
Y141051D01*
X120508D01*
Y142847D01*
D02*
G37*
G36*
X100787Y142787D02*
X98992D01*
Y140992D01*
X100787D01*
Y142787D01*
D02*
G37*
G36*
X45592Y141088D02*
Y139043D01*
X48388D01*
Y141088D01*
X45592D01*
D02*
G37*
G36*
X65588D02*
X62792D01*
Y139043D01*
X65588D01*
Y141088D01*
D02*
G37*
G36*
X57038D02*
X54242D01*
Y139043D01*
X57038D01*
Y141088D01*
D02*
G37*
G36*
X61808D02*
X59013D01*
Y139043D01*
X61808D01*
Y141088D01*
D02*
G37*
G36*
X53258D02*
X50463D01*
Y139043D01*
X53258D01*
Y141088D01*
D02*
G37*
G36*
X100787Y140008D02*
X98992D01*
Y138213D01*
X100787D01*
Y140008D01*
D02*
G37*
G36*
X65588Y138059D02*
X62792D01*
Y136013D01*
X65588D01*
Y138059D01*
D02*
G37*
G36*
X61808D02*
X59013D01*
Y136013D01*
X61808D01*
Y138059D01*
D02*
G37*
G36*
X57038D02*
X54242D01*
Y136013D01*
X57038D01*
Y138059D01*
D02*
G37*
G36*
X53258D02*
X50463D01*
Y136013D01*
X53258D01*
Y138059D01*
D02*
G37*
G36*
X48388D02*
X45592D01*
Y136013D01*
X48388D01*
Y138059D01*
D02*
G37*
G36*
X44608D02*
X41813D01*
Y136013D01*
X44608D01*
Y138059D01*
D02*
G37*
G36*
X97500Y136216D02*
X96962Y136109D01*
X96507Y135804D01*
X96202Y135349D01*
X96095Y134811D01*
Y130874D01*
X96202Y130336D01*
X96507Y129881D01*
X96962Y129576D01*
X97500Y129469D01*
X98038Y129576D01*
X98493Y129881D01*
X98798Y130336D01*
X98905Y130874D01*
Y134811D01*
X98798Y135349D01*
X98493Y135804D01*
X98038Y136109D01*
X97500Y136216D01*
D02*
G37*
G36*
X97992Y116834D02*
Y113650D01*
X99306D01*
Y115126D01*
X99169Y115817D01*
X98777Y116403D01*
X98191Y116795D01*
X97992Y116834D01*
D02*
G37*
G36*
X94272Y116898D02*
X92992D01*
Y113650D01*
X94272D01*
Y116898D01*
D02*
G37*
G36*
X92008D02*
X90728D01*
Y113650D01*
X92008D01*
Y116898D01*
D02*
G37*
G36*
X97008Y116834D02*
X96809Y116795D01*
X96223Y116403D01*
X95831Y115817D01*
X95694Y115126D01*
Y113650D01*
X97008D01*
Y116834D01*
D02*
G37*
G36*
X239500Y119574D02*
X238575Y119452D01*
X237713Y119095D01*
X236973Y118527D01*
X236405Y117787D01*
X236048Y116925D01*
X235926Y116000D01*
X236048Y115075D01*
X236405Y114213D01*
X236973Y113473D01*
X237713Y112905D01*
X238575Y112548D01*
X239500Y112426D01*
X240425Y112548D01*
X241287Y112905D01*
X242027Y113473D01*
X242595Y114213D01*
X242952Y115075D01*
X243074Y116000D01*
X242952Y116925D01*
X242595Y117787D01*
X242027Y118527D01*
X241287Y119095D01*
X240425Y119452D01*
X239500Y119574D01*
D02*
G37*
G36*
X85987Y112887D02*
X84192D01*
Y111092D01*
X85987D01*
Y112887D01*
D02*
G37*
G36*
X83208D02*
X81413D01*
Y111092D01*
X83208D01*
Y112887D01*
D02*
G37*
G36*
X97008Y112665D02*
X95694D01*
Y111189D01*
X95831Y110498D01*
X96223Y109912D01*
X96809Y109520D01*
X97008Y109481D01*
Y112665D01*
D02*
G37*
G36*
X99306D02*
X97992D01*
Y109481D01*
X98191Y109520D01*
X98777Y109912D01*
X99169Y110498D01*
X99306Y111189D01*
Y112665D01*
D02*
G37*
G36*
X94272D02*
X92992D01*
Y109417D01*
X94272D01*
Y112665D01*
D02*
G37*
G36*
X92008D02*
X90728D01*
Y109417D01*
X92008D01*
Y112665D01*
D02*
G37*
G36*
X85987Y110108D02*
X84192D01*
Y108313D01*
X85987D01*
Y110108D01*
D02*
G37*
G36*
X83208D02*
X81413D01*
Y108313D01*
X83208D01*
Y110108D01*
D02*
G37*
G36*
X92992Y108519D02*
Y105335D01*
X94306D01*
Y106811D01*
X94169Y107502D01*
X93777Y108088D01*
X93191Y108480D01*
X92992Y108519D01*
D02*
G37*
G36*
X92008Y108519D02*
X91809Y108480D01*
X91223Y108088D01*
X90831Y107502D01*
X90694Y106811D01*
Y105335D01*
X92008D01*
Y108519D01*
D02*
G37*
G36*
X97500Y108216D02*
X96962Y108109D01*
X96507Y107805D01*
X96202Y107349D01*
X96095Y106811D01*
Y102874D01*
X96202Y102336D01*
X96507Y101881D01*
X96962Y101576D01*
X97500Y101469D01*
X98038Y101576D01*
X98493Y101881D01*
X98798Y102336D01*
X98905Y102874D01*
Y106811D01*
X98798Y107349D01*
X98493Y107805D01*
X98038Y108109D01*
X97500Y108216D01*
D02*
G37*
G36*
X125807Y104335D02*
X121731D01*
Y103547D01*
X121892Y102741D01*
X122348Y102057D01*
X123032Y101600D01*
X123839Y101440D01*
X125807D01*
Y104335D01*
D02*
G37*
G36*
X118269D02*
X114193D01*
Y101440D01*
X116161D01*
X116968Y101600D01*
X117652Y102057D01*
X118108Y102741D01*
X118269Y103547D01*
Y104335D01*
D02*
G37*
G36*
X227726Y101887D02*
X225931D01*
Y101358D01*
X225431Y101039D01*
X225100Y101105D01*
X224562Y100998D01*
X224494Y100952D01*
X223994Y101219D01*
Y101494D01*
X220206D01*
Y97706D01*
X221189D01*
Y91311D01*
X220169D01*
Y87383D01*
X219669Y87175D01*
X217356Y89489D01*
X216904Y89676D01*
X212567D01*
X212330Y90030D01*
X211874Y90334D01*
X211336Y90441D01*
X210799Y90334D01*
X210343Y90030D01*
X210038Y89574D01*
X209931Y89037D01*
X210038Y88499D01*
X210343Y88043D01*
X210799Y87739D01*
X211336Y87631D01*
X211874Y87739D01*
X212064Y87865D01*
X212424Y87505D01*
X212403Y87474D01*
X212297Y86936D01*
X212403Y86399D01*
X212708Y85943D01*
X213164Y85638D01*
X213702Y85531D01*
X214239Y85638D01*
X214695Y85943D01*
X214932Y86297D01*
X216513D01*
X217962Y84848D01*
X218414Y84661D01*
X236220D01*
X236405Y84213D01*
X236973Y83473D01*
X237713Y82905D01*
X238575Y82548D01*
X239500Y82426D01*
X240425Y82548D01*
X241287Y82905D01*
X242027Y83473D01*
X242595Y84213D01*
X242952Y85075D01*
X243074Y86000D01*
X242952Y86925D01*
X242595Y87787D01*
X242027Y88527D01*
X241287Y89095D01*
X240425Y89452D01*
X239500Y89574D01*
X238575Y89452D01*
X237713Y89095D01*
X236973Y88527D01*
X236405Y87787D01*
X236048Y86925D01*
X235926Y86000D01*
X235873Y85939D01*
X230996D01*
X230805Y86401D01*
X234622Y90218D01*
X234622Y90218D01*
X237484Y93080D01*
X237713Y92905D01*
X238575Y92548D01*
X239500Y92426D01*
X240425Y92548D01*
X241287Y92905D01*
X242027Y93473D01*
X242595Y94213D01*
X242952Y95075D01*
X243074Y96000D01*
X242952Y96925D01*
X242595Y97787D01*
X242027Y98527D01*
X241287Y99095D01*
X240425Y99452D01*
X239500Y99574D01*
X238575Y99452D01*
X237713Y99095D01*
X236973Y98527D01*
X236405Y97787D01*
X236048Y96925D01*
X235926Y96000D01*
X236048Y95075D01*
X236405Y94213D01*
X236580Y93984D01*
X233718Y91122D01*
X233718Y91122D01*
X229535Y86939D01*
X228831D01*
Y91311D01*
X223011D01*
Y97706D01*
X223994D01*
Y98181D01*
X224494Y98448D01*
X224562Y98402D01*
X225100Y98295D01*
X225431Y98361D01*
X225931Y98042D01*
Y97313D01*
X227726D01*
Y99600D01*
Y101887D01*
D02*
G37*
G36*
X230505D02*
X228710D01*
Y100092D01*
X230505D01*
Y101887D01*
D02*
G37*
G36*
X143929Y101287D02*
X142133D01*
Y99492D01*
X143929D01*
Y101287D01*
D02*
G37*
G36*
X141149D02*
X139354D01*
Y99492D01*
X141149D01*
Y101287D01*
D02*
G37*
G36*
X37508Y99728D02*
X35713D01*
Y97933D01*
X37508D01*
Y99728D01*
D02*
G37*
G36*
X230505Y99108D02*
X228710D01*
Y97313D01*
X230505D01*
Y99108D01*
D02*
G37*
G36*
X143929Y98508D02*
X142133D01*
Y96713D01*
X143929D01*
Y98508D01*
D02*
G37*
G36*
X141149D02*
X139354D01*
Y96713D01*
X141149D01*
Y98508D01*
D02*
G37*
G36*
X37508Y96949D02*
X35713D01*
Y95153D01*
X37508D01*
Y96949D01*
D02*
G37*
G36*
X77933Y95787D02*
Y93992D01*
X79728D01*
Y95787D01*
X77933D01*
D02*
G37*
G36*
X143929Y95387D02*
X142133D01*
Y93592D01*
X143929D01*
Y95387D01*
D02*
G37*
G36*
X141149D02*
X139354D01*
Y93592D01*
X141149D01*
Y95387D01*
D02*
G37*
G36*
X215784Y101493D02*
X211059D01*
Y92832D01*
X215784D01*
Y101493D01*
D02*
G37*
G36*
X207784D02*
X203059D01*
Y92832D01*
X207784D01*
Y101493D01*
D02*
G37*
G36*
X79728Y93008D02*
X77933D01*
Y91213D01*
X79728D01*
Y93008D01*
D02*
G37*
G36*
X12224Y95637D02*
X9862D01*
X8941Y95454D01*
X8159Y94931D01*
X7637Y94150D01*
X7454Y93228D01*
X7637Y92307D01*
X8159Y91525D01*
X8941Y91003D01*
X9862Y90820D01*
X12224D01*
X13146Y91003D01*
X13927Y91525D01*
X14449Y92307D01*
X14633Y93228D01*
X14449Y94150D01*
X13927Y94931D01*
X13146Y95454D01*
X12224Y95637D01*
D02*
G37*
G36*
X143929Y92608D02*
X142133D01*
Y90813D01*
X143929D01*
Y92608D01*
D02*
G37*
G36*
X141149D02*
X139354D01*
Y90813D01*
X141149D01*
Y92608D01*
D02*
G37*
G36*
X71687Y90611D02*
X69892D01*
Y88816D01*
X71687D01*
Y90611D01*
D02*
G37*
G36*
X148727Y89153D02*
X144940D01*
Y88844D01*
X144440Y88577D01*
X144000Y88664D01*
X143560Y88577D01*
X143060Y88844D01*
Y89153D01*
X139273D01*
Y85365D01*
X143060D01*
Y85674D01*
X143560Y85942D01*
X144000Y85854D01*
X144440Y85942D01*
X144940Y85674D01*
Y85365D01*
X148727D01*
Y89153D01*
D02*
G37*
G36*
X137787Y89547D02*
X135992D01*
Y87751D01*
X137787D01*
Y89547D01*
D02*
G37*
G36*
X135008D02*
X133213D01*
Y87751D01*
X135008D01*
Y89547D01*
D02*
G37*
G36*
X137787Y86767D02*
X135992D01*
Y84972D01*
X137787D01*
Y86767D01*
D02*
G37*
G36*
X135008D02*
X133213D01*
Y84972D01*
X135008D01*
Y86767D01*
D02*
G37*
G36*
X39404Y89704D02*
X30742D01*
Y81042D01*
X39404D01*
Y89704D01*
D02*
G37*
G36*
X228831Y83398D02*
X220169D01*
Y78673D01*
X228831D01*
Y83398D01*
D02*
G37*
G36*
Y75563D02*
X220169D01*
Y70839D01*
X228831D01*
Y75563D01*
D02*
G37*
G36*
X97457Y74937D02*
X93913D01*
Y67063D01*
X97457D01*
Y74937D01*
D02*
G37*
G36*
X251740Y68594D02*
X250264D01*
Y66331D01*
X251740D01*
Y68594D01*
D02*
G37*
G36*
X93323Y71681D02*
X87811D01*
Y65382D01*
X93323D01*
Y71681D01*
D02*
G37*
G36*
X228831Y67650D02*
X220169D01*
Y62925D01*
X228831D01*
Y67650D01*
D02*
G37*
G36*
X80610Y60913D02*
X76377D01*
Y59239D01*
X80610D01*
Y60913D01*
D02*
G37*
G36*
Y58255D02*
X76377D01*
Y56582D01*
X80610D01*
Y58255D01*
D02*
G37*
G36*
X251740Y57669D02*
X250264D01*
Y55405D01*
X251740D01*
Y57669D01*
D02*
G37*
G36*
X165839Y59658D02*
X157177D01*
Y54933D01*
X165839D01*
Y59658D01*
D02*
G37*
G36*
X228831Y59618D02*
X220169D01*
Y54894D01*
X228831D01*
Y59618D01*
D02*
G37*
G36*
X165839Y51862D02*
X157177D01*
Y47138D01*
X165839D01*
Y51862D01*
D02*
G37*
G36*
X245342Y71449D02*
X242193D01*
Y66724D01*
X243128D01*
Y57276D01*
X242193D01*
Y52551D01*
X243302D01*
Y50394D01*
X242047D01*
Y49139D01*
X241400D01*
X240948Y48952D01*
X228277Y36281D01*
X226272D01*
X226154Y36232D01*
X220169D01*
Y31508D01*
X228831D01*
Y35122D01*
X228994Y35190D01*
X241547Y47743D01*
X242047Y47577D01*
Y46606D01*
X245835D01*
Y50394D01*
X244580D01*
Y52551D01*
X245342D01*
Y57276D01*
X244407D01*
Y66724D01*
X245342D01*
Y71449D01*
D02*
G37*
G36*
X73800Y48205D02*
X73262Y48098D01*
X72807Y47793D01*
X72502Y47338D01*
X72395Y46800D01*
X72478Y46382D01*
X71607Y45511D01*
X71420Y45059D01*
Y27394D01*
X70165D01*
Y23606D01*
X73953D01*
Y27394D01*
X72698D01*
Y44794D01*
X73382Y45478D01*
X73800Y45395D01*
X74338Y45502D01*
X74793Y45807D01*
X75098Y46262D01*
X75205Y46800D01*
X75098Y47338D01*
X74793Y47793D01*
X74338Y48098D01*
X73800Y48205D01*
D02*
G37*
G36*
X251740Y45342D02*
X250264D01*
Y43079D01*
X251740D01*
Y45342D01*
D02*
G37*
G36*
X20787Y44728D02*
X18992D01*
Y42933D01*
X20787D01*
Y44728D01*
D02*
G37*
G36*
X18008D02*
X16213D01*
Y42933D01*
X18008D01*
Y44728D01*
D02*
G37*
G36*
X15288Y44087D02*
X13193D01*
Y41992D01*
X15288D01*
Y44087D01*
D02*
G37*
G36*
X37600Y48985D02*
X36675Y48863D01*
X35813Y48506D01*
X35073Y47938D01*
X34505Y47198D01*
X34148Y46336D01*
X34026Y45411D01*
X34148Y44486D01*
X34505Y43624D01*
X34680Y43395D01*
X32185Y40900D01*
X32038Y40998D01*
X31500Y41105D01*
X30962Y40998D01*
X30507Y40694D01*
X30202Y40238D01*
X30115Y39801D01*
X30095Y39700D01*
X29657Y39339D01*
X21241D01*
X20789Y39152D01*
X19731Y38094D01*
X16847D01*
Y34306D01*
X18102D01*
Y31994D01*
X16847D01*
Y30739D01*
X14212D01*
Y31994D01*
X10424D01*
Y31607D01*
X9924Y31340D01*
X9838Y31398D01*
X9300Y31505D01*
X8762Y31398D01*
X8594Y31285D01*
X8094Y31553D01*
Y31994D01*
X4306D01*
Y28206D01*
X8094D01*
Y28647D01*
X8594Y28915D01*
X8762Y28802D01*
X9300Y28695D01*
X9838Y28802D01*
X9924Y28860D01*
X10424Y28593D01*
Y28206D01*
X14212D01*
Y29461D01*
X16847D01*
Y28206D01*
X20635D01*
Y31994D01*
X19380D01*
Y34306D01*
X20635D01*
Y37190D01*
X21506Y38061D01*
X22965D01*
Y34306D01*
X24056D01*
Y31994D01*
X22965D01*
Y28206D01*
X26753D01*
Y29297D01*
X30068D01*
X31832Y27532D01*
X31832Y27532D01*
X32093Y27358D01*
X32400Y27297D01*
X32400Y27297D01*
X47809D01*
X48116Y27358D01*
X48377Y27532D01*
X50257Y29412D01*
X50257Y29412D01*
X50431Y29673D01*
X50492Y29980D01*
Y30306D01*
X51835D01*
Y32840D01*
X53272Y34277D01*
X53772Y34070D01*
Y32692D01*
X55567D01*
Y34487D01*
X54189D01*
X53982Y34987D01*
X55201Y36206D01*
X57853D01*
Y39994D01*
X56762D01*
Y41973D01*
X57912D01*
Y45760D01*
X54124D01*
Y41973D01*
X55156D01*
Y39994D01*
X54065D01*
Y37342D01*
X50817Y34094D01*
X48047D01*
Y30306D01*
X48226D01*
X48418Y29844D01*
X47476Y28903D01*
X32732D01*
X30968Y30668D01*
X30707Y30842D01*
X30400Y30903D01*
X26753D01*
Y31994D01*
X25662D01*
Y34306D01*
X26753D01*
Y38061D01*
X29827D01*
X30163Y37681D01*
X30095Y37338D01*
X30202Y36800D01*
X30507Y36344D01*
X30962Y36040D01*
X31500Y35933D01*
X32038Y36040D01*
X32493Y36344D01*
X32798Y36800D01*
X32905Y37338D01*
X32798Y37876D01*
X32493Y38331D01*
Y38707D01*
X32798Y39162D01*
X32905Y39700D01*
X32886Y39793D01*
X35584Y42491D01*
X35813Y42316D01*
X36675Y41959D01*
X37600Y41837D01*
X38525Y41959D01*
X39387Y42316D01*
X40127Y42884D01*
X40487Y43353D01*
X40709Y43261D01*
X48006D01*
Y41973D01*
X49202D01*
Y39994D01*
X47947D01*
Y36206D01*
X51735D01*
Y39994D01*
X50480D01*
Y41973D01*
X51794D01*
Y45760D01*
X48006D01*
Y44539D01*
X41438D01*
X41109Y44915D01*
X41174Y45411D01*
X41052Y46336D01*
X40695Y47198D01*
X40127Y47938D01*
X39387Y48506D01*
X38525Y48863D01*
X37600Y48985D01*
D02*
G37*
G36*
X20787Y41949D02*
X18992D01*
Y40154D01*
X20787D01*
Y41949D01*
D02*
G37*
G36*
X18008D02*
X16213D01*
Y40154D01*
X18008D01*
Y41949D01*
D02*
G37*
G36*
X251740Y42094D02*
X250264D01*
Y39831D01*
X251740D01*
Y42094D01*
D02*
G37*
G36*
X228831Y43988D02*
X220169D01*
Y39264D01*
X228831D01*
Y43988D01*
D02*
G37*
G36*
X15288Y41008D02*
X13193D01*
Y38913D01*
X15288D01*
Y41008D01*
D02*
G37*
G36*
X12209D02*
X10113D01*
Y38913D01*
X12209D01*
Y41008D01*
D02*
G37*
G36*
X58346Y34487D02*
X56551D01*
Y32692D01*
X58346D01*
Y34487D01*
D02*
G37*
G36*
X41143Y37143D02*
X34057D01*
Y30057D01*
X41143D01*
Y37143D01*
D02*
G37*
G36*
X58346Y31708D02*
X56551D01*
Y29913D01*
X58346D01*
Y31708D01*
D02*
G37*
G36*
X55567D02*
X53772D01*
Y29913D01*
X55567D01*
Y31708D01*
D02*
G37*
G36*
X251740Y31169D02*
X250264D01*
Y28905D01*
X251740D01*
Y31169D01*
D02*
G37*
G36*
X133480Y31570D02*
X132559Y31387D01*
X131777Y30865D01*
X131255Y30083D01*
X131072Y29161D01*
X131255Y28240D01*
X131777Y27458D01*
X132559Y26936D01*
X133480Y26753D01*
X134402Y26936D01*
X135183Y27458D01*
X135705Y28240D01*
X135889Y29161D01*
X135705Y30083D01*
X135183Y30865D01*
X134402Y31387D01*
X133480Y31570D01*
D02*
G37*
G36*
X101984D02*
X101063Y31387D01*
X100281Y30865D01*
X99759Y30083D01*
X99576Y29161D01*
X99759Y28240D01*
X100281Y27458D01*
X101063Y26936D01*
X101984Y26753D01*
X102906Y26936D01*
X103687Y27458D01*
X104209Y28240D01*
X104393Y29161D01*
X104209Y30083D01*
X103687Y30865D01*
X102906Y31387D01*
X101984Y31570D01*
D02*
G37*
G36*
X155984Y35461D02*
X147197D01*
Y26012D01*
X155984D01*
Y35461D01*
D02*
G37*
G36*
X94961D02*
X86173D01*
Y26012D01*
X94961D01*
Y35461D01*
D02*
G37*
G36*
X251740Y27921D02*
X250264D01*
Y25657D01*
X251740D01*
Y27921D01*
D02*
G37*
G36*
X41792Y18755D02*
Y15492D01*
X45055D01*
X44990Y15989D01*
X44608Y16910D01*
X44001Y17701D01*
X43210Y18308D01*
X42289Y18690D01*
X41792Y18755D01*
D02*
G37*
G36*
X40808D02*
X40311Y18690D01*
X39390Y18308D01*
X38599Y17701D01*
X37992Y16910D01*
X37610Y15989D01*
X37545Y15492D01*
X40808D01*
Y18755D01*
D02*
G37*
G36*
X72992Y16798D02*
Y12992D01*
X76272D01*
Y13091D01*
X76144Y14067D01*
X75767Y14977D01*
X75168Y15758D01*
X74386Y16358D01*
X73476Y16734D01*
X72992Y16798D01*
D02*
G37*
G36*
X72008D02*
X71524Y16734D01*
X70614Y16358D01*
X69832Y15758D01*
X69233Y14977D01*
X68856Y14067D01*
X68728Y13091D01*
Y12992D01*
X72008D01*
Y16798D01*
D02*
G37*
G36*
X51300Y18423D02*
X50414Y18306D01*
X49589Y17964D01*
X48880Y17420D01*
X48336Y16712D01*
X47994Y15886D01*
X47877Y15000D01*
X47994Y14114D01*
X48336Y13288D01*
X48880Y12580D01*
X49589Y12036D01*
X50414Y11694D01*
X51300Y11577D01*
X52186Y11694D01*
X53012Y12036D01*
X53720Y12580D01*
X54264Y13288D01*
X54606Y14114D01*
X54723Y15000D01*
X54606Y15886D01*
X54264Y16712D01*
X53720Y17420D01*
X53012Y17964D01*
X52186Y18306D01*
X51300Y18423D01*
D02*
G37*
G36*
X31300D02*
X30414Y18306D01*
X29588Y17964D01*
X28880Y17420D01*
X28336Y16712D01*
X27994Y15886D01*
X27877Y15000D01*
X27994Y14114D01*
X28336Y13288D01*
X28880Y12580D01*
X29588Y12036D01*
X30414Y11694D01*
X31300Y11577D01*
X32186Y11694D01*
X33011Y12036D01*
X33720Y12580D01*
X34264Y13288D01*
X34606Y14114D01*
X34723Y15000D01*
X34606Y15886D01*
X34264Y16712D01*
X33720Y17420D01*
X33011Y17964D01*
X32186Y18306D01*
X31300Y18423D01*
D02*
G37*
G36*
X45055Y14508D02*
X41792D01*
Y11245D01*
X42289Y11310D01*
X43210Y11692D01*
X44001Y12299D01*
X44608Y13090D01*
X44990Y14011D01*
X45055Y14508D01*
D02*
G37*
G36*
X40808D02*
X37545D01*
X37610Y14011D01*
X37992Y13090D01*
X38599Y12299D01*
X39390Y11692D01*
X40311Y11310D01*
X40808Y11245D01*
Y14508D01*
D02*
G37*
G36*
X67835Y27394D02*
X64047D01*
Y24651D01*
X62048Y22652D01*
X61861Y22200D01*
Y16382D01*
X61626Y16351D01*
X60812Y16014D01*
X60113Y15477D01*
X59577Y14778D01*
X59240Y13964D01*
X59125Y13091D01*
Y11909D01*
X59240Y11036D01*
X59577Y10222D01*
X60113Y9523D01*
X60812Y8986D01*
X61626Y8649D01*
X62500Y8534D01*
X63374Y8649D01*
X64188Y8986D01*
X64887Y9523D01*
X65423Y10222D01*
X65760Y11036D01*
X65875Y11909D01*
Y13091D01*
X65760Y13964D01*
X65423Y14778D01*
X64887Y15477D01*
X64188Y16014D01*
X63374Y16351D01*
X63139Y16382D01*
Y21935D01*
X64810Y23606D01*
X67835D01*
Y27394D01*
D02*
G37*
G36*
X76272Y12008D02*
X72992D01*
Y8202D01*
X73476Y8266D01*
X74386Y8642D01*
X75168Y9242D01*
X75767Y10023D01*
X76144Y10933D01*
X76272Y11909D01*
Y12008D01*
D02*
G37*
G36*
X72008D02*
X68728D01*
Y11909D01*
X68856Y10933D01*
X69233Y10023D01*
X69832Y9242D01*
X70614Y8642D01*
X71524Y8266D01*
X72008Y8202D01*
Y12008D01*
D02*
G37*
G36*
X242126Y24549D02*
X240441Y24416D01*
X238798Y24022D01*
X237237Y23375D01*
X235796Y22492D01*
X234511Y21395D01*
X233413Y20110D01*
X232530Y18669D01*
X231884Y17108D01*
X231489Y15464D01*
X231357Y13780D01*
X231489Y12095D01*
X231884Y10452D01*
X232530Y8890D01*
X233413Y7449D01*
X234511Y6164D01*
X235796Y5067D01*
X237237Y4184D01*
X238798Y3537D01*
X240441Y3143D01*
X242126Y3010D01*
X243811Y3143D01*
X245454Y3537D01*
X247015Y4184D01*
X248456Y5067D01*
X249741Y6164D01*
X250839Y7449D01*
X251722Y8890D01*
X252368Y10452D01*
X252763Y12095D01*
X252895Y13780D01*
X252763Y15464D01*
X252368Y17108D01*
X251722Y18669D01*
X250839Y20110D01*
X249741Y21395D01*
X248456Y22492D01*
X247015Y23375D01*
X245454Y24022D01*
X243811Y24416D01*
X242126Y24549D01*
D02*
G37*
G36*
X13780D02*
X12095Y24416D01*
X10452Y24022D01*
X8890Y23375D01*
X7449Y22492D01*
X6164Y21395D01*
X5067Y20110D01*
X4184Y18669D01*
X3537Y17108D01*
X3143Y15464D01*
X3010Y13780D01*
X3143Y12095D01*
X3537Y10452D01*
X4184Y8890D01*
X5067Y7449D01*
X6164Y6164D01*
X7449Y5067D01*
X8890Y4184D01*
X10452Y3537D01*
X12095Y3143D01*
X13780Y3010D01*
X15464Y3143D01*
X17108Y3537D01*
X18669Y4184D01*
X20110Y5067D01*
X21395Y6164D01*
X22492Y7449D01*
X23375Y8890D01*
X24022Y10452D01*
X24416Y12095D01*
X24549Y13780D01*
X24416Y15464D01*
X24022Y17108D01*
X23375Y18669D01*
X22492Y20110D01*
X21395Y21395D01*
X20110Y22492D01*
X18669Y23375D01*
X17108Y24022D01*
X15464Y24416D01*
X13780Y24549D01*
D02*
G37*
%LPD*%
G36*
X133103Y132993D02*
Y124383D01*
X131646Y122926D01*
X131456Y122899D01*
X131422Y122911D01*
X131220Y123509D01*
X131225Y123516D01*
X131280Y123791D01*
X131650Y124161D01*
X131700D01*
X132152Y124348D01*
X132339Y124800D01*
X132152Y125252D01*
X131700Y125439D01*
X131385D01*
X131277Y125394D01*
X131158Y125463D01*
X130880Y125772D01*
X130923Y125984D01*
X130854Y126330D01*
X130658Y126623D01*
X130365Y126819D01*
X130113Y126869D01*
X129975Y127150D01*
X129935Y127387D01*
X130195Y127777D01*
X130302Y128315D01*
X130195Y128853D01*
X129891Y129308D01*
X129435Y129613D01*
X128897Y129720D01*
X128360Y129613D01*
X127904Y129308D01*
X127599Y128853D01*
X127492Y128315D01*
X127599Y127777D01*
X127860Y127387D01*
X127858Y127261D01*
X127829Y127150D01*
X127700Y126857D01*
X127509Y126819D01*
X127216Y126623D01*
X127123Y126485D01*
X126623Y126637D01*
Y127216D01*
X126819Y127509D01*
X126887Y127854D01*
Y130020D01*
X126819Y130365D01*
X126623Y130657D01*
Y132547D01*
X128894D01*
X129034Y132415D01*
X129106Y132307D01*
X129562Y132002D01*
X130100Y131895D01*
X130638Y132002D01*
X131094Y132307D01*
X131398Y132762D01*
X131505Y133300D01*
X131398Y133838D01*
X131094Y134293D01*
X130638Y134598D01*
X130100Y134705D01*
X129562Y134598D01*
X129394Y134485D01*
X128894Y134753D01*
Y136173D01*
X129923D01*
X133103Y132993D01*
D02*
G37*
G36*
X121769Y136461D02*
X121681Y136335D01*
X119106D01*
Y132547D01*
X122894D01*
Y135431D01*
X123636Y136173D01*
X125106D01*
Y132547D01*
X125345D01*
Y130657D01*
X125282Y130563D01*
X124718D01*
X124654Y130658D01*
X124361Y130854D01*
X124016Y130923D01*
X123670Y130854D01*
X123377Y130658D01*
X123313Y130563D01*
X122750D01*
X122686Y130658D01*
X122393Y130854D01*
X122047Y130923D01*
X121702Y130854D01*
X121409Y130658D01*
X121345Y130563D01*
X120781D01*
X120717Y130658D01*
X120424Y130854D01*
X120079Y130923D01*
X119733Y130854D01*
X119440Y130658D01*
X119376Y130563D01*
X118813D01*
X118749Y130658D01*
X118456Y130854D01*
X118110Y130923D01*
X117765Y130854D01*
X117472Y130658D01*
X117064Y130942D01*
X117064Y130942D01*
X116641Y131225D01*
X116634Y131226D01*
Y128937D01*
X116142D01*
Y128445D01*
X114837D01*
Y127854D01*
X114936Y127355D01*
X115115Y127087D01*
X114755Y126727D01*
X114617Y126819D01*
X114272Y126887D01*
X112106D01*
X111839Y126834D01*
X111582Y126955D01*
X111339Y127138D01*
Y128135D01*
X114149Y130945D01*
X114336Y131397D01*
Y132547D01*
X116894D01*
Y136335D01*
X113853D01*
X113570Y136835D01*
X113645Y136961D01*
X121507D01*
X121769Y136461D01*
D02*
G37*
G36*
X158295Y136499D02*
X135635Y113839D01*
X129065D01*
X128165Y114739D01*
X128373Y115239D01*
X130020D01*
X130365Y115307D01*
X130658Y115503D01*
X130854Y115796D01*
X130923Y116142D01*
X130854Y116487D01*
X130658Y116780D01*
X130563Y116844D01*
Y117408D01*
X130658Y117472D01*
X130854Y117765D01*
X130923Y118110D01*
X130854Y118456D01*
X130658Y118749D01*
X130942Y119156D01*
X130942Y119156D01*
X131225Y119580D01*
X131226Y119587D01*
X128937D01*
Y120571D01*
X131226D01*
X131225Y120578D01*
X131004Y120908D01*
X131113Y121246D01*
X131226Y121408D01*
X131671D01*
X132123Y121595D01*
X134195Y123667D01*
X134382Y124119D01*
Y133257D01*
X134195Y133710D01*
X131405Y136499D01*
X131597Y136961D01*
X158104D01*
X158295Y136499D01*
D02*
G37*
G36*
X166107Y139411D02*
X136060Y109364D01*
X115813D01*
X115077Y110100D01*
X115077Y110100D01*
X114842Y110335D01*
X115057Y110827D01*
X115650D01*
Y113189D01*
X116634D01*
Y110827D01*
X117421D01*
Y110900D01*
X117514Y111001D01*
X117921Y111241D01*
X118110Y111203D01*
X118456Y111272D01*
X118749Y111468D01*
X118813Y111563D01*
X119376D01*
X119440Y111468D01*
X119733Y111272D01*
X120079Y111203D01*
X120424Y111272D01*
X120717Y111468D01*
X120781Y111563D01*
X121345D01*
X121409Y111468D01*
X121702Y111272D01*
X122047Y111203D01*
X122393Y111272D01*
X122686Y111468D01*
X122750Y111563D01*
X123313D01*
X123377Y111468D01*
X123670Y111272D01*
X124016Y111203D01*
X124361Y111272D01*
X124654Y111468D01*
X124718Y111563D01*
X125282D01*
X125346Y111468D01*
X125639Y111272D01*
X125984Y111203D01*
X126330Y111272D01*
X126623Y111468D01*
X126819Y111761D01*
X126887Y112106D01*
Y113555D01*
X127349Y113747D01*
X128348Y112748D01*
X128800Y112561D01*
X135900D01*
X136352Y112748D01*
X163477Y139873D01*
X165916D01*
X166107Y139411D01*
D02*
G37*
%LPC*%
G36*
X115650Y131226D02*
X115642Y131225D01*
X115219Y130942D01*
X114936Y130519D01*
X114837Y130020D01*
Y129429D01*
X115650D01*
Y131226D01*
D02*
G37*
G36*
X222410Y164908D02*
X221327D01*
Y158707D01*
X222410D01*
Y164908D01*
D02*
G37*
G36*
X62177Y126507D02*
X61409Y126354D01*
X60758Y125919D01*
X60323Y125268D01*
X60170Y124500D01*
X60323Y123732D01*
X60758Y123081D01*
X61409Y122646D01*
X62177Y122493D01*
X62945Y122646D01*
X63596Y123081D01*
X64031Y123732D01*
X64184Y124500D01*
X64031Y125268D01*
X63596Y125919D01*
X62945Y126354D01*
X62177Y126507D01*
D02*
G37*
G36*
X183783Y101493D02*
X179059D01*
Y92832D01*
X183783D01*
Y101493D01*
D02*
G37*
G36*
X175784D02*
X171059D01*
Y92832D01*
X175784D01*
Y101493D01*
D02*
G37*
G36*
X166232Y91862D02*
X162000D01*
Y89598D01*
X166232D01*
Y91862D01*
D02*
G37*
G36*
X161016D02*
X156783D01*
Y89598D01*
X161016D01*
Y91862D01*
D02*
G37*
G36*
X166232Y88614D02*
X162000D01*
Y86350D01*
X166232D01*
Y88614D01*
D02*
G37*
G36*
X161016D02*
X156783D01*
Y86350D01*
X161016D01*
Y88614D01*
D02*
G37*
G36*
X166232Y83831D02*
X162000D01*
Y81567D01*
X166232D01*
Y83831D01*
D02*
G37*
G36*
X161016D02*
X156783D01*
Y81567D01*
X161016D01*
Y83831D01*
D02*
G37*
G36*
X166232Y80583D02*
X162000D01*
Y78319D01*
X166232D01*
Y80583D01*
D02*
G37*
G36*
X161016D02*
X156783D01*
Y78319D01*
X161016D01*
Y80583D01*
D02*
G37*
%LPD*%
D10*
X117223Y166778D02*
X117800Y167354D01*
Y178323D01*
X77323Y166201D02*
X77899Y166778D01*
X77323Y161998D02*
Y166201D01*
X77899Y166778D02*
X117223D01*
X75900Y160576D02*
X77323Y161998D01*
X38400Y139637D02*
X47300Y148537D01*
X38400Y119882D02*
Y139637D01*
X47300Y148537D02*
Y148800D01*
Y148646D02*
Y152059D01*
X47341Y152100D01*
X75900Y155075D02*
Y160576D01*
Y155075D02*
X75975Y155000D01*
X118377Y178900D02*
X127200D01*
X117800Y178323D02*
X118377Y178900D01*
X127941Y179641D02*
Y181782D01*
X127200Y178900D02*
X127941Y179641D01*
Y181782D02*
X128200Y182041D01*
D11*
X63500Y88323D02*
X69400D01*
D12*
X167600Y181500D02*
X170680D01*
X152952Y193644D02*
Y196658D01*
X152867Y193559D02*
X152952Y193644D01*
Y196658D02*
X152971Y196678D01*
X73500Y75600D02*
Y80100D01*
X158833Y193559D02*
Y196867D01*
X158800Y196900D02*
X158833Y196867D01*
X167569Y191186D02*
Y197546D01*
X168527Y198503D01*
X161792Y190600D02*
X166983D01*
X167569Y191186D01*
X168762Y200152D02*
X170176D01*
X168527Y199917D02*
X168762Y200152D01*
X168527Y198503D02*
Y199917D01*
X158833Y193559D02*
X161792Y190600D01*
X238000Y76000D02*
X244000D01*
X222100Y99600D02*
X222200Y99700D01*
X225100D01*
X222100Y90417D02*
Y99600D01*
Y90417D02*
X223569Y88949D01*
X224500D01*
X255906Y242126D02*
G03*
X242126Y255906I-13780J0D01*
G01*
Y0D02*
G03*
X255906Y13780I0J13780D01*
G01*
X0D02*
G03*
X13780Y0I13780J0D01*
G01*
Y255906D02*
G03*
X0Y242126I0J-13780D01*
G01*
X13780Y0D02*
X242126D01*
X255906Y13780D02*
Y242126D01*
X13780Y255906D02*
X242126D01*
X0Y13780D02*
Y242126D01*
D14*
X127848Y181689D02*
X127941Y181782D01*
X31102Y119882D02*
X38400D01*
X106600Y181689D02*
X127848D01*
X38400Y119882D02*
X41600D01*
X43059D01*
X41600Y109280D02*
Y119882D01*
Y109280D02*
X46000D01*
X44000Y118500D02*
X49941D01*
Y124500D01*
X44000Y118500D02*
Y118941D01*
X43059Y119882D02*
X44000Y118941D01*
D17*
X14500Y142141D02*
G03*
X16641Y140000I2141J0D01*
G01*
X30366Y146153D02*
G03*
X33900Y149687I0J3534D01*
G01*
X34500Y161165D02*
G03*
X33900Y160565I0J-600D01*
G01*
X6200Y155900D02*
G03*
X9500Y159200I0J3300D01*
G01*
X6200Y155900D02*
G03*
X4138Y153838I0J-2062D01*
G01*
X4200Y156300D02*
G03*
X4500Y156600I0J300D01*
G01*
X4200Y156300D02*
G03*
X3350Y155450I0J-850D01*
G01*
X3350Y120039D02*
G03*
X14138Y109252I10787J0D01*
G01*
X4138Y121221D02*
G03*
X14138Y111221I10000J0D01*
G01*
X30366Y146153D02*
G03*
X28700Y144487I0J-1666D01*
G01*
X38634Y152847D02*
G03*
X39500Y153713I0J866D01*
G01*
X38634Y152847D02*
G03*
X34700Y148913I0J-3934D01*
G01*
X42400Y176210D02*
G03*
X44768Y173843I2368J0D01*
G01*
X42400Y185400D02*
G03*
X41200Y186600I-1200J0D01*
G01*
X35400D02*
G03*
X34500Y185700I0J-900D01*
G01*
X39500Y180095D02*
G03*
X47721Y171874I8220J0D01*
G01*
X128937Y124016D02*
X129018Y124097D01*
X130682D01*
X131385Y124800D01*
X131700D01*
X133742Y124119D02*
Y133257D01*
X131671Y122047D02*
X133742Y124119D01*
X128937Y122047D02*
X131671D01*
X130187Y136813D02*
X133742Y133257D01*
X163213Y140513D02*
X191413D01*
X135900Y113200D02*
X163213Y140513D01*
X204300Y158200D02*
Y165400D01*
X202500Y153900D02*
X202600Y154000D01*
X236537D01*
X244500Y221000D02*
X249500Y226000D01*
X237500Y221000D02*
X244500D01*
X232846Y216347D02*
X237500Y221000D01*
X232797Y216347D02*
X232846D01*
X221200Y204749D02*
X232797Y216347D01*
X221200Y197500D02*
Y204749D01*
X204300Y171900D02*
X205800Y173400D01*
X204300Y165400D02*
Y171900D01*
X102213Y228701D02*
X103000Y229488D01*
X99500Y228701D02*
X102213D01*
X234170Y90670D02*
X239500Y96000D01*
X234170Y90670D02*
Y90670D01*
X229800Y86300D02*
X234170Y90670D01*
X219641Y86300D02*
X229800D01*
X216904Y89037D02*
X219641Y86300D01*
X211336Y89037D02*
X216904D01*
X102213Y225551D02*
X103000Y224764D01*
X99500Y225551D02*
X102213D01*
X216777Y86936D02*
X218414Y85300D01*
X238800D02*
X239500Y86000D01*
X218414Y85300D02*
X238800D01*
X213702Y86936D02*
X216777D01*
X99500Y227126D02*
X103000D01*
X198788Y158200D02*
Y165400D01*
X201544Y158200D02*
Y165400D01*
X201028Y156148D02*
X210448D01*
X212600Y158300D01*
X198800Y153920D02*
X201028Y156148D01*
X198800Y150600D02*
Y153920D01*
X238537Y156000D02*
X239500D01*
X236537Y154000D02*
X238537Y156000D01*
X196200Y148000D02*
X198800Y150600D01*
X212568Y158332D02*
X212600Y158300D01*
X172559Y148000D02*
X196200D01*
X195562Y150400D02*
Y150826D01*
X193200Y150400D02*
X193276Y150476D01*
X234900Y150600D02*
X239500Y146000D01*
X202500Y150600D02*
X234900D01*
X212600Y158300D02*
X217000D01*
X212568Y158332D02*
Y165400D01*
X142712Y251187D02*
X142715Y251190D01*
X142712Y251187D02*
X142889D01*
X138778Y224600D02*
X144250D01*
X138500Y234300D02*
Y238181D01*
X142715Y251190D02*
X142930D01*
X140910D02*
X142715D01*
X101251Y74347D02*
X105533Y78629D01*
X129153D02*
X133409Y82885D01*
X105533Y78629D02*
X129153D01*
X115548Y108725D02*
X136325D01*
X167325Y139725D01*
X147000Y202764D02*
X150638D01*
X151074Y203200D01*
X151500D01*
X128937Y125984D02*
Y128275D01*
X128897Y128315D02*
X128937Y128275D01*
X95346Y204866D02*
X96250Y205769D01*
Y207983D01*
X96260Y207994D01*
X96200Y231800D02*
Y231850D01*
X99500D01*
X217835Y165155D02*
X218079Y165400D01*
X217835Y159135D02*
Y165155D01*
X217000Y158300D02*
X217835Y159135D01*
X241314Y211400D02*
X244864Y214949D01*
X248449D01*
X239800Y211400D02*
X241314D01*
X215324Y165400D02*
Y172376D01*
X212600Y175100D02*
X215324Y172376D01*
X184600Y171600D02*
X188100Y175100D01*
X212600D01*
X173500Y157999D02*
X174057D01*
X175660Y159602D01*
Y160159D01*
X184600Y169099D01*
Y171600D01*
X233403Y214497D02*
X238160Y209740D01*
X233175Y214497D02*
X233403D01*
X222474Y201364D02*
Y201963D01*
Y201364D02*
X222775Y201063D01*
X222355Y202081D02*
Y204455D01*
Y202081D02*
X222474Y201963D01*
X183350Y183241D02*
X223108D01*
X178809Y178700D02*
X183350Y183241D01*
X223349Y181497D02*
X228847Y176000D01*
X182720Y181497D02*
X223349D01*
X228847Y176000D02*
X239500D01*
X178323Y177100D02*
X182720Y181497D01*
X187123Y176423D02*
X217341D01*
X221867Y171896D02*
X221867D01*
X217341Y176423D02*
X221867Y171896D01*
X221867D02*
X222931Y170833D01*
X192397Y179082D02*
X218037D01*
X224505Y169883D02*
Y172614D01*
X218037Y179082D02*
X224505Y172614D01*
X222931Y167869D02*
Y170833D01*
X173100Y162400D02*
X187123Y176423D01*
X225700Y212262D02*
X225762D01*
X239500Y226000D01*
X223900Y206000D02*
X239500D01*
X222355Y204455D02*
X223900Y206000D01*
X171197Y37256D02*
X205870Y71930D01*
X185134Y76834D02*
X228880D01*
X173705Y65405D02*
X185134Y76834D01*
X218231Y196071D02*
Y209396D01*
X219993Y211158D01*
X217444Y209722D02*
X219206Y211484D01*
X217444Y195745D02*
X219206Y193983D01*
X217444Y195745D02*
Y209722D01*
X216657Y195418D02*
Y210049D01*
X215786Y224614D02*
X218418Y221982D01*
Y211810D02*
Y221982D01*
X219019Y209070D02*
X221790Y211841D01*
X219019Y196397D02*
Y209070D01*
X216657Y195418D02*
X232335Y179740D01*
X216657Y210049D02*
X218418Y211810D01*
X218231Y196071D02*
X219993Y194309D01*
X219019Y196397D02*
X221790Y193626D01*
X219206Y193983D02*
X220215Y192974D01*
X219993Y194309D02*
X221002Y193300D01*
X219206Y211484D02*
X220215Y212493D01*
X219993Y211158D02*
X221002Y212167D01*
X220215Y192974D02*
Y192974D01*
X221002Y193300D02*
Y193300D01*
X221790Y193626D02*
Y193626D01*
X221002Y193300D02*
X232987Y181315D01*
X220215Y192974D02*
X232661Y180528D01*
X221790Y193626D02*
X233313Y182102D01*
X221002Y212167D02*
Y249216D01*
X221790Y211841D02*
Y249542D01*
X220215Y212493D02*
Y243385D01*
X232038Y203462D02*
X239500Y196000D01*
X224152Y203462D02*
X232038D01*
X193276Y171502D02*
X193473Y171699D01*
Y173100D01*
X193276Y150476D02*
Y165400D01*
Y171502D01*
X191413Y140513D02*
X193100Y142200D01*
X113202Y118097D02*
X115003D01*
X126400Y115600D02*
X128800Y113200D01*
X135900D01*
X115003Y118097D02*
X117500Y115600D01*
X126400D01*
X109200Y119600D02*
Y139800D01*
Y119600D02*
X110000Y118800D01*
X108200Y140800D02*
X109200Y139800D01*
X110690Y118110D02*
X113189D01*
X113202Y118097D01*
X110000Y118800D02*
Y118800D01*
Y118800D02*
X110690Y118110D01*
X82276Y224276D02*
X82688Y224688D01*
Y224700D01*
X104486Y139686D02*
X105600Y140800D01*
X108200D01*
X102500Y137700D02*
X104486Y139686D01*
X82276Y220925D02*
Y224276D01*
X102500Y117353D02*
X104075Y115778D01*
Y110537D02*
Y115778D01*
X102500Y108962D02*
X104075Y110537D01*
X101535Y100335D02*
X102500Y101300D01*
Y117353D02*
Y132843D01*
Y137700D01*
Y104842D02*
Y108962D01*
X84972Y105453D02*
X85245Y105179D01*
X102500Y101300D02*
Y104842D01*
X91305Y100335D02*
X101535D01*
X85245Y105179D02*
X86461D01*
X91305Y100335D01*
X195835Y171699D02*
X196032Y171502D01*
Y165400D02*
Y171502D01*
X195835Y171699D02*
Y173100D01*
X196032Y151296D02*
Y165400D01*
X195562Y150826D02*
X196032Y151296D01*
X167325Y139725D02*
X193025D01*
X195600Y142300D01*
X113189Y111084D02*
Y116142D01*
Y111084D02*
X114625Y109648D01*
Y109648D02*
X115548Y108725D01*
X114625Y109648D02*
Y109648D01*
X107270Y136222D02*
X107500Y135992D01*
Y132843D02*
Y135992D01*
X107270Y136222D02*
Y139130D01*
X80307Y224600D02*
X80701Y224206D01*
Y220925D02*
Y224206D01*
X107500Y117353D02*
Y132843D01*
Y117353D02*
X108711Y116142D01*
X105925Y115778D02*
X107500Y117353D01*
X108711Y116142D02*
X113189D01*
X107500Y104842D02*
Y108791D01*
Y100900D02*
Y104842D01*
X105925Y110366D02*
Y115778D01*
Y110366D02*
X107500Y108791D01*
X84972Y99547D02*
X106147D01*
X107500Y100900D01*
X232987Y181315D02*
X236107D01*
X233313Y182102D02*
X242028D01*
X232661Y180528D02*
X235781D01*
X232335Y179740D02*
X241049D01*
X184400Y141300D02*
X188500Y145400D01*
X233200D01*
X159186Y137600D02*
X162887Y141300D01*
X239500Y131289D02*
X243240Y127549D01*
X239500Y131289D02*
Y136000D01*
X146900Y187441D02*
X152867D01*
X3224Y187997D02*
Y226338D01*
Y187997D02*
X4500Y186721D01*
X4012Y226012D02*
X7831Y229832D01*
X4012Y188323D02*
X9500Y182835D01*
X4012Y188323D02*
Y226012D01*
X3224Y226338D02*
X4000Y227114D01*
X4500Y182835D02*
Y186721D01*
X4000Y227114D02*
Y227114D01*
X109218Y62800D02*
X109268Y62750D01*
X198310Y103073D02*
X220636Y125400D01*
X197331Y105435D02*
X219658Y127762D01*
X197657Y104648D02*
X219984Y126975D01*
X193587Y101104D02*
X196344Y103860D01*
X196017Y104648D02*
X197657D01*
X194156Y103900D02*
X195691Y105435D01*
X197983Y103860D02*
X220310Y126187D01*
X196670Y103073D02*
X198310D01*
X194375Y100778D02*
X196670Y103073D01*
X195691Y105435D02*
X197331D01*
X192800Y101430D02*
X196017Y104648D01*
X196344Y103860D02*
X197983D01*
X220310Y126187D02*
X239313D01*
X193587Y91574D02*
Y101104D01*
X219984Y126975D02*
X227900D01*
X220636Y125400D02*
X234811D01*
X219658Y127762D02*
X221262D01*
X160900Y103900D02*
X194156D01*
X192800Y91900D02*
Y101430D01*
X194375Y91248D02*
Y100778D01*
X241049Y179740D02*
X244092Y176697D01*
Y152908D02*
X247260Y149740D01*
X244092Y152908D02*
Y176697D01*
X241375Y180528D02*
X244961Y176942D01*
Y165250D02*
X249500Y160711D01*
X244961Y165250D02*
Y176942D01*
X241702Y181315D02*
X246007Y177009D01*
X248491D02*
X249500Y176000D01*
X246007Y177009D02*
X248491D01*
X249500Y156000D02*
Y160711D01*
X236107Y181315D02*
X241702D01*
X235781Y180528D02*
X241375D01*
X219427Y251905D02*
X221790Y249542D01*
X242028Y182102D02*
X243330Y180800D01*
X218700Y244900D02*
X220215Y243385D01*
X218639Y251578D02*
X221002Y249216D01*
X249500Y86000D02*
X253346Y89846D01*
Y147443D01*
X251049Y149740D02*
X253346Y147443D01*
X247260Y149740D02*
X251049D01*
X243330Y180800D02*
X249989D01*
X144264Y224614D02*
X215786D01*
X144250Y224600D02*
X144264Y224614D01*
X198700Y230400D02*
X201034Y232734D01*
X154359Y230400D02*
X198700D01*
X152468D02*
X154359D01*
X96300Y241300D02*
X96301Y241299D01*
X99500D01*
X79754Y244466D02*
Y244892D01*
X77551Y243416D02*
X77748Y243219D01*
X77551Y243416D02*
Y247500D01*
X79126D02*
X79323Y247303D01*
Y245324D02*
Y247303D01*
Y245324D02*
X79754Y244892D01*
X224800Y166000D02*
X239500D01*
X222931Y167869D02*
X224800Y166000D01*
X171500Y162400D02*
X173100D01*
X112000Y137600D02*
X159186D01*
X162887Y141300D02*
X184400D01*
X121000Y134441D02*
X123372Y136813D01*
X130187D01*
X169500Y178700D02*
X178809D01*
X171400Y177100D02*
X178323D01*
X146900Y193559D02*
X149805Y196465D01*
X150000D01*
X221262Y127762D02*
X222500Y129000D01*
X154900Y97900D02*
X160900Y103900D01*
X154900Y87600D02*
Y97900D01*
X148693Y81393D02*
X154900Y87600D01*
X146833Y81141D02*
X147086Y81393D01*
X148693D01*
X100016Y71000D02*
Y73165D01*
Y68835D02*
Y71000D01*
X138708Y83600D02*
X141167Y81141D01*
X134124Y83600D02*
X138708D01*
X133409Y82886D02*
X134124Y83600D01*
X133409Y82885D02*
Y82886D01*
X101197Y74347D02*
X101251D01*
X100016Y68835D02*
X106050Y62800D01*
X109218D01*
X92390Y215424D02*
X98161D01*
X98695Y214890D01*
X91530Y216283D02*
X92390Y215424D01*
X98695Y207830D02*
X99838Y206687D01*
Y206456D02*
Y206687D01*
X98695Y207830D02*
Y214890D01*
X88575Y220925D02*
X88772Y220728D01*
Y219042D02*
Y220728D01*
X91530Y216283D02*
X91530D01*
X88772Y219042D02*
X91530Y216283D01*
X100016Y73165D02*
X101197Y74347D01*
X72059Y45059D02*
X73800Y46800D01*
X72059Y25500D02*
Y45059D01*
X107325Y65248D02*
X107325D01*
X105444Y67129D02*
Y69902D01*
X104347Y71000D02*
X105444Y69902D01*
X111495Y62800D02*
X111630D01*
X107325Y65248D02*
X108248Y64325D01*
X105444Y67129D02*
X107325Y65248D01*
X109970Y64325D02*
X111495Y62800D01*
X108248Y64325D02*
X109970D01*
X93204Y216211D02*
X98487D01*
X99482Y215216D01*
X92512Y216903D02*
X93204Y216211D01*
X99482Y209843D02*
Y215216D01*
X91724Y217690D02*
Y220925D01*
X92512Y216903D02*
Y216903D01*
X91724Y217690D02*
X92512Y216903D01*
X99482Y209843D02*
X100625Y208700D01*
X243240Y102260D02*
X249500Y96000D01*
X237951Y102260D02*
X243240D01*
X236642Y103569D02*
X237951Y102260D01*
X211000Y109600D02*
X217031Y103569D01*
X236642D01*
X122815Y162200D02*
X125117D01*
X125804Y162887D01*
X128869D02*
X128886Y162904D01*
X125000Y160969D02*
X126130Y162099D01*
X129195D01*
X129213Y162117D01*
X125804Y162887D02*
X128869D01*
X128886Y162904D02*
X158704D01*
X159671Y161329D02*
X162900Y158100D01*
X127242Y159032D02*
X129539Y161329D01*
X159217Y162117D02*
X159800Y162700D01*
X129213Y162117D02*
X159217D01*
X158704Y162904D02*
X162400Y166600D01*
X129539Y161329D02*
X159671D01*
X125000Y157500D02*
Y160969D01*
X159800Y162700D02*
Y162886D01*
X164118Y164977D02*
Y165177D01*
X163187Y169887D02*
X163800Y170500D01*
X163187Y166274D02*
Y169887D01*
X159800Y162886D02*
X163187Y166274D01*
X164118Y165177D02*
X166441Y167500D01*
X162400Y166600D02*
Y172300D01*
X163800Y170500D02*
X168400D01*
X170100Y172200D02*
Y175800D01*
X168400Y170500D02*
X170100Y172200D01*
Y175800D02*
X171400Y177100D01*
X238160Y209740D02*
X241049D01*
X244789Y206000D01*
X165012Y37256D02*
X171197D01*
X153447Y41813D02*
X161508Y33752D01*
X84874Y41813D02*
X153447D01*
X161508Y33752D02*
X165012Y37256D01*
X79126Y218957D02*
Y220925D01*
X78732Y218563D02*
X79126Y218957D01*
X78732Y217874D02*
Y218563D01*
X77971Y217113D02*
X78732Y217874D01*
X73013Y217113D02*
X77971D01*
X71900Y216000D02*
X73013Y217113D01*
X71900Y193096D02*
Y216000D01*
X66244Y187440D02*
X71900Y193096D01*
X66182Y187440D02*
X66244D01*
X58365D02*
X66182D01*
X70487Y117213D02*
X73406Y114294D01*
Y86240D02*
Y114294D01*
X66182Y187440D02*
X70487Y183135D01*
X69813Y56874D02*
X84874Y41813D01*
X69813Y82647D02*
X73406Y86240D01*
X57563Y186638D02*
X58365Y187440D01*
X57563Y183685D02*
Y186638D01*
X70487Y117213D02*
Y183135D01*
X69813Y56874D02*
Y82647D01*
X77551Y218957D02*
Y220925D01*
Y218957D02*
X77945Y218563D01*
Y218200D02*
Y218563D01*
X77645Y217900D02*
X77945Y218200D01*
X72686Y217900D02*
X77645D01*
X168643Y38043D02*
X204200Y73600D01*
X165012Y38043D02*
X168643D01*
X156321Y42600D02*
X157374Y41547D01*
X74193Y85914D02*
Y114620D01*
X157374Y41547D02*
X161508D01*
X165012Y38043D01*
X85200Y42600D02*
X156321D01*
X71113Y216326D02*
X72686Y217900D01*
X71113Y194969D02*
Y216326D01*
X68484Y192340D02*
X71113Y194969D01*
X68484Y192046D02*
Y192340D01*
Y191620D02*
Y192046D01*
X67980Y191116D02*
X68484Y191620D01*
X67980Y191111D02*
Y191116D01*
X65170Y188300D02*
X67980Y191111D01*
X57594Y188300D02*
X65170D01*
X70357Y188091D02*
X71274Y187173D01*
Y117539D02*
Y187173D01*
Y117539D02*
X74193Y114620D01*
X70600Y82320D02*
X74193Y85914D01*
X70600Y57200D02*
X85200Y42600D01*
X70357Y188091D02*
Y188157D01*
X55594Y186300D02*
X57594Y188300D01*
X55594Y183685D02*
Y186300D01*
X70600Y57200D02*
Y82320D01*
X208073Y251946D02*
X218293D01*
X243240Y124451D02*
Y127549D01*
X234811Y125400D02*
X237951Y122260D01*
X241049D01*
X243240Y124451D01*
X228687Y127762D02*
X229000D01*
X227900Y126975D02*
X228687Y127762D01*
X239313Y126187D02*
X239500Y126000D01*
X113008Y67260D02*
Y71000D01*
X113992Y62800D02*
Y66276D01*
X113008Y67260D02*
X113992Y66276D01*
X115567Y58606D02*
Y61225D01*
Y58606D02*
X117848Y56325D01*
X113992Y62800D02*
X115567Y61225D01*
X93530Y216999D02*
X98813D01*
X100270Y212730D02*
Y215542D01*
X98813Y216999D02*
X100270Y215542D01*
X93299Y217229D02*
X93530Y216999D01*
X93299Y217229D02*
Y220925D01*
X100270Y212730D02*
X102200Y210800D01*
X117848Y56325D02*
X127952D01*
X133727Y62100D01*
X152327D01*
X156980Y66753D01*
Y67619D01*
X158262Y68900D01*
X172027D02*
X194375Y91248D01*
X158262Y68900D02*
X172027D01*
X126000Y67777D02*
Y71000D01*
X122598Y64375D02*
X126000Y67777D01*
X101029Y218571D02*
X104400Y215200D01*
X96541Y218804D02*
Y220833D01*
Y218804D02*
X96771Y218573D01*
X96449Y220925D02*
X96541Y220833D01*
X99640Y218573D02*
X99643Y218571D01*
X101029D01*
X96771Y218573D02*
X99640D01*
X120426Y64375D02*
X122598D01*
X118852Y62800D02*
X120426Y64375D01*
X118717Y62800D02*
X118852D01*
X120651Y69982D02*
X121669Y71000D01*
X116354Y62800D02*
X120651Y67097D01*
Y69982D01*
X99139Y217786D02*
X102616Y214309D01*
X95384Y217786D02*
X99139D01*
X102616Y213287D02*
Y214309D01*
X94874Y218296D02*
Y220925D01*
Y218296D02*
X95384Y217786D01*
X102616Y213287D02*
X102825Y213078D01*
X171701Y69687D02*
X193587Y91574D01*
X171375Y70475D02*
X192800Y91900D01*
X157609Y70475D02*
X171375D01*
X154600Y67465D02*
X157609Y70475D01*
X154600Y66600D02*
Y67465D01*
X157936Y69687D02*
X171701D01*
X156193Y67945D02*
X157936Y69687D01*
X156193Y67079D02*
Y67945D01*
X152001Y62887D02*
X156193Y67079D01*
X133401Y62887D02*
X152001D01*
X151675Y63675D02*
X154600Y66600D01*
X133075Y63675D02*
X151675D01*
X127300Y57900D02*
X133075Y63675D01*
X127626Y57113D02*
X133401Y62887D01*
X118174Y57113D02*
X127626D01*
X118500Y57900D02*
X127300D01*
X116354Y58932D02*
X118174Y57113D01*
X117142Y59258D02*
X118500Y57900D01*
X117142Y59258D02*
Y61225D01*
X118717Y62800D01*
X116354Y58932D02*
Y62800D01*
X248449Y214949D02*
X249500Y216000D01*
X244789Y206000D02*
X249500D01*
X143850Y218118D02*
X147000D01*
X133488Y223012D02*
Y233053D01*
X142079Y216347D02*
X143850Y218118D01*
X140154Y216347D02*
X142079D01*
X99200Y247500D02*
X101119Y245581D01*
X124546D01*
X96449Y247500D02*
X99200D01*
X132275Y234266D02*
X133488Y233053D01*
Y223012D02*
X140154Y216347D01*
X124546Y245581D02*
X132275Y237852D01*
Y234266D02*
Y237852D01*
X139827Y215559D02*
X147000D01*
X132701Y222686D02*
Y232727D01*
Y222686D02*
X139827Y215559D01*
X101469Y244449D02*
X101813Y244793D01*
X124220D01*
X99500Y244449D02*
X101469D01*
X131487Y233940D02*
Y237526D01*
Y233940D02*
X132701Y232727D01*
X124220Y244793D02*
X131487Y237526D01*
X131913Y222360D02*
X139501Y214772D01*
X142079D01*
X143850Y213000D01*
X147000D01*
X101469Y242874D02*
X102600Y244006D01*
X123894D01*
X99500Y242874D02*
X101469D01*
X130700Y233613D02*
X131913Y232400D01*
Y222360D02*
Y232400D01*
X123894Y244006D02*
X130700Y237200D01*
Y233613D02*
Y237200D01*
X150347Y217921D02*
X152900D01*
X150150Y218118D02*
X150347Y217921D01*
X147000Y218118D02*
X150150D01*
X150347Y213197D02*
X152900D01*
X150150Y213000D02*
X150347Y213197D01*
X147000Y213000D02*
X150150D01*
X147000Y215559D02*
X152900D01*
X244900Y141400D02*
X249500Y146000D01*
X220900Y141400D02*
X244900D01*
X185900Y106400D02*
X220900Y141400D01*
X135100Y106400D02*
X185900D01*
X129600Y100900D02*
X135100Y106400D01*
X166441Y175641D02*
X169500Y178700D01*
X166441Y173500D02*
Y175641D01*
X169368Y242300D02*
Y249387D01*
Y235213D02*
Y242300D01*
X249989Y180800D02*
X253346Y177443D01*
X201034Y235213D02*
Y249387D01*
X216868Y235213D02*
Y249387D01*
X169368D02*
Y249775D01*
X191894Y249617D02*
Y251600D01*
X192240Y251946D02*
X206960D01*
X207747Y252733D01*
X191894Y251600D02*
X192240Y251946D01*
X207727Y251600D02*
X208073Y251946D01*
X207727Y249617D02*
Y251600D01*
X207747Y252733D02*
X218620D01*
X207497Y249387D02*
X207727Y249617D01*
X218620Y252733D02*
X219427Y251926D01*
X218293Y251946D02*
X218639Y251600D01*
Y251578D02*
Y251600D01*
X219427Y251905D02*
Y251926D01*
X249500Y166000D02*
Y169653D01*
X253346Y173500D01*
Y177443D01*
X185201Y242300D02*
Y249387D01*
Y235213D02*
Y242300D01*
X191663Y249387D02*
X191894Y249617D01*
X185201Y249387D02*
X191663D01*
X201034D02*
X207497D01*
X148150Y236090D02*
X150331Y233910D01*
X147314Y242284D02*
X148273Y241324D01*
X153006Y238759D02*
X160400D01*
X168384Y250759D02*
X169368Y249775D01*
X160400Y250759D02*
X168384D01*
X152433Y253150D02*
X158009D01*
X150563Y251280D02*
X152433Y253150D01*
X158009D02*
X160400Y250759D01*
X149224Y174300D02*
X153993Y169532D01*
X154303D02*
X154500Y169335D01*
X153993Y169532D02*
X154303D01*
X148150Y251280D02*
X150563D01*
X148060Y251190D02*
X148150Y251280D01*
X142930Y251190D02*
X148060D01*
X92306Y253200D02*
X138900D01*
X88575Y249468D02*
X92306Y253200D01*
X138900D02*
X140910Y251190D01*
X88575Y247500D02*
Y249468D01*
X160823Y238336D02*
X162260D01*
X160400Y238759D02*
X160823Y238336D01*
X150577Y247816D02*
X152087Y246306D01*
Y239677D02*
Y246306D01*
X148150Y247816D02*
X150577D01*
X152087Y239677D02*
X153006Y238759D01*
X182965Y235213D02*
X185201D01*
X162260Y238336D02*
X168696Y231900D01*
X179652D02*
X182965Y235213D01*
X168696Y231900D02*
X179652D01*
X148056Y247722D02*
X148150Y247816D01*
X141186Y247722D02*
X148056D01*
X141065Y247600D02*
X141186Y247722D01*
X94669Y252413D02*
X137096D01*
X141065Y248443D01*
X91724Y249468D02*
X94669Y252413D01*
X141065Y247600D02*
Y248443D01*
X91724Y247500D02*
Y249468D01*
X146862Y171973D02*
X149500Y169335D01*
X146862Y171973D02*
Y174300D01*
X201034Y232734D02*
Y235213D01*
X148150Y244666D02*
X150534D01*
X151238Y243962D01*
Y231629D02*
Y243962D01*
Y231629D02*
X152468Y230400D01*
X139200Y245900D02*
Y249195D01*
X136770Y251625D02*
X139200Y249195D01*
X140434Y244666D02*
X148150D01*
X139200Y245900D02*
X140434Y244666D01*
X95456Y251625D02*
X136770D01*
X93299Y249468D02*
X95456Y251625D01*
X93299Y247500D02*
Y249468D01*
X144500Y169335D02*
Y174300D01*
X216868Y231768D02*
Y235213D01*
X148150Y236090D02*
Y241201D01*
X213100Y228000D02*
X216868Y231768D01*
X152636Y228309D02*
X152945Y228000D01*
X213100D01*
X150331Y230614D02*
X152269Y228677D01*
Y228655D02*
Y228677D01*
X150331Y230614D02*
Y233910D01*
X152614Y228309D02*
X152636D01*
X152269Y228655D02*
X152614Y228309D01*
X136000Y250838D02*
X136231Y250607D01*
Y242983D02*
Y250607D01*
X136657Y242983D02*
X137356Y242284D01*
X147314D01*
X136231Y242983D02*
X136657D01*
X96243Y250838D02*
X136000D01*
X94874Y249468D02*
X96243Y250838D01*
X94874Y247500D02*
Y249468D01*
X135007Y169532D02*
X139776Y174300D01*
X134697Y169532D02*
X135007D01*
X134500Y169335D02*
X134697Y169532D01*
X125984Y128937D02*
Y133138D01*
Y118716D02*
Y128937D01*
X76310Y103484D02*
Y105453D01*
X14138Y109252D02*
X31102D01*
X34769Y111000D02*
X35000Y110769D01*
X31102Y107283D02*
X31496Y107677D01*
X31102Y113189D02*
Y113200D01*
X35000Y108000D02*
Y110769D01*
X34677Y107677D02*
X35000Y108000D01*
X31323Y111000D02*
X34769D01*
X26000Y113200D02*
X31102D01*
X31496Y107677D02*
X34677D01*
X31102Y111221D02*
X31323Y111000D01*
X77625Y142750D02*
Y158610D01*
X80181Y161166D02*
Y163328D01*
X77625Y158610D02*
X80181Y161166D01*
X74400Y142989D02*
Y163328D01*
X172559Y144141D02*
Y148000D01*
Y144141D02*
X172600Y144100D01*
X128141Y133300D02*
X130100D01*
X147011Y205311D02*
X151206D01*
X151481Y205586D01*
X152516Y198376D02*
X152516D01*
X152180Y198039D02*
X152516Y198376D01*
X154103Y199962D02*
X167021Y212880D01*
X154103Y199962D02*
Y199962D01*
X152516Y198376D02*
X154103Y199962D01*
X145414Y198039D02*
X152180D01*
X140933Y193559D02*
X145414Y198039D01*
X167837Y215014D02*
X168383Y215559D01*
X153315Y200288D02*
X167837Y214810D01*
Y215014D01*
X168383Y215559D02*
X170228D01*
X153315Y200288D02*
Y200288D01*
X167021Y212880D02*
X170109D01*
X170228Y213000D01*
X152190Y199163D02*
X153315Y200288D01*
X151854Y198827D02*
X152190Y199163D01*
X145088Y198827D02*
X151854D01*
X152190Y199163D02*
X152190D01*
X150541Y200205D02*
X151074Y200738D01*
X151499D01*
X147000Y200205D02*
X150541D01*
X74161Y142750D02*
X74400Y142989D01*
X80775Y158075D02*
X84659Y161959D01*
X80775Y142750D02*
Y158075D01*
X84659Y162025D02*
X85962Y163328D01*
X84659Y161959D02*
Y162025D01*
X84239Y155825D02*
X91743Y163328D01*
X84239Y142750D02*
Y155825D01*
X90743Y160162D02*
X96662D01*
X86689Y156108D02*
X90743Y160162D01*
X87477Y155782D02*
X91070Y159375D01*
X102175D01*
X89051Y155130D02*
X91722Y157800D01*
X91396Y158587D02*
X107487D01*
X88264Y155456D02*
X91396Y158587D01*
X91722Y157800D02*
X109338D01*
X89051Y134036D02*
Y155130D01*
X97524Y161024D02*
Y163328D01*
X96662Y160162D02*
X97524Y161024D01*
X103305Y160505D02*
Y163328D01*
X102175Y159375D02*
X103305Y160505D01*
X88264Y134362D02*
Y155456D01*
X103295Y146400D02*
X108133Y151238D01*
X105241Y152800D02*
X106891Y154451D01*
X107870Y152088D02*
X133227D01*
X104779Y151225D02*
X107217Y153663D01*
X106891Y154451D02*
X145699D01*
X105952Y154625D02*
X106565Y155238D01*
X103325Y154625D02*
X105952D01*
X106565Y155238D02*
X151228D01*
X104268Y149600D02*
X107544Y152876D01*
X107217Y153663D02*
X143433D01*
X103781Y148000D02*
X107870Y152088D01*
X107544Y152876D02*
X139073D01*
X108133Y151238D02*
X125928D01*
X151228Y155238D02*
X154500Y151965D01*
X103100Y154400D02*
X103325Y154625D01*
X105300Y156200D02*
X114412D01*
X109086Y160186D02*
Y163328D01*
X107487Y158587D02*
X109086Y160186D01*
X109338Y157800D02*
X114867Y163328D01*
X143433Y153663D02*
X144289Y152807D01*
X139303Y147862D02*
Y152645D01*
X139073Y152876D02*
X139303Y152645D01*
X145699Y154451D02*
X149288Y150862D01*
X133227Y152088D02*
X134500Y150815D01*
X123112Y164900D02*
X128900D01*
X114412Y156200D02*
X123112Y164900D01*
X125928Y151238D02*
X129500Y147665D01*
X134500D02*
Y150815D01*
X102808Y144800D02*
X105674Y147665D01*
X124500D01*
X99110Y151316D02*
X99201Y151225D01*
X104779D01*
X93700Y146400D02*
X103295D01*
X95500Y148000D02*
X103781D01*
X101100Y152800D02*
X105241D01*
X97300Y149600D02*
X104268D01*
X91631Y144569D02*
X91862Y144800D01*
X102808D01*
X51000Y154559D02*
Y159881D01*
X53164Y162045D02*
X53185D01*
X53626Y162487D02*
Y164000D01*
X53185Y162045D02*
X53626Y162487D01*
X51000Y159881D02*
X53164Y162045D01*
X51657Y162216D02*
Y165595D01*
X47341Y157900D02*
X48644Y159203D01*
X48644D02*
X51657Y162216D01*
X48644Y159203D02*
X48644D01*
X51000Y154559D02*
X53459Y152100D01*
X123341Y176000D02*
X124500Y174841D01*
Y169335D02*
Y174841D01*
X123341Y176000D02*
X126400D01*
X127000Y134441D02*
X128141Y133300D01*
X167435Y189509D02*
X168526Y190600D01*
X164562Y187500D02*
X166571Y189509D01*
X167435D01*
X168526Y190600D02*
X172603D01*
X24500Y42441D02*
Y44724D01*
X26591Y46814D01*
Y48791D01*
X29400Y51600D01*
X87800Y217787D02*
Y217787D01*
X85425Y220925D02*
X85487Y220864D01*
Y217863D02*
Y220864D01*
X87800Y217787D02*
X87907Y217680D01*
X83186Y218069D02*
X83850Y218734D01*
Y220925D01*
X83186Y217776D02*
Y218069D01*
X85487Y217863D02*
X85548Y217801D01*
X87000Y218587D02*
Y220925D01*
Y218587D02*
X87800Y217787D01*
X162900Y158100D02*
X167200D01*
X171500Y162400D01*
X163600Y173500D02*
X166441D01*
X162400Y172300D02*
X163600Y173500D01*
X125984Y118716D02*
X126590Y118110D01*
X81618Y214200D02*
X86587D01*
X81618Y208600D02*
X90613D01*
X92984Y206228D01*
X93181D01*
X95346Y204063D01*
Y203866D02*
Y204063D01*
X86587Y214200D02*
X88653Y212134D01*
X41475Y201975D02*
Y217100D01*
X44587D01*
X31700D02*
X41475D01*
X40500Y201000D02*
X41475Y201975D01*
X6500Y145398D02*
X11457D01*
X12000Y145941D01*
X149288Y147877D02*
X149500Y147665D01*
X142138Y171973D02*
Y174300D01*
X144289Y147876D02*
X144500Y147665D01*
X149288Y147877D02*
Y150862D01*
X144289Y147876D02*
Y152807D01*
X139500Y169335D02*
X142138Y171973D01*
X129500Y165500D02*
Y169335D01*
X139303Y147862D02*
X139500Y147665D01*
X128900Y164900D02*
X129500Y165500D01*
X154500Y147665D02*
Y151965D01*
X84139Y127500D02*
X84648Y128008D01*
Y129632D01*
X89051Y134036D01*
X77693Y127667D02*
Y129395D01*
X77525Y127500D02*
X77693Y127667D01*
Y129395D02*
X81598Y133301D01*
X86090D01*
X75143Y129075D02*
X80157Y134088D01*
X75143Y129075D02*
X75143D01*
X80157Y134088D02*
X85764D01*
X74061Y127992D02*
X75143Y129075D01*
X74061Y127500D02*
Y127992D01*
X87477Y134688D02*
Y155782D01*
X80675Y127500D02*
X80872Y127697D01*
Y129472D01*
X83914Y132513D01*
X86416D01*
X88264Y134362D01*
X86090Y133301D02*
X87477Y134688D01*
X85764Y134088D02*
X86689Y135014D01*
Y156108D01*
X84239Y136450D02*
Y139600D01*
X80775Y136450D02*
Y139600D01*
X80614Y123230D02*
Y124300D01*
X80675Y121201D02*
Y123169D01*
X80614Y123230D02*
X80675Y123169D01*
X77465Y124300D02*
X77525Y124239D01*
Y121201D02*
Y124239D01*
X74000Y124300D02*
X74061Y124239D01*
Y121201D02*
Y124239D01*
X109633Y140481D02*
X109987Y140126D01*
X109633Y140481D02*
Y142715D01*
X84079Y123230D02*
Y124300D01*
Y123230D02*
X84139Y123169D01*
Y121201D02*
Y123169D01*
X74161Y136450D02*
Y139600D01*
X77625Y136450D02*
Y139600D01*
X129459Y176000D02*
X140438D01*
X142138Y174300D01*
X131126Y192180D02*
Y232074D01*
X128800Y234400D02*
X131126Y232074D01*
Y192180D02*
X134004Y189301D01*
Y188403D02*
X134967Y187441D01*
X134004Y188403D02*
Y189301D01*
X132059Y192360D02*
Y207158D01*
Y192360D02*
X133919Y190500D01*
X140433D01*
X132059Y207158D02*
X132570Y207670D01*
X121079Y62800D02*
X126823D01*
X130331Y66308D01*
Y71000D01*
X101355Y219358D02*
X103414Y217300D01*
X105700D01*
X99500Y220054D02*
X100196Y219358D01*
X101355D01*
X99500Y220054D02*
Y223976D01*
X88653Y212134D02*
X90428Y210360D01*
X91376D01*
X92394Y209342D01*
Y209330D02*
Y209342D01*
Y209330D02*
X92740Y208984D01*
X92751D01*
X93887Y207848D01*
X94725Y238152D02*
X96045D01*
X96363Y234200D02*
X97138Y233425D01*
X96045Y238152D02*
X97461Y236737D01*
X96095Y234195D02*
X96358D01*
X96363Y234200D01*
X97461Y236737D02*
X99338D01*
X87632Y198628D02*
X90284D01*
X81559Y203000D02*
X81719Y202840D01*
X83419D01*
X87632Y198628D01*
X91811Y197100D02*
X93970D01*
X91100Y197811D02*
X91811Y197100D01*
X97138Y233425D02*
X99500D01*
X146833Y76833D02*
Y81141D01*
X141000Y71000D02*
X146833Y76833D01*
X130331Y71000D02*
X141000D01*
X87000Y244431D02*
X87400Y244031D01*
Y243100D02*
Y244031D01*
X85000Y243100D02*
Y244168D01*
X85425Y244594D01*
X109987Y139613D02*
X112000Y137600D01*
X109987Y139613D02*
Y140126D01*
X102500Y89400D02*
X102600Y89500D01*
X102500Y85158D02*
Y89400D01*
X87000Y244431D02*
Y247500D01*
X85425Y244594D02*
X85425D01*
Y247500D01*
X69400Y233500D02*
X69475Y233425D01*
X72925D01*
X55118Y243400D02*
X57219Y241299D01*
X53059Y243400D02*
X55118D01*
X57219Y241299D02*
X72925D01*
X99338Y236737D02*
X99500Y236575D01*
X82276Y251376D02*
X82300Y251400D01*
X82276Y247500D02*
Y251376D01*
X68327Y240378D02*
X69374Y239331D01*
X52317Y240378D02*
X68327D01*
X68001Y239591D02*
X69048Y238543D01*
X51991Y239591D02*
X68001D01*
X41020Y241124D02*
X41251Y240894D01*
X40559Y237500D02*
X41020Y237961D01*
X41251Y240894D02*
X51801D01*
X41020Y237961D02*
Y239876D01*
X40559Y243500D02*
X41020Y243039D01*
X51801Y240894D02*
X52317Y240378D01*
X41020Y239876D02*
X41251Y240106D01*
X51475D02*
X51991Y239591D01*
X41020Y241124D02*
Y243039D01*
X41251Y240106D02*
X51475D01*
X19858Y196542D02*
X25858D01*
X28300Y194100D01*
X19858Y214258D02*
X20415D01*
X21399Y215243D01*
Y215799D01*
X22500Y216900D01*
Y220000D01*
X5174Y228287D02*
X5174D01*
X19505Y230619D02*
X27198Y238311D01*
X7831Y229832D02*
X19831D01*
X27500Y237500D01*
X7505Y230619D02*
X19505D01*
X5174Y228287D02*
X7505Y230619D01*
X17600Y152059D02*
Y154300D01*
X19500Y156200D01*
X23000D01*
X24500Y157700D02*
Y161165D01*
X23000Y156200D02*
X24500Y157700D01*
X23200Y152059D02*
X29199Y158058D01*
Y160864D01*
X29500Y161165D01*
X33900Y149687D02*
Y160565D01*
X49841Y38100D02*
Y43669D01*
X37600Y45411D02*
X39198D01*
X40709Y43900D01*
X49610D01*
X49841Y43669D01*
X31889Y39700D02*
X37600Y45411D01*
X31500Y39700D02*
X31889D01*
X30138Y38700D02*
X31500Y37338D01*
X21241Y38700D02*
X30138D01*
X18741Y36200D02*
X21241Y38700D01*
X18741Y30100D02*
Y36200D01*
X12318Y30100D02*
X18741D01*
X79900Y250400D02*
Y250700D01*
Y250400D02*
X80701Y249599D01*
Y247500D02*
Y249599D01*
X83850Y249942D02*
X85031Y251123D01*
X83850Y247500D02*
Y249942D01*
X77441Y65834D02*
Y87600D01*
X76260Y64653D02*
X77441Y65834D01*
X75885Y64653D02*
X76260D01*
X107500Y85158D02*
Y91800D01*
X83559Y93500D02*
X105800D01*
X107500Y91800D01*
X83559Y87600D02*
Y93500D01*
Y84441D02*
Y87600D01*
Y84441D02*
X86128Y81872D01*
X86522D01*
X87900Y80494D01*
Y80100D02*
Y80494D01*
X7361Y42161D02*
X13759Y48559D01*
X5861Y42161D02*
X7361D01*
X5201Y41500D02*
X5861Y42161D01*
X110700Y124700D02*
Y128400D01*
X113697Y131397D01*
X110700Y124700D02*
X111271Y124129D01*
X113076D01*
X74516Y197984D02*
Y198784D01*
X73475Y199825D02*
X74516Y198784D01*
X73475Y199825D02*
Y200000D01*
X50700Y229500D02*
X62976D01*
X47400Y226200D02*
X50700Y229500D01*
X35024D02*
X48819D01*
X33391D02*
X35024D01*
X48819D02*
X53016Y233697D01*
X28300Y194100D02*
X40800D01*
X47331Y206400D02*
X59596D01*
X47100Y206169D02*
X47331Y206400D01*
X47100Y200400D02*
Y206169D01*
X40800Y194100D02*
X47100Y200400D01*
X62600Y206377D02*
X62976Y206000D01*
X59619Y206377D02*
X62600D01*
X59596Y206400D02*
X59619Y206377D01*
X38269Y196000D02*
X43362Y201093D01*
X35024Y196000D02*
X38269D01*
X43362Y201093D02*
Y204739D01*
X35024Y201000D02*
X40500D01*
X44587Y217100D02*
X50147Y211540D01*
X29800Y219000D02*
X31700Y217100D01*
X53016Y233697D02*
Y237500D01*
X32482Y228591D02*
X33391Y229500D01*
X32482Y228382D02*
Y228591D01*
X28700Y224600D02*
X32482Y228382D01*
X28700Y208500D02*
Y224600D01*
X31200Y206000D02*
X35024D01*
X28700Y208500D02*
X31200Y206000D01*
X29800Y219000D02*
Y222800D01*
X75500Y182827D02*
Y197000D01*
X74516Y197984D02*
X75500Y197000D01*
X70647Y223747D02*
X70794Y223894D01*
X70758Y220401D02*
X71059Y220100D01*
X70758Y220401D02*
Y221007D01*
X70647Y221118D02*
X70758Y221007D01*
X70647Y221118D02*
Y223747D01*
X70794Y223894D02*
X72843D01*
X72925Y223976D01*
X69715Y225551D02*
X72925D01*
X67909Y226396D02*
X70214Y228701D01*
X67909Y215855D02*
Y226396D01*
X67384Y213102D02*
X69484Y215203D01*
X68697Y215529D02*
Y226070D01*
X67058Y213890D02*
X68697Y215529D01*
Y226070D02*
X69753Y227126D01*
X66731Y214677D02*
X67909Y215855D01*
X69484Y225321D02*
X69715Y225551D01*
X69484Y215203D02*
Y225321D01*
X66819Y219864D02*
X67049Y220095D01*
X63341Y219864D02*
X66819D01*
X67049Y220095D02*
Y226650D01*
X70675Y230276D01*
X69753Y227126D02*
X72925D01*
X70675Y230276D02*
X72925D01*
X65474Y212327D02*
X67037Y213890D01*
X70214Y228701D02*
X72925D01*
X70939Y231653D02*
X72728D01*
X65323Y226037D02*
X70939Y231653D01*
X63153Y214677D02*
X66731D01*
X65323Y225409D02*
Y226037D01*
X50473Y212327D02*
X65474D01*
X67037Y213890D02*
X67058D01*
X65800Y211540D02*
X67363Y213102D01*
X67384D01*
X43300Y219500D02*
X50473Y212327D01*
X50147Y211540D02*
X65800D01*
X35024Y219500D02*
X43300D01*
X34844Y224320D02*
X35024Y224500D01*
X31320Y224320D02*
X34844D01*
X29800Y222800D02*
X31320Y224320D01*
X62976Y214500D02*
X63153Y214677D01*
X55800Y219800D02*
X60500Y224500D01*
X51076Y219800D02*
X56376Y214500D01*
X60500Y224500D02*
X64413D01*
X65323Y225409D01*
X62976Y219500D02*
X63341Y219864D01*
X56376Y214500D02*
X62976D01*
X62913Y200937D02*
X62976Y201000D01*
X59270Y200937D02*
X62913D01*
X55665Y204542D02*
X59270Y200937D01*
X55665Y204542D02*
Y204542D01*
X58027Y219800D02*
X62676D01*
X56138Y196000D02*
X62976D01*
X56452Y218225D02*
X58027Y219800D01*
X55148Y218225D02*
X56452D01*
X53573Y219800D02*
X55148Y218225D01*
X53438Y219800D02*
X53573D01*
X53300Y198838D02*
X56138Y196000D01*
X53300Y198838D02*
Y204600D01*
X55812Y195213D02*
X58764D01*
X62976Y191000D01*
X50900Y200125D02*
X55812Y195213D01*
X50900Y200125D02*
Y204700D01*
X72728Y231653D02*
X72925Y231850D01*
X164225Y193836D02*
Y208425D01*
Y193836D02*
X164562Y193500D01*
X164225Y208425D02*
X166241Y210441D01*
X62500Y22200D02*
X65800Y25500D01*
X62500Y12500D02*
Y22200D01*
X18500Y48559D02*
X24500D01*
X13759D02*
X18500D01*
X6727Y52034D02*
Y57027D01*
Y52034D02*
X6957Y51803D01*
X7398D01*
X9001Y50200D01*
Y49500D02*
Y50200D01*
X243941Y48500D02*
Y54740D01*
X243768Y54913D02*
X243941Y54740D01*
X121167Y83173D02*
X126299D01*
X94300Y79600D02*
X117594D01*
X121167Y83173D01*
X92500Y81400D02*
X94300Y79600D01*
X97500Y81100D02*
X97900Y80700D01*
X112262Y83173D02*
X113701D01*
X109789Y80700D02*
X112262Y83173D01*
X97900Y80700D02*
X109789D01*
X90284Y198628D02*
X91100Y197811D01*
Y197254D02*
Y197811D01*
X91268Y182913D02*
Y197087D01*
X91100Y197254D02*
X91268Y197087D01*
X165500Y161799D02*
X166302Y162601D01*
X127000Y134153D02*
Y134441D01*
X125984Y133138D02*
X127000Y134153D01*
X47341Y152100D02*
Y157900D01*
X250118Y71818D02*
Y76000D01*
X247000Y68700D02*
X250118Y71818D01*
X247000Y45819D02*
Y68700D01*
X243768Y42587D02*
Y43143D01*
X244752Y44128D01*
X245309D01*
X247000Y45819D01*
X243768Y28413D02*
Y42587D01*
X224500Y33870D02*
X226272Y35642D01*
X228542D01*
X241400Y48500D02*
X243941D01*
X228542Y35642D02*
X241400Y48500D01*
X243768Y54913D02*
Y69087D01*
X40500Y249500D02*
X47441D01*
X47441Y249500D01*
X53700Y249400D02*
X53800Y249500D01*
X56600D01*
X69048Y238543D02*
X71153D01*
X69374Y239331D02*
X71153D01*
Y238543D02*
X71547Y238150D01*
X71153Y239331D02*
X71547Y239724D01*
X72925D01*
X71547Y238150D02*
X72925D01*
X228880Y76834D02*
X230847Y78800D01*
X161508Y65405D02*
X173705D01*
X247318Y78800D02*
X250118Y76000D01*
X230847Y78800D02*
X247318D01*
X224500Y49500D02*
X229400D01*
X231882Y51982D02*
Y76000D01*
X229400Y49500D02*
X231882Y51982D01*
X47721Y167937D02*
X49315D01*
X51657Y165595D01*
X65559Y158000D02*
Y165415D01*
X51366Y167000D02*
X63974D01*
X65559Y165415D01*
X50494Y169905D02*
X50870Y169530D01*
Y167496D02*
Y169530D01*
Y167496D02*
X51366Y167000D01*
X47721Y169905D02*
X50494D01*
X92500Y81400D02*
Y85158D01*
X97500Y81100D02*
Y85158D01*
X113701Y83173D02*
Y86101D01*
X126600Y99000D02*
X135523D01*
X113701Y86101D02*
X126600Y99000D01*
X131200Y93100D02*
X135523D01*
X126299Y88199D02*
X131200Y93100D01*
X126299Y83173D02*
Y88199D01*
X126590Y118110D02*
X128937D01*
X113076Y124129D02*
X113189Y124016D01*
X113697Y133138D02*
X115000Y134441D01*
X113697Y131397D02*
Y133138D01*
X140933Y187441D02*
X145538Y182836D01*
Y182803D02*
Y182836D01*
Y182803D02*
X146841Y181500D01*
X134882D02*
Y187356D01*
X134967Y187441D01*
X143561Y197300D02*
X145088Y198827D01*
X147000Y205323D02*
X147011Y205311D01*
X136335Y207670D02*
X138500Y209835D01*
X132570Y207670D02*
X136335D01*
X140933Y187441D02*
Y190000D01*
X140433Y190500D02*
X140933Y190000D01*
X134967Y193559D02*
X138708Y197300D01*
X143561D01*
X166241Y210441D02*
X170228D01*
Y207882D02*
X174018D01*
X175300Y192120D02*
Y206600D01*
X174018Y207882D02*
X175300Y206600D01*
X170680Y187500D02*
X175300Y192120D01*
X174300Y192297D02*
Y200969D01*
X170228Y202764D02*
X172506D01*
X174300Y200969D01*
X172603Y190600D02*
X174300Y192297D01*
X31102Y115157D02*
X37698D01*
X38000Y115459D01*
X31102Y103347D02*
X37787D01*
X38000Y103559D01*
X4138Y121221D02*
Y153838D01*
X9500Y159200D02*
Y161165D01*
X3350Y120039D02*
Y154329D01*
X3350Y154332D02*
Y155450D01*
X4500Y156600D02*
Y161165D01*
X3350Y154332D02*
X3350Y154329D01*
X14138Y111221D02*
X31102D01*
X14500Y142141D02*
Y161165D01*
X28700Y139059D02*
Y144487D01*
X34700Y139059D02*
Y148913D01*
X39500Y153713D02*
Y161165D01*
X44768Y173843D02*
X47721D01*
X42400Y176210D02*
Y185400D01*
X35400Y186600D02*
X41200D01*
X34500Y182835D02*
Y185700D01*
X39500Y180095D02*
Y182835D01*
X56059Y112282D02*
Y118500D01*
Y112282D02*
X56502Y111839D01*
X57000D01*
X46000D02*
X48842D01*
X53128Y116124D01*
Y121569D02*
X56059Y124500D01*
X53128Y116124D02*
Y121569D01*
X29252Y238311D02*
X34441Y243500D01*
X27198Y238311D02*
X29252D01*
X27500Y237500D02*
X34441D01*
X34441Y237500D01*
X4000Y227114D02*
X5174Y228287D01*
D19*
X158900Y187574D02*
Y190400D01*
X158800Y187474D02*
X158900Y187574D01*
X158800Y187474D02*
X158833Y187441D01*
X81133Y102008D02*
X81625Y101516D01*
X80641D02*
X81133Y102008D01*
X76310Y101516D02*
X80641D01*
X81625D02*
X84972D01*
X76310Y99547D02*
Y101516D01*
X207056Y165400D02*
X207422Y165766D01*
Y171822D01*
X208500Y172900D01*
X99500Y230276D02*
X101276D01*
X103000Y232000D01*
X69800Y244449D02*
X75976D01*
X75976Y241200D02*
Y247500D01*
X165589Y223236D02*
X165800Y223025D01*
X147000Y223236D02*
X151389D01*
X165800D02*
X170228D01*
X151600D02*
X165589D01*
X151389D02*
X151600Y223025D01*
X75976Y244449D02*
X75976Y244449D01*
X147000Y210441D02*
X151441D01*
X165818Y218118D02*
X170228D01*
X147000Y220677D02*
X170228D01*
X151441Y210441D02*
X151500Y210500D01*
X165800Y218100D02*
X165818Y218118D01*
X225332Y235213D02*
Y249387D01*
X77582Y106724D02*
Y110600D01*
X76999Y106142D02*
X77582Y106724D01*
X76999Y105551D02*
Y106142D01*
X76901Y105453D02*
X76999Y105551D01*
X76310Y105453D02*
X76901D01*
X138300Y76800D02*
X138360Y76740D01*
X138300Y76800D02*
Y76800D01*
X167660Y162601D02*
X172559Y167500D01*
X166302Y162601D02*
X167660D01*
X170680Y193500D02*
Y197380D01*
X170700Y197400D01*
X152959Y181500D02*
X164562D01*
X26604Y119882D02*
X31102D01*
X92382Y140500D02*
X95500D01*
X128200Y188159D02*
X129186Y187173D01*
Y185214D02*
Y187173D01*
Y185214D02*
X129200Y185200D01*
X137900Y181500D02*
X141000D01*
X147000Y207882D02*
X151382D01*
X151500Y208000D01*
X135500Y81141D02*
X136179Y80462D01*
Y78921D02*
Y80462D01*
Y78921D02*
X138300Y76800D01*
X141167Y87259D02*
X146833D01*
X6200Y30100D02*
X9300D01*
X24859D02*
Y36200D01*
X75441Y203000D02*
X75537Y202904D01*
X78496D01*
X78500Y202900D01*
X63000Y237500D02*
X66059D01*
X46898D02*
X49900D01*
X10241Y226600D02*
X13300D01*
X19591Y202714D02*
X19858Y202447D01*
X16186Y202714D02*
X19591D01*
X15700Y203200D02*
X16186Y202714D01*
X15700Y203200D02*
Y213600D01*
X10241Y219059D02*
Y226600D01*
Y219059D02*
X15700Y213600D01*
X28700Y132941D02*
X34700D01*
X12000Y149000D02*
Y152059D01*
X16641Y124559D02*
Y140000D01*
Y124559D02*
X21653Y119547D01*
X26270D02*
X26604Y119882D01*
X21653Y119547D02*
X26270D01*
X77582Y110600D02*
Y114782D01*
X77700Y114900D01*
X209499Y235213D02*
Y249387D01*
X193666Y235213D02*
Y249387D01*
X177832Y235213D02*
Y249387D01*
X93300Y234500D02*
X94767Y235967D01*
X97402Y235394D02*
X99106D01*
X94767Y235967D02*
X96829D01*
X99106Y235394D02*
X99500Y235000D01*
X96941Y235855D02*
Y235855D01*
X96829Y235967D02*
X96941Y235855D01*
Y235855D02*
X97402Y235394D01*
X90150Y220925D02*
Y227126D01*
X90150Y227126D02*
X90150Y227126D01*
X76076Y241299D02*
X89688D01*
X75976Y235000D02*
Y241200D01*
X90150Y241760D02*
Y247500D01*
X89688Y241299D02*
X90150Y241760D01*
X75976Y241200D02*
X76076Y241299D01*
X72925Y235000D02*
X75976D01*
X70631D02*
X72925D01*
X90150Y227126D02*
X92838D01*
X75976D02*
X90150D01*
X75976D02*
Y235000D01*
Y220925D02*
Y227126D01*
X92838D02*
X93300Y227588D01*
Y234500D01*
X69800Y243327D02*
Y244449D01*
X66908D02*
X69800D01*
X70839Y242866D02*
X71309D01*
X70834Y242872D02*
X70839Y242866D01*
X70256Y242872D02*
X70834D01*
X69800Y243327D02*
X70256Y242872D01*
X55959Y38100D02*
Y43759D01*
X56000Y43800D01*
X49941Y32200D02*
X51047Y33306D01*
X49689Y31948D02*
X49941Y32200D01*
X51165Y33306D02*
X55959Y38100D01*
X51047Y33306D02*
X51165D01*
X49689Y29980D02*
Y31948D01*
X47809Y28100D02*
X49689Y29980D01*
X32400Y28100D02*
X47809D01*
X24859Y30100D02*
X30400D01*
X32400Y28100D01*
X71317Y242874D02*
X72925D01*
X71309Y242866D02*
X71317Y242874D01*
X165823Y205323D02*
X170228D01*
X165800Y205300D02*
X165823Y205323D01*
X249345Y49214D02*
X250059Y48500D01*
X249345Y49214D02*
Y51555D01*
X249300Y51600D02*
X249345Y51555D01*
X117339Y71000D02*
Y75539D01*
X118900Y77100D01*
X131459D02*
X135500Y81141D01*
X118900Y77100D02*
X131459D01*
X172559Y167500D02*
Y173500D01*
X92382Y132961D02*
Y140500D01*
Y132961D02*
X92500Y132843D01*
X69332Y236575D02*
X70169D01*
X68407Y237500D02*
X69332Y236575D01*
X66059Y237500D02*
X68407D01*
X70169Y236575D02*
X72925D01*
X70169Y235461D02*
Y236575D01*
Y235461D02*
X70631Y235000D01*
X69400Y94442D02*
Y103441D01*
Y106000D01*
X68679Y106720D02*
X69400Y106000D01*
X57000Y106720D02*
X68679D01*
X63500Y109559D02*
X69400D01*
X57000Y109280D02*
X63221D01*
X63500Y109559D01*
D23*
X69400Y94442D02*
D03*
Y88324D02*
D03*
X158800Y181459D02*
D03*
Y175341D02*
D03*
X80181Y163328D02*
D03*
X85962D02*
D03*
X103305D02*
D03*
X109086D02*
D03*
X74400D02*
D03*
X97524D02*
D03*
X91743D02*
D03*
X114867D02*
D03*
X69400Y103441D02*
D03*
Y109559D02*
D03*
X63500D02*
D03*
Y103441D02*
D03*
Y88323D02*
D03*
Y94442D02*
D03*
X44000Y125059D02*
D03*
Y118941D02*
D03*
X12000Y145941D02*
D03*
Y152059D02*
D03*
X6500Y145398D02*
D03*
X134967Y187441D02*
D03*
Y193559D02*
D03*
X121000Y134441D02*
D03*
Y140559D02*
D03*
X115000Y134441D02*
D03*
Y140559D02*
D03*
X127000Y134441D02*
D03*
Y140559D02*
D03*
X152867Y193559D02*
D03*
Y187441D02*
D03*
X18500Y48559D02*
D03*
Y42441D02*
D03*
X24500Y48559D02*
D03*
Y42441D02*
D03*
X38000Y109341D02*
D03*
Y97441D02*
D03*
X135500Y87259D02*
D03*
X34700Y132941D02*
D03*
X28700D02*
D03*
X17600Y145941D02*
D03*
X23200D02*
D03*
X146900Y187441D02*
D03*
X128200Y182041D02*
D03*
X160400Y250759D02*
D03*
Y244641D02*
D03*
Y232941D02*
D03*
Y239059D02*
D03*
X128200Y188159D02*
D03*
X158833Y187441D02*
D03*
Y193559D02*
D03*
X146900D02*
D03*
X28700Y139059D02*
D03*
X34700D02*
D03*
X23200Y152059D02*
D03*
X17600D02*
D03*
X135500Y81141D02*
D03*
X146833D02*
D03*
Y87259D02*
D03*
X140933Y193559D02*
D03*
Y187441D02*
D03*
X141167Y81141D02*
D03*
Y87259D02*
D03*
X38000Y115459D02*
D03*
Y103559D02*
D03*
D24*
X35024Y206000D02*
D03*
Y201000D02*
D03*
Y196000D02*
D03*
Y191000D02*
D03*
X62976Y206000D02*
D03*
Y201000D02*
D03*
Y196000D02*
D03*
Y191000D02*
D03*
X35024Y229500D02*
D03*
Y224500D02*
D03*
Y219500D02*
D03*
Y214500D02*
D03*
X62976Y229500D02*
D03*
Y224500D02*
D03*
Y219500D02*
D03*
Y214500D02*
D03*
D25*
X31102Y119882D02*
D03*
Y122933D02*
D03*
Y100591D02*
D03*
Y97539D02*
D03*
D26*
Y117126D02*
D03*
Y111221D02*
D03*
Y113189D02*
D03*
Y115157D02*
D03*
Y103347D02*
D03*
Y109252D02*
D03*
Y107283D02*
D03*
Y105315D02*
D03*
D27*
X187765Y165400D02*
D03*
X196032D02*
D03*
X193276D02*
D03*
X190521D02*
D03*
X201544D02*
D03*
X198788D02*
D03*
X220835D02*
D03*
X215324D02*
D03*
X212568D02*
D03*
X204300D02*
D03*
X218079D02*
D03*
X209812D02*
D03*
X207056D02*
D03*
D28*
X75885Y58747D02*
D03*
Y64653D02*
D03*
D29*
X91268Y182913D02*
D03*
X99732Y197087D02*
D03*
X91268D02*
D03*
X99732Y182913D02*
D03*
X83965Y197000D02*
D03*
X75500Y182827D02*
D03*
X83965D02*
D03*
X75500Y197000D02*
D03*
X243768Y54913D02*
D03*
X252232Y69087D02*
D03*
X243768D02*
D03*
X252232Y54913D02*
D03*
X216868Y235213D02*
D03*
X225332Y249387D02*
D03*
X216868D02*
D03*
X225332Y235213D02*
D03*
X201034D02*
D03*
X209499Y249387D02*
D03*
X201034D02*
D03*
X209499Y235213D02*
D03*
X185201D02*
D03*
X193666Y249387D02*
D03*
X185201D02*
D03*
X193666Y235213D02*
D03*
X169368D02*
D03*
X177832Y249387D02*
D03*
X169368D02*
D03*
X177832Y235213D02*
D03*
X243768Y28413D02*
D03*
X252232Y42587D02*
D03*
X243768D02*
D03*
X252232Y28413D02*
D03*
D30*
X86213Y234213D02*
D03*
D31*
X72925Y223976D02*
D03*
Y225551D02*
D03*
Y227126D02*
D03*
Y228701D02*
D03*
Y230276D02*
D03*
Y231850D02*
D03*
Y233425D02*
D03*
Y235000D02*
D03*
Y236575D02*
D03*
Y238150D02*
D03*
Y239724D02*
D03*
Y241299D02*
D03*
Y242874D02*
D03*
Y244449D02*
D03*
X99500D02*
D03*
Y242874D02*
D03*
Y241299D02*
D03*
Y239724D02*
D03*
Y238150D02*
D03*
Y236575D02*
D03*
Y235000D02*
D03*
Y233425D02*
D03*
Y231850D02*
D03*
Y230276D02*
D03*
Y228701D02*
D03*
Y227126D02*
D03*
Y225551D02*
D03*
Y223976D02*
D03*
D32*
X75976Y247500D02*
D03*
X77551D02*
D03*
X79126D02*
D03*
X80701D02*
D03*
X82276D02*
D03*
X83850D02*
D03*
X85425D02*
D03*
X87000D02*
D03*
X88575D02*
D03*
X90150D02*
D03*
X91724D02*
D03*
X93299D02*
D03*
X94874D02*
D03*
X96449D02*
D03*
Y220925D02*
D03*
X94874D02*
D03*
X93299D02*
D03*
X91724D02*
D03*
X90150D02*
D03*
X88575D02*
D03*
X87000D02*
D03*
X85425D02*
D03*
X83850D02*
D03*
X82276D02*
D03*
X80701D02*
D03*
X79126D02*
D03*
X77551D02*
D03*
X75976D02*
D03*
D33*
X84972Y103484D02*
D03*
Y101516D02*
D03*
Y105453D02*
D03*
Y99547D02*
D03*
X76310Y103484D02*
D03*
Y99547D02*
D03*
Y105453D02*
D03*
Y101516D02*
D03*
D34*
X80641Y102500D02*
D03*
D35*
X62177Y124500D02*
D03*
X12000Y199495D02*
D03*
Y211305D02*
D03*
D36*
X56059Y124500D02*
D03*
X49941D02*
D03*
X12318Y30100D02*
D03*
X6200D02*
D03*
X123341Y176000D02*
D03*
X129459D02*
D03*
X83559Y93500D02*
D03*
X77441D02*
D03*
X83559Y87600D02*
D03*
X77441D02*
D03*
X141641Y93100D02*
D03*
X135523D02*
D03*
Y99000D02*
D03*
X141641D02*
D03*
X56059Y118500D02*
D03*
X49941D02*
D03*
X53559Y249500D02*
D03*
X34382Y249500D02*
D03*
X40500D02*
D03*
X53059Y243400D02*
D03*
X59841Y243500D02*
D03*
Y249500D02*
D03*
X59941Y237500D02*
D03*
X75500Y208600D02*
D03*
Y214200D02*
D03*
X16359Y226600D02*
D03*
X56059Y32200D02*
D03*
X22759Y140000D02*
D03*
X53459Y157900D02*
D03*
X59441Y158000D02*
D03*
X83700Y110600D02*
D03*
X166441Y148000D02*
D03*
X98500Y140500D02*
D03*
X228218Y99600D02*
D03*
X222100D02*
D03*
X154359Y230400D02*
D03*
X148241D02*
D03*
Y236000D02*
D03*
X154359D02*
D03*
X92382Y140500D02*
D03*
X172559Y148000D02*
D03*
X77582Y110600D02*
D03*
X243941Y48500D02*
D03*
X250059D02*
D03*
X231882Y76000D02*
D03*
X238000D02*
D03*
X34441Y237500D02*
D03*
X40559D02*
D03*
X16641Y140000D02*
D03*
X53459Y152100D02*
D03*
X47341D02*
D03*
Y157900D02*
D03*
X65559Y158000D02*
D03*
X250118Y76000D02*
D03*
X244000D02*
D03*
X66059Y237500D02*
D03*
X46941Y243400D02*
D03*
X65959Y249500D02*
D03*
Y243500D02*
D03*
X81618Y214200D02*
D03*
Y208600D02*
D03*
X10241Y226600D02*
D03*
X170680Y181500D02*
D03*
X164562D02*
D03*
X170680Y187500D02*
D03*
X164562D02*
D03*
X146841Y181500D02*
D03*
X152959D02*
D03*
X134882D02*
D03*
X141000D02*
D03*
X164562Y193500D02*
D03*
X170680D02*
D03*
X81559Y203000D02*
D03*
X75441D02*
D03*
X53016Y237500D02*
D03*
X46898D02*
D03*
X34441Y243500D02*
D03*
X40559D02*
D03*
X166441Y167500D02*
D03*
X172559D02*
D03*
X166441Y173500D02*
D03*
X172559D02*
D03*
X49841Y38100D02*
D03*
X55959D02*
D03*
X18741Y30100D02*
D03*
X24859D02*
D03*
X72059Y25500D02*
D03*
X65941D02*
D03*
X56018Y43867D02*
D03*
X49900D02*
D03*
X24859Y36200D02*
D03*
X18741D02*
D03*
X49941Y32200D02*
D03*
D37*
X53750Y138551D02*
D03*
Y131070D02*
D03*
X62300D02*
D03*
Y138551D02*
D03*
X45100Y131070D02*
D03*
Y138551D02*
D03*
D38*
X56705Y91300D02*
D03*
X44894D02*
D03*
D39*
X80181Y169447D02*
D03*
X85962D02*
D03*
X103305D02*
D03*
X109086D02*
D03*
X74400D02*
D03*
X97524D02*
D03*
X91743D02*
D03*
X114867D02*
D03*
X6500Y151516D02*
D03*
D40*
X159500Y169335D02*
D03*
X154500D02*
D03*
X149500D02*
D03*
X144500D02*
D03*
X139500D02*
D03*
X134500D02*
D03*
X129500D02*
D03*
X124500D02*
D03*
X159500Y147665D02*
D03*
X154500D02*
D03*
X149500D02*
D03*
X144500D02*
D03*
X139500D02*
D03*
X134500D02*
D03*
X129500D02*
D03*
X97500Y113157D02*
D03*
X102500D02*
D03*
X107500D02*
D03*
X92500Y132843D02*
D03*
X97500D02*
D03*
X102500D02*
D03*
X107500D02*
D03*
X97500Y85158D02*
D03*
X102500D02*
D03*
X107500D02*
D03*
X92500Y104842D02*
D03*
X97500D02*
D03*
X102500D02*
D03*
X107500D02*
D03*
X4500Y161165D02*
D03*
X9500D02*
D03*
X19500D02*
D03*
X34500Y182835D02*
D03*
X29500D02*
D03*
X24500D02*
D03*
X19500D02*
D03*
X14500D02*
D03*
X9500D02*
D03*
X4500D02*
D03*
X39500Y161165D02*
D03*
X34500D02*
D03*
X29500D02*
D03*
X24500D02*
D03*
X14500D02*
D03*
D41*
X124500Y147665D02*
D03*
X92500Y113157D02*
D03*
Y85158D02*
D03*
X39500Y182835D02*
D03*
D42*
X80775Y136450D02*
D03*
X77625D02*
D03*
X80675Y121201D02*
D03*
X77525D02*
D03*
X77625Y142750D02*
D03*
X80775D02*
D03*
X77525Y127500D02*
D03*
X80675D02*
D03*
D43*
X74161Y136450D02*
D03*
X84239D02*
D03*
X74061Y121201D02*
D03*
X84139D02*
D03*
X74161Y142750D02*
D03*
X84239D02*
D03*
X74061Y127500D02*
D03*
X84139D02*
D03*
D44*
X138500Y238181D02*
D03*
X109500D02*
D03*
Y224796D02*
D03*
X138500Y209835D02*
D03*
Y200780D02*
D03*
X109500Y203142D02*
D03*
D45*
X161508Y33752D02*
D03*
Y41547D02*
D03*
Y89106D02*
D03*
Y81075D02*
D03*
X224500Y81035D02*
D03*
Y73201D02*
D03*
Y65287D02*
D03*
Y57256D02*
D03*
Y49500D02*
D03*
Y41626D02*
D03*
Y33870D02*
D03*
X161508Y49500D02*
D03*
Y57295D02*
D03*
Y65405D02*
D03*
Y73358D02*
D03*
X224500Y88949D02*
D03*
D46*
X213421Y97163D02*
D03*
X205421D02*
D03*
X197500D02*
D03*
X189421D02*
D03*
X181421D02*
D03*
X173421D02*
D03*
D47*
X73500Y80100D02*
D03*
D48*
X87900D02*
D03*
D49*
X148150Y247816D02*
D03*
Y244666D02*
D03*
X154450Y247816D02*
D03*
Y244666D02*
D03*
D50*
X148150Y241201D02*
D03*
Y251280D02*
D03*
X154450D02*
D03*
Y241201D02*
D03*
D51*
X57000Y106720D02*
D03*
Y104161D02*
D03*
X46000D02*
D03*
Y106720D02*
D03*
Y109280D02*
D03*
Y111839D02*
D03*
X57000Y109280D02*
D03*
Y111839D02*
D03*
D52*
X47441Y249500D02*
D03*
D53*
X125984Y113189D02*
D03*
X124016D02*
D03*
X122047D02*
D03*
X120079D02*
D03*
X118110D02*
D03*
Y128937D02*
D03*
X120079D02*
D03*
X122047D02*
D03*
X124016D02*
D03*
X125984D02*
D03*
X116142D02*
D03*
D54*
X128937Y125984D02*
D03*
Y122047D02*
D03*
Y118110D02*
D03*
Y116142D02*
D03*
X113189D02*
D03*
Y118110D02*
D03*
Y120079D02*
D03*
Y122047D02*
D03*
Y124016D02*
D03*
Y125984D02*
D03*
X128937Y120079D02*
D03*
Y124016D02*
D03*
D55*
X121063Y121063D02*
D03*
D56*
X116142Y113189D02*
D03*
D57*
X9001Y49500D02*
D03*
D58*
X12701Y41500D02*
D03*
X5201D02*
D03*
D59*
X35073Y85373D02*
D03*
Y57027D02*
D03*
X6727D02*
D03*
Y85373D02*
D03*
D60*
X126299Y104827D02*
D03*
X113701D02*
D03*
Y83173D02*
D03*
D61*
X147000Y202764D02*
D03*
Y223236D02*
D03*
Y220677D02*
D03*
Y218118D02*
D03*
Y215559D02*
D03*
Y213000D02*
D03*
Y210441D02*
D03*
Y207882D02*
D03*
Y205323D02*
D03*
Y200205D02*
D03*
X170228Y223236D02*
D03*
Y220677D02*
D03*
Y218118D02*
D03*
Y215559D02*
D03*
Y213000D02*
D03*
Y210441D02*
D03*
Y207882D02*
D03*
Y205323D02*
D03*
Y202764D02*
D03*
D62*
X108677Y71000D02*
D03*
X95685D02*
D03*
X100016D02*
D03*
X104347D02*
D03*
X113008D02*
D03*
X117339D02*
D03*
X121669D02*
D03*
X126000D02*
D03*
X130331D02*
D03*
D63*
X88653Y203866D02*
D03*
X95346Y212134D02*
D03*
Y203866D02*
D03*
X88653Y212134D02*
D03*
D64*
X165500Y154299D02*
D03*
Y161799D02*
D03*
D65*
X47721Y175811D02*
D03*
Y177779D02*
D03*
Y173843D02*
D03*
Y171874D02*
D03*
Y169905D02*
D03*
Y167937D02*
D03*
X67405D02*
D03*
Y169905D02*
D03*
Y171874D02*
D03*
Y173843D02*
D03*
Y175811D02*
D03*
Y177779D02*
D03*
Y179748D02*
D03*
D66*
X57563Y173843D02*
D03*
D67*
X38634Y146153D02*
D03*
X30366Y152847D02*
D03*
Y146153D02*
D03*
X38634Y152847D02*
D03*
D68*
X106600Y181689D02*
D03*
Y193500D02*
D03*
D69*
X47721Y179748D02*
D03*
D70*
X53626Y164000D02*
D03*
X55594D02*
D03*
X57563D02*
D03*
X59531D02*
D03*
X61500D02*
D03*
X63468D02*
D03*
X51657D02*
D03*
X63468Y183685D02*
D03*
X61500D02*
D03*
X59531D02*
D03*
X57563D02*
D03*
X55594D02*
D03*
X53626D02*
D03*
X51657D02*
D03*
D71*
X126299Y83173D02*
D03*
D72*
X90567Y68532D02*
D03*
D73*
X90567Y30736D02*
D03*
X151591D02*
D03*
D74*
X148441Y68532D02*
D03*
D75*
X19858Y196542D02*
D03*
Y202447D02*
D03*
Y214258D02*
D03*
D76*
X16921Y191030D02*
D03*
X7079D02*
D03*
Y219770D02*
D03*
X16921D02*
D03*
D77*
X108293Y187594D02*
D03*
D78*
X118093D02*
D03*
D79*
X170228Y200205D02*
D03*
D80*
X173500Y157999D02*
D03*
D149*
X63516Y245480D02*
Y247764D01*
X65131Y249378D01*
X65837Y243622D02*
X65959Y243500D01*
X65131Y249378D02*
X65837D01*
X63516Y245480D02*
X65375Y243622D01*
X65837D01*
Y249378D02*
X65959Y249500D01*
D150*
X11043Y93228D02*
D03*
Y127244D02*
D03*
D151*
X27500Y93228D02*
D03*
Y127244D02*
D03*
D152*
X25413Y98858D02*
D03*
Y121614D02*
D03*
D153*
X31300Y15000D02*
D03*
X41300D02*
D03*
X51300D02*
D03*
D154*
X242126Y242126D02*
D03*
Y13780D02*
D03*
X13780Y242126D02*
D03*
Y13780D02*
D03*
D155*
X124500Y209047D02*
D03*
Y237000D02*
D03*
D156*
X72500Y12500D02*
D03*
X62500D02*
D03*
D157*
X239500Y176000D02*
D03*
X249500Y226000D02*
D03*
X239500Y216000D02*
D03*
X249500D02*
D03*
X239500Y206000D02*
D03*
X249500D02*
D03*
X239500Y196000D02*
D03*
X249500D02*
D03*
X239500Y186000D02*
D03*
X249500D02*
D03*
Y176000D02*
D03*
X239500Y166000D02*
D03*
X249500D02*
D03*
X239500Y156000D02*
D03*
X249500D02*
D03*
X239500Y146000D02*
D03*
X249500D02*
D03*
X239500Y136000D02*
D03*
X249500D02*
D03*
X239500Y126000D02*
D03*
X249500D02*
D03*
X239500Y116000D02*
D03*
X249500D02*
D03*
X239500Y106000D02*
D03*
X249500D02*
D03*
X239500Y96000D02*
D03*
X249500D02*
D03*
X239500Y86000D02*
D03*
X249500D02*
D03*
X37600Y45411D02*
D03*
D158*
X239500Y226000D02*
D03*
X37600Y33600D02*
D03*
D159*
X101984Y29161D02*
D03*
X133480D02*
D03*
D160*
X86363Y22237D02*
D03*
Y14363D02*
D03*
Y18300D02*
D03*
X90300Y22237D02*
D03*
X94237D02*
D03*
X90300Y18300D02*
D03*
X94237D02*
D03*
X90300Y14363D02*
D03*
X94237D02*
D03*
X121563Y19737D02*
D03*
Y11863D02*
D03*
Y15800D02*
D03*
X125500Y19737D02*
D03*
X129437D02*
D03*
X125500Y15800D02*
D03*
X129437D02*
D03*
X125500Y11863D02*
D03*
X129437D02*
D03*
X198437Y194663D02*
D03*
X194500D02*
D03*
X198437Y198600D02*
D03*
X194500D02*
D03*
X198437Y202537D02*
D03*
X194500D02*
D03*
X190563Y198600D02*
D03*
Y194663D02*
D03*
Y202537D02*
D03*
X118000Y134300D02*
D03*
X131700Y124800D02*
D03*
X155800Y156900D02*
D03*
X189300Y156800D02*
D03*
X184600Y157000D02*
D03*
X179600Y157200D02*
D03*
X204300Y158200D02*
D03*
X202500Y153900D02*
D03*
X221200Y197500D02*
D03*
X205800Y173400D02*
D03*
X103000Y229488D02*
D03*
X211336Y89037D02*
D03*
X103000Y224764D02*
D03*
X213702Y86936D02*
D03*
X103000Y227126D02*
D03*
X198788Y158200D02*
D03*
X201544D02*
D03*
X195562Y150400D02*
D03*
X193200D02*
D03*
X202500Y150600D02*
D03*
X80700Y78800D02*
D03*
X80600Y82000D02*
D03*
X121200Y88700D02*
D03*
X94700Y183400D02*
D03*
X79832Y189913D02*
D03*
X158900Y190400D02*
D03*
X98837Y119463D02*
D03*
X94900D02*
D03*
X98837Y123400D02*
D03*
X94900D02*
D03*
X98837Y127337D02*
D03*
X94900D02*
D03*
X90963Y123400D02*
D03*
Y119463D02*
D03*
Y127337D02*
D03*
X14800Y45900D02*
D03*
X85000Y59000D02*
D03*
Y64000D02*
D03*
X251400Y35900D02*
D03*
X251100Y62300D02*
D03*
X228100Y95000D02*
D03*
X233400Y99900D02*
D03*
X176637Y119363D02*
D03*
X172700D02*
D03*
X176637Y123300D02*
D03*
X172700D02*
D03*
X176637Y127237D02*
D03*
X172700D02*
D03*
X168763Y123300D02*
D03*
Y119363D02*
D03*
Y127237D02*
D03*
X82276Y238150D02*
D03*
Y230276D02*
D03*
Y234213D02*
D03*
X119100Y122900D02*
D03*
X78600Y208600D02*
D03*
X78700Y214100D02*
D03*
X11400Y204900D02*
D03*
X42900Y190900D02*
D03*
X21100Y226700D02*
D03*
X30100Y242700D02*
D03*
X29900Y250200D02*
D03*
X30000Y246300D02*
D03*
X50300Y246600D02*
D03*
X56500Y246300D02*
D03*
X65600Y232700D02*
D03*
X59400Y232500D02*
D03*
X80641Y102500D02*
D03*
X88100Y96700D02*
D03*
X120100Y104800D02*
D03*
X150400Y96200D02*
D03*
X146500D02*
D03*
X177500Y89100D02*
D03*
X173000D02*
D03*
X168800Y89200D02*
D03*
X228200Y159200D02*
D03*
X228100Y161600D02*
D03*
X208500Y172900D02*
D03*
X165200Y240800D02*
D03*
Y247700D02*
D03*
X157400Y226400D02*
D03*
X148100Y226600D02*
D03*
X157300Y233100D02*
D03*
X142889Y251187D02*
D03*
X138778Y224600D02*
D03*
X138500Y234300D02*
D03*
X110900Y76700D02*
D03*
X106500Y76900D02*
D03*
X119100Y110400D02*
D03*
X127900Y110800D02*
D03*
X62177Y124500D02*
D03*
X150400Y177500D02*
D03*
X163600D02*
D03*
X154000Y175400D02*
D03*
X151500Y203200D02*
D03*
X139663Y135237D02*
D03*
X143600D02*
D03*
X147537D02*
D03*
X139663Y131300D02*
D03*
X143600D02*
D03*
X147537D02*
D03*
X139663Y127363D02*
D03*
X143600D02*
D03*
X147537D02*
D03*
X128897Y128315D02*
D03*
X13863Y72337D02*
D03*
X17800D02*
D03*
X21737D02*
D03*
X13863Y68400D02*
D03*
X17800D02*
D03*
X21737D02*
D03*
X13863Y64463D02*
D03*
X17800D02*
D03*
X21737D02*
D03*
X29500Y97600D02*
D03*
X32700D02*
D03*
X29400Y122900D02*
D03*
X32600D02*
D03*
X19700Y135137D02*
D03*
X23637D02*
D03*
X19700Y131200D02*
D03*
X23637D02*
D03*
X13737Y173000D02*
D03*
X9800D02*
D03*
X29474Y173100D02*
D03*
X25537D02*
D03*
X58900Y143700D02*
D03*
X62837D02*
D03*
X66774D02*
D03*
X47100Y143600D02*
D03*
X51037D02*
D03*
X54974D02*
D03*
X88653Y203866D02*
D03*
X95346Y212134D02*
D03*
X96260Y207994D02*
D03*
X96300Y231800D02*
D03*
X103000Y232000D02*
D03*
X233175Y214497D02*
D03*
X222775Y201063D02*
D03*
X223108Y183241D02*
D03*
X192397Y179082D02*
D03*
X167600Y181500D02*
D03*
X225700Y212262D02*
D03*
X205870Y71930D02*
D03*
X224152Y203462D02*
D03*
X193473Y173100D02*
D03*
X193100Y142200D02*
D03*
X82688Y224700D02*
D03*
X104486Y139686D02*
D03*
X195835Y173100D02*
D03*
X195600Y142300D02*
D03*
X80307Y224600D02*
D03*
X107270Y139130D02*
D03*
X149900Y187400D02*
D03*
X63500Y245400D02*
D03*
X109268Y62750D02*
D03*
X151600Y223025D02*
D03*
X165800D02*
D03*
X96300Y241300D02*
D03*
X77748Y243219D02*
D03*
X79754Y244466D02*
D03*
X233200Y145400D02*
D03*
X224505Y169883D02*
D03*
X150000Y196465D02*
D03*
X222500Y129000D02*
D03*
X73800Y46800D02*
D03*
X111630Y62800D02*
D03*
X115700Y193500D02*
D03*
X211000Y109600D02*
D03*
X127242Y159032D02*
D03*
X125000Y157500D02*
D03*
X164118Y164977D02*
D03*
X239800Y211400D02*
D03*
X204200Y73600D02*
D03*
X68484Y192046D02*
D03*
X70357Y188157D02*
D03*
X229000Y127762D02*
D03*
X113992Y62800D02*
D03*
X102200Y210800D02*
D03*
X104400Y215200D02*
D03*
X102825Y213078D02*
D03*
X165800Y218100D02*
D03*
Y220600D02*
D03*
X151500Y210500D02*
D03*
X152900Y217921D02*
D03*
Y213197D02*
D03*
Y215559D02*
D03*
X129600Y100900D02*
D03*
X218700Y244900D02*
D03*
X216900Y241900D02*
D03*
X225332Y242300D02*
D03*
X149224Y174300D02*
D03*
X141065Y247600D02*
D03*
X146862Y174300D02*
D03*
X139200Y245900D02*
D03*
X144500Y174300D02*
D03*
X136231Y242983D02*
D03*
X139776Y174300D02*
D03*
X185201Y242300D02*
D03*
X169368D02*
D03*
X123037Y123100D02*
D03*
X119100Y119163D02*
D03*
X123037D02*
D03*
X33000Y120000D02*
D03*
X29800D02*
D03*
X26000Y113200D02*
D03*
X29400Y100700D02*
D03*
X32600D02*
D03*
X26000Y109300D02*
D03*
X47300Y148800D02*
D03*
X75975Y155000D02*
D03*
X172600Y144100D02*
D03*
X130100Y133300D02*
D03*
X110724Y187824D02*
D03*
X138360Y76740D02*
D03*
X170700Y197400D02*
D03*
X151481Y205586D02*
D03*
X179300Y192800D02*
D03*
X152971Y196678D02*
D03*
X151499Y200738D02*
D03*
X161700Y181300D02*
D03*
X155900Y181600D02*
D03*
X105300Y156200D02*
D03*
X122815Y162200D02*
D03*
X99110Y151316D02*
D03*
X95500Y148000D02*
D03*
X93700Y146400D02*
D03*
X101100Y152800D02*
D03*
X91631Y144569D02*
D03*
X103100Y154400D02*
D03*
X97300Y149600D02*
D03*
X126400Y176000D02*
D03*
X95500Y140500D02*
D03*
X73500Y75600D02*
D03*
X111100Y197700D02*
D03*
X115650D02*
D03*
X116800Y190200D02*
D03*
X116600Y185100D02*
D03*
X118900Y187800D02*
D03*
X114600Y187700D02*
D03*
X111150Y193500D02*
D03*
X109500Y238181D02*
D03*
X129200Y185200D02*
D03*
X137900Y181500D02*
D03*
X158800Y196900D02*
D03*
X151500Y208000D02*
D03*
X241000Y76000D02*
D03*
X225100Y99700D02*
D03*
X144000Y87259D02*
D03*
X6727Y85373D02*
D03*
X9300Y30100D02*
D03*
X29400Y51600D02*
D03*
X83186Y217776D02*
D03*
X87907Y217680D02*
D03*
X85548Y217801D02*
D03*
X78500Y202900D02*
D03*
X63000Y237500D02*
D03*
X49900D02*
D03*
X13300Y226600D02*
D03*
X12000Y149000D02*
D03*
X77700Y114900D02*
D03*
X177832Y242300D02*
D03*
X193666D02*
D03*
X209499D02*
D03*
X142138Y174300D02*
D03*
X84239Y139600D02*
D03*
X80775D02*
D03*
X80614Y124300D02*
D03*
X77465D02*
D03*
X74000D02*
D03*
X84079D02*
D03*
X74161Y139600D02*
D03*
X77625D02*
D03*
X109633Y142715D02*
D03*
X100625Y208700D02*
D03*
X99838Y206456D02*
D03*
X105700Y217300D02*
D03*
X118717Y62800D02*
D03*
X116354D02*
D03*
X96095Y234195D02*
D03*
X93887Y207848D02*
D03*
X93970Y197100D02*
D03*
X121079Y62800D02*
D03*
X87400Y243100D02*
D03*
X85000D02*
D03*
X112000Y137600D02*
D03*
X102600Y89500D02*
D03*
X69400Y233500D02*
D03*
X70100Y241100D02*
D03*
X94725Y238152D02*
D03*
X82300Y251400D02*
D03*
X63516Y247764D02*
D03*
X31500Y37338D02*
D03*
Y39700D02*
D03*
X79900Y250700D02*
D03*
X85031Y251123D02*
D03*
X63500Y94442D02*
D03*
X60400Y100267D02*
D03*
Y96633D02*
D03*
Y93000D02*
D03*
Y103900D02*
D03*
X56950Y100267D02*
D03*
X53500D02*
D03*
X65000Y98300D02*
D03*
X86213Y238150D02*
D03*
X90150D02*
D03*
X86213Y234213D02*
D03*
X90150D02*
D03*
X86213Y230276D02*
D03*
X90150D02*
D03*
X61500Y169905D02*
D03*
X57563D02*
D03*
X53626D02*
D03*
X61500Y173843D02*
D03*
X57563D02*
D03*
X53626D02*
D03*
X61500Y177779D02*
D03*
X57563D02*
D03*
X53626D02*
D03*
X73475Y200000D02*
D03*
X22500Y220000D02*
D03*
X47400Y226200D02*
D03*
X43362Y204739D02*
D03*
X43300Y219500D02*
D03*
X52903Y233892D02*
D03*
X71059Y220100D02*
D03*
X55800Y219800D02*
D03*
X51076D02*
D03*
X55665Y204542D02*
D03*
X53438Y219800D02*
D03*
X53300Y204600D02*
D03*
X50900Y204700D02*
D03*
X165800Y205300D02*
D03*
X151500Y220700D02*
D03*
X53900Y128000D02*
D03*
X46000Y115100D02*
D03*
X63100Y114900D02*
D03*
X60400D02*
D03*
X51600Y109350D02*
D03*
Y112200D02*
D03*
X249300Y51600D02*
D03*
X56600Y249500D02*
D03*
X128800Y234400D02*
D03*
X58000Y131000D02*
D03*
X49300Y130900D02*
D03*
X58000Y133600D02*
D03*
X49400D02*
D03*
X58000Y128200D02*
D03*
X49300Y128300D02*
D03*
X51600Y106500D02*
D03*
X49600Y101300D02*
D03*
X45000D02*
D03*
M02*
