G04*
G04 #@! TF.GenerationSoftware,Altium Limited,Altium Designer,20.2.6 (244)*
G04*
G04 Layer_Color=255*
%FSLAX25Y25*%
%MOIN*%
G70*
G04*
G04 #@! TF.SameCoordinates,53242240-AA46-4597-B95F-6874191C8742*
G04*
G04*
G04 #@! TF.FilePolarity,Positive*
G04*
G01*
G75*
%ADD12C,0.01000*%
%ADD35C,0.03150*%
%ADD150O,0.06299X0.03937*%
%ADD151O,0.08268X0.03937*%
%ADD152C,0.02559*%
%ADD153C,0.06000*%
%ADD154C,0.10630*%
%ADD155C,0.05906*%
%ADD156O,0.05906X0.07087*%
%ADD157C,0.06299*%
%ADD158R,0.06299X0.06299*%
%ADD159C,0.03937*%
D12*
X255906Y242126D02*
G03*
X242126Y255906I-13780J0D01*
G01*
Y0D02*
G03*
X255906Y13780I0J13780D01*
G01*
X0D02*
G03*
X13780Y0I13780J0D01*
G01*
Y255906D02*
G03*
X0Y242126I0J-13780D01*
G01*
X13780Y0D02*
X242126D01*
X255906Y13780D02*
Y242126D01*
X13780Y255906D02*
X242126D01*
X0Y13780D02*
Y242126D01*
D35*
X12000Y199495D02*
D03*
Y211305D02*
D03*
D150*
X11043Y93228D02*
D03*
Y127244D02*
D03*
D151*
X27500Y93228D02*
D03*
Y127244D02*
D03*
D152*
X25413Y98858D02*
D03*
Y121614D02*
D03*
D153*
X31300Y15000D02*
D03*
X41300D02*
D03*
X51300D02*
D03*
D154*
X242126Y242126D02*
D03*
Y13780D02*
D03*
X13780Y242126D02*
D03*
Y13780D02*
D03*
D155*
X124500Y209047D02*
D03*
Y237000D02*
D03*
D156*
X72500Y12500D02*
D03*
X62500D02*
D03*
D157*
X239500Y176000D02*
D03*
X249500Y226000D02*
D03*
X239500Y216000D02*
D03*
X249500D02*
D03*
X239500Y206000D02*
D03*
X249500D02*
D03*
X239500Y196000D02*
D03*
X249500D02*
D03*
X239500Y186000D02*
D03*
X249500D02*
D03*
Y176000D02*
D03*
X239500Y166000D02*
D03*
X249500D02*
D03*
X239500Y156000D02*
D03*
X249500D02*
D03*
X239500Y146000D02*
D03*
X249500D02*
D03*
X239500Y136000D02*
D03*
X249500D02*
D03*
X239500Y126000D02*
D03*
X249500D02*
D03*
X239500Y116000D02*
D03*
X249500D02*
D03*
X239500Y106000D02*
D03*
X249500D02*
D03*
X239500Y96000D02*
D03*
X249500D02*
D03*
X239500Y86000D02*
D03*
X249500D02*
D03*
X37600Y45411D02*
D03*
D158*
X239500Y226000D02*
D03*
X37600Y33600D02*
D03*
D159*
X101984Y29161D02*
D03*
X133480D02*
D03*
M02*
