G04*
G04 #@! TF.GenerationSoftware,Altium Limited,Altium Designer,20.2.6 (244)*
G04*
G04 Layer_Color=128*
%FSLAX25Y25*%
%MOIN*%
G70*
G04*
G04 #@! TF.SameCoordinates,53242240-AA46-4597-B95F-6874191C8742*
G04*
G04*
G04 #@! TF.FilePolarity,Positive*
G04*
G01*
G75*
%ADD12C,0.01000*%
%ADD174C,0.00200*%
D12*
X255906Y242126D02*
G03*
X242126Y255906I-13780J0D01*
G01*
Y0D02*
G03*
X255906Y13780I0J13780D01*
G01*
X0D02*
G03*
X13780Y0I13780J0D01*
G01*
Y255906D02*
G03*
X0Y242126I0J-13780D01*
G01*
X13780Y0D02*
X242126D01*
X255906Y13780D02*
Y242126D01*
X13780Y255906D02*
X242126D01*
X0Y13780D02*
Y242126D01*
D174*
X9862Y93228D02*
X12224D01*
X11043Y92047D02*
Y94410D01*
X9862Y127244D02*
X12224D01*
X11043Y126063D02*
Y128425D01*
X26319Y93228D02*
X28681D01*
X27500Y92047D02*
Y94410D01*
X24134Y98858D02*
X26693D01*
X25413Y97579D02*
Y100138D01*
X24134Y121614D02*
X26693D01*
X25413Y120335D02*
Y122894D01*
X26319Y127244D02*
X28681D01*
X27500Y126063D02*
Y128425D01*
X29800Y15000D02*
X32800D01*
X31300Y13500D02*
Y16500D01*
X39800Y15000D02*
X42800D01*
X41300Y13500D02*
Y16500D01*
X49800Y15000D02*
X52800D01*
X51300Y13500D02*
Y16500D01*
X236811Y242126D02*
X247441D01*
X242126Y236811D02*
Y247441D01*
X236811Y13780D02*
X247441D01*
X242126Y8465D02*
Y19094D01*
X8465Y242126D02*
X19094D01*
X13780Y236811D02*
Y247441D01*
X8465Y13780D02*
X19094D01*
X13780Y8465D02*
Y19094D01*
X121547Y209047D02*
X127453D01*
X124500Y206095D02*
Y212000D01*
X121547Y237000D02*
X127453D01*
X124500Y234047D02*
Y239953D01*
X70925Y12500D02*
X74075D01*
X72500Y10925D02*
Y14075D01*
X237728Y176000D02*
X241272D01*
X239500Y174228D02*
Y177772D01*
X237728Y226000D02*
X241272D01*
X239500Y224228D02*
Y227772D01*
X247728Y226000D02*
X251272D01*
X249500Y224228D02*
Y227772D01*
X237728Y216000D02*
X241272D01*
X239500Y214228D02*
Y217772D01*
X247728Y216000D02*
X251272D01*
X249500Y214228D02*
Y217772D01*
X237728Y206000D02*
X241272D01*
X239500Y204228D02*
Y207772D01*
X247728Y206000D02*
X251272D01*
X249500Y204228D02*
Y207772D01*
X237728Y196000D02*
X241272D01*
X239500Y194228D02*
Y197772D01*
X247728Y196000D02*
X251272D01*
X249500Y194228D02*
Y197772D01*
X237728Y186000D02*
X241272D01*
X239500Y184228D02*
Y187772D01*
X247728Y186000D02*
X251272D01*
X249500Y184228D02*
Y187772D01*
X247728Y176000D02*
X251272D01*
X249500Y174228D02*
Y177772D01*
X237728Y166000D02*
X241272D01*
X239500Y164228D02*
Y167772D01*
X247728Y166000D02*
X251272D01*
X249500Y164228D02*
Y167772D01*
X237728Y156000D02*
X241272D01*
X239500Y154228D02*
Y157772D01*
X247728Y156000D02*
X251272D01*
X249500Y154228D02*
Y157772D01*
X237728Y146000D02*
X241272D01*
X239500Y144228D02*
Y147772D01*
X247728Y146000D02*
X251272D01*
X249500Y144228D02*
Y147772D01*
X237728Y136000D02*
X241272D01*
X239500Y134228D02*
Y137772D01*
X247728Y136000D02*
X251272D01*
X249500Y134228D02*
Y137772D01*
X237728Y126000D02*
X241272D01*
X239500Y124228D02*
Y127772D01*
X247728Y126000D02*
X251272D01*
X249500Y124228D02*
Y127772D01*
X237728Y116000D02*
X241272D01*
X239500Y114228D02*
Y117772D01*
X247728Y116000D02*
X251272D01*
X249500Y114228D02*
Y117772D01*
X237728Y106000D02*
X241272D01*
X239500Y104228D02*
Y107772D01*
X247728Y106000D02*
X251272D01*
X249500Y104228D02*
Y107772D01*
X237728Y96000D02*
X241272D01*
X239500Y94228D02*
Y97772D01*
X247728Y96000D02*
X251272D01*
X249500Y94228D02*
Y97772D01*
X237728Y86000D02*
X241272D01*
X239500Y84228D02*
Y87772D01*
X247728Y86000D02*
X251272D01*
X249500Y84228D02*
Y87772D01*
X60925Y12500D02*
X64075D01*
X62500Y10925D02*
Y14075D01*
X100016Y29161D02*
X103953D01*
X101984Y27193D02*
Y31130D01*
X131512Y29161D02*
X135449D01*
X133480Y27193D02*
Y31130D01*
X36025Y45411D02*
X39175D01*
X37600Y43836D02*
Y46986D01*
X36025Y33600D02*
X39175D01*
X37600Y32025D02*
Y35175D01*
X10425Y199495D02*
X13575D01*
X12000Y197920D02*
Y201069D01*
X10425Y211305D02*
X13575D01*
X12000Y209731D02*
Y212880D01*
X85772Y22237D02*
X86954D01*
X86363Y21646D02*
Y22828D01*
X85772Y14363D02*
X86954D01*
X86363Y13772D02*
Y14954D01*
X85772Y18300D02*
X86954D01*
X86363Y17709D02*
Y18891D01*
X89710Y22237D02*
X90891D01*
X90300Y21646D02*
Y22828D01*
X93647Y22237D02*
X94828D01*
X94237Y21646D02*
Y22828D01*
X89710Y18300D02*
X90891D01*
X90300Y17709D02*
Y18891D01*
X93647Y18300D02*
X94828D01*
X94237Y17709D02*
Y18891D01*
X89710Y14363D02*
X90891D01*
X90300Y13772D02*
Y14954D01*
X93647Y14363D02*
X94828D01*
X94237Y13772D02*
Y14954D01*
X120972Y19737D02*
X122153D01*
X121563Y19147D02*
Y20328D01*
X120972Y11863D02*
X122153D01*
X121563Y11272D02*
Y12454D01*
X120972Y15800D02*
X122153D01*
X121563Y15210D02*
Y16390D01*
X124909Y19737D02*
X126091D01*
X125500Y19147D02*
Y20328D01*
X128847Y19737D02*
X130028D01*
X129437Y19147D02*
Y20328D01*
X124909Y15800D02*
X126091D01*
X125500Y15210D02*
Y16390D01*
X128847Y15800D02*
X130028D01*
X129437Y15210D02*
Y16390D01*
X124909Y11863D02*
X126091D01*
X125500Y11272D02*
Y12454D01*
X128847Y11863D02*
X130028D01*
X129437Y11272D02*
Y12454D01*
X197846Y194663D02*
X199028D01*
X198437Y194072D02*
Y195254D01*
X193909Y194663D02*
X195091D01*
X194500Y194072D02*
Y195254D01*
X197846Y198600D02*
X199028D01*
X198437Y198009D02*
Y199191D01*
X193909Y198600D02*
X195091D01*
X194500Y198009D02*
Y199191D01*
X197846Y202537D02*
X199028D01*
X198437Y201946D02*
Y203128D01*
X193909Y202537D02*
X195091D01*
X194500Y201946D02*
Y203128D01*
X189972Y198600D02*
X191154D01*
X190563Y198009D02*
Y199191D01*
X189972Y194663D02*
X191154D01*
X190563Y194072D02*
Y195254D01*
X189972Y202537D02*
X191154D01*
X190563Y201946D02*
Y203128D01*
X117409Y134300D02*
X118591D01*
X118000Y133709D02*
Y134891D01*
X131109Y124800D02*
X132291D01*
X131700Y124209D02*
Y125391D01*
X155209Y156900D02*
X156391D01*
X155800Y156309D02*
Y157491D01*
X188709Y156800D02*
X189891D01*
X189300Y156209D02*
Y157391D01*
X184009Y157000D02*
X185191D01*
X184600Y156409D02*
Y157591D01*
X179009Y157200D02*
X180191D01*
X179600Y156609D02*
Y157791D01*
X203709Y158200D02*
X204890D01*
X204300Y157609D02*
Y158791D01*
X201909Y153900D02*
X203091D01*
X202500Y153309D02*
Y154491D01*
X220609Y197500D02*
X221791D01*
X221200Y196909D02*
Y198091D01*
X205209Y173400D02*
X206391D01*
X205800Y172809D02*
Y173991D01*
X102410Y229488D02*
X103591D01*
X103000Y228898D02*
Y230079D01*
X210746Y89037D02*
X211927D01*
X211336Y88446D02*
Y89627D01*
X102410Y224764D02*
X103591D01*
X103000Y224173D02*
Y225354D01*
X213111Y86936D02*
X214292D01*
X213702Y86346D02*
Y87527D01*
X102410Y227126D02*
X103591D01*
X103000Y226535D02*
Y227716D01*
X198198Y158200D02*
X199379D01*
X198788Y157609D02*
Y158791D01*
X200954Y158200D02*
X202135D01*
X201544Y157609D02*
Y158791D01*
X194972Y150400D02*
X196153D01*
X195562Y149809D02*
Y150991D01*
X192609Y150400D02*
X193791D01*
X193200Y149809D02*
Y150991D01*
X201909Y150600D02*
X203091D01*
X202500Y150009D02*
Y151191D01*
X80110Y78800D02*
X81291D01*
X80700Y78210D02*
Y79391D01*
X80010Y82000D02*
X81191D01*
X80600Y81410D02*
Y82591D01*
X120609Y88700D02*
X121791D01*
X121200Y88109D02*
Y89290D01*
X94109Y183400D02*
X95290D01*
X94700Y182809D02*
Y183991D01*
X79242Y189913D02*
X80423D01*
X79832Y189323D02*
Y190504D01*
X158309Y190400D02*
X159491D01*
X158900Y189809D02*
Y190991D01*
X98247Y119463D02*
X99428D01*
X98837Y118872D02*
Y120054D01*
X94310Y119463D02*
X95490D01*
X94900Y118872D02*
Y120054D01*
X98247Y123400D02*
X99428D01*
X98837Y122809D02*
Y123991D01*
X94310Y123400D02*
X95490D01*
X94900Y122809D02*
Y123991D01*
X98247Y127337D02*
X99428D01*
X98837Y126746D02*
Y127928D01*
X94310Y127337D02*
X95490D01*
X94900Y126746D02*
Y127928D01*
X90372Y123400D02*
X91553D01*
X90963Y122809D02*
Y123991D01*
X90372Y119463D02*
X91553D01*
X90963Y118872D02*
Y120054D01*
X90372Y127337D02*
X91553D01*
X90963Y126746D02*
Y127928D01*
X14209Y45900D02*
X15391D01*
X14800Y45309D02*
Y46491D01*
X84409Y59000D02*
X85590D01*
X85000Y58410D02*
Y59591D01*
X84409Y64000D02*
X85590D01*
X85000Y63410D02*
Y64591D01*
X250810Y35900D02*
X251991D01*
X251400Y35309D02*
Y36491D01*
X250510Y62300D02*
X251691D01*
X251100Y61709D02*
Y62890D01*
X227509Y95000D02*
X228691D01*
X228100Y94410D02*
Y95591D01*
X232809Y99900D02*
X233991D01*
X233400Y99309D02*
Y100490D01*
X176047Y119363D02*
X177228D01*
X176637Y118772D02*
Y119954D01*
X172109Y119363D02*
X173291D01*
X172700Y118772D02*
Y119954D01*
X176047Y123300D02*
X177228D01*
X176637Y122709D02*
Y123891D01*
X172109Y123300D02*
X173291D01*
X172700Y122709D02*
Y123891D01*
X176047Y127237D02*
X177228D01*
X176637Y126646D02*
Y127828D01*
X172109Y127237D02*
X173291D01*
X172700Y126646D02*
Y127828D01*
X168172Y123300D02*
X169353D01*
X168763Y122709D02*
Y123891D01*
X168172Y119363D02*
X169353D01*
X168763Y118772D02*
Y119954D01*
X168172Y127237D02*
X169353D01*
X168763Y126646D02*
Y127828D01*
X81685Y238150D02*
X82866D01*
X82276Y237559D02*
Y238740D01*
X81685Y230276D02*
X82866D01*
X82276Y229685D02*
Y230866D01*
X81685Y234213D02*
X82866D01*
X82276Y233622D02*
Y234803D01*
X118509Y122900D02*
X119691D01*
X119100Y122309D02*
Y123491D01*
X78009Y208600D02*
X79190D01*
X78600Y208010D02*
Y209191D01*
X78110Y214100D02*
X79290D01*
X78700Y213509D02*
Y214690D01*
X10809Y204900D02*
X11991D01*
X11400Y204309D02*
Y205490D01*
X42309Y190900D02*
X43491D01*
X42900Y190309D02*
Y191491D01*
X20509Y226700D02*
X21690D01*
X21100Y226110D02*
Y227291D01*
X29509Y242700D02*
X30691D01*
X30100Y242109D02*
Y243290D01*
X29309Y250200D02*
X30491D01*
X29900Y249609D02*
Y250791D01*
X29409Y246300D02*
X30591D01*
X30000Y245709D02*
Y246890D01*
X49709Y246600D02*
X50891D01*
X50300Y246009D02*
Y247190D01*
X55910Y246300D02*
X57091D01*
X56500Y245709D02*
Y246890D01*
X65009Y232700D02*
X66190D01*
X65600Y232109D02*
Y233291D01*
X58810Y232500D02*
X59991D01*
X59400Y231909D02*
Y233090D01*
X80050Y102500D02*
X81231D01*
X80641Y101909D02*
Y103091D01*
X87510Y96700D02*
X88691D01*
X88100Y96109D02*
Y97290D01*
X119509Y104800D02*
X120691D01*
X120100Y104209D02*
Y105391D01*
X149809Y96200D02*
X150991D01*
X150400Y95609D02*
Y96790D01*
X145909Y96200D02*
X147091D01*
X146500Y95609D02*
Y96790D01*
X176909Y89100D02*
X178091D01*
X177500Y88510D02*
Y89691D01*
X172409Y89100D02*
X173591D01*
X173000Y88510D02*
Y89691D01*
X168209Y89200D02*
X169391D01*
X168800Y88609D02*
Y89790D01*
X227609Y159200D02*
X228790D01*
X228200Y158609D02*
Y159791D01*
X227509Y161600D02*
X228691D01*
X228100Y161009D02*
Y162191D01*
X207909Y172900D02*
X209090D01*
X208500Y172309D02*
Y173491D01*
X164609Y240800D02*
X165791D01*
X165200Y240210D02*
Y241390D01*
X164609Y247700D02*
X165791D01*
X165200Y247110D02*
Y248290D01*
X156809Y226400D02*
X157991D01*
X157400Y225810D02*
Y226991D01*
X147509Y226600D02*
X148691D01*
X148100Y226009D02*
Y227190D01*
X156709Y233100D02*
X157891D01*
X157300Y232509D02*
Y233691D01*
X142298Y251187D02*
X143480D01*
X142889Y250596D02*
Y251777D01*
X138187Y224600D02*
X139368D01*
X138778Y224009D02*
Y225190D01*
X137909Y234300D02*
X139091D01*
X138500Y233710D02*
Y234891D01*
X110309Y76700D02*
X111491D01*
X110900Y76109D02*
Y77290D01*
X105909Y76900D02*
X107091D01*
X106500Y76310D02*
Y77491D01*
X118509Y110400D02*
X119691D01*
X119100Y109809D02*
Y110991D01*
X127309Y110800D02*
X128491D01*
X127900Y110209D02*
Y111391D01*
X61587Y124500D02*
X62768D01*
X62177Y123909D02*
Y125091D01*
X149809Y177500D02*
X150991D01*
X150400Y176909D02*
Y178091D01*
X163009Y177500D02*
X164191D01*
X163600Y176909D02*
Y178091D01*
X153409Y175400D02*
X154591D01*
X154000Y174809D02*
Y175991D01*
X150909Y203200D02*
X152091D01*
X151500Y202609D02*
Y203791D01*
X139072Y135237D02*
X140253D01*
X139663Y134646D02*
Y135828D01*
X143009Y135237D02*
X144191D01*
X143600Y134646D02*
Y135828D01*
X146947Y135237D02*
X148128D01*
X147537Y134646D02*
Y135828D01*
X139072Y131300D02*
X140253D01*
X139663Y130709D02*
Y131891D01*
X143009Y131300D02*
X144191D01*
X143600Y130709D02*
Y131891D01*
X146947Y131300D02*
X148128D01*
X147537Y130709D02*
Y131891D01*
X139072Y127363D02*
X140253D01*
X139663Y126772D02*
Y127954D01*
X143009Y127363D02*
X144191D01*
X143600Y126772D02*
Y127954D01*
X146947Y127363D02*
X148128D01*
X147537Y126772D02*
Y127954D01*
X128307Y128315D02*
X129488D01*
X128897Y127724D02*
Y128905D01*
X13272Y72337D02*
X14454D01*
X13863Y71746D02*
Y72928D01*
X17210Y72337D02*
X18391D01*
X17800Y71746D02*
Y72928D01*
X21147Y72337D02*
X22328D01*
X21737Y71746D02*
Y72928D01*
X13272Y68400D02*
X14454D01*
X13863Y67809D02*
Y68990D01*
X17210Y68400D02*
X18391D01*
X17800Y67809D02*
Y68990D01*
X21147Y68400D02*
X22328D01*
X21737Y67809D02*
Y68990D01*
X13272Y64463D02*
X14454D01*
X13863Y63872D02*
Y65053D01*
X17210Y64463D02*
X18391D01*
X17800Y63872D02*
Y65053D01*
X21147Y64463D02*
X22328D01*
X21737Y63872D02*
Y65053D01*
X28909Y97600D02*
X30091D01*
X29500Y97009D02*
Y98190D01*
X32109Y97600D02*
X33291D01*
X32700Y97009D02*
Y98190D01*
X28809Y122900D02*
X29991D01*
X29400Y122309D02*
Y123491D01*
X32009Y122900D02*
X33191D01*
X32600Y122309D02*
Y123491D01*
X19109Y135137D02*
X20290D01*
X19700Y134546D02*
Y135728D01*
X23046Y135137D02*
X24228D01*
X23637Y134546D02*
Y135728D01*
X19109Y131200D02*
X20290D01*
X19700Y130609D02*
Y131791D01*
X23046Y131200D02*
X24228D01*
X23637Y130609D02*
Y131791D01*
X13147Y173000D02*
X14328D01*
X13737Y172409D02*
Y173591D01*
X9209Y173000D02*
X10391D01*
X9800Y172409D02*
Y173591D01*
X28883Y173100D02*
X30065D01*
X29474Y172509D02*
Y173691D01*
X24947Y173100D02*
X26128D01*
X25537Y172509D02*
Y173691D01*
X58310Y143700D02*
X59491D01*
X58900Y143109D02*
Y144291D01*
X62247Y143700D02*
X63428D01*
X62837Y143109D02*
Y144291D01*
X66184Y143700D02*
X67365D01*
X66774Y143109D02*
Y144291D01*
X46509Y143600D02*
X47691D01*
X47100Y143009D02*
Y144191D01*
X50446Y143600D02*
X51628D01*
X51037Y143009D02*
Y144191D01*
X54383Y143600D02*
X55565D01*
X54974Y143009D02*
Y144191D01*
X88063Y203866D02*
X89244D01*
X88653Y203276D02*
Y204457D01*
X94756Y212134D02*
X95937D01*
X95346Y211543D02*
Y212724D01*
X95670Y207994D02*
X96851D01*
X96260Y207403D02*
Y208584D01*
X95710Y231800D02*
X96890D01*
X96300Y231209D02*
Y232390D01*
X102409Y232000D02*
X103591D01*
X103000Y231410D02*
Y232591D01*
X232584Y214497D02*
X233765D01*
X233175Y213906D02*
Y215088D01*
X222184Y201063D02*
X223365D01*
X222775Y200472D02*
Y201653D01*
X222517Y183241D02*
X223698D01*
X223108Y182651D02*
Y183832D01*
X191806Y179082D02*
X192988D01*
X192397Y178492D02*
Y179673D01*
X167009Y181500D02*
X168191D01*
X167600Y180909D02*
Y182091D01*
X225110Y212262D02*
X226291D01*
X225700Y211672D02*
Y212853D01*
X205280Y71930D02*
X206461D01*
X205870Y71339D02*
Y72520D01*
X223561Y203462D02*
X224742D01*
X224152Y202872D02*
Y204053D01*
X192883Y173100D02*
X194064D01*
X193473Y172510D02*
Y173691D01*
X192509Y142200D02*
X193691D01*
X193100Y141609D02*
Y142791D01*
X82098Y224700D02*
X83279D01*
X82688Y224110D02*
Y225290D01*
X103896Y139686D02*
X105077D01*
X104486Y139096D02*
Y140277D01*
X195245Y173100D02*
X196426D01*
X195835Y172510D02*
Y173691D01*
X195009Y142300D02*
X196191D01*
X195600Y141709D02*
Y142891D01*
X79716Y224600D02*
X80898D01*
X80307Y224009D02*
Y225191D01*
X106680Y139130D02*
X107861D01*
X107270Y138539D02*
Y139720D01*
X149309Y187400D02*
X150491D01*
X149900Y186809D02*
Y187991D01*
X62910Y245400D02*
X64091D01*
X63500Y244810D02*
Y245990D01*
X108677Y62750D02*
X109858D01*
X109268Y62160D02*
Y63341D01*
X151009Y223025D02*
X152191D01*
X151600Y222435D02*
Y223616D01*
X165209Y223025D02*
X166391D01*
X165800Y222435D02*
Y223616D01*
X95710Y241300D02*
X96890D01*
X96300Y240709D02*
Y241891D01*
X77157Y243219D02*
X78339D01*
X77748Y242629D02*
Y243810D01*
X79164Y244466D02*
X80345D01*
X79754Y243876D02*
Y245057D01*
X232610Y145400D02*
X233790D01*
X233200Y144809D02*
Y145991D01*
X223915Y169883D02*
X225096D01*
X224505Y169292D02*
Y170473D01*
X149409Y196465D02*
X150591D01*
X150000Y195874D02*
Y197055D01*
X221909Y129000D02*
X223091D01*
X222500Y128409D02*
Y129591D01*
X73210Y46800D02*
X74391D01*
X73800Y46209D02*
Y47391D01*
X111039Y62800D02*
X112221D01*
X111630Y62209D02*
Y63391D01*
X115109Y193500D02*
X116291D01*
X115700Y192909D02*
Y194091D01*
X210409Y109600D02*
X211591D01*
X211000Y109009D02*
Y110191D01*
X126651Y159032D02*
X127832D01*
X127242Y158442D02*
Y159623D01*
X124409Y157500D02*
X125591D01*
X125000Y156909D02*
Y158091D01*
X163527Y164977D02*
X164708D01*
X164118Y164387D02*
Y165568D01*
X239210Y211400D02*
X240390D01*
X239800Y210809D02*
Y211990D01*
X203609Y73600D02*
X204791D01*
X204200Y73010D02*
Y74191D01*
X67894Y192046D02*
X69075D01*
X68484Y191456D02*
Y192637D01*
X69766Y188157D02*
X70947D01*
X70357Y187566D02*
Y188747D01*
X228410Y127762D02*
X229591D01*
X229000Y127172D02*
Y128353D01*
X113402Y62800D02*
X114583D01*
X113992Y62209D02*
Y63391D01*
X101610Y210800D02*
X102791D01*
X102200Y210209D02*
Y211390D01*
X103809Y215200D02*
X104991D01*
X104400Y214610D02*
Y215791D01*
X102235Y213078D02*
X103416D01*
X102825Y212487D02*
Y213668D01*
X165209Y218100D02*
X166391D01*
X165800Y217510D02*
Y218690D01*
X165209Y220600D02*
X166391D01*
X165800Y220009D02*
Y221191D01*
X150909Y210500D02*
X152091D01*
X151500Y209910D02*
Y211090D01*
X152310Y217921D02*
X153491D01*
X152900Y217331D02*
Y218512D01*
X152310Y213197D02*
X153491D01*
X152900Y212606D02*
Y213787D01*
X152310Y215559D02*
X153491D01*
X152900Y214968D02*
Y216150D01*
X129009Y100900D02*
X130191D01*
X129600Y100310D02*
Y101490D01*
X218109Y244900D02*
X219290D01*
X218700Y244309D02*
Y245491D01*
X216309Y241900D02*
X217491D01*
X216900Y241309D02*
Y242491D01*
X224742Y242300D02*
X225923D01*
X225332Y241709D02*
Y242891D01*
X148634Y174300D02*
X149815D01*
X149224Y173709D02*
Y174891D01*
X140475Y247600D02*
X141656D01*
X141065Y247010D02*
Y248191D01*
X146272Y174300D02*
X147453D01*
X146862Y173709D02*
Y174891D01*
X138609Y245900D02*
X139791D01*
X139200Y245309D02*
Y246491D01*
X143909Y174300D02*
X145091D01*
X144500Y173709D02*
Y174891D01*
X135640Y242983D02*
X136821D01*
X136231Y242393D02*
Y243574D01*
X139185Y174300D02*
X140366D01*
X139776Y173709D02*
Y174891D01*
X184610Y242300D02*
X185792D01*
X185201Y241709D02*
Y242891D01*
X168777Y242300D02*
X169958D01*
X169368Y241709D02*
Y242891D01*
X122447Y123100D02*
X123628D01*
X123037Y122509D02*
Y123691D01*
X118509Y119163D02*
X119691D01*
X119100Y118572D02*
Y119754D01*
X122447Y119163D02*
X123628D01*
X123037Y118572D02*
Y119754D01*
X32409Y120000D02*
X33591D01*
X33000Y119409D02*
Y120591D01*
X29209Y120000D02*
X30391D01*
X29800Y119409D02*
Y120591D01*
X25409Y113200D02*
X26591D01*
X26000Y112609D02*
Y113791D01*
X28809Y100700D02*
X29991D01*
X29400Y100110D02*
Y101291D01*
X32009Y100700D02*
X33191D01*
X32600Y100110D02*
Y101291D01*
X25409Y109300D02*
X26591D01*
X26000Y108709D02*
Y109891D01*
X46709Y148800D02*
X47891D01*
X47300Y148209D02*
Y149391D01*
X75384Y155000D02*
X76565D01*
X75975Y154409D02*
Y155591D01*
X172009Y144100D02*
X173191D01*
X172600Y143509D02*
Y144691D01*
X129509Y133300D02*
X130691D01*
X130100Y132709D02*
Y133891D01*
X110134Y187824D02*
X111315D01*
X110724Y187234D02*
Y188415D01*
X137769Y76740D02*
X138950D01*
X138360Y76150D02*
Y77331D01*
X170109Y197400D02*
X171291D01*
X170700Y196809D02*
Y197991D01*
X150890Y205586D02*
X152071D01*
X151481Y204996D02*
Y206177D01*
X178709Y192800D02*
X179891D01*
X179300Y192209D02*
Y193391D01*
X152381Y196678D02*
X153562D01*
X152971Y196087D02*
Y197268D01*
X150909Y200738D02*
X152090D01*
X151499Y200147D02*
Y201328D01*
X161109Y181300D02*
X162291D01*
X161700Y180709D02*
Y181891D01*
X155309Y181600D02*
X156491D01*
X155900Y181009D02*
Y182191D01*
X104709Y156200D02*
X105891D01*
X105300Y155609D02*
Y156791D01*
X122224Y162200D02*
X123405D01*
X122815Y161610D02*
Y162791D01*
X98519Y151316D02*
X99701D01*
X99110Y150725D02*
Y151907D01*
X94910Y148000D02*
X96091D01*
X95500Y147409D02*
Y148591D01*
X93110Y146400D02*
X94291D01*
X93700Y145809D02*
Y146991D01*
X100510Y152800D02*
X101690D01*
X101100Y152209D02*
Y153391D01*
X91040Y144569D02*
X92221D01*
X91631Y143979D02*
Y145160D01*
X102509Y154400D02*
X103691D01*
X103100Y153809D02*
Y154991D01*
X96710Y149600D02*
X97891D01*
X97300Y149009D02*
Y150191D01*
X125809Y176000D02*
X126991D01*
X126400Y175409D02*
Y176591D01*
X94910Y140500D02*
X96091D01*
X95500Y139909D02*
Y141091D01*
X72909Y75600D02*
X74090D01*
X73500Y75010D02*
Y76191D01*
X110509Y197700D02*
X111691D01*
X111100Y197109D02*
Y198291D01*
X115059Y197700D02*
X116241D01*
X115650Y197109D02*
Y198291D01*
X116209Y190200D02*
X117391D01*
X116800Y189609D02*
Y190791D01*
X116009Y185100D02*
X117191D01*
X116600Y184509D02*
Y185691D01*
X118309Y187800D02*
X119491D01*
X118900Y187209D02*
Y188391D01*
X114009Y187700D02*
X115191D01*
X114600Y187109D02*
Y188291D01*
X110559Y193500D02*
X111741D01*
X111150Y192909D02*
Y194091D01*
X108909Y238181D02*
X110091D01*
X109500Y237591D02*
Y238772D01*
X128609Y185200D02*
X129791D01*
X129200Y184609D02*
Y185791D01*
X137309Y181500D02*
X138491D01*
X137900Y180909D02*
Y182091D01*
X158209Y196900D02*
X159391D01*
X158800Y196309D02*
Y197491D01*
X150909Y208000D02*
X152091D01*
X151500Y207410D02*
Y208591D01*
X240409Y76000D02*
X241590D01*
X241000Y75410D02*
Y76591D01*
X224510Y99700D02*
X225691D01*
X225100Y99110D02*
Y100291D01*
X143409Y87259D02*
X144590D01*
X144000Y86668D02*
Y87850D01*
X6136Y85373D02*
X7317D01*
X6727Y84783D02*
Y85964D01*
X8709Y30100D02*
X9891D01*
X9300Y29509D02*
Y30691D01*
X28809Y51600D02*
X29991D01*
X29400Y51009D02*
Y52191D01*
X82595Y217776D02*
X83776D01*
X83186Y217185D02*
Y218366D01*
X87316Y217680D02*
X88497D01*
X87907Y217089D02*
Y218270D01*
X84957Y217801D02*
X86138D01*
X85548Y217211D02*
Y218392D01*
X77909Y202900D02*
X79090D01*
X78500Y202309D02*
Y203491D01*
X62410Y237500D02*
X63591D01*
X63000Y236910D02*
Y238090D01*
X49309Y237500D02*
X50491D01*
X49900Y236910D02*
Y238090D01*
X12709Y226600D02*
X13891D01*
X13300Y226009D02*
Y227190D01*
X11409Y149000D02*
X12591D01*
X12000Y148409D02*
Y149591D01*
X77109Y114900D02*
X78290D01*
X77700Y114309D02*
Y115491D01*
X177242Y242300D02*
X178423D01*
X177832Y241709D02*
Y242891D01*
X193075Y242300D02*
X194256D01*
X193666Y241709D02*
Y242891D01*
X208908Y242300D02*
X210089D01*
X209499Y241709D02*
Y242891D01*
X141547Y174300D02*
X142728D01*
X142138Y173709D02*
Y174891D01*
X83649Y139600D02*
X84830D01*
X84239Y139009D02*
Y140191D01*
X80184Y139600D02*
X81365D01*
X80775Y139009D02*
Y140191D01*
X80024Y124300D02*
X81205D01*
X80614Y123709D02*
Y124891D01*
X76874Y124300D02*
X78055D01*
X77465Y123709D02*
Y124891D01*
X73409Y124300D02*
X74591D01*
X74000Y123709D02*
Y124891D01*
X83488Y124300D02*
X84669D01*
X84079Y123709D02*
Y124891D01*
X73570Y139600D02*
X74751D01*
X74161Y139009D02*
Y140191D01*
X77035Y139600D02*
X78216D01*
X77625Y139009D02*
Y140191D01*
X109042Y142715D02*
X110223D01*
X109633Y142125D02*
Y143306D01*
X100035Y208700D02*
X101216D01*
X100625Y208109D02*
Y209291D01*
X99247Y206456D02*
X100428D01*
X99838Y205866D02*
Y207047D01*
X105109Y217300D02*
X106291D01*
X105700Y216709D02*
Y217891D01*
X118126Y62800D02*
X119307D01*
X118717Y62209D02*
Y63391D01*
X115764Y62800D02*
X116945D01*
X116354Y62209D02*
Y63391D01*
X95505Y234195D02*
X96686D01*
X96095Y233605D02*
Y234786D01*
X93297Y207848D02*
X94478D01*
X93887Y207258D02*
Y208439D01*
X93380Y197100D02*
X94561D01*
X93970Y196510D02*
Y197691D01*
X120488Y62800D02*
X121669D01*
X121079Y62209D02*
Y63391D01*
X86809Y243100D02*
X87990D01*
X87400Y242510D02*
Y243690D01*
X84409Y243100D02*
X85590D01*
X85000Y242510D02*
Y243690D01*
X111409Y137600D02*
X112591D01*
X112000Y137009D02*
Y138191D01*
X102009Y89500D02*
X103191D01*
X102600Y88910D02*
Y90091D01*
X68809Y233500D02*
X69990D01*
X69400Y232909D02*
Y234090D01*
X69510Y241100D02*
X70691D01*
X70100Y240510D02*
Y241690D01*
X94135Y238152D02*
X95316D01*
X94725Y237562D02*
Y238743D01*
X81709Y251400D02*
X82890D01*
X82300Y250810D02*
Y251991D01*
X62926Y247764D02*
X64107D01*
X63516Y247173D02*
Y248354D01*
X30909Y37338D02*
X32091D01*
X31500Y36747D02*
Y37928D01*
X30909Y39700D02*
X32091D01*
X31500Y39110D02*
Y40291D01*
X79309Y250700D02*
X80490D01*
X79900Y250110D02*
Y251290D01*
X84441Y251123D02*
X85622D01*
X85031Y250532D02*
Y251713D01*
X62910Y94442D02*
X64091D01*
X63500Y93851D02*
Y95032D01*
X59809Y100267D02*
X60991D01*
X60400Y99676D02*
Y100857D01*
X59809Y96633D02*
X60991D01*
X60400Y96043D02*
Y97224D01*
X59809Y93000D02*
X60991D01*
X60400Y92409D02*
Y93590D01*
X59809Y103900D02*
X60991D01*
X60400Y103309D02*
Y104490D01*
X56359Y100267D02*
X57541D01*
X56950Y99676D02*
Y100857D01*
X52909Y100267D02*
X54090D01*
X53500Y99676D02*
Y100857D01*
X64410Y98300D02*
X65591D01*
X65000Y97710D02*
Y98891D01*
X85622Y238150D02*
X86803D01*
X86213Y237559D02*
Y238740D01*
X89559Y238150D02*
X90740D01*
X90150Y237559D02*
Y238740D01*
X85622Y234213D02*
X86803D01*
X86213Y233622D02*
Y234803D01*
X89559Y234213D02*
X90740D01*
X90150Y233622D02*
Y234803D01*
X85622Y230276D02*
X86803D01*
X86213Y229685D02*
Y230866D01*
X89559Y230276D02*
X90740D01*
X90150Y229685D02*
Y230866D01*
X60909Y169905D02*
X62090D01*
X61500Y169315D02*
Y170496D01*
X56972Y169905D02*
X58153D01*
X57563Y169315D02*
Y170496D01*
X53035Y169905D02*
X54216D01*
X53626Y169315D02*
Y170496D01*
X60909Y173843D02*
X62090D01*
X61500Y173252D02*
Y174433D01*
X56972Y173843D02*
X58153D01*
X57563Y173252D02*
Y174433D01*
X53035Y173843D02*
X54216D01*
X53626Y173252D02*
Y174433D01*
X60909Y177779D02*
X62090D01*
X61500Y177189D02*
Y178370D01*
X56972Y177779D02*
X58153D01*
X57563Y177189D02*
Y178370D01*
X53035Y177779D02*
X54216D01*
X53626Y177189D02*
Y178370D01*
X72884Y200000D02*
X74065D01*
X73475Y199409D02*
Y200591D01*
X21910Y220000D02*
X23090D01*
X22500Y219409D02*
Y220590D01*
X46809Y226200D02*
X47991D01*
X47400Y225609D02*
Y226790D01*
X42771Y204739D02*
X43952D01*
X43362Y204149D02*
Y205330D01*
X42709Y219500D02*
X43891D01*
X43300Y218910D02*
Y220091D01*
X52312Y233892D02*
X53493D01*
X52903Y233302D02*
Y234483D01*
X70468Y220100D02*
X71650D01*
X71059Y219510D02*
Y220690D01*
X55209Y219800D02*
X56391D01*
X55800Y219210D02*
Y220391D01*
X50485Y219800D02*
X51666D01*
X51076Y219210D02*
Y220391D01*
X55074Y204542D02*
X56255D01*
X55665Y203952D02*
Y205133D01*
X52847Y219800D02*
X54028D01*
X53438Y219210D02*
Y220391D01*
X52710Y204600D02*
X53891D01*
X53300Y204009D02*
Y205190D01*
X50309Y204700D02*
X51490D01*
X50900Y204109D02*
Y205291D01*
X165209Y205300D02*
X166391D01*
X165800Y204709D02*
Y205890D01*
X150909Y220700D02*
X152091D01*
X151500Y220110D02*
Y221290D01*
X53310Y128000D02*
X54491D01*
X53900Y127409D02*
Y128591D01*
X45409Y115100D02*
X46591D01*
X46000Y114509D02*
Y115691D01*
X62510Y114900D02*
X63691D01*
X63100Y114309D02*
Y115491D01*
X59809Y114900D02*
X60991D01*
X60400Y114309D02*
Y115491D01*
X51009Y109350D02*
X52191D01*
X51600Y108759D02*
Y109941D01*
X51009Y112200D02*
X52191D01*
X51600Y111609D02*
Y112791D01*
X248710Y51600D02*
X249890D01*
X249300Y51009D02*
Y52191D01*
X56010Y249500D02*
X57191D01*
X56600Y248909D02*
Y250091D01*
X128209Y234400D02*
X129391D01*
X128800Y233809D02*
Y234991D01*
X57410Y131000D02*
X58591D01*
X58000Y130409D02*
Y131591D01*
X48709Y130900D02*
X49891D01*
X49300Y130309D02*
Y131491D01*
X57410Y133600D02*
X58591D01*
X58000Y133009D02*
Y134191D01*
X48809Y133600D02*
X49991D01*
X49400Y133009D02*
Y134191D01*
X57410Y128200D02*
X58591D01*
X58000Y127609D02*
Y128791D01*
X48709Y128300D02*
X49891D01*
X49300Y127709D02*
Y128891D01*
X51009Y106500D02*
X52191D01*
X51600Y105909D02*
Y107091D01*
X49009Y101300D02*
X50191D01*
X49600Y100709D02*
Y101891D01*
X44409Y101300D02*
X45591D01*
X45000Y100709D02*
Y101891D01*
M02*
