G04*
G04 #@! TF.GenerationSoftware,Altium Limited,Altium Designer,20.2.6 (244)*
G04*
G04 Layer_Physical_Order=4*
G04 Layer_Color=16711680*
%FSLAX25Y25*%
%MOIN*%
G70*
G04*
G04 #@! TF.SameCoordinates,53242240-AA46-4597-B95F-6874191C8742*
G04*
G04*
G04 #@! TF.FilePolarity,Positive*
G04*
G01*
G75*
%ADD10C,0.00984*%
%ADD12C,0.01000*%
%ADD17C,0.00394*%
%ADD35C,0.03150*%
%ADD150O,0.06299X0.03937*%
%ADD151O,0.08268X0.03937*%
%ADD152C,0.02559*%
%ADD153C,0.06000*%
%ADD154C,0.10630*%
%ADD155C,0.05906*%
%ADD156O,0.05906X0.07087*%
%ADD157C,0.06299*%
%ADD158R,0.06299X0.06299*%
%ADD159C,0.03937*%
%ADD160C,0.01968*%
G36*
X13780Y253497D02*
X73053D01*
X73260Y252997D01*
X70403Y250139D01*
X57830D01*
X57593Y250493D01*
X57138Y250798D01*
X56600Y250905D01*
X56062Y250798D01*
X55607Y250493D01*
X55302Y250038D01*
X55195Y249500D01*
X55302Y248962D01*
X55607Y248507D01*
X56062Y248202D01*
X56600Y248095D01*
X57138Y248202D01*
X57593Y248507D01*
X57830Y248861D01*
X61991D01*
X62258Y248361D01*
X62218Y248301D01*
X62112Y247764D01*
X62218Y247226D01*
X62414Y246933D01*
X62507Y246393D01*
X62202Y245938D01*
X62095Y245400D01*
X62202Y244862D01*
X62507Y244407D01*
X62598Y244345D01*
X62446Y243846D01*
X41706D01*
X41254Y243658D01*
X17561Y219965D01*
X17373Y219513D01*
Y148277D01*
X2908Y133812D01*
X2409Y134020D01*
Y242126D01*
X2386Y242239D01*
X2517Y243910D01*
X2935Y245650D01*
X3620Y247303D01*
X4555Y248828D01*
X5717Y250189D01*
X7077Y251351D01*
X8603Y252286D01*
X10256Y252970D01*
X11996Y253388D01*
X13666Y253520D01*
X13780Y253497D01*
D02*
G37*
G36*
X83777Y250299D02*
X83906Y249898D01*
X83790Y249694D01*
X79932Y245836D01*
X79754Y245871D01*
X79217Y245764D01*
X78761Y245460D01*
X78456Y245004D01*
X78448Y244964D01*
X77886Y244597D01*
X77748Y244624D01*
X77210Y244517D01*
X76755Y244213D01*
X76450Y243757D01*
X76343Y243219D01*
X76450Y242682D01*
X76746Y242239D01*
X76730Y242155D01*
X76583Y241739D01*
X71330D01*
X71093Y242093D01*
X70638Y242398D01*
X70100Y242505D01*
X69562Y242398D01*
X69107Y242093D01*
X68802Y241638D01*
X68695Y241100D01*
X68802Y240562D01*
X68900Y240416D01*
X68761Y240079D01*
Y234730D01*
X68407Y234493D01*
X68102Y234038D01*
X67995Y233500D01*
X68102Y232962D01*
X68407Y232507D01*
X68862Y232202D01*
X69400Y232095D01*
X69938Y232202D01*
X70393Y232507D01*
X70698Y232962D01*
X70805Y233500D01*
X70698Y234038D01*
X70393Y234493D01*
X70039Y234730D01*
Y239645D01*
X70100Y239695D01*
X70638Y239802D01*
X71093Y240107D01*
X71330Y240461D01*
X78844D01*
X79143Y239961D01*
X79058Y239757D01*
Y229513D01*
X79246Y229061D01*
X81889Y226417D01*
X81855Y225802D01*
X81854Y225799D01*
X81792Y225758D01*
X81300Y225593D01*
X80845Y225898D01*
X80307Y226005D01*
X79769Y225898D01*
X79314Y225593D01*
X79009Y225138D01*
X78902Y224600D01*
X79009Y224062D01*
X79314Y223607D01*
X79668Y223370D01*
Y220877D01*
X78545Y219754D01*
X78358Y219302D01*
Y216274D01*
X78545Y215822D01*
X79973Y214394D01*
Y204076D01*
X79592Y203931D01*
X79473Y203907D01*
X79038Y204198D01*
X78500Y204305D01*
X77962Y204198D01*
X77507Y203893D01*
X77202Y203438D01*
X77095Y202900D01*
X77202Y202362D01*
X77507Y201906D01*
X77962Y201602D01*
X78500Y201495D01*
X79038Y201602D01*
X79473Y201893D01*
X79592Y201869D01*
X79973Y201724D01*
Y201062D01*
X80160Y200610D01*
X106631Y174139D01*
Y157596D01*
X106199Y157359D01*
X105752Y157552D01*
X105127Y158177D01*
X104675Y158364D01*
X104223Y158177D01*
X104036Y157725D01*
Y156788D01*
X104002Y156738D01*
X103895Y156200D01*
X103912Y156114D01*
X103835Y155998D01*
X103479Y155730D01*
X103100Y155805D01*
X102562Y155698D01*
X102107Y155394D01*
X101870Y155039D01*
X88276D01*
X87824Y154852D01*
X74010Y141038D01*
X73981Y140969D01*
X73623Y140898D01*
X73167Y140594D01*
X72863Y140138D01*
X72756Y139600D01*
X72863Y139062D01*
X73167Y138607D01*
X73623Y138302D01*
X74161Y138195D01*
X74698Y138302D01*
X75154Y138607D01*
X75459Y139062D01*
X75566Y139600D01*
X75459Y140138D01*
X75242Y140462D01*
X76424Y141644D01*
X76886Y141453D01*
Y140763D01*
X76632Y140594D01*
X76327Y140138D01*
X76220Y139600D01*
X76327Y139062D01*
X76632Y138607D01*
X77087Y138302D01*
X77625Y138195D01*
X78163Y138302D01*
X78619Y138607D01*
X78923Y139062D01*
X78945Y139172D01*
X79455D01*
X79477Y139062D01*
X79781Y138607D01*
X80237Y138302D01*
X80775Y138195D01*
X81313Y138302D01*
X81768Y138607D01*
X82073Y139062D01*
X82180Y139600D01*
X82073Y140138D01*
X81768Y140594D01*
X81314Y140897D01*
Y143298D01*
X88693Y150677D01*
X90599D01*
X90698Y150177D01*
X90639Y150152D01*
X83787Y143300D01*
X83600Y142849D01*
Y140830D01*
X83246Y140594D01*
X82941Y140138D01*
X82834Y139600D01*
X82941Y139062D01*
X83246Y138607D01*
X83702Y138302D01*
X84239Y138195D01*
X84389Y138225D01*
X84635Y137764D01*
X73548Y126677D01*
X73361Y126225D01*
Y125530D01*
X73007Y125294D01*
X72702Y124838D01*
X72595Y124300D01*
X72702Y123762D01*
X73007Y123307D01*
X73462Y123002D01*
X74000Y122895D01*
X74538Y123002D01*
X74993Y123307D01*
X75298Y123762D01*
X75405Y124300D01*
X75298Y124838D01*
X74993Y125294D01*
X74704Y125487D01*
X74674Y125994D01*
X76363Y127684D01*
X76825Y127493D01*
Y125530D01*
X76471Y125294D01*
X76167Y124838D01*
X76060Y124300D01*
X76167Y123762D01*
X76471Y123307D01*
X76927Y123002D01*
X77465Y122895D01*
X78002Y123002D01*
X78458Y123307D01*
X78763Y123762D01*
X78785Y123872D01*
X79294D01*
X79316Y123762D01*
X79621Y123307D01*
X80076Y123002D01*
X80614Y122895D01*
X81152Y123002D01*
X81608Y123307D01*
X81912Y123762D01*
X82019Y124300D01*
X81912Y124838D01*
X81608Y125294D01*
X81253Y125530D01*
Y130347D01*
X88452Y137546D01*
X88639Y137998D01*
Y141787D01*
X90447Y143595D01*
X90637Y143576D01*
X91093Y143271D01*
X91631Y143164D01*
X92168Y143271D01*
X92624Y143576D01*
X92929Y144032D01*
X93036Y144569D01*
X93022Y144641D01*
X93451Y145045D01*
X93700Y144995D01*
X94238Y145102D01*
X94693Y145406D01*
X94998Y145862D01*
X95074Y146246D01*
X95500Y146595D01*
X96038Y146702D01*
X96493Y147006D01*
X96798Y147462D01*
X96874Y147846D01*
X97300Y148195D01*
X97838Y148302D01*
X98293Y148607D01*
X98598Y149062D01*
X98705Y149600D01*
X98933Y149828D01*
X99151Y149919D01*
X99648Y150018D01*
X100103Y150322D01*
X100408Y150778D01*
X100462Y151051D01*
X100521Y151317D01*
X101005Y151414D01*
X101100Y151395D01*
X101638Y151502D01*
X102093Y151806D01*
X102398Y152262D01*
X102505Y152800D01*
X102971Y153021D01*
X103100Y152995D01*
X103536Y153082D01*
X104036Y152812D01*
Y145161D01*
X84497Y125622D01*
X84079Y125705D01*
X83541Y125598D01*
X83085Y125294D01*
X82781Y124838D01*
X82674Y124300D01*
X82781Y123762D01*
X83085Y123307D01*
X83541Y123002D01*
X84079Y122895D01*
X84616Y123002D01*
X85072Y123307D01*
X85377Y123762D01*
X85484Y124300D01*
X85401Y124718D01*
X105127Y144444D01*
X105314Y144896D01*
Y154798D01*
X105838Y154902D01*
X106131Y155098D01*
X106624Y154884D01*
X106631Y154877D01*
Y140441D01*
X106267Y140166D01*
X105762Y140258D01*
X105480Y140680D01*
X105024Y140984D01*
X104486Y141091D01*
X103949Y140984D01*
X103493Y140680D01*
X103188Y140224D01*
X103082Y139686D01*
X103188Y139149D01*
X103493Y138693D01*
X103949Y138388D01*
X104486Y138282D01*
X104904Y138365D01*
X106166Y137103D01*
X106618Y136916D01*
X107923D01*
X108375Y137103D01*
X108531Y137260D01*
X108993Y137068D01*
Y96797D01*
X103018Y90822D01*
X102600Y90905D01*
X102062Y90798D01*
X101607Y90493D01*
X101302Y90038D01*
X101195Y89500D01*
X101302Y88962D01*
X101607Y88507D01*
X102062Y88202D01*
X102600Y88095D01*
X103138Y88202D01*
X103594Y88507D01*
X103898Y88962D01*
X104005Y89500D01*
X103922Y89918D01*
X109897Y95893D01*
X125233D01*
X125684Y96081D01*
X129182Y99578D01*
X129600Y99495D01*
X130138Y99602D01*
X130594Y99907D01*
X130898Y100362D01*
X131005Y100900D01*
X130898Y101438D01*
X130594Y101893D01*
X130138Y102198D01*
X129600Y102305D01*
X129062Y102198D01*
X128606Y101893D01*
X128302Y101438D01*
X128195Y100900D01*
X128278Y100482D01*
X124968Y97172D01*
X110272D01*
Y136857D01*
X110772Y136958D01*
X111006Y136607D01*
X111462Y136302D01*
X112000Y136195D01*
X112538Y136302D01*
X112994Y136607D01*
X113230Y136961D01*
X119348D01*
X127576Y128733D01*
X127492Y128315D01*
X127599Y127777D01*
X127904Y127322D01*
X128360Y127017D01*
X128897Y126910D01*
X129435Y127017D01*
X129891Y127322D01*
X130195Y127777D01*
X130302Y128315D01*
X130195Y128853D01*
X129891Y129308D01*
X129435Y129613D01*
X128897Y129720D01*
X128480Y129637D01*
X120064Y138052D01*
X119612Y138239D01*
X113230D01*
X112994Y138593D01*
X112538Y138898D01*
X112000Y139005D01*
X111462Y138898D01*
X111006Y138593D01*
X110772Y138242D01*
X110272Y138342D01*
Y139464D01*
X111659Y140852D01*
X111847Y141304D01*
Y143650D01*
X111659Y144102D01*
X110272Y145490D01*
Y174300D01*
X110734Y174491D01*
X121840Y163385D01*
X121821Y163194D01*
X121517Y162738D01*
X121410Y162200D01*
X121517Y161663D01*
X121821Y161207D01*
X122277Y160902D01*
X122815Y160795D01*
X123352Y160902D01*
X123761Y161175D01*
X123983Y161121D01*
X124261Y160985D01*
Y158663D01*
X124006Y158493D01*
X123702Y158038D01*
X123595Y157500D01*
X123702Y156962D01*
X124006Y156507D01*
X124261Y156337D01*
Y141200D01*
X124448Y140748D01*
X130001Y135195D01*
X129836Y134652D01*
X129562Y134598D01*
X129106Y134293D01*
X128802Y133838D01*
X128695Y133300D01*
X128802Y132762D01*
X129106Y132307D01*
X129562Y132002D01*
X130100Y131895D01*
X130638Y132002D01*
X131094Y132307D01*
X131398Y132762D01*
X131453Y133036D01*
X131995Y133201D01*
X132636Y132560D01*
Y92919D01*
X91956Y52239D01*
X30630D01*
X30393Y52593D01*
X29938Y52898D01*
X29400Y53005D01*
X28862Y52898D01*
X28407Y52593D01*
X28102Y52138D01*
X27995Y51600D01*
X28102Y51062D01*
X28407Y50607D01*
X28862Y50302D01*
X29400Y50195D01*
X29938Y50302D01*
X30393Y50607D01*
X30630Y50961D01*
X76403D01*
X76595Y50499D01*
X74218Y48122D01*
X73800Y48205D01*
X73262Y48098D01*
X72807Y47793D01*
X72502Y47338D01*
X72395Y46800D01*
X72502Y46262D01*
X72807Y45807D01*
X73262Y45502D01*
X73800Y45395D01*
X74338Y45502D01*
X74793Y45807D01*
X75098Y46262D01*
X75205Y46800D01*
X75122Y47218D01*
X78077Y50173D01*
X81216D01*
X81407Y49711D01*
X55535Y23839D01*
X37700D01*
X37248Y23652D01*
X31935Y18339D01*
X31300Y18423D01*
X30414Y18306D01*
X29588Y17964D01*
X28880Y17420D01*
X28336Y16712D01*
X27994Y15886D01*
X27877Y15000D01*
X27961Y14360D01*
X27488Y14127D01*
X26674Y14941D01*
Y21070D01*
X33527Y27923D01*
X33714Y28375D01*
Y29699D01*
X34057Y30057D01*
X34214Y30057D01*
X41143D01*
Y37143D01*
X34214D01*
X34057Y37143D01*
X33714Y37501D01*
Y38125D01*
X33527Y38577D01*
X32822Y39282D01*
X32905Y39700D01*
X32798Y40238D01*
X32493Y40694D01*
X32038Y40998D01*
X31500Y41105D01*
X30962Y40998D01*
X30507Y40694D01*
X30270Y40339D01*
X14565D01*
X4296Y50608D01*
Y132279D01*
X19252Y147234D01*
X19439Y147686D01*
Y218922D01*
X20606Y220089D01*
X20806Y220053D01*
X21117Y219892D01*
X21202Y219462D01*
X21507Y219007D01*
X21962Y218702D01*
X22500Y218595D01*
X23038Y218702D01*
X23494Y219007D01*
X23730Y219361D01*
X41200D01*
X41414Y219449D01*
X41932Y219209D01*
X41960Y219175D01*
X42002Y218962D01*
X42307Y218507D01*
X42722Y218229D01*
Y205969D01*
X42368Y205733D01*
X42064Y205277D01*
X41957Y204739D01*
X42064Y204202D01*
X42368Y203746D01*
X42824Y203441D01*
X43362Y203334D01*
X43899Y203441D01*
X44355Y203746D01*
X44660Y204202D01*
X44767Y204739D01*
X44660Y205277D01*
X44355Y205733D01*
X44001Y205969D01*
Y218311D01*
X44293Y218507D01*
X44598Y218962D01*
X44705Y219500D01*
X44598Y220038D01*
X44293Y220493D01*
X43838Y220798D01*
X43647Y220836D01*
X43482Y221378D01*
X46982Y224878D01*
X47400Y224795D01*
X47938Y224902D01*
X48393Y225207D01*
X48698Y225662D01*
X48805Y226200D01*
X48698Y226738D01*
X48393Y227193D01*
X47938Y227498D01*
X47400Y227605D01*
X46862Y227498D01*
X46406Y227193D01*
X46102Y226738D01*
X45995Y226200D01*
X46078Y225782D01*
X40935Y220639D01*
X23730D01*
X23494Y220993D01*
X23038Y221298D01*
X22608Y221383D01*
X22447Y221694D01*
X22411Y221894D01*
X42297Y241780D01*
X65869D01*
X66321Y241967D01*
X71822Y247467D01*
X71836Y247473D01*
X73636Y249273D01*
X78196D01*
X78796Y248673D01*
X79248Y248486D01*
X80552D01*
X81004Y248673D01*
X82333Y250002D01*
X82838Y250102D01*
X83288Y250403D01*
X83777Y250299D01*
D02*
G37*
G36*
X93407Y238589D02*
X93320Y238152D01*
X93427Y237615D01*
X93732Y237159D01*
X94101Y236912D01*
X94264Y236368D01*
X93288Y235392D01*
X93101Y234940D01*
Y221995D01*
X91047Y219941D01*
X90860Y219489D01*
Y200201D01*
X91047Y199749D01*
X92867Y197929D01*
X92672Y197638D01*
X92615Y197352D01*
X92078Y197182D01*
X86974Y202285D01*
Y215970D01*
X87383Y216379D01*
X87907Y216275D01*
X88445Y216382D01*
X88900Y216686D01*
X89205Y217142D01*
X89312Y217680D01*
X89205Y218217D01*
X88900Y218673D01*
X88445Y218978D01*
X87907Y219085D01*
X87369Y218978D01*
X86913Y218673D01*
X86439Y218863D01*
X86085Y219099D01*
X85548Y219206D01*
X85010Y219099D01*
X84699Y218891D01*
X84396Y218820D01*
X84011Y218882D01*
X83723Y219074D01*
X83697Y219079D01*
X83405Y219647D01*
X83446Y219746D01*
Y220824D01*
X85503Y222881D01*
X85690Y223333D01*
Y226035D01*
X85503Y226487D01*
X84105Y227885D01*
X83653Y228072D01*
X83156D01*
X81124Y230104D01*
Y239166D01*
X82586Y240628D01*
X85395D01*
X85847Y240816D01*
X86845Y241814D01*
X86862Y241802D01*
X87400Y241695D01*
X87938Y241802D01*
X88393Y242107D01*
X88698Y242562D01*
X88703Y242586D01*
X89245Y242751D01*
X93407Y238589D01*
D02*
G37*
G36*
X243910Y253388D02*
X245650Y252970D01*
X247303Y252286D01*
X248828Y251351D01*
X250189Y250189D01*
X251351Y248828D01*
X252286Y247303D01*
X252970Y245650D01*
X253388Y243910D01*
X253489Y242623D01*
X253497Y242126D01*
D01*
X253497Y241632D01*
Y230176D01*
X253035Y229985D01*
X252828Y230192D01*
X252376Y230379D01*
X229325D01*
X218222Y241482D01*
X218305Y241900D01*
X218198Y242438D01*
X217893Y242893D01*
X217438Y243198D01*
X216900Y243305D01*
X216362Y243198D01*
X215907Y242893D01*
X215602Y242438D01*
X215495Y241900D01*
X215602Y241362D01*
X215907Y240907D01*
X216362Y240602D01*
X216900Y240495D01*
X217318Y240578D01*
X228608Y229288D01*
X229060Y229101D01*
X235957D01*
Y222457D01*
X243043D01*
Y229101D01*
X246899D01*
X247069Y228601D01*
X246973Y228527D01*
X246405Y227787D01*
X246048Y226925D01*
X245926Y226000D01*
X246048Y225075D01*
X246405Y224213D01*
X246973Y223473D01*
X247713Y222905D01*
X248575Y222548D01*
X249500Y222426D01*
X250425Y222548D01*
X251287Y222905D01*
X252027Y223473D01*
X252207Y223708D01*
X252707Y223538D01*
Y218462D01*
X252207Y218292D01*
X252027Y218527D01*
X251287Y219095D01*
X250425Y219452D01*
X249500Y219574D01*
X248575Y219452D01*
X247713Y219095D01*
X246973Y218527D01*
X246405Y217787D01*
X246048Y216925D01*
X245926Y216000D01*
X246048Y215075D01*
X246405Y214213D01*
X246973Y213473D01*
X247713Y212905D01*
X248575Y212548D01*
X249500Y212426D01*
X250425Y212548D01*
X251287Y212905D01*
X252027Y213473D01*
X252207Y213708D01*
X252707Y213538D01*
Y208462D01*
X252207Y208292D01*
X252027Y208527D01*
X251287Y209095D01*
X250425Y209452D01*
X249500Y209574D01*
X248575Y209452D01*
X247713Y209095D01*
X246973Y208527D01*
X246405Y207787D01*
X246048Y206925D01*
X245926Y206000D01*
X246048Y205075D01*
X246405Y204213D01*
X246973Y203473D01*
X247713Y202905D01*
X248575Y202548D01*
X249500Y202426D01*
X250425Y202548D01*
X251287Y202905D01*
X252027Y203473D01*
X252207Y203708D01*
X252707Y203538D01*
Y198462D01*
X252207Y198292D01*
X252027Y198527D01*
X251287Y199095D01*
X250425Y199452D01*
X249500Y199574D01*
X248575Y199452D01*
X247713Y199095D01*
X247484Y198920D01*
X245339Y201065D01*
Y215000D01*
X245152Y215452D01*
X243879Y216725D01*
Y217549D01*
X243692Y218001D01*
X241501Y220192D01*
X241049Y220379D01*
X237951D01*
X237499Y220192D01*
X234292Y216986D01*
X167314D01*
X167047Y217486D01*
X167098Y217562D01*
X167205Y218100D01*
X167098Y218638D01*
X166794Y219093D01*
X166784Y219100D01*
Y219600D01*
X166794Y219607D01*
X167098Y220062D01*
X167205Y220600D01*
X167098Y221138D01*
X166869Y221481D01*
X166823Y221813D01*
X166869Y222145D01*
X167098Y222488D01*
X167205Y223025D01*
X167098Y223563D01*
X166794Y224019D01*
X166338Y224323D01*
X165800Y224430D01*
X165262Y224323D01*
X164806Y224019D01*
X164502Y223563D01*
X164395Y223025D01*
X164502Y222488D01*
X164731Y222145D01*
X164777Y221813D01*
X164731Y221481D01*
X164502Y221138D01*
X164395Y220600D01*
X164502Y220062D01*
X164806Y219607D01*
X164816Y219600D01*
Y219100D01*
X164806Y219093D01*
X164502Y218638D01*
X164395Y218100D01*
X164502Y217562D01*
X164553Y217486D01*
X164286Y216986D01*
X154740D01*
X154222Y217503D01*
X154305Y217921D01*
X154198Y218459D01*
X153893Y218915D01*
X153438Y219219D01*
X152900Y219326D01*
X152779Y219302D01*
X152604Y219550D01*
X152531Y219763D01*
X152798Y220162D01*
X152905Y220700D01*
X152798Y221238D01*
X152494Y221693D01*
X152684Y222167D01*
X152898Y222488D01*
X153005Y223025D01*
X152898Y223563D01*
X152594Y224019D01*
X152138Y224323D01*
X151600Y224430D01*
X151062Y224323D01*
X150607Y224019D01*
X150302Y223563D01*
X150195Y223025D01*
X150302Y222488D01*
X150607Y222032D01*
X150416Y221558D01*
X150202Y221238D01*
X150095Y220700D01*
X150202Y220162D01*
X150506Y219707D01*
X150962Y219402D01*
X151500Y219295D01*
X151621Y219319D01*
X151796Y219071D01*
X151869Y218859D01*
X151602Y218459D01*
X151495Y217921D01*
X151602Y217384D01*
X151907Y216928D01*
Y216552D01*
X151602Y216097D01*
X151495Y215559D01*
X151602Y215021D01*
X151907Y214566D01*
Y214190D01*
X151602Y213735D01*
X151495Y213197D01*
X151602Y212659D01*
X151806Y212354D01*
X151531Y211899D01*
X151500Y211905D01*
X150962Y211798D01*
X150506Y211493D01*
X150202Y211038D01*
X150095Y210500D01*
X150202Y209962D01*
X150506Y209507D01*
X150516Y209500D01*
Y209000D01*
X150506Y208993D01*
X150202Y208538D01*
X150095Y208000D01*
X150202Y207462D01*
X150420Y207136D01*
X150487Y206580D01*
X150183Y206124D01*
X150076Y205586D01*
X150159Y205168D01*
X149472Y204482D01*
X149285Y204030D01*
Y197644D01*
X149006Y197458D01*
X148702Y197002D01*
X148595Y196465D01*
X148702Y195927D01*
X149006Y195471D01*
X149462Y195167D01*
X150000Y195060D01*
X150538Y195167D01*
X150994Y195471D01*
X151257Y195865D01*
X151557Y195931D01*
X151810Y195936D01*
X151978Y195684D01*
X152433Y195380D01*
X152971Y195273D01*
X153389Y195356D01*
X154711Y194034D01*
X154520Y193572D01*
X147832D01*
X145214Y196190D01*
Y242467D01*
X145027Y242919D01*
X144524Y243422D01*
Y249691D01*
X144916Y250082D01*
X145103Y250535D01*
Y251839D01*
X144916Y252291D01*
X144210Y252997D01*
X144417Y253497D01*
X242126D01*
X242239Y253520D01*
X243910Y253388D01*
D02*
G37*
G36*
X224491Y212933D02*
X224402Y212800D01*
X224295Y212262D01*
X224402Y211725D01*
X224707Y211269D01*
X225061Y211032D01*
Y205068D01*
X224561Y204786D01*
X224152Y204867D01*
X223614Y204760D01*
X223158Y204456D01*
X222922Y204101D01*
X217349D01*
X216897Y203914D01*
X211248Y198266D01*
X211061Y197814D01*
Y191592D01*
X193891Y174422D01*
X193473Y174505D01*
X192936Y174398D01*
X192480Y174093D01*
X192175Y173638D01*
X192068Y173100D01*
X192175Y172562D01*
X192480Y172107D01*
X192936Y171802D01*
X193473Y171695D01*
X194011Y171802D01*
X194467Y172107D01*
X194842D01*
X195298Y171802D01*
X195835Y171695D01*
X196373Y171802D01*
X196829Y172107D01*
X197133Y172562D01*
X197240Y173100D01*
X197133Y173638D01*
X196829Y174093D01*
X196799Y174401D01*
X212939Y190542D01*
X213127Y190994D01*
Y197223D01*
X216328Y200424D01*
X221545D01*
X221781Y200069D01*
X222237Y199765D01*
X222775Y199658D01*
X223312Y199765D01*
X223768Y200069D01*
X224073Y200525D01*
X224180Y201063D01*
X224073Y201601D01*
X224074Y201606D01*
X224205Y201844D01*
X224600Y201951D01*
X225061Y201624D01*
Y193632D01*
X222301Y190873D01*
X221839Y191064D01*
Y196270D01*
X222193Y196507D01*
X222498Y196962D01*
X222605Y197500D01*
X222498Y198038D01*
X222193Y198494D01*
X221738Y198798D01*
X221200Y198905D01*
X220662Y198798D01*
X220207Y198494D01*
X219902Y198038D01*
X219795Y197500D01*
X219902Y196962D01*
X220207Y196507D01*
X220561Y196270D01*
Y190246D01*
X214361Y184046D01*
X214173Y183593D01*
Y182677D01*
X206218Y174722D01*
X205800Y174805D01*
X205262Y174698D01*
X204807Y174393D01*
X204502Y173938D01*
X204395Y173400D01*
X204502Y172862D01*
X204807Y172406D01*
X205262Y172102D01*
X205800Y171995D01*
X206338Y172102D01*
X206793Y172406D01*
X207098Y172862D01*
X207205Y173400D01*
X207122Y173818D01*
X214499Y181195D01*
X214961Y181003D01*
Y88800D01*
X214461Y88517D01*
X214341Y88589D01*
Y88898D01*
X214154Y89350D01*
X208827Y94677D01*
Y151557D01*
X208639Y152009D01*
X204330Y156318D01*
X204517Y156838D01*
X204838Y156902D01*
X205293Y157207D01*
X205598Y157662D01*
X205705Y158200D01*
X205598Y158738D01*
X205293Y159194D01*
X204939Y159430D01*
Y165400D01*
X204752Y165852D01*
X201318Y169286D01*
X201509Y169748D01*
X203622D01*
X210361Y163009D01*
Y110830D01*
X210007Y110593D01*
X209702Y110138D01*
X209595Y109600D01*
X209702Y109062D01*
X210007Y108607D01*
X210462Y108302D01*
X211000Y108195D01*
X211538Y108302D01*
X211993Y108607D01*
X212298Y109062D01*
X212405Y109600D01*
X212298Y110138D01*
X211993Y110593D01*
X211639Y110830D01*
Y163274D01*
X211452Y163726D01*
X204339Y170839D01*
X203887Y171027D01*
X144477D01*
X142884Y172620D01*
X142922Y173167D01*
X143131Y173307D01*
X143507D01*
X143962Y173002D01*
X144500Y172895D01*
X145038Y173002D01*
X145493Y173307D01*
X145869D01*
X146325Y173002D01*
X146862Y172895D01*
X147400Y173002D01*
X147856Y173307D01*
X148231D01*
X148687Y173002D01*
X149224Y172895D01*
X149762Y173002D01*
X150218Y173307D01*
X150522Y173762D01*
X150629Y174300D01*
X150522Y174838D01*
X150218Y175294D01*
X149762Y175598D01*
X149224Y175705D01*
X148807Y175622D01*
X146714Y177714D01*
Y192229D01*
X147214Y192440D01*
X147567Y192294D01*
X158793D01*
X158842Y191794D01*
X158362Y191698D01*
X157906Y191393D01*
X157602Y190938D01*
X157495Y190400D01*
X157602Y189862D01*
X157906Y189407D01*
X158362Y189102D01*
X158900Y188995D01*
X159438Y189102D01*
X159894Y189407D01*
X160198Y189862D01*
X160305Y190400D01*
X160198Y190938D01*
X159894Y191393D01*
X159438Y191698D01*
X158958Y191794D01*
X159007Y192294D01*
X161475D01*
X175138Y178630D01*
X175590Y178443D01*
X191167D01*
X191403Y178089D01*
X191859Y177784D01*
X192397Y177677D01*
X192935Y177784D01*
X193390Y178089D01*
X193695Y178545D01*
X193802Y179082D01*
X193695Y179620D01*
X193390Y180076D01*
X192935Y180380D01*
X192397Y180487D01*
X191859Y180380D01*
X191403Y180076D01*
X191167Y179722D01*
X175855D01*
X163878Y191699D01*
X164069Y192161D01*
X178070D01*
X178306Y191806D01*
X178762Y191502D01*
X179300Y191395D01*
X179838Y191502D01*
X180294Y191806D01*
X180598Y192262D01*
X180705Y192800D01*
X180598Y193338D01*
X180294Y193793D01*
X179838Y194098D01*
X179300Y194205D01*
X178762Y194098D01*
X178306Y193793D01*
X178070Y193439D01*
X163251D01*
X162518Y194172D01*
X162066Y194359D01*
X156193D01*
X154293Y196260D01*
X154376Y196678D01*
X154269Y197215D01*
X153964Y197671D01*
X153509Y197976D01*
X152971Y198083D01*
X152553Y198000D01*
X152138Y198415D01*
Y199508D01*
X152492Y199744D01*
X152797Y200200D01*
X152904Y200738D01*
X152797Y201275D01*
X152492Y201731D01*
X152037Y202036D01*
X151499Y202143D01*
X151063Y202056D01*
X150563Y202326D01*
Y203765D01*
X151063Y204264D01*
X151481Y204181D01*
X152018Y204288D01*
X152474Y204593D01*
X152779Y205049D01*
X152886Y205586D01*
X152779Y206124D01*
X152561Y206450D01*
X152494Y207007D01*
X152798Y207462D01*
X152905Y208000D01*
X152798Y208538D01*
X152494Y208993D01*
X152484Y209000D01*
Y209500D01*
X152494Y209507D01*
X152798Y209962D01*
X152905Y210500D01*
X152798Y211038D01*
X152594Y211343D01*
X152869Y211798D01*
X152900Y211792D01*
X153438Y211899D01*
X153893Y212203D01*
X154198Y212659D01*
X154305Y213197D01*
X154499Y213434D01*
X224224D01*
X224491Y212933D01*
D02*
G37*
G36*
X96421Y228400D02*
Y211286D01*
X94305Y209170D01*
X93887Y209253D01*
X93350Y209146D01*
X92894Y208842D01*
X92638Y208459D01*
X92332Y208475D01*
X92138Y208542D01*
Y219225D01*
X94192Y221278D01*
X94379Y221730D01*
Y229789D01*
X94841Y229980D01*
X96421Y228400D01*
D02*
G37*
G36*
X91148Y245148D02*
X91600Y244961D01*
X114835D01*
X119061Y240735D01*
Y230300D01*
X119248Y229848D01*
X124948Y224148D01*
X125400Y223961D01*
X137548D01*
X137785Y223607D01*
X138240Y223302D01*
X138778Y223195D01*
X139316Y223302D01*
X139499Y223424D01*
X139999Y223157D01*
Y194294D01*
X140186Y193842D01*
X142286Y191742D01*
Y177714D01*
X140193Y175622D01*
X139776Y175705D01*
X139238Y175598D01*
X138782Y175294D01*
X138478Y174838D01*
X138385Y174370D01*
X138155Y174237D01*
X137889Y174159D01*
X128654Y183394D01*
X128900Y183855D01*
X129200Y183795D01*
X129738Y183902D01*
X130193Y184206D01*
X130498Y184662D01*
X130605Y185200D01*
X130498Y185738D01*
X130193Y186194D01*
X129738Y186498D01*
X129200Y186605D01*
X128662Y186498D01*
X128207Y186194D01*
X127902Y185738D01*
X127795Y185200D01*
X127855Y184900D01*
X127394Y184654D01*
X124264Y187784D01*
Y196710D01*
X124076Y197162D01*
X121014Y200225D01*
Y207413D01*
X121514Y207512D01*
X121577Y207360D01*
X122113Y206661D01*
X122812Y206124D01*
X123626Y205787D01*
X124500Y205672D01*
X125374Y205787D01*
X126188Y206124D01*
X126887Y206661D01*
X127423Y207360D01*
X127760Y208174D01*
X127875Y209047D01*
X127760Y209921D01*
X127423Y210735D01*
X126887Y211434D01*
X126188Y211970D01*
X125374Y212308D01*
X124500Y212423D01*
X123626Y212308D01*
X122812Y211970D01*
X122113Y211434D01*
X121577Y210735D01*
X121514Y210582D01*
X121014Y210682D01*
Y218691D01*
X120826Y219143D01*
X111604Y228365D01*
X111152Y228553D01*
X104840D01*
X104322Y229070D01*
X104405Y229488D01*
X104298Y230026D01*
X103993Y230482D01*
X103538Y230786D01*
X103000Y230893D01*
X102462Y230786D01*
X102007Y230482D01*
X101702Y230026D01*
X101595Y229488D01*
X101702Y228951D01*
X102007Y228495D01*
Y228119D01*
X101702Y227664D01*
X101595Y227126D01*
X101702Y226588D01*
X102007Y226132D01*
Y225757D01*
X101702Y225301D01*
X101595Y224764D01*
X101702Y224226D01*
X102007Y223770D01*
X102462Y223466D01*
X103000Y223359D01*
X103538Y223466D01*
X103993Y223770D01*
X104298Y224226D01*
X104405Y224764D01*
X104322Y225182D01*
X104840Y225699D01*
X110235D01*
X118160Y217774D01*
Y200390D01*
X117699Y200199D01*
X112927Y204971D01*
Y217326D01*
X112739Y217778D01*
X109578Y220939D01*
X109126Y221127D01*
X100792D01*
X100339Y220939D01*
X98949Y219549D01*
X98487Y219740D01*
Y230252D01*
X98300Y230704D01*
X97622Y231382D01*
X97705Y231800D01*
X97598Y232338D01*
X97293Y232793D01*
X97241Y233430D01*
X97393Y233658D01*
X97500Y234195D01*
X97393Y234733D01*
X97089Y235189D01*
X96633Y235493D01*
X96095Y235600D01*
X95990Y235579D01*
X95744Y236040D01*
X96752Y237048D01*
X96939Y237500D01*
Y240070D01*
X97293Y240307D01*
X97598Y240762D01*
X97705Y241300D01*
X97598Y241838D01*
X97293Y242293D01*
X96838Y242598D01*
X96300Y242705D01*
X95762Y242598D01*
X95307Y242293D01*
X95002Y241838D01*
X94895Y241300D01*
X95002Y240762D01*
X95307Y240307D01*
X95486Y240187D01*
X95475Y239816D01*
X95029Y239497D01*
X94725Y239557D01*
X94326Y239478D01*
X88443Y245361D01*
X88554Y245789D01*
X88596Y245861D01*
X90435D01*
X91148Y245148D01*
D02*
G37*
G36*
X110861Y216735D02*
Y204380D01*
X111048Y203928D01*
X115409Y199567D01*
X115245Y199024D01*
X115112Y198998D01*
X114656Y198694D01*
X114352Y198238D01*
X114245Y197700D01*
X114352Y197162D01*
X114656Y196706D01*
X115112Y196402D01*
X115650Y196295D01*
X116188Y196402D01*
X116644Y196706D01*
X116948Y197162D01*
X116974Y197295D01*
X117517Y197459D01*
X119836Y195140D01*
Y189388D01*
X119336Y189118D01*
X118900Y189205D01*
X118362Y189098D01*
X118290Y189050D01*
X117929Y189410D01*
X118098Y189662D01*
X118205Y190200D01*
X118098Y190738D01*
X117794Y191193D01*
X117338Y191498D01*
X116800Y191605D01*
X116262Y191498D01*
X115806Y191193D01*
X115502Y190738D01*
X115395Y190200D01*
X115502Y189662D01*
X115806Y189207D01*
X116262Y188902D01*
X116800Y188795D01*
X117338Y188902D01*
X117410Y188950D01*
X117771Y188590D01*
X117602Y188338D01*
X117495Y187800D01*
X117602Y187262D01*
X117906Y186806D01*
X118362Y186502D01*
X118900Y186395D01*
X119336Y186482D01*
X119809Y186229D01*
X119851Y186177D01*
X120023Y185763D01*
X153937Y151848D01*
X154389Y151661D01*
X191784D01*
X192051Y151161D01*
X191902Y150938D01*
X191795Y150400D01*
X191902Y149862D01*
X192207Y149407D01*
X192561Y149170D01*
Y143497D01*
X192106Y143193D01*
X191802Y142738D01*
X191695Y142200D01*
X191802Y141662D01*
X192106Y141207D01*
X192562Y140902D01*
X193100Y140795D01*
X193638Y140902D01*
X194079Y141197D01*
X194278Y141306D01*
X194607D01*
X195062Y141002D01*
X195600Y140895D01*
X196138Y141002D01*
X196593Y141306D01*
X196898Y141762D01*
X197005Y142300D01*
X196898Y142838D01*
X196593Y143293D01*
X196239Y143530D01*
Y149195D01*
X196556Y149407D01*
X196860Y149862D01*
X196967Y150400D01*
X196860Y150938D01*
X196711Y151161D01*
X196978Y151661D01*
X200535D01*
X201178Y151018D01*
X201095Y150600D01*
X201202Y150062D01*
X201506Y149607D01*
X201962Y149302D01*
X202500Y149195D01*
X203038Y149302D01*
X203493Y149607D01*
X203798Y150062D01*
X203905Y150600D01*
X203798Y151138D01*
X203493Y151593D01*
X203038Y151898D01*
X202500Y152005D01*
X202402Y151986D01*
X202386Y152008D01*
X202426Y152178D01*
X202628Y152521D01*
X203038Y152602D01*
X203493Y152907D01*
X203742Y153278D01*
X204285Y153442D01*
X206761Y150966D01*
Y94086D01*
X206948Y93634D01*
X210362Y90221D01*
X210343Y90030D01*
X210038Y89574D01*
X209931Y89037D01*
X210038Y88499D01*
X210343Y88043D01*
X210799Y87739D01*
X211336Y87631D01*
X211874Y87739D01*
X212064Y87865D01*
X212424Y87505D01*
X212403Y87474D01*
X212297Y86936D01*
X212403Y86399D01*
X212708Y85943D01*
X213164Y85638D01*
X213702Y85531D01*
X214215Y85633D01*
X214250Y85632D01*
X214735Y85368D01*
X214770Y85074D01*
X204618Y74922D01*
X204200Y75005D01*
X203662Y74898D01*
X203207Y74594D01*
X202902Y74138D01*
X202795Y73600D01*
X202902Y73062D01*
X203207Y72607D01*
X203662Y72302D01*
X204200Y72195D01*
X204502Y71745D01*
X204572Y71392D01*
X204877Y70936D01*
X205333Y70632D01*
X205870Y70525D01*
X206408Y70632D01*
X206864Y70936D01*
X207168Y71392D01*
X207275Y71930D01*
X207192Y72347D01*
X218414Y83570D01*
X218601Y84022D01*
Y184251D01*
X226939Y192589D01*
X227127Y193041D01*
Y200189D01*
X236038Y209101D01*
X236899D01*
X237069Y208601D01*
X236973Y208527D01*
X236405Y207787D01*
X236048Y206925D01*
X235926Y206000D01*
X236048Y205075D01*
X236405Y204213D01*
X236973Y203473D01*
X237713Y202905D01*
X238575Y202548D01*
X239500Y202426D01*
X240425Y202548D01*
X241287Y202905D01*
X242027Y203473D01*
X242595Y204213D01*
X242952Y205075D01*
X243074Y206000D01*
X242952Y206925D01*
X242595Y207787D01*
X242027Y208527D01*
X241881Y208639D01*
X241985Y209190D01*
X242221Y209288D01*
X242452Y209519D01*
X242639Y209971D01*
Y213500D01*
X242452Y213952D01*
X242420Y213984D01*
X242595Y214213D01*
X242952Y215075D01*
X242968Y215194D01*
X243441Y215355D01*
X244061Y214735D01*
Y200800D01*
X244248Y200348D01*
X246580Y198016D01*
X246405Y197787D01*
X246048Y196925D01*
X245926Y196000D01*
X246048Y195075D01*
X246405Y194213D01*
X246973Y193473D01*
X247713Y192905D01*
X248575Y192548D01*
X249500Y192426D01*
X250425Y192548D01*
X251287Y192905D01*
X252027Y193473D01*
X252207Y193708D01*
X252707Y193538D01*
Y190111D01*
X251516Y188920D01*
X251287Y189095D01*
X250425Y189452D01*
X249500Y189574D01*
X248575Y189452D01*
X247713Y189095D01*
X246973Y188527D01*
X246405Y187787D01*
X246048Y186925D01*
X245926Y186000D01*
X246048Y185075D01*
X246405Y184213D01*
X246973Y183473D01*
X247713Y182905D01*
X248575Y182548D01*
X249500Y182426D01*
X250425Y182548D01*
X251287Y182905D01*
X252027Y183473D01*
X252595Y184213D01*
X252952Y185075D01*
X252997Y185416D01*
X253497Y185384D01*
Y176616D01*
X252997Y176584D01*
X252952Y176925D01*
X252595Y177787D01*
X252027Y178527D01*
X251287Y179095D01*
X250425Y179452D01*
X249500Y179574D01*
X248575Y179452D01*
X247713Y179095D01*
X246973Y178527D01*
X246405Y177787D01*
X246048Y176925D01*
X245926Y176000D01*
X246048Y175075D01*
X246405Y174213D01*
X246973Y173473D01*
X247713Y172905D01*
X248575Y172548D01*
X249500Y172426D01*
X250425Y172548D01*
X251287Y172905D01*
X252027Y173473D01*
X252595Y174213D01*
X252952Y175075D01*
X252997Y175416D01*
X253497Y175384D01*
Y166616D01*
X252997Y166584D01*
X252952Y166925D01*
X252595Y167787D01*
X252027Y168527D01*
X251287Y169095D01*
X250425Y169452D01*
X249500Y169574D01*
X248575Y169452D01*
X247713Y169095D01*
X246973Y168527D01*
X246405Y167787D01*
X246048Y166925D01*
X245926Y166000D01*
X246048Y165075D01*
X246405Y164213D01*
X246973Y163473D01*
X247713Y162905D01*
X248575Y162548D01*
X249500Y162426D01*
X250425Y162548D01*
X251287Y162905D01*
X252027Y163473D01*
X252595Y164213D01*
X252952Y165075D01*
X252997Y165416D01*
X253497Y165384D01*
Y156616D01*
X252997Y156584D01*
X252952Y156925D01*
X252595Y157787D01*
X252027Y158527D01*
X251287Y159095D01*
X250425Y159452D01*
X249500Y159574D01*
X248575Y159452D01*
X247713Y159095D01*
X246973Y158527D01*
X246405Y157787D01*
X246048Y156925D01*
X245926Y156000D01*
X246048Y155075D01*
X246405Y154213D01*
X246973Y153473D01*
X247713Y152905D01*
X248575Y152548D01*
X249500Y152426D01*
X250425Y152548D01*
X251287Y152905D01*
X252027Y153473D01*
X252595Y154213D01*
X252952Y155075D01*
X252997Y155416D01*
X253497Y155384D01*
Y146616D01*
X252997Y146584D01*
X252952Y146925D01*
X252595Y147787D01*
X252027Y148527D01*
X251287Y149095D01*
X250425Y149452D01*
X249500Y149574D01*
X248575Y149452D01*
X247713Y149095D01*
X246973Y148527D01*
X246405Y147787D01*
X246048Y146925D01*
X245926Y146000D01*
X246048Y145075D01*
X246405Y144213D01*
X246973Y143473D01*
X247713Y142905D01*
X248575Y142548D01*
X249500Y142426D01*
X250425Y142548D01*
X251287Y142905D01*
X252027Y143473D01*
X252595Y144213D01*
X252952Y145075D01*
X252997Y145416D01*
X253497Y145384D01*
Y136616D01*
X252997Y136584D01*
X252952Y136925D01*
X252595Y137787D01*
X252027Y138527D01*
X251287Y139095D01*
X250425Y139452D01*
X249500Y139574D01*
X248575Y139452D01*
X247713Y139095D01*
X246973Y138527D01*
X246405Y137787D01*
X246048Y136925D01*
X246010Y136639D01*
X245054D01*
X241501Y140192D01*
X241049Y140379D01*
X239125D01*
X234522Y144982D01*
X234605Y145400D01*
X234498Y145938D01*
X234193Y146394D01*
X233738Y146698D01*
X233200Y146805D01*
X232662Y146698D01*
X232207Y146394D01*
X231902Y145938D01*
X231795Y145400D01*
X231902Y144862D01*
X232207Y144406D01*
X232662Y144102D01*
X233200Y143995D01*
X233618Y144078D01*
X238023Y139673D01*
X237925Y139183D01*
X237713Y139095D01*
X236973Y138527D01*
X236405Y137787D01*
X236048Y136925D01*
X235926Y136000D01*
X236048Y135075D01*
X236405Y134213D01*
X236973Y133473D01*
X237713Y132905D01*
X238575Y132548D01*
X239500Y132426D01*
X240425Y132548D01*
X241287Y132905D01*
X242027Y133473D01*
X242595Y134213D01*
X242952Y135075D01*
X243074Y136000D01*
X243058Y136120D01*
X243532Y136354D01*
X244337Y135548D01*
X244789Y135361D01*
X246010D01*
X246048Y135075D01*
X246405Y134213D01*
X246973Y133473D01*
X247713Y132905D01*
X248575Y132548D01*
X249500Y132426D01*
X250425Y132548D01*
X251287Y132905D01*
X252027Y133473D01*
X252595Y134213D01*
X252952Y135075D01*
X252997Y135416D01*
X253497Y135384D01*
Y126616D01*
X252997Y126584D01*
X252952Y126925D01*
X252595Y127787D01*
X252027Y128527D01*
X251287Y129095D01*
X250425Y129452D01*
X249500Y129574D01*
X248575Y129452D01*
X247713Y129095D01*
X246973Y128527D01*
X246405Y127787D01*
X246048Y126925D01*
X246010Y126639D01*
X245054D01*
X241501Y130192D01*
X241049Y130379D01*
X237977D01*
X225145Y143212D01*
Y168652D01*
X225499Y168889D01*
X225803Y169345D01*
X225910Y169883D01*
X225803Y170420D01*
X225499Y170876D01*
X225043Y171180D01*
X224505Y171288D01*
X223968Y171180D01*
X223512Y170876D01*
X223207Y170420D01*
X223101Y169883D01*
X223207Y169345D01*
X223512Y168889D01*
X223866Y168652D01*
Y142947D01*
X224054Y142495D01*
X237210Y129339D01*
X237260Y129185D01*
X237260Y128747D01*
X236973Y128527D01*
X236405Y127787D01*
X236048Y126925D01*
X235926Y126000D01*
X236048Y125075D01*
X236405Y124213D01*
X236973Y123473D01*
X237713Y122905D01*
X238575Y122548D01*
X239500Y122426D01*
X240425Y122548D01*
X241287Y122905D01*
X242027Y123473D01*
X242595Y124213D01*
X242952Y125075D01*
X243074Y126000D01*
X243058Y126120D01*
X243532Y126354D01*
X244337Y125548D01*
X244789Y125361D01*
X246010D01*
X246048Y125075D01*
X246405Y124213D01*
X246973Y123473D01*
X247713Y122905D01*
X248575Y122548D01*
X249500Y122426D01*
X250425Y122548D01*
X251287Y122905D01*
X252027Y123473D01*
X252595Y124213D01*
X252952Y125075D01*
X252997Y125416D01*
X253497Y125384D01*
Y116616D01*
X252997Y116584D01*
X252952Y116925D01*
X252595Y117787D01*
X252027Y118527D01*
X251287Y119095D01*
X250425Y119452D01*
X249500Y119574D01*
X248575Y119452D01*
X247713Y119095D01*
X246973Y118527D01*
X246405Y117787D01*
X246048Y116925D01*
X245926Y116000D01*
X246048Y115075D01*
X246405Y114213D01*
X246973Y113473D01*
X247713Y112905D01*
X248575Y112548D01*
X248861Y112510D01*
Y111554D01*
X245184Y107877D01*
X244997Y107425D01*
Y104101D01*
X241975Y101080D01*
X238651D01*
X238199Y100893D01*
X235308Y98001D01*
X235308Y98001D01*
X224048Y86741D01*
X223861Y86289D01*
Y81678D01*
X191638Y49455D01*
X138636D01*
X138184Y49268D01*
X100443Y11527D01*
X79117D01*
X78665Y11339D01*
X76035Y8710D01*
X75252D01*
X75091Y9183D01*
X75168Y9242D01*
X75767Y10023D01*
X76144Y10933D01*
X76272Y11909D01*
Y12008D01*
X68728D01*
Y11909D01*
X68856Y10933D01*
X69233Y10023D01*
X69832Y9242D01*
X69909Y9183D01*
X69748Y8710D01*
X64649D01*
X64479Y9210D01*
X64887Y9523D01*
X65423Y10222D01*
X65760Y11036D01*
X65875Y11909D01*
Y13091D01*
X65760Y13964D01*
X65423Y14778D01*
X64887Y15477D01*
X64188Y16014D01*
X63374Y16351D01*
X62500Y16466D01*
X61626Y16351D01*
X60812Y16014D01*
X60113Y15477D01*
X59577Y14778D01*
X59240Y13964D01*
X59125Y13091D01*
Y11909D01*
X59240Y11036D01*
X59577Y10222D01*
X60113Y9523D01*
X60521Y9210D01*
X60351Y8710D01*
X32905D01*
X30427Y11188D01*
X30661Y11661D01*
X31300Y11577D01*
X32186Y11694D01*
X33011Y12036D01*
X33720Y12580D01*
X34264Y13288D01*
X34606Y14114D01*
X34723Y15000D01*
X34606Y15886D01*
X34264Y16712D01*
X33720Y17420D01*
X33514Y17579D01*
X33481Y18078D01*
X37965Y22561D01*
X55800D01*
X56252Y22748D01*
X82890Y49386D01*
X92873D01*
X93325Y49573D01*
X103970Y60218D01*
X109687D01*
X110139Y60405D01*
X111212Y61478D01*
X111630Y61395D01*
X112168Y61502D01*
X112623Y61807D01*
X112999D01*
X113454Y61502D01*
X113992Y61395D01*
X114530Y61502D01*
X114986Y61807D01*
X115361D01*
X115817Y61502D01*
X116354Y61395D01*
X116892Y61502D01*
X117348Y61807D01*
X117723D01*
X118179Y61502D01*
X118717Y61395D01*
X119247Y61501D01*
X119974Y60773D01*
X120426Y60586D01*
X121731D01*
X122183Y60773D01*
X136922Y75512D01*
X137363Y75745D01*
X137632Y75569D01*
X137822Y75442D01*
X138360Y75335D01*
X138897Y75442D01*
X139353Y75747D01*
X139658Y76203D01*
X139765Y76740D01*
X139658Y77278D01*
X139353Y77734D01*
X138897Y78038D01*
X138636Y78600D01*
X138638Y78607D01*
Y157337D01*
X138451Y157789D01*
X110233Y186007D01*
X110479Y186468D01*
X110724Y186419D01*
X111262Y186526D01*
X111718Y186831D01*
X112022Y187287D01*
X112129Y187824D01*
X112022Y188362D01*
X111718Y188818D01*
X111262Y189122D01*
X110724Y189229D01*
X110187Y189122D01*
X109731Y188818D01*
X109426Y188362D01*
X109319Y187824D01*
X109368Y187579D01*
X108907Y187333D01*
X107958Y188282D01*
Y217908D01*
X107771Y218360D01*
X107532Y218599D01*
X107724Y219061D01*
X108535D01*
X110861Y216735D01*
D02*
G37*
G36*
X198149Y165311D02*
Y159430D01*
X197795Y159194D01*
X197490Y158738D01*
X197383Y158200D01*
X197490Y157662D01*
X197795Y157207D01*
X198250Y156902D01*
X198788Y156795D01*
X199206Y156878D01*
X200936Y155148D01*
X200848Y154643D01*
X200789Y154539D01*
X154168D01*
X141783Y166924D01*
X141974Y167386D01*
X196074D01*
X198149Y165311D01*
D02*
G37*
G36*
X253497Y105384D02*
Y96616D01*
X252997Y96584D01*
X252952Y96925D01*
X252595Y97787D01*
X252027Y98527D01*
X251287Y99095D01*
X250425Y99452D01*
X249500Y99574D01*
X248575Y99452D01*
X247713Y99095D01*
X246973Y98527D01*
X246405Y97787D01*
X246048Y96925D01*
X245926Y96000D01*
X246048Y95075D01*
X246405Y94213D01*
X246973Y93473D01*
X247713Y92905D01*
X248575Y92548D01*
X249500Y92426D01*
X250425Y92548D01*
X251287Y92905D01*
X252027Y93473D01*
X252595Y94213D01*
X252952Y95075D01*
X252997Y95416D01*
X253497Y95384D01*
Y86616D01*
X252997Y86584D01*
X252952Y86925D01*
X252595Y87787D01*
X252027Y88527D01*
X251287Y89095D01*
X250425Y89452D01*
X249500Y89574D01*
X248575Y89452D01*
X247713Y89095D01*
X246973Y88527D01*
X246405Y87787D01*
X246048Y86925D01*
X245926Y86000D01*
X246048Y85075D01*
X246405Y84213D01*
X246973Y83473D01*
X247713Y82905D01*
X248575Y82548D01*
X249500Y82426D01*
X250425Y82548D01*
X251287Y82905D01*
X252027Y83473D01*
X252595Y84213D01*
X252952Y85075D01*
X252997Y85416D01*
X253497Y85384D01*
Y14276D01*
X253497Y14273D01*
X253497Y13780D01*
X253489Y13283D01*
X253388Y11996D01*
X252970Y10256D01*
X252286Y8603D01*
X251351Y7077D01*
X250189Y5717D01*
X248828Y4555D01*
X247303Y3620D01*
X245650Y2935D01*
X243910Y2517D01*
X242239Y2386D01*
X242126Y2409D01*
X226602D01*
Y24400D01*
X226477Y24701D01*
X226176Y24826D01*
X159876D01*
X159575Y24701D01*
X159450Y24400D01*
Y2409D01*
X13780D01*
X13666Y2386D01*
X11996Y2517D01*
X10256Y2935D01*
X8603Y3620D01*
X7077Y4555D01*
X5717Y5717D01*
X4555Y7077D01*
X3620Y8603D01*
X2935Y10256D01*
X2517Y11996D01*
X2386Y13666D01*
X2409Y13780D01*
Y48867D01*
X2908Y49074D01*
X15097Y36886D01*
X15549Y36699D01*
X30270D01*
X30507Y36344D01*
X30861Y36108D01*
Y28365D01*
X24748Y22252D01*
X24561Y21800D01*
Y17005D01*
X24061Y16945D01*
X24022Y17108D01*
X23375Y18669D01*
X22492Y20110D01*
X21395Y21395D01*
X20110Y22492D01*
X18669Y23375D01*
X17108Y24022D01*
X15464Y24416D01*
X13780Y24549D01*
X12095Y24416D01*
X10452Y24022D01*
X8890Y23375D01*
X7449Y22492D01*
X6164Y21395D01*
X5067Y20110D01*
X4184Y18669D01*
X3537Y17108D01*
X3143Y15464D01*
X3010Y13780D01*
X3143Y12095D01*
X3537Y10452D01*
X4184Y8890D01*
X5067Y7449D01*
X6164Y6164D01*
X7449Y5067D01*
X8890Y4184D01*
X10452Y3537D01*
X12095Y3143D01*
X13780Y3010D01*
X15464Y3143D01*
X17108Y3537D01*
X18669Y4184D01*
X20110Y5067D01*
X21395Y6164D01*
X22492Y7449D01*
X23375Y8890D01*
X24022Y10452D01*
X24416Y12095D01*
X24524Y13462D01*
X25041Y13653D01*
X31862Y6831D01*
X32314Y6644D01*
X76626D01*
X77078Y6831D01*
X79633Y9386D01*
X100959D01*
X101411Y9574D01*
X139227Y47390D01*
X192229D01*
X192681Y47577D01*
X236725Y91621D01*
X241049D01*
X241501Y91808D01*
X243692Y93999D01*
X243879Y94451D01*
Y98775D01*
X247922Y102818D01*
X248575Y102548D01*
X249500Y102426D01*
X250425Y102548D01*
X251287Y102905D01*
X252027Y103473D01*
X252595Y104213D01*
X252952Y105075D01*
X252997Y105416D01*
X253497Y105384D01*
D02*
G37*
%LPC*%
G36*
X13780Y252895D02*
X12095Y252763D01*
X10452Y252368D01*
X8890Y251722D01*
X7449Y250839D01*
X6164Y249741D01*
X5067Y248456D01*
X4184Y247015D01*
X3537Y245454D01*
X3143Y243811D01*
X3010Y242126D01*
X3143Y240441D01*
X3537Y238798D01*
X4184Y237237D01*
X5067Y235796D01*
X6164Y234511D01*
X7449Y233413D01*
X8890Y232530D01*
X10452Y231884D01*
X12095Y231489D01*
X13780Y231357D01*
X15464Y231489D01*
X17108Y231884D01*
X18669Y232530D01*
X20110Y233413D01*
X21395Y234511D01*
X22492Y235796D01*
X23375Y237237D01*
X24022Y238798D01*
X24416Y240441D01*
X24549Y242126D01*
X24416Y243811D01*
X24022Y245454D01*
X23375Y247015D01*
X22492Y248456D01*
X21395Y249741D01*
X20110Y250839D01*
X18669Y251722D01*
X17108Y252368D01*
X15464Y252763D01*
X13780Y252895D01*
D02*
G37*
G36*
X13300Y228005D02*
X12762Y227898D01*
X12307Y227593D01*
X12002Y227138D01*
X11895Y226600D01*
X12002Y226062D01*
X12307Y225607D01*
X12762Y225302D01*
X13300Y225195D01*
X13838Y225302D01*
X14293Y225607D01*
X14598Y226062D01*
X14705Y226600D01*
X14598Y227138D01*
X14293Y227593D01*
X13838Y227898D01*
X13300Y228005D01*
D02*
G37*
G36*
X12000Y213313D02*
X11232Y213160D01*
X10581Y212725D01*
X10146Y212074D01*
X9993Y211305D01*
X10146Y210537D01*
X10581Y209886D01*
X11232Y209451D01*
X12000Y209298D01*
X12768Y209451D01*
X13419Y209886D01*
X13854Y210537D01*
X14007Y211305D01*
X13854Y212074D01*
X13419Y212725D01*
X12768Y213160D01*
X12000Y213313D01*
D02*
G37*
G36*
Y201502D02*
X11232Y201349D01*
X10581Y200914D01*
X10146Y200263D01*
X9993Y199495D01*
X10146Y198726D01*
X10581Y198075D01*
X11232Y197640D01*
X12000Y197487D01*
X12768Y197640D01*
X13419Y198075D01*
X13854Y198726D01*
X14007Y199495D01*
X13854Y200263D01*
X13419Y200914D01*
X12768Y201349D01*
X12000Y201502D01*
D02*
G37*
G36*
Y150405D02*
X11462Y150298D01*
X11007Y149994D01*
X10702Y149538D01*
X10595Y149000D01*
X10702Y148462D01*
X11007Y148006D01*
X11462Y147702D01*
X12000Y147595D01*
X12538Y147702D01*
X12993Y148006D01*
X13298Y148462D01*
X13405Y149000D01*
X13298Y149538D01*
X12993Y149994D01*
X12538Y150298D01*
X12000Y150405D01*
D02*
G37*
G36*
X63000Y238905D02*
X62462Y238798D01*
X62007Y238493D01*
X61702Y238038D01*
X61595Y237500D01*
X61702Y236962D01*
X62007Y236507D01*
X62462Y236202D01*
X63000Y236095D01*
X63538Y236202D01*
X63993Y236507D01*
X64298Y236962D01*
X64405Y237500D01*
X64298Y238038D01*
X63993Y238493D01*
X63538Y238798D01*
X63000Y238905D01*
D02*
G37*
G36*
X49900D02*
X49362Y238798D01*
X48906Y238493D01*
X48602Y238038D01*
X48495Y237500D01*
X48602Y236962D01*
X48906Y236507D01*
X49362Y236202D01*
X49900Y236095D01*
X50438Y236202D01*
X50893Y236507D01*
X51198Y236962D01*
X51305Y237500D01*
X51198Y238038D01*
X50893Y238493D01*
X50438Y238798D01*
X49900Y238905D01*
D02*
G37*
G36*
X55800Y221205D02*
X55262Y221098D01*
X54807Y220794D01*
X54431D01*
X53975Y221098D01*
X53438Y221205D01*
X52900Y221098D01*
X52601Y220898D01*
X52257Y220830D01*
X51913Y220898D01*
X51613Y221098D01*
X51076Y221205D01*
X50538Y221098D01*
X50082Y220794D01*
X49778Y220338D01*
X49671Y219800D01*
X49778Y219262D01*
X50082Y218807D01*
X50261Y218687D01*
Y205930D01*
X49907Y205693D01*
X49602Y205238D01*
X49495Y204700D01*
X49602Y204162D01*
X49907Y203707D01*
X50362Y203402D01*
X50900Y203295D01*
X51438Y203402D01*
X51893Y203707D01*
X52390Y203551D01*
X52762Y203302D01*
X53300Y203195D01*
X53838Y203302D01*
X54112Y203485D01*
X54547Y203535D01*
X54799Y203463D01*
X55127Y203244D01*
X55665Y203137D01*
X56202Y203244D01*
X56658Y203549D01*
X56963Y204005D01*
X57070Y204542D01*
X56963Y205080D01*
X56658Y205536D01*
X56304Y205772D01*
Y218495D01*
X56338Y218502D01*
X56793Y218807D01*
X57098Y219262D01*
X57205Y219800D01*
X57098Y220338D01*
X56793Y220794D01*
X56338Y221098D01*
X55800Y221205D01*
D02*
G37*
G36*
X52903Y235297D02*
X52365Y235191D01*
X51909Y234886D01*
X51605Y234430D01*
X51498Y233892D01*
X51605Y233355D01*
X51909Y232899D01*
X52263Y232662D01*
Y231697D01*
X52451Y231245D01*
X64048Y219648D01*
X64500Y219461D01*
X69829D01*
X70066Y219107D01*
X70420Y218870D01*
Y202241D01*
X70607Y201789D01*
X72124Y200272D01*
X72070Y200000D01*
X72177Y199462D01*
X72481Y199006D01*
X72937Y198702D01*
X73475Y198595D01*
X74013Y198702D01*
X74468Y199006D01*
X74773Y199462D01*
X74880Y200000D01*
X74773Y200538D01*
X74468Y200993D01*
X74013Y201298D01*
X73475Y201405D01*
X72937Y201298D01*
X72918Y201286D01*
X71698Y202506D01*
Y218870D01*
X72053Y219107D01*
X72357Y219562D01*
X72464Y220100D01*
X72357Y220638D01*
X72053Y221093D01*
X71597Y221398D01*
X71059Y221505D01*
X70521Y221398D01*
X70066Y221093D01*
X69829Y220739D01*
X64765D01*
X53542Y231962D01*
Y232662D01*
X53896Y232899D01*
X54201Y233355D01*
X54308Y233892D01*
X54201Y234430D01*
X53896Y234886D01*
X53440Y235191D01*
X52903Y235297D01*
D02*
G37*
G36*
X68484Y193451D02*
X67947Y193344D01*
X67491Y193040D01*
X67186Y192584D01*
X67079Y192046D01*
X67186Y191509D01*
X67491Y191053D01*
X67845Y190816D01*
Y190029D01*
X68032Y189577D01*
X69035Y188575D01*
X68952Y188157D01*
X69059Y187619D01*
X69363Y187163D01*
X69819Y186859D01*
X70357Y186752D01*
X70894Y186859D01*
X71350Y187163D01*
X71655Y187619D01*
X71762Y188157D01*
X71655Y188694D01*
X71350Y189150D01*
X70894Y189455D01*
X70357Y189562D01*
X69939Y189479D01*
X69124Y190294D01*
Y190816D01*
X69478Y191053D01*
X69782Y191509D01*
X69889Y192046D01*
X69782Y192584D01*
X69478Y193040D01*
X69022Y193344D01*
X68484Y193451D01*
D02*
G37*
G36*
X75975Y156405D02*
X75437Y156298D01*
X74981Y155993D01*
X74921Y155903D01*
X53500D01*
X53154Y155834D01*
X52861Y155639D01*
X52861Y155639D01*
X47407Y150184D01*
X47300Y150205D01*
X46762Y150098D01*
X46306Y149794D01*
X46002Y149338D01*
X45895Y148800D01*
X46002Y148262D01*
X46306Y147807D01*
X46762Y147502D01*
X47300Y147395D01*
X47838Y147502D01*
X48294Y147807D01*
X48598Y148262D01*
X48705Y148800D01*
X48684Y148907D01*
X53874Y154097D01*
X74921D01*
X74981Y154007D01*
X75437Y153702D01*
X75975Y153595D01*
X76512Y153702D01*
X76968Y154007D01*
X77273Y154462D01*
X77380Y155000D01*
X77273Y155538D01*
X76968Y155993D01*
X76512Y156298D01*
X75975Y156405D01*
D02*
G37*
G36*
X95500Y141905D02*
X94962Y141798D01*
X94507Y141493D01*
X94202Y141038D01*
X94095Y140500D01*
X94202Y139962D01*
X94507Y139506D01*
X94962Y139202D01*
X95500Y139095D01*
X96038Y139202D01*
X96493Y139506D01*
X96798Y139962D01*
X96905Y140500D01*
X96798Y141038D01*
X96493Y141493D01*
X96038Y141798D01*
X95500Y141905D01*
D02*
G37*
G36*
X49400Y135005D02*
X48862Y134898D01*
X48406Y134593D01*
X48102Y134138D01*
X47995Y133600D01*
X48102Y133062D01*
X48406Y132606D01*
X48440Y132584D01*
Y131983D01*
X48307Y131894D01*
X48002Y131438D01*
X47895Y130900D01*
X48002Y130362D01*
X48307Y129906D01*
X48315Y129901D01*
Y129299D01*
X48307Y129294D01*
X48002Y128838D01*
X47895Y128300D01*
X48002Y127762D01*
X48307Y127306D01*
X48762Y127002D01*
X49300Y126895D01*
X49838Y127002D01*
X50293Y127306D01*
X50598Y127762D01*
X50705Y128300D01*
X50598Y128838D01*
X50293Y129294D01*
X50285Y129299D01*
Y129901D01*
X50293Y129906D01*
X50598Y130362D01*
X50705Y130900D01*
X50598Y131438D01*
X50293Y131894D01*
X50260Y131916D01*
Y132517D01*
X50393Y132606D01*
X50698Y133062D01*
X50805Y133600D01*
X50698Y134138D01*
X50393Y134593D01*
X49938Y134898D01*
X49400Y135005D01*
D02*
G37*
G36*
X58000D02*
X57462Y134898D01*
X57007Y134593D01*
X56702Y134138D01*
X56595Y133600D01*
X56702Y133062D01*
X57007Y132606D01*
X57015Y132601D01*
Y131999D01*
X57007Y131993D01*
X56702Y131538D01*
X56595Y131000D01*
X56702Y130462D01*
X57007Y130007D01*
X57165Y129901D01*
Y129299D01*
X57007Y129193D01*
X56702Y128738D01*
X56595Y128200D01*
X56702Y127662D01*
X57007Y127207D01*
X57462Y126902D01*
X58000Y126795D01*
X58538Y126902D01*
X58993Y127207D01*
X59298Y127662D01*
X59405Y128200D01*
X59298Y128738D01*
X58993Y129193D01*
X58835Y129299D01*
Y129901D01*
X58993Y130007D01*
X59298Y130462D01*
X59405Y131000D01*
X59298Y131538D01*
X58993Y131993D01*
X58985Y131999D01*
Y132601D01*
X58993Y132606D01*
X59298Y133062D01*
X59405Y133600D01*
X59298Y134138D01*
X58993Y134593D01*
X58538Y134898D01*
X58000Y135005D01*
D02*
G37*
G36*
X53900Y129405D02*
X53362Y129298D01*
X52907Y128993D01*
X52602Y128538D01*
X52495Y128000D01*
X52602Y127462D01*
X52907Y127006D01*
X53362Y126702D01*
X53900Y126595D01*
X54438Y126702D01*
X54893Y127006D01*
X55198Y127462D01*
X55305Y128000D01*
X55198Y128538D01*
X54893Y128993D01*
X54438Y129298D01*
X53900Y129405D01*
D02*
G37*
G36*
X29665Y129653D02*
X25335D01*
X24413Y129469D01*
X23632Y128947D01*
X23110Y128166D01*
X22926Y127244D01*
X23110Y126322D01*
X23632Y125541D01*
X24413Y125019D01*
X25335Y124836D01*
X29665D01*
X30587Y125019D01*
X31368Y125541D01*
X31890Y126322D01*
X32074Y127244D01*
X31890Y128166D01*
X31368Y128947D01*
X30587Y129469D01*
X29665Y129653D01*
D02*
G37*
G36*
X12224D02*
X9862D01*
X8941Y129469D01*
X8159Y128947D01*
X7637Y128166D01*
X7454Y127244D01*
X7637Y126322D01*
X8159Y125541D01*
X8941Y125019D01*
X9862Y124836D01*
X12224D01*
X13146Y125019D01*
X13927Y125541D01*
X14449Y126322D01*
X14633Y127244D01*
X14449Y128166D01*
X13927Y128947D01*
X13146Y129469D01*
X12224Y129653D01*
D02*
G37*
G36*
X33000Y121405D02*
X32462Y121298D01*
X32006Y120993D01*
X31702Y120538D01*
X31655Y120301D01*
X31145D01*
X31098Y120538D01*
X30793Y120993D01*
X30338Y121298D01*
X29800Y121405D01*
X29262Y121298D01*
X28806Y120993D01*
X28502Y120538D01*
X28395Y120000D01*
X28502Y119462D01*
X28806Y119007D01*
X29262Y118702D01*
X29800Y118595D01*
X30338Y118702D01*
X30793Y119007D01*
X31098Y119462D01*
X31145Y119699D01*
X31655D01*
X31702Y119462D01*
X32006Y119007D01*
X32462Y118702D01*
X33000Y118595D01*
X33538Y118702D01*
X33994Y119007D01*
X34298Y119462D01*
X34405Y120000D01*
X34298Y120538D01*
X33994Y120993D01*
X33538Y121298D01*
X33000Y121405D01*
D02*
G37*
G36*
X25413Y123320D02*
X24760Y123190D01*
X24207Y122820D01*
X23837Y122267D01*
X23707Y121614D01*
X23837Y120961D01*
X24207Y120408D01*
X24760Y120038D01*
X25413Y119908D01*
X26066Y120038D01*
X26620Y120408D01*
X26989Y120961D01*
X27119Y121614D01*
X26989Y122267D01*
X26620Y122820D01*
X26066Y123190D01*
X25413Y123320D01*
D02*
G37*
G36*
X63100Y116305D02*
X62562Y116198D01*
X62107Y115893D01*
X62051Y115810D01*
X61449D01*
X61393Y115893D01*
X60938Y116198D01*
X60400Y116305D01*
X59862Y116198D01*
X59407Y115893D01*
X59102Y115438D01*
X58995Y114900D01*
X59102Y114362D01*
X59407Y113907D01*
X59862Y113602D01*
X60400Y113495D01*
X60938Y113602D01*
X61393Y113907D01*
X61449Y113990D01*
X62051D01*
X62107Y113907D01*
X62562Y113602D01*
X63100Y113495D01*
X63638Y113602D01*
X64093Y113907D01*
X64398Y114362D01*
X64505Y114900D01*
X64398Y115438D01*
X64093Y115893D01*
X63638Y116198D01*
X63100Y116305D01*
D02*
G37*
G36*
X46000Y116505D02*
X45462Y116398D01*
X45006Y116094D01*
X44702Y115638D01*
X44595Y115100D01*
X44702Y114562D01*
X45006Y114107D01*
X45462Y113802D01*
X46000Y113695D01*
X46538Y113802D01*
X46993Y114107D01*
X47298Y114562D01*
X47405Y115100D01*
X47298Y115638D01*
X46993Y116094D01*
X46538Y116398D01*
X46000Y116505D01*
D02*
G37*
G36*
X77700Y116305D02*
X77162Y116198D01*
X76707Y115893D01*
X76402Y115438D01*
X76295Y114900D01*
X76402Y114362D01*
X76707Y113907D01*
X77162Y113602D01*
X77700Y113495D01*
X78238Y113602D01*
X78693Y113907D01*
X78998Y114362D01*
X79105Y114900D01*
X78998Y115438D01*
X78693Y115893D01*
X78238Y116198D01*
X77700Y116305D01*
D02*
G37*
G36*
X26000Y114605D02*
X25462Y114498D01*
X25006Y114193D01*
X24702Y113738D01*
X24595Y113200D01*
X24702Y112662D01*
X25006Y112206D01*
X25361Y111970D01*
Y110530D01*
X25006Y110293D01*
X24702Y109838D01*
X24595Y109300D01*
X24702Y108762D01*
X25006Y108307D01*
X25462Y108002D01*
X26000Y107895D01*
X26538Y108002D01*
X26994Y108307D01*
X27298Y108762D01*
X27405Y109300D01*
X27298Y109838D01*
X26994Y110293D01*
X26639Y110530D01*
Y111970D01*
X26994Y112206D01*
X27298Y112662D01*
X27405Y113200D01*
X27298Y113738D01*
X26994Y114193D01*
X26538Y114498D01*
X26000Y114605D01*
D02*
G37*
G36*
X51600Y113605D02*
X51062Y113498D01*
X50607Y113194D01*
X50302Y112738D01*
X50195Y112200D01*
X50302Y111662D01*
X50607Y111206D01*
X50812Y111069D01*
Y110481D01*
X50607Y110344D01*
X50302Y109888D01*
X50195Y109350D01*
X50302Y108812D01*
X50607Y108356D01*
X50812Y108219D01*
Y107631D01*
X50607Y107493D01*
X50302Y107038D01*
X50195Y106500D01*
X50302Y105962D01*
X50607Y105507D01*
X51062Y105202D01*
X51600Y105095D01*
X52138Y105202D01*
X52593Y105507D01*
X52898Y105962D01*
X53005Y106500D01*
X52898Y107038D01*
X52593Y107493D01*
X52388Y107631D01*
Y108219D01*
X52593Y108356D01*
X52898Y108812D01*
X53005Y109350D01*
X52898Y109888D01*
X52593Y110344D01*
X52388Y110481D01*
Y111069D01*
X52593Y111206D01*
X52898Y111662D01*
X53005Y112200D01*
X52898Y112738D01*
X52593Y113194D01*
X52138Y113498D01*
X51600Y113605D01*
D02*
G37*
G36*
X60400Y105305D02*
X59862Y105198D01*
X59407Y104893D01*
X59102Y104438D01*
X58995Y103900D01*
X59102Y103362D01*
X59407Y102907D01*
X59862Y102602D01*
X60400Y102495D01*
X60938Y102602D01*
X61393Y102907D01*
X61698Y103362D01*
X61805Y103900D01*
X61698Y104438D01*
X61393Y104893D01*
X60938Y105198D01*
X60400Y105305D01*
D02*
G37*
G36*
X32600Y102105D02*
X32062Y101998D01*
X31607Y101693D01*
X31302Y101238D01*
X31255Y101001D01*
X30745D01*
X30698Y101238D01*
X30393Y101693D01*
X29938Y101998D01*
X29400Y102105D01*
X28862Y101998D01*
X28407Y101693D01*
X28102Y101238D01*
X27995Y100700D01*
X28102Y100162D01*
X28407Y99707D01*
X28862Y99402D01*
X29400Y99295D01*
X29938Y99402D01*
X30393Y99707D01*
X30698Y100162D01*
X30745Y100399D01*
X31255D01*
X31302Y100162D01*
X31607Y99707D01*
X32062Y99402D01*
X32600Y99295D01*
X33138Y99402D01*
X33593Y99707D01*
X33898Y100162D01*
X34005Y100700D01*
X33898Y101238D01*
X33593Y101693D01*
X33138Y101998D01*
X32600Y102105D01*
D02*
G37*
G36*
X49600Y102705D02*
X49062Y102598D01*
X48607Y102293D01*
X48302Y101838D01*
X48195Y101300D01*
X48302Y100762D01*
X48607Y100307D01*
X49062Y100002D01*
X49600Y99895D01*
X50138Y100002D01*
X50594Y100307D01*
X50898Y100762D01*
X51005Y101300D01*
X50898Y101838D01*
X50594Y102293D01*
X50138Y102598D01*
X49600Y102705D01*
D02*
G37*
G36*
X45000D02*
X44462Y102598D01*
X44006Y102293D01*
X43702Y101838D01*
X43595Y101300D01*
X43702Y100762D01*
X44006Y100307D01*
X44462Y100002D01*
X45000Y99895D01*
X45538Y100002D01*
X45994Y100307D01*
X46298Y100762D01*
X46405Y101300D01*
X46298Y101838D01*
X45994Y102293D01*
X45538Y102598D01*
X45000Y102705D01*
D02*
G37*
G36*
X60400Y101672D02*
X59862Y101565D01*
X59407Y101260D01*
X59102Y100804D01*
X58995Y100267D01*
X59102Y99729D01*
X59407Y99273D01*
X59862Y98969D01*
X60400Y98862D01*
X60938Y98969D01*
X61393Y99273D01*
X61698Y99729D01*
X61805Y100267D01*
X61698Y100804D01*
X61393Y101260D01*
X60938Y101565D01*
X60400Y101672D01*
D02*
G37*
G36*
X56950D02*
X56412Y101565D01*
X55957Y101260D01*
X55652Y100804D01*
X55545Y100267D01*
X55652Y99729D01*
X55957Y99273D01*
X56412Y98969D01*
X56950Y98862D01*
X57488Y98969D01*
X57943Y99273D01*
X58248Y99729D01*
X58355Y100267D01*
X58248Y100804D01*
X57943Y101260D01*
X57488Y101565D01*
X56950Y101672D01*
D02*
G37*
G36*
X53500D02*
X52962Y101565D01*
X52507Y101260D01*
X52202Y100804D01*
X52095Y100267D01*
X52202Y99729D01*
X52507Y99273D01*
X52962Y98969D01*
X53500Y98862D01*
X54038Y98969D01*
X54493Y99273D01*
X54798Y99729D01*
X54905Y100267D01*
X54798Y100804D01*
X54493Y101260D01*
X54038Y101565D01*
X53500Y101672D01*
D02*
G37*
G36*
X25413Y100564D02*
X24760Y100434D01*
X24207Y100065D01*
X23837Y99511D01*
X23707Y98858D01*
X23837Y98205D01*
X24207Y97652D01*
X24760Y97282D01*
X25413Y97152D01*
X26066Y97282D01*
X26620Y97652D01*
X26989Y98205D01*
X27119Y98858D01*
X26989Y99511D01*
X26620Y100065D01*
X26066Y100434D01*
X25413Y100564D01*
D02*
G37*
G36*
X65000Y99705D02*
X64462Y99598D01*
X64007Y99293D01*
X63702Y98838D01*
X63595Y98300D01*
X63702Y97762D01*
X64007Y97307D01*
X64462Y97002D01*
X65000Y96895D01*
X65538Y97002D01*
X65993Y97307D01*
X66298Y97762D01*
X66405Y98300D01*
X66298Y98838D01*
X65993Y99293D01*
X65538Y99598D01*
X65000Y99705D01*
D02*
G37*
G36*
X60400Y98038D02*
X59862Y97931D01*
X59407Y97627D01*
X59102Y97171D01*
X58995Y96633D01*
X59102Y96096D01*
X59407Y95640D01*
X59862Y95335D01*
X60400Y95228D01*
X60938Y95335D01*
X61393Y95640D01*
X61698Y96096D01*
X61805Y96633D01*
X61698Y97171D01*
X61393Y97627D01*
X60938Y97931D01*
X60400Y98038D01*
D02*
G37*
G36*
X63500Y95846D02*
X62962Y95740D01*
X62507Y95435D01*
X62202Y94979D01*
X62095Y94442D01*
X62202Y93904D01*
X62507Y93448D01*
X62962Y93144D01*
X63500Y93037D01*
X64038Y93144D01*
X64493Y93448D01*
X64798Y93904D01*
X64905Y94442D01*
X64798Y94979D01*
X64493Y95435D01*
X64038Y95740D01*
X63500Y95846D01*
D02*
G37*
G36*
X60400Y94405D02*
X59862Y94298D01*
X59407Y93993D01*
X59102Y93538D01*
X58995Y93000D01*
X59102Y92462D01*
X59407Y92007D01*
X59862Y91702D01*
X60400Y91595D01*
X60938Y91702D01*
X61393Y92007D01*
X61698Y92462D01*
X61805Y93000D01*
X61698Y93538D01*
X61393Y93993D01*
X60938Y94298D01*
X60400Y94405D01*
D02*
G37*
G36*
X29665Y95637D02*
X25335D01*
X24413Y95454D01*
X23632Y94931D01*
X23110Y94150D01*
X22926Y93228D01*
X23110Y92307D01*
X23632Y91525D01*
X24413Y91003D01*
X25335Y90820D01*
X29665D01*
X30587Y91003D01*
X31368Y91525D01*
X31890Y92307D01*
X32074Y93228D01*
X31890Y94150D01*
X31368Y94931D01*
X30587Y95454D01*
X29665Y95637D01*
D02*
G37*
G36*
X12224D02*
X9862D01*
X8941Y95454D01*
X8159Y94931D01*
X7637Y94150D01*
X7454Y93228D01*
X7637Y92307D01*
X8159Y91525D01*
X8941Y91003D01*
X9862Y90820D01*
X12224D01*
X13146Y91003D01*
X13927Y91525D01*
X14449Y92307D01*
X14633Y93228D01*
X14449Y94150D01*
X13927Y94931D01*
X13146Y95454D01*
X12224Y95637D01*
D02*
G37*
G36*
X6727Y86778D02*
X6189Y86671D01*
X5733Y86367D01*
X5429Y85911D01*
X5322Y85373D01*
X5429Y84836D01*
X5733Y84380D01*
X6189Y84075D01*
X6727Y83968D01*
X7264Y84075D01*
X7720Y84380D01*
X8025Y84836D01*
X8132Y85373D01*
X8025Y85911D01*
X7720Y86367D01*
X7264Y86671D01*
X6727Y86778D01*
D02*
G37*
G36*
X73500Y77005D02*
X72962Y76898D01*
X72507Y76593D01*
X72202Y76138D01*
X72095Y75600D01*
X72202Y75062D01*
X72507Y74607D01*
X72962Y74302D01*
X73500Y74195D01*
X74038Y74302D01*
X74493Y74607D01*
X74798Y75062D01*
X74905Y75600D01*
X74798Y76138D01*
X74493Y76593D01*
X74038Y76898D01*
X73500Y77005D01*
D02*
G37*
G36*
X37600Y48985D02*
X36675Y48863D01*
X35813Y48506D01*
X35073Y47938D01*
X34505Y47198D01*
X34148Y46336D01*
X34026Y45411D01*
X34148Y44486D01*
X34505Y43624D01*
X35073Y42884D01*
X35813Y42316D01*
X36675Y41959D01*
X37600Y41837D01*
X38525Y41959D01*
X39387Y42316D01*
X40127Y42884D01*
X40695Y43624D01*
X41052Y44486D01*
X41174Y45411D01*
X41052Y46336D01*
X40695Y47198D01*
X40127Y47938D01*
X39387Y48506D01*
X38525Y48863D01*
X37600Y48985D01*
D02*
G37*
G36*
X218700Y246305D02*
X218162Y246198D01*
X217707Y245893D01*
X217470Y245539D01*
X171968D01*
X171516Y245352D01*
X169786Y243622D01*
X169368Y243705D01*
X168830Y243598D01*
X168374Y243293D01*
X168070Y242838D01*
X167963Y242300D01*
X168070Y241762D01*
X168374Y241307D01*
X168830Y241002D01*
X169368Y240895D01*
X169905Y241002D01*
X170361Y241307D01*
X170666Y241762D01*
X170773Y242300D01*
X170690Y242718D01*
X172232Y244261D01*
X217470D01*
X217707Y243907D01*
X218162Y243602D01*
X218700Y243495D01*
X219238Y243602D01*
X219693Y243907D01*
X219998Y244362D01*
X220105Y244900D01*
X219998Y245438D01*
X219693Y245893D01*
X219238Y246198D01*
X218700Y246305D01*
D02*
G37*
G36*
X225332Y243705D02*
X224795Y243598D01*
X224339Y243293D01*
X224034Y242838D01*
X223927Y242300D01*
X224034Y241762D01*
X224339Y241307D01*
X224795Y241002D01*
X225332Y240895D01*
X225870Y241002D01*
X226326Y241307D01*
X226630Y241762D01*
X226737Y242300D01*
X226630Y242838D01*
X226326Y243293D01*
X225870Y243598D01*
X225332Y243705D01*
D02*
G37*
G36*
X209499D02*
X208961Y243598D01*
X208506Y243293D01*
X208201Y242838D01*
X208094Y242300D01*
X208201Y241762D01*
X208506Y241307D01*
X208961Y241002D01*
X209499Y240895D01*
X210037Y241002D01*
X210492Y241307D01*
X210797Y241762D01*
X210904Y242300D01*
X210797Y242838D01*
X210492Y243293D01*
X210037Y243598D01*
X209499Y243705D01*
D02*
G37*
G36*
X193666D02*
X193128Y243598D01*
X192672Y243293D01*
X192368Y242838D01*
X192261Y242300D01*
X192368Y241762D01*
X192672Y241307D01*
X193128Y241002D01*
X193666Y240895D01*
X194203Y241002D01*
X194659Y241307D01*
X194964Y241762D01*
X195071Y242300D01*
X194964Y242838D01*
X194659Y243293D01*
X194203Y243598D01*
X193666Y243705D01*
D02*
G37*
G36*
X185201D02*
X184663Y243598D01*
X184208Y243293D01*
X183903Y242838D01*
X183796Y242300D01*
X183903Y241762D01*
X184208Y241307D01*
X184663Y241002D01*
X185201Y240895D01*
X185739Y241002D01*
X186195Y241307D01*
X186499Y241762D01*
X186606Y242300D01*
X186499Y242838D01*
X186195Y243293D01*
X185739Y243598D01*
X185201Y243705D01*
D02*
G37*
G36*
X177832D02*
X177295Y243598D01*
X176839Y243293D01*
X176534Y242838D01*
X176427Y242300D01*
X176534Y241762D01*
X176839Y241307D01*
X177295Y241002D01*
X177832Y240895D01*
X178370Y241002D01*
X178826Y241307D01*
X179130Y241762D01*
X179237Y242300D01*
X179130Y242838D01*
X178826Y243293D01*
X178370Y243598D01*
X177832Y243705D01*
D02*
G37*
G36*
X242126Y252895D02*
X240441Y252763D01*
X238798Y252368D01*
X237237Y251722D01*
X235796Y250839D01*
X234511Y249741D01*
X233413Y248456D01*
X232530Y247015D01*
X231884Y245454D01*
X231489Y243811D01*
X231357Y242126D01*
X231489Y240441D01*
X231884Y238798D01*
X232530Y237237D01*
X233413Y235796D01*
X234511Y234511D01*
X235796Y233413D01*
X237237Y232530D01*
X238798Y231884D01*
X240441Y231489D01*
X242126Y231357D01*
X243811Y231489D01*
X245454Y231884D01*
X247015Y232530D01*
X248456Y233413D01*
X249741Y234511D01*
X250839Y235796D01*
X251722Y237237D01*
X252368Y238798D01*
X252763Y240441D01*
X252895Y242126D01*
X252763Y243811D01*
X252368Y245454D01*
X251722Y247015D01*
X250839Y248456D01*
X249741Y249741D01*
X248456Y250839D01*
X247015Y251722D01*
X245454Y252368D01*
X243811Y252763D01*
X242126Y252895D01*
D02*
G37*
G36*
X165800Y206705D02*
X165262Y206598D01*
X164806Y206293D01*
X164502Y205838D01*
X164395Y205300D01*
X164502Y204762D01*
X164806Y204307D01*
X165262Y204002D01*
X165800Y203895D01*
X166338Y204002D01*
X166794Y204307D01*
X167098Y204762D01*
X167205Y205300D01*
X167098Y205838D01*
X166794Y206293D01*
X166338Y206598D01*
X165800Y206705D01*
D02*
G37*
G36*
X170700Y198805D02*
X170162Y198698D01*
X169706Y198393D01*
X169402Y197938D01*
X169295Y197400D01*
X169402Y196862D01*
X169706Y196406D01*
X170162Y196102D01*
X170700Y195995D01*
X171238Y196102D01*
X171694Y196406D01*
X171998Y196862D01*
X172105Y197400D01*
X171998Y197938D01*
X171694Y198393D01*
X171238Y198698D01*
X170700Y198805D01*
D02*
G37*
G36*
X158800Y198305D02*
X158262Y198198D01*
X157807Y197894D01*
X157502Y197438D01*
X157395Y196900D01*
X157502Y196362D01*
X157807Y195906D01*
X158262Y195602D01*
X158800Y195495D01*
X159338Y195602D01*
X159793Y195906D01*
X160098Y196362D01*
X160205Y196900D01*
X160098Y197438D01*
X159793Y197894D01*
X159338Y198198D01*
X158800Y198305D01*
D02*
G37*
G36*
X155900Y183005D02*
X155362Y182898D01*
X154906Y182594D01*
X154602Y182138D01*
X154495Y181600D01*
X154602Y181062D01*
X154906Y180606D01*
X155362Y180302D01*
X155900Y180195D01*
X156438Y180302D01*
X156894Y180606D01*
X157198Y181062D01*
X157305Y181600D01*
X157198Y182138D01*
X156894Y182594D01*
X156438Y182898D01*
X155900Y183005D01*
D02*
G37*
G36*
X167600Y182905D02*
X167062Y182798D01*
X166606Y182493D01*
X166302Y182038D01*
X166195Y181500D01*
X166302Y180962D01*
X166606Y180507D01*
X167062Y180202D01*
X167600Y180095D01*
X168138Y180202D01*
X168594Y180507D01*
X168898Y180962D01*
X169005Y181500D01*
X168898Y182038D01*
X168594Y182493D01*
X168138Y182798D01*
X167600Y182905D01*
D02*
G37*
G36*
X161700Y182705D02*
X161162Y182598D01*
X160706Y182293D01*
X160402Y181838D01*
X160295Y181300D01*
X160402Y180762D01*
X160706Y180306D01*
X161162Y180002D01*
X161700Y179895D01*
X162238Y180002D01*
X162694Y180306D01*
X162998Y180762D01*
X163105Y181300D01*
X162998Y181838D01*
X162694Y182293D01*
X162238Y182598D01*
X161700Y182705D01*
D02*
G37*
G36*
X109500Y239586D02*
X108962Y239479D01*
X108507Y239175D01*
X108202Y238719D01*
X108095Y238181D01*
X108202Y237644D01*
X108507Y237188D01*
X108962Y236883D01*
X109500Y236776D01*
X110038Y236883D01*
X110494Y237188D01*
X110798Y237644D01*
X110905Y238181D01*
X110798Y238719D01*
X110494Y239175D01*
X110038Y239479D01*
X109500Y239586D01*
D02*
G37*
G36*
X137900Y182905D02*
X137362Y182798D01*
X136907Y182493D01*
X136602Y182038D01*
X136495Y181500D01*
X136602Y180962D01*
X136907Y180507D01*
X137362Y180202D01*
X137900Y180095D01*
X138438Y180202D01*
X138893Y180507D01*
X139198Y180962D01*
X139305Y181500D01*
X139198Y182038D01*
X138893Y182493D01*
X138438Y182798D01*
X137900Y182905D01*
D02*
G37*
G36*
X111100Y199105D02*
X110562Y198998D01*
X110107Y198694D01*
X109802Y198238D01*
X109695Y197700D01*
X109802Y197162D01*
X110107Y196706D01*
X110562Y196402D01*
X111100Y196295D01*
X111638Y196402D01*
X112093Y196706D01*
X112398Y197162D01*
X112505Y197700D01*
X112398Y198238D01*
X112093Y198694D01*
X111638Y198998D01*
X111100Y199105D01*
D02*
G37*
G36*
X239500Y199574D02*
X238575Y199452D01*
X237713Y199095D01*
X236973Y198527D01*
X236405Y197787D01*
X236048Y196925D01*
X235926Y196000D01*
X236048Y195075D01*
X236405Y194213D01*
X236973Y193473D01*
X237713Y192905D01*
X238575Y192548D01*
X239500Y192426D01*
X240425Y192548D01*
X241287Y192905D01*
X242027Y193473D01*
X242595Y194213D01*
X242952Y195075D01*
X243074Y196000D01*
X242952Y196925D01*
X242595Y197787D01*
X242027Y198527D01*
X241287Y199095D01*
X240425Y199452D01*
X239500Y199574D01*
D02*
G37*
G36*
X115700Y194905D02*
X115162Y194798D01*
X114707Y194493D01*
X114402Y194038D01*
X114295Y193500D01*
X114402Y192962D01*
X114707Y192507D01*
X115162Y192202D01*
X115700Y192095D01*
X116238Y192202D01*
X116693Y192507D01*
X116998Y192962D01*
X117105Y193500D01*
X116998Y194038D01*
X116693Y194493D01*
X116238Y194798D01*
X115700Y194905D01*
D02*
G37*
G36*
X111150D02*
X110612Y194798D01*
X110157Y194493D01*
X109852Y194038D01*
X109745Y193500D01*
X109852Y192962D01*
X110157Y192507D01*
X110612Y192202D01*
X111150Y192095D01*
X111688Y192202D01*
X112144Y192507D01*
X112448Y192962D01*
X112555Y193500D01*
X112448Y194038D01*
X112144Y194493D01*
X111688Y194798D01*
X111150Y194905D01*
D02*
G37*
G36*
X114600Y189105D02*
X114062Y188998D01*
X113607Y188693D01*
X113302Y188238D01*
X113195Y187700D01*
X113302Y187162D01*
X113607Y186706D01*
X114062Y186402D01*
X114600Y186295D01*
X115138Y186402D01*
X115594Y186706D01*
X115898Y187162D01*
X116005Y187700D01*
X115898Y188238D01*
X115594Y188693D01*
X115138Y188998D01*
X114600Y189105D01*
D02*
G37*
G36*
X239500Y189574D02*
X238575Y189452D01*
X237713Y189095D01*
X236973Y188527D01*
X236405Y187787D01*
X236048Y186925D01*
X235926Y186000D01*
X236048Y185075D01*
X236336Y184380D01*
X236128Y183967D01*
X236030Y183880D01*
X224338D01*
X224101Y184235D01*
X223645Y184539D01*
X223108Y184646D01*
X222570Y184539D01*
X222114Y184235D01*
X221810Y183779D01*
X221703Y183241D01*
X221810Y182704D01*
X222114Y182248D01*
X222570Y181943D01*
X223108Y181836D01*
X223645Y181943D01*
X224101Y182248D01*
X224338Y182602D01*
X236741D01*
X237193Y182789D01*
X237484Y183080D01*
X237713Y182905D01*
X238575Y182548D01*
X239500Y182426D01*
X240425Y182548D01*
X241287Y182905D01*
X242027Y183473D01*
X242595Y184213D01*
X242952Y185075D01*
X243074Y186000D01*
X242952Y186925D01*
X242595Y187787D01*
X242027Y188527D01*
X241287Y189095D01*
X240425Y189452D01*
X239500Y189574D01*
D02*
G37*
G36*
X116600Y186505D02*
X116062Y186398D01*
X115606Y186093D01*
X115302Y185638D01*
X115195Y185100D01*
X115302Y184562D01*
X115606Y184107D01*
X116062Y183802D01*
X116600Y183695D01*
X117138Y183802D01*
X117594Y184107D01*
X117898Y184562D01*
X118005Y185100D01*
X117898Y185638D01*
X117594Y186093D01*
X117138Y186398D01*
X116600Y186505D01*
D02*
G37*
G36*
X126400Y177405D02*
X125862Y177298D01*
X125407Y176994D01*
X125102Y176538D01*
X124995Y176000D01*
X125102Y175462D01*
X125407Y175006D01*
X125862Y174702D01*
X126400Y174595D01*
X126938Y174702D01*
X127393Y175006D01*
X127698Y175462D01*
X127805Y176000D01*
X127698Y176538D01*
X127393Y176994D01*
X126938Y177298D01*
X126400Y177405D01*
D02*
G37*
G36*
X239500Y179574D02*
X238575Y179452D01*
X237713Y179095D01*
X236973Y178527D01*
X236405Y177787D01*
X236048Y176925D01*
X235926Y176000D01*
X236048Y175075D01*
X236405Y174213D01*
X236973Y173473D01*
X237713Y172905D01*
X238575Y172548D01*
X239500Y172426D01*
X240425Y172548D01*
X241287Y172905D01*
X242027Y173473D01*
X242595Y174213D01*
X242952Y175075D01*
X243074Y176000D01*
X242952Y176925D01*
X242595Y177787D01*
X242027Y178527D01*
X241287Y179095D01*
X240425Y179452D01*
X239500Y179574D01*
D02*
G37*
G36*
Y169574D02*
X238575Y169452D01*
X237713Y169095D01*
X236973Y168527D01*
X236405Y167787D01*
X236048Y166925D01*
X235926Y166000D01*
X236048Y165075D01*
X236405Y164213D01*
X236973Y163473D01*
X237713Y162905D01*
X238575Y162548D01*
X239500Y162426D01*
X240425Y162548D01*
X241287Y162905D01*
X242027Y163473D01*
X242595Y164213D01*
X242952Y165075D01*
X243074Y166000D01*
X242952Y166925D01*
X242595Y167787D01*
X242027Y168527D01*
X241287Y169095D01*
X240425Y169452D01*
X239500Y169574D01*
D02*
G37*
G36*
Y159574D02*
X238575Y159452D01*
X237713Y159095D01*
X236973Y158527D01*
X236405Y157787D01*
X236048Y156925D01*
X235926Y156000D01*
X236048Y155075D01*
X236405Y154213D01*
X236973Y153473D01*
X237713Y152905D01*
X238575Y152548D01*
X239500Y152426D01*
X240425Y152548D01*
X241287Y152905D01*
X242027Y153473D01*
X242595Y154213D01*
X242952Y155075D01*
X243074Y156000D01*
X242952Y156925D01*
X242595Y157787D01*
X242027Y158527D01*
X241287Y159095D01*
X240425Y159452D01*
X239500Y159574D01*
D02*
G37*
G36*
X172600Y145505D02*
X172062Y145398D01*
X171607Y145094D01*
X171302Y144638D01*
X171195Y144100D01*
X171302Y143562D01*
X171607Y143106D01*
X172062Y142802D01*
X172600Y142695D01*
X173138Y142802D01*
X173593Y143106D01*
X173898Y143562D01*
X174005Y144100D01*
X173898Y144638D01*
X173593Y145094D01*
X173138Y145398D01*
X172600Y145505D01*
D02*
G37*
G36*
X239500Y149574D02*
X238575Y149452D01*
X237713Y149095D01*
X236973Y148527D01*
X236405Y147787D01*
X236048Y146925D01*
X235926Y146000D01*
X236048Y145075D01*
X236405Y144213D01*
X236973Y143473D01*
X237713Y142905D01*
X238575Y142548D01*
X239500Y142426D01*
X240425Y142548D01*
X241287Y142905D01*
X242027Y143473D01*
X242595Y144213D01*
X242952Y145075D01*
X243074Y146000D01*
X242952Y146925D01*
X242595Y147787D01*
X242027Y148527D01*
X241287Y149095D01*
X240425Y149452D01*
X239500Y149574D01*
D02*
G37*
G36*
X222500Y130405D02*
X221962Y130298D01*
X221507Y129993D01*
X221202Y129538D01*
X221095Y129000D01*
X221202Y128462D01*
X221507Y128006D01*
X221962Y127702D01*
X222500Y127595D01*
X222918Y127678D01*
X235121Y115475D01*
Y114451D01*
X235308Y113999D01*
X238861Y110446D01*
Y109490D01*
X238575Y109452D01*
X237713Y109095D01*
X236973Y108527D01*
X236405Y107787D01*
X236048Y106925D01*
X235926Y106000D01*
X236048Y105075D01*
X236405Y104213D01*
X236973Y103473D01*
X237713Y102905D01*
X238575Y102548D01*
X239500Y102426D01*
X240425Y102548D01*
X241287Y102905D01*
X242027Y103473D01*
X242595Y104213D01*
X242952Y105075D01*
X243074Y106000D01*
X242952Y106925D01*
X242595Y107787D01*
X242027Y108527D01*
X241287Y109095D01*
X240425Y109452D01*
X240139Y109490D01*
Y110711D01*
X239952Y111163D01*
X239146Y111968D01*
X239380Y112442D01*
X239500Y112426D01*
X240425Y112548D01*
X241287Y112905D01*
X242027Y113473D01*
X242595Y114213D01*
X242952Y115075D01*
X243074Y116000D01*
X242952Y116925D01*
X242595Y117787D01*
X242027Y118527D01*
X241287Y119095D01*
X240425Y119452D01*
X239500Y119574D01*
X238575Y119452D01*
X237713Y119095D01*
X237484Y118920D01*
X229961Y126443D01*
X229994Y126769D01*
X230298Y127225D01*
X230405Y127762D01*
X230298Y128300D01*
X229993Y128756D01*
X229538Y129060D01*
X229000Y129167D01*
X228462Y129060D01*
X228007Y128756D01*
X227702Y128300D01*
X227595Y127762D01*
X227702Y127225D01*
X228007Y126769D01*
X228443Y126477D01*
Y126418D01*
X228630Y125966D01*
X236580Y118016D01*
X236405Y117787D01*
X236088Y117023D01*
X235586Y116818D01*
X223822Y128582D01*
X223905Y129000D01*
X223798Y129538D01*
X223493Y129993D01*
X223038Y130298D01*
X222500Y130405D01*
D02*
G37*
G36*
X225100Y101105D02*
X224562Y100998D01*
X224107Y100693D01*
X223802Y100238D01*
X223695Y99700D01*
X223802Y99162D01*
X224107Y98707D01*
X224562Y98402D01*
X225100Y98295D01*
X225638Y98402D01*
X226093Y98707D01*
X226398Y99162D01*
X226505Y99700D01*
X226398Y100238D01*
X226093Y100693D01*
X225638Y100998D01*
X225100Y101105D01*
D02*
G37*
G36*
X144000Y88664D02*
X143462Y88557D01*
X143007Y88253D01*
X142702Y87797D01*
X142595Y87259D01*
X142702Y86721D01*
X143007Y86266D01*
X143462Y85961D01*
X144000Y85854D01*
X144538Y85961D01*
X144993Y86266D01*
X145298Y86721D01*
X145405Y87259D01*
X145298Y87797D01*
X144993Y88253D01*
X144538Y88557D01*
X144000Y88664D01*
D02*
G37*
G36*
X101984Y31570D02*
X101063Y31387D01*
X100281Y30865D01*
X99759Y30083D01*
X99576Y29161D01*
X99759Y28240D01*
X100281Y27458D01*
X101063Y26936D01*
X101984Y26753D01*
X102906Y26936D01*
X103687Y27458D01*
X104209Y28240D01*
X104393Y29161D01*
X104209Y30083D01*
X103687Y30865D01*
X102906Y31387D01*
X101984Y31570D01*
D02*
G37*
G36*
X41792Y18755D02*
Y15492D01*
X45055D01*
X44990Y15989D01*
X44608Y16910D01*
X44001Y17701D01*
X43210Y18308D01*
X42289Y18690D01*
X41792Y18755D01*
D02*
G37*
G36*
X40808D02*
X40311Y18690D01*
X39390Y18308D01*
X38599Y17701D01*
X37992Y16910D01*
X37610Y15989D01*
X37545Y15492D01*
X40808D01*
Y18755D01*
D02*
G37*
G36*
X72992Y16798D02*
Y12992D01*
X76272D01*
Y13091D01*
X76144Y14067D01*
X75767Y14977D01*
X75168Y15758D01*
X74386Y16358D01*
X73476Y16734D01*
X72992Y16798D01*
D02*
G37*
G36*
X72008D02*
X71524Y16734D01*
X70614Y16358D01*
X69832Y15758D01*
X69233Y14977D01*
X68856Y14067D01*
X68728Y13091D01*
Y12992D01*
X72008D01*
Y16798D01*
D02*
G37*
G36*
X51300Y18423D02*
X50414Y18306D01*
X49589Y17964D01*
X48880Y17420D01*
X48336Y16712D01*
X47994Y15886D01*
X47877Y15000D01*
X47994Y14114D01*
X48336Y13288D01*
X48880Y12580D01*
X49589Y12036D01*
X50414Y11694D01*
X51300Y11577D01*
X52186Y11694D01*
X53012Y12036D01*
X53720Y12580D01*
X54264Y13288D01*
X54606Y14114D01*
X54723Y15000D01*
X54606Y15886D01*
X54264Y16712D01*
X53720Y17420D01*
X53012Y17964D01*
X52186Y18306D01*
X51300Y18423D01*
D02*
G37*
G36*
X45055Y14508D02*
X41792D01*
Y11245D01*
X42289Y11310D01*
X43210Y11692D01*
X44001Y12299D01*
X44608Y13090D01*
X44990Y14011D01*
X45055Y14508D01*
D02*
G37*
G36*
X40808D02*
X37545D01*
X37610Y14011D01*
X37992Y13090D01*
X38599Y12299D01*
X39390Y11692D01*
X40311Y11310D01*
X40808Y11245D01*
Y14508D01*
D02*
G37*
G36*
X164118Y166382D02*
X163580Y166275D01*
X163124Y165971D01*
X162820Y165515D01*
X162713Y164977D01*
X162820Y164439D01*
X163124Y163984D01*
X163580Y163679D01*
X164118Y163572D01*
X164655Y163679D01*
X165111Y163984D01*
X165416Y164439D01*
X165523Y164977D01*
X165416Y165515D01*
X165111Y165971D01*
X164655Y166275D01*
X164118Y166382D01*
D02*
G37*
G36*
X239500Y89574D02*
X238575Y89452D01*
X237713Y89095D01*
X236973Y88527D01*
X236405Y87787D01*
X236048Y86925D01*
X235926Y86000D01*
X236048Y85075D01*
X236405Y84213D01*
X236973Y83473D01*
X237713Y82905D01*
X238575Y82548D01*
X239500Y82426D01*
X240425Y82548D01*
X241287Y82905D01*
X242027Y83473D01*
X242595Y84213D01*
X242952Y85075D01*
X243074Y86000D01*
X242952Y86925D01*
X242595Y87787D01*
X242027Y88527D01*
X241287Y89095D01*
X240425Y89452D01*
X239500Y89574D01*
D02*
G37*
G36*
X241000Y77405D02*
X240462Y77298D01*
X240007Y76993D01*
X239702Y76538D01*
X239595Y76000D01*
X239702Y75462D01*
X240007Y75007D01*
X240462Y74702D01*
X241000Y74595D01*
X241538Y74702D01*
X241993Y75007D01*
X242298Y75462D01*
X242405Y76000D01*
X242298Y76538D01*
X241993Y76993D01*
X241538Y77298D01*
X241000Y77405D01*
D02*
G37*
G36*
X249300Y53005D02*
X248762Y52898D01*
X248307Y52593D01*
X248002Y52138D01*
X247895Y51600D01*
X248002Y51062D01*
X248307Y50607D01*
X248762Y50302D01*
X249300Y50195D01*
X249838Y50302D01*
X250293Y50607D01*
X250598Y51062D01*
X250705Y51600D01*
X250598Y52138D01*
X250293Y52593D01*
X249838Y52898D01*
X249300Y53005D01*
D02*
G37*
G36*
X9300Y31505D02*
X8762Y31398D01*
X8307Y31093D01*
X8002Y30638D01*
X7895Y30100D01*
X8002Y29562D01*
X8307Y29107D01*
X8762Y28802D01*
X9300Y28695D01*
X9838Y28802D01*
X10293Y29107D01*
X10598Y29562D01*
X10705Y30100D01*
X10598Y30638D01*
X10293Y31093D01*
X9838Y31398D01*
X9300Y31505D01*
D02*
G37*
G36*
X133480Y31570D02*
X132559Y31387D01*
X131777Y30865D01*
X131255Y30083D01*
X131072Y29161D01*
X131255Y28240D01*
X131777Y27458D01*
X132559Y26936D01*
X133480Y26753D01*
X134402Y26936D01*
X135183Y27458D01*
X135705Y28240D01*
X135889Y29161D01*
X135705Y30083D01*
X135183Y30865D01*
X134402Y31387D01*
X133480Y31570D01*
D02*
G37*
G36*
X242126Y24549D02*
X240441Y24416D01*
X238798Y24022D01*
X237237Y23375D01*
X235796Y22492D01*
X234511Y21395D01*
X233413Y20110D01*
X232530Y18669D01*
X231884Y17108D01*
X231489Y15464D01*
X231357Y13780D01*
X231489Y12095D01*
X231884Y10452D01*
X232530Y8890D01*
X233413Y7449D01*
X234511Y6164D01*
X235796Y5067D01*
X237237Y4184D01*
X238798Y3537D01*
X240441Y3143D01*
X242126Y3010D01*
X243811Y3143D01*
X245454Y3537D01*
X247015Y4184D01*
X248456Y5067D01*
X249741Y6164D01*
X250839Y7449D01*
X251722Y8890D01*
X252368Y10452D01*
X252763Y12095D01*
X252895Y13780D01*
X252763Y15464D01*
X252368Y17108D01*
X251722Y18669D01*
X250839Y20110D01*
X249741Y21395D01*
X248456Y22492D01*
X247015Y23375D01*
X245454Y24022D01*
X243811Y24416D01*
X242126Y24549D01*
D02*
G37*
%LPD*%
D10*
X53500Y155000D02*
X75975D01*
X47300Y148800D02*
X53500Y155000D01*
D12*
X255906Y242126D02*
G03*
X242126Y255906I-13780J0D01*
G01*
Y0D02*
G03*
X255906Y13780I0J13780D01*
G01*
X0D02*
G03*
X13780Y0I13780J0D01*
G01*
Y255906D02*
G03*
X0Y242126I0J-13780D01*
G01*
X13780Y0D02*
X242126D01*
X255906Y13780D02*
Y242126D01*
X13780Y255906D02*
X242126D01*
X0Y13780D02*
Y242126D01*
D17*
X137999Y78607D02*
Y157337D01*
X137212Y78933D02*
Y157011D01*
X136424Y82870D02*
Y156557D01*
X135637Y84445D02*
Y156231D01*
X134850Y86020D02*
Y155904D01*
X134062Y87594D02*
Y155578D01*
X133275Y92654D02*
Y132825D01*
X124900Y141200D02*
X133275Y132825D01*
X92221Y51600D02*
X133275Y92654D01*
X102595Y187046D02*
X134062Y155578D01*
X109268Y62800D02*
X134062Y87594D01*
X103382Y187372D02*
X134850Y155904D01*
X111630Y62800D02*
X134850Y86020D01*
X104170Y187698D02*
X135637Y156231D01*
X113992Y62800D02*
X135637Y84445D01*
X104957Y188024D02*
X136424Y156557D01*
X116354Y62800D02*
X136424Y82870D01*
X106532Y187691D02*
X137212Y157011D01*
X121079Y62800D02*
X137212Y78933D01*
X107319Y188017D02*
X137999Y157337D01*
X136785Y77393D02*
X137999Y78607D01*
X107319Y188017D02*
Y217908D01*
X106532Y187691D02*
Y216168D01*
X203386Y156358D02*
X203386D01*
X208187Y94413D02*
Y151557D01*
X203386Y156358D02*
X208187Y151557D01*
X207400Y94086D02*
Y151231D01*
X203060Y155571D02*
X207400Y151231D01*
X203060Y155571D02*
X203060D01*
X201544Y158200D02*
X203386Y156358D01*
X203031Y155600D02*
X203060Y155571D01*
X198788Y158200D02*
X201388Y155600D01*
X203031D01*
X140891Y168025D02*
X196338D01*
X198788Y158200D02*
Y165576D01*
X196338Y168025D02*
X198788Y165576D01*
X204300Y158200D02*
Y165400D01*
X201544Y158200D02*
Y165400D01*
X198132Y168813D02*
X201544Y165400D01*
X153903Y153900D02*
X202500D01*
X207400Y94086D02*
X211336Y90150D01*
X208187Y94413D02*
X213702Y88898D01*
X221200Y189981D02*
Y197500D01*
X214813Y183593D02*
X221200Y189981D01*
X214813Y182413D02*
Y183593D01*
X205800Y173400D02*
X214813Y182413D01*
X111152Y227913D02*
X120374Y218691D01*
X103000Y229488D02*
X104575Y227913D01*
X120374Y199960D02*
Y218691D01*
X104575Y227913D02*
X111152D01*
X200100Y169600D02*
X204300Y165400D01*
X141544Y169600D02*
X200100D01*
X123624Y187519D02*
Y196710D01*
X120374Y199960D02*
X123624Y196710D01*
Y187519D02*
X141544Y169600D01*
X211336Y89037D02*
Y90150D01*
X110500Y226339D02*
X118800Y218039D01*
X104575Y226339D02*
X110500D01*
X118800Y199308D02*
Y218039D01*
X103000Y224764D02*
X104575Y226339D01*
X122050Y186867D02*
Y196057D01*
X118800Y199308D02*
X122050Y196057D01*
Y186867D02*
X140891Y168025D01*
X213702Y86936D02*
Y88898D01*
X110826Y227126D02*
X119587Y218365D01*
X103000Y227126D02*
X110826D01*
X119587Y199634D02*
X122837Y196384D01*
X119587Y199634D02*
Y218365D01*
X122837Y187193D02*
X141217Y168813D01*
X122837Y187193D02*
Y196384D01*
X141217Y168813D02*
X198132D01*
X121262Y186541D02*
Y195731D01*
X120475Y186215D02*
X154389Y152300D01*
X120475Y186215D02*
Y195405D01*
X121262Y186541D02*
X153903Y153900D01*
X154389Y152300D02*
X200800D01*
X202500Y150600D01*
X195600Y142300D02*
Y150362D01*
X195562Y150400D02*
X195600Y150362D01*
X193200Y142300D02*
Y150400D01*
X162986Y192800D02*
X179300D01*
X161740Y192933D02*
X175590Y179082D01*
X147567Y192933D02*
X161740D01*
X144575Y195925D02*
X147567Y192933D01*
X162066Y193720D02*
X162986Y192800D01*
X155929Y193720D02*
X162066D01*
X151499Y198150D02*
X155929Y193720D01*
X92547Y50813D02*
X104534Y62800D01*
X92873Y50025D02*
X103705Y60857D01*
X55800Y23200D02*
X82625Y50025D01*
X73800Y46800D02*
X77813Y50813D01*
X104534Y62800D02*
X109218D01*
X103705Y60857D02*
X109687D01*
X77813Y50813D02*
X92547D01*
X82625Y50025D02*
X92873D01*
X29400Y51600D02*
X92221D01*
X80485Y229839D02*
Y239431D01*
X83653Y227433D02*
X85051Y226035D01*
X82322Y241268D02*
X85395D01*
X82891Y227433D02*
X83653D01*
X80485Y239431D02*
X82322Y241268D01*
X80485Y229839D02*
X82891Y227433D01*
X18013Y219513D02*
X41706Y243206D01*
X18800Y219186D02*
X42033Y242419D01*
X41706Y243206D02*
X65543D01*
X42033Y242419D02*
X65243D01*
X140636Y251123D02*
X141314Y251801D01*
Y251839D01*
X142237Y252762D01*
X143541D01*
X144464Y251839D01*
Y250535D02*
Y251839D01*
X143885Y249956D02*
X144464Y250535D01*
X143885Y243157D02*
Y249956D01*
X142889Y250734D02*
Y251187D01*
X142712Y250557D02*
X142889Y250734D01*
X142712Y250557D02*
X142930Y250340D01*
Y241842D02*
Y250340D01*
X143885Y243157D02*
X144575Y242467D01*
X138413Y242981D02*
Y243028D01*
X142213Y194947D02*
Y240295D01*
X84390Y249390D02*
X132051D01*
X141425Y194621D02*
Y239969D01*
X141065Y242556D02*
Y247600D01*
X138413Y242981D02*
X141425Y239969D01*
X139200Y243307D02*
X142213Y240295D01*
X141065Y242556D02*
X143000Y240621D01*
Y195273D02*
Y240621D01*
X139200Y243307D02*
Y245900D01*
X143787Y195599D02*
Y240985D01*
X142930Y241842D02*
X143787Y240985D01*
X144575Y195925D02*
Y242467D01*
X132051Y249390D02*
X138413Y243028D01*
X140638Y194294D02*
X142925Y192007D01*
X143787Y195599D02*
X146075Y193312D01*
X143000Y195273D02*
X145287Y192985D01*
X136231Y242983D02*
X140638Y238576D01*
Y194294D02*
Y238576D01*
X141425Y194621D02*
X143713Y192333D01*
X142213Y194947D02*
X144500Y192659D01*
X142138Y174300D02*
X143713Y175875D01*
X125400Y224600D02*
X138778D01*
X143713Y175875D02*
Y192333D01*
X138450Y234350D02*
X138500Y234300D01*
X128850Y234350D02*
X138450D01*
X146075Y177450D02*
Y193312D01*
X145287Y175875D02*
Y192985D01*
X142925Y177450D02*
Y192007D01*
X144500Y174300D02*
Y192659D01*
X139776Y174300D02*
X142925Y177450D01*
X149924Y204030D02*
X151481Y205586D01*
X149924Y196540D02*
Y204030D01*
X112000Y137600D02*
X119612D01*
X128897Y128315D02*
Y128315D01*
X119612Y137600D02*
X128897Y128315D01*
X96260Y208015D02*
X97848Y209602D01*
X97060Y211021D02*
Y228665D01*
X93887Y207848D02*
Y207848D01*
X97060Y211021D01*
X96260Y207994D02*
Y208015D01*
X94725Y231000D02*
Y232750D01*
Y231000D02*
X97060Y228665D01*
X96300Y231800D02*
X97848Y230252D01*
Y209602D02*
Y230252D01*
X96095Y234120D02*
Y234195D01*
X94725Y232750D02*
X96095Y234120D01*
X91499Y200201D02*
Y219489D01*
X93740Y221730D02*
Y234940D01*
X91499Y219489D02*
X93740Y221730D01*
X232977Y214497D02*
X233175D01*
X231915Y215559D02*
X232977Y214497D01*
X216137Y201063D02*
X222775D01*
X215600Y183267D02*
X225700Y193367D01*
X215600Y85000D02*
Y183267D01*
X223108Y183241D02*
X236741D01*
X239500Y186000D01*
X175590Y179082D02*
X192397D01*
X212487Y190994D02*
Y197487D01*
X195835Y173100D02*
X195934Y173199D01*
Y174441D01*
X212487Y190994D01*
X211700Y191327D02*
Y197814D01*
X193473Y173100D02*
X211700Y191327D01*
X217349Y203462D02*
X224152D01*
X211700Y197814D02*
X217349Y203462D01*
X204200Y73600D02*
X215600Y85000D01*
X205870Y71930D02*
X217962Y84022D01*
X225727Y202810D02*
Y204115D01*
X225700Y202783D02*
X225727Y202810D01*
X225700Y193367D02*
Y202783D01*
Y204141D02*
X225727Y204115D01*
X225700Y204141D02*
Y212262D01*
X216100Y201100D02*
X216137Y201063D01*
X108058Y142063D02*
Y174730D01*
X193100Y142200D02*
X193200Y142300D01*
X108845Y138477D02*
Y141276D01*
X108058Y142063D02*
X108845Y141276D01*
X81400Y201388D02*
X108058Y174730D01*
X104486Y139686D02*
X104487D01*
X82688Y224688D02*
Y224700D01*
X81232Y223232D02*
X82688Y224688D01*
X81232Y220423D02*
Y223232D01*
X79784Y216600D02*
X81400Y214985D01*
Y201388D02*
Y214985D01*
X79784Y218975D02*
X81232Y220423D01*
X79784Y216600D02*
Y218975D01*
X106618Y137555D02*
X107923D01*
X104487Y139686D02*
X106618Y137555D01*
X107923D02*
X108845Y138477D01*
X80612Y201062D02*
X107270Y174404D01*
Y139130D02*
Y174404D01*
X80307Y220612D02*
Y224600D01*
X78997Y219302D02*
X80307Y220612D01*
X78997Y216274D02*
X80612Y214659D01*
Y201062D02*
Y214659D01*
X78997Y216274D02*
Y219302D01*
X212487Y197487D02*
X216100Y201100D01*
X226487Y200454D02*
X235774Y209740D01*
X217962Y84022D02*
Y184516D01*
X226487Y193041D01*
Y200454D01*
X235774Y209740D02*
X241769D01*
X211000Y109600D02*
Y163274D01*
X144213Y170387D02*
X203887D01*
X211000Y163274D01*
X91499Y200201D02*
X93970Y197730D01*
X56600Y249500D02*
X70667D01*
X74167Y252999D01*
X83155D01*
X71376Y247925D02*
X71384D01*
X73045Y250700D02*
X79900D01*
X71058Y248713D02*
X73045Y250700D01*
X73372Y249913D02*
X78460D01*
X71384Y247925D02*
X73372Y249913D01*
X71050Y248713D02*
X71058D01*
X65869Y242419D02*
X71376Y247925D01*
X65543Y243206D02*
X71050Y248713D01*
X65243Y242419D02*
X65869D01*
X26035Y21335D02*
X33075Y28375D01*
Y38125D01*
X124900Y157500D02*
Y162342D01*
Y141200D02*
Y157500D01*
X111630Y62800D02*
Y62800D01*
X109687Y60857D02*
X111630Y62800D01*
X109218Y62800D02*
X109268Y62750D01*
X119700Y230300D02*
X125400Y224600D01*
X119700Y230300D02*
Y241000D01*
X115100Y245600D02*
X119700Y241000D01*
X91600Y245600D02*
X115100D01*
X96300Y237500D02*
Y241300D01*
X90700Y246500D02*
X91600Y245600D01*
X83400Y246500D02*
X90700D01*
X80407Y242891D02*
X81329Y243814D01*
Y244429D01*
X83200Y245000D02*
X87900D01*
X77748Y243219D02*
X77955Y243012D01*
X78981D01*
X81329Y244429D02*
X83400Y246500D01*
X79300Y241100D02*
X80304Y242104D01*
X80733D01*
X82117Y243488D01*
Y243917D02*
X83200Y245000D01*
X82117Y243488D02*
Y243917D01*
X78981Y243012D02*
X79102Y242891D01*
X80407D01*
X79754Y244754D02*
X84390Y249390D01*
X79754Y244466D02*
Y244754D01*
X244789Y136000D02*
X249500D01*
X241049Y139740D02*
X244789Y136000D01*
X238860Y139740D02*
X241049D01*
X233200Y145400D02*
X238860Y139740D01*
X224505Y142947D02*
X237712Y129740D01*
X241049D01*
X224505Y142947D02*
Y169883D01*
X244789Y126000D02*
X249500D01*
X241049Y129740D02*
X244789Y126000D01*
X149924Y196540D02*
X150000Y196465D01*
X85031Y251123D02*
X140636D01*
X245636Y107425D02*
X249500Y111289D01*
X245636Y103837D02*
Y107425D01*
X242240Y100441D02*
X245636Y103837D01*
X238651Y100441D02*
X242240D01*
X235760Y97549D02*
X238651Y100441D01*
X224500Y81414D02*
Y86289D01*
X235760Y97549D02*
Y97549D01*
X224500Y86289D02*
X235760Y97549D01*
X191903Y48816D02*
X224500Y81414D01*
X100707Y10887D02*
X138636Y48816D01*
X191903D01*
X100959Y10026D02*
X138962Y48029D01*
X192229D01*
X236460Y92260D01*
X79117Y10887D02*
X100707D01*
X79369Y10026D02*
X100959D01*
X76300Y8071D02*
X79117Y10887D01*
X32640Y8071D02*
X76300D01*
X76626Y7283D02*
X79369Y10026D01*
X32314Y7283D02*
X76626D01*
X25200Y14397D02*
Y21800D01*
Y14397D02*
X32314Y7283D01*
X26035Y14676D02*
Y21335D01*
Y14676D02*
X32640Y8071D01*
X31500Y39700D02*
X33075Y38125D01*
X25200Y21800D02*
X31500Y28100D01*
Y37338D01*
X236460Y92260D02*
X241049D01*
X249500Y111289D02*
Y116000D01*
Y105300D02*
Y106000D01*
X243240Y99040D02*
X249500Y105300D01*
X243240Y94451D02*
Y99040D01*
X241049Y92260D02*
X243240Y94451D01*
X239500Y106000D02*
Y110711D01*
X235760Y114451D02*
X239500Y110711D01*
X235760Y114451D02*
Y115740D01*
X222500Y129000D02*
X235760Y115740D01*
X104125Y215475D02*
X104400Y215200D01*
X104125Y215475D02*
Y217952D01*
X111500Y204380D02*
X120475Y195405D01*
X111500Y204380D02*
Y217000D01*
X112287Y204706D02*
Y217326D01*
Y204706D02*
X121262Y195731D01*
X102595Y187046D02*
Y203699D01*
X99838Y206456D02*
X102595Y203699D01*
X103382Y187372D02*
Y205712D01*
X100625Y208469D02*
Y208700D01*
Y208469D02*
X103382Y205712D01*
X37700Y23200D02*
X55800D01*
X29500Y15000D02*
X37700Y23200D01*
X109126Y220487D02*
X112287Y217326D01*
X100792Y220487D02*
X109126D01*
X108800Y219700D02*
X111500Y217000D01*
X98695Y218391D02*
X100792Y220487D01*
X101118Y219700D02*
X108800D01*
X99482Y218065D02*
X101118Y219700D01*
X98695Y207599D02*
Y218391D01*
Y207599D02*
X99838Y206456D01*
X99482Y209843D02*
Y218065D01*
Y209843D02*
X100625Y208700D01*
X142138Y172462D02*
X144213Y170387D01*
X142138Y172462D02*
Y174300D01*
X104675Y144896D02*
Y157725D01*
X84079Y124300D02*
X104675Y144896D01*
X126764Y159511D02*
Y161592D01*
Y159511D02*
X127242Y159032D01*
X82187Y201714D02*
Y215311D01*
X84760Y201368D02*
X123198Y162930D01*
X123986Y163256D02*
Y163256D01*
X82187Y201714D02*
X108845Y175056D01*
X82974Y202041D02*
Y215637D01*
X86335Y202020D02*
Y216235D01*
X123986Y163256D02*
X124900Y162342D01*
X85548Y201694D02*
X123986Y163256D01*
X84760Y201368D02*
Y216078D01*
X85548Y201694D02*
Y217801D01*
X86335Y202020D02*
X126764Y161592D01*
X82974Y202041D02*
X109633Y175382D01*
X80823Y216674D02*
X82187Y215311D01*
X81611Y217001D02*
X82974Y215637D01*
X239500Y216000D02*
X242000Y213500D01*
Y209971D02*
Y213500D01*
X241769Y209740D02*
X242000Y209971D01*
X233839Y211400D02*
X239800D01*
X231166Y214073D02*
X233839Y211400D01*
X68484Y190029D02*
X70357Y188157D01*
X68484Y190029D02*
Y192046D01*
X153918Y214073D02*
X231166D01*
X152900Y215559D02*
X231915D01*
X154475Y216347D02*
X234557D01*
X153042Y213197D02*
X153918Y214073D01*
X229082Y126418D02*
X239500Y116000D01*
X229082Y126418D02*
Y127680D01*
X229000Y127762D02*
X229082Y127680D01*
X104170Y187698D02*
Y208830D01*
X102200Y210800D02*
X104170Y208830D01*
X136785Y76279D02*
Y77393D01*
X121731Y61225D02*
X136785Y76279D01*
X120426Y61225D02*
X121731D01*
X105048Y218875D02*
X106352D01*
X107319Y217908D01*
X104125Y217952D02*
X105048Y218875D01*
X118717Y62800D02*
X118852D01*
X120426Y61225D01*
X102825Y213078D02*
X103175D01*
X104957Y211296D01*
Y188024D02*
Y211296D01*
X234557Y216347D02*
X237951Y219740D01*
X152900Y213197D02*
X153042D01*
X244700Y200800D02*
X249500Y196000D01*
X244700Y200800D02*
Y215000D01*
X152900Y217921D02*
X154475Y216347D01*
X243240Y216460D02*
X244700Y215000D01*
X241049Y219740D02*
X243240Y217549D01*
X237951Y219740D02*
X241049D01*
X243240Y216460D02*
Y217549D01*
X125233Y96532D02*
X129600Y100900D01*
X109633Y96532D02*
X125233D01*
X171968Y244900D02*
X218700D01*
X169368Y242300D02*
X171968Y244900D01*
X252376Y229740D02*
X253346Y228769D01*
X229060Y229740D02*
X252376D01*
X216900Y241900D02*
X229060Y229740D01*
X253346Y189847D02*
Y228769D01*
X249500Y186000D02*
X253346Y189847D01*
X146075Y177450D02*
X149224Y174300D01*
X145287Y175875D02*
X146862Y174300D01*
X136231Y242983D02*
Y242983D01*
X151499Y198150D02*
Y200738D01*
X104675Y157725D02*
X105300Y157100D01*
Y156200D02*
Y157100D01*
X122805Y162210D02*
X122815Y162200D01*
X74161Y139600D02*
X74462Y139901D01*
X88276Y154400D02*
X103100D01*
X74462Y140586D02*
X88276Y154400D01*
X74462Y139901D02*
Y140586D01*
X77525Y139700D02*
Y142185D01*
X88372Y153032D01*
X100868D01*
X88428Y151316D02*
X99110D01*
X80675Y139700D02*
Y143562D01*
X88428Y151316D01*
X100868Y153032D02*
X101100Y152800D01*
X84239Y142849D02*
X91091Y149700D01*
X97200D02*
X97300Y149600D01*
X91091Y149700D02*
X97200D01*
X95487Y147987D02*
X95500Y148000D01*
X91637Y147987D02*
X95487D01*
X91234Y146400D02*
X93700D01*
X84239Y139600D02*
Y142849D01*
X86425Y138650D02*
Y142776D01*
X91637Y147987D01*
X91468Y144406D02*
X91631Y144569D01*
X88000Y142052D02*
X90354Y144406D01*
X88000Y137998D02*
Y142052D01*
X87213Y138324D02*
Y142378D01*
X90354Y144406D02*
X91468D01*
X87213Y142378D02*
X91234Y146400D01*
X122805Y162537D02*
X123198Y162930D01*
X122805Y162210D02*
Y162537D01*
X108845Y143733D02*
Y175056D01*
X109633Y145225D02*
Y175382D01*
X86335Y216235D02*
X87780Y217680D01*
X83186Y217653D02*
X84760Y216078D01*
X87780Y217680D02*
X87907D01*
X81611Y218551D02*
X82807Y219746D01*
X80823Y218901D02*
X82019Y220097D01*
X80823Y216674D02*
Y218901D01*
X81611Y217001D02*
Y218551D01*
X83186Y217653D02*
Y217776D01*
X109633Y96532D02*
Y139729D01*
X93970Y197100D02*
Y197730D01*
X82807Y219746D02*
Y221089D01*
X82019Y220097D02*
Y221415D01*
X84263Y223659D01*
X83327Y226646D02*
X84263Y225709D01*
Y223659D02*
Y225709D01*
X82807Y221089D02*
X85051Y223333D01*
Y226035D01*
X82565Y226646D02*
X83327D01*
X18800Y147686D02*
Y219186D01*
X80675Y139700D02*
X80775Y139600D01*
X74000Y126225D02*
X86425Y138650D01*
X77465Y128576D02*
X87213Y138324D01*
X80614Y130612D02*
X88000Y137998D01*
X109633Y145225D02*
X111207Y143650D01*
Y141304D02*
Y143650D01*
X109633Y139729D02*
X111207Y141304D01*
X102600Y89500D02*
X109633Y96532D01*
X77465Y124300D02*
Y128576D01*
X74000Y124300D02*
Y126225D01*
X80614Y124300D02*
Y130612D01*
X77525Y139700D02*
X77625Y139600D01*
X109633Y142715D02*
Y142946D01*
X108845Y143733D02*
X109633Y142946D01*
X105700Y217000D02*
X106532Y216168D01*
X105700Y217000D02*
Y217300D01*
X93740Y234940D02*
X96300Y237500D01*
X70100Y241100D02*
X79300D01*
X94725Y238152D02*
Y238175D01*
X87900Y245000D02*
X94725Y238175D01*
X79698Y239757D02*
X83207Y243267D01*
X79698Y229513D02*
X82565Y226646D01*
X79698Y229513D02*
Y239757D01*
X83207Y243267D02*
X84833D01*
X85000Y243100D01*
X87400D02*
Y243260D01*
X87394Y243267D02*
X87400Y243260D01*
X85395Y241268D02*
X87394Y243267D01*
X69400Y240079D02*
X70157Y240837D01*
X69400Y233500D02*
Y240079D01*
X82300Y250873D02*
Y251400D01*
X15549Y37338D02*
X31500D01*
X2869Y50017D02*
X15549Y37338D01*
X14300Y39700D02*
X31500D01*
X3657Y50343D02*
X14300Y39700D01*
X2869Y50017D02*
Y132869D01*
X3657Y50343D02*
Y132543D01*
X18800Y147686D01*
X2869Y132869D02*
X18013Y148013D01*
Y219513D01*
X80552Y249125D02*
X82300Y250873D01*
X78460Y249913D02*
X79248Y249125D01*
X80552D01*
X83155Y252999D02*
X85031Y251123D01*
X73300Y200000D02*
X73475D01*
X41200Y220000D02*
X47400Y226200D01*
X22500Y220000D02*
X41200D01*
X43300Y219500D02*
X43362Y219438D01*
Y204739D02*
Y219438D01*
X50900Y204700D02*
Y219624D01*
X51076Y219800D01*
X52903Y231697D02*
Y233892D01*
Y231697D02*
X64500Y220100D01*
X71059D01*
Y202241D02*
Y220100D01*
Y202241D02*
X73300Y200000D01*
X53035Y219397D02*
X53300Y219132D01*
X55665Y219665D02*
X55800Y219800D01*
X55665Y204542D02*
Y219665D01*
X53035Y219397D02*
X53438Y219800D01*
X53300Y204600D02*
Y219132D01*
X128800Y234400D02*
X128850Y234350D01*
X26000Y109300D02*
Y113200D01*
D35*
X12000Y199495D02*
D03*
Y211305D02*
D03*
D150*
X11043Y93228D02*
D03*
Y127244D02*
D03*
D151*
X27500Y93228D02*
D03*
Y127244D02*
D03*
D152*
X25413Y98858D02*
D03*
Y121614D02*
D03*
D153*
X31300Y15000D02*
D03*
X41300D02*
D03*
X51300D02*
D03*
D154*
X242126Y242126D02*
D03*
Y13780D02*
D03*
X13780Y242126D02*
D03*
Y13780D02*
D03*
D155*
X124500Y209047D02*
D03*
Y237000D02*
D03*
D156*
X72500Y12500D02*
D03*
X62500D02*
D03*
D157*
X239500Y176000D02*
D03*
X249500Y226000D02*
D03*
X239500Y216000D02*
D03*
X249500D02*
D03*
X239500Y206000D02*
D03*
X249500D02*
D03*
X239500Y196000D02*
D03*
X249500D02*
D03*
X239500Y186000D02*
D03*
X249500D02*
D03*
Y176000D02*
D03*
X239500Y166000D02*
D03*
X249500D02*
D03*
X239500Y156000D02*
D03*
X249500D02*
D03*
X239500Y146000D02*
D03*
X249500D02*
D03*
X239500Y136000D02*
D03*
X249500D02*
D03*
X239500Y126000D02*
D03*
X249500D02*
D03*
X239500Y116000D02*
D03*
X249500D02*
D03*
X239500Y106000D02*
D03*
X249500D02*
D03*
X239500Y96000D02*
D03*
X249500D02*
D03*
X239500Y86000D02*
D03*
X249500D02*
D03*
X37600Y45411D02*
D03*
D158*
X239500Y226000D02*
D03*
X37600Y33600D02*
D03*
D159*
X101984Y29161D02*
D03*
X133480D02*
D03*
D160*
X86363Y22237D02*
D03*
Y14363D02*
D03*
Y18300D02*
D03*
X90300Y22237D02*
D03*
X94237D02*
D03*
X90300Y18300D02*
D03*
X94237D02*
D03*
X90300Y14363D02*
D03*
X94237D02*
D03*
X121563Y19737D02*
D03*
Y11863D02*
D03*
Y15800D02*
D03*
X125500Y19737D02*
D03*
X129437D02*
D03*
X125500Y15800D02*
D03*
X129437D02*
D03*
X125500Y11863D02*
D03*
X129437D02*
D03*
X198437Y194663D02*
D03*
X194500D02*
D03*
X198437Y198600D02*
D03*
X194500D02*
D03*
X198437Y202537D02*
D03*
X194500D02*
D03*
X190563Y198600D02*
D03*
Y194663D02*
D03*
Y202537D02*
D03*
X118000Y134300D02*
D03*
X131700Y124800D02*
D03*
X155800Y156900D02*
D03*
X189300Y156800D02*
D03*
X184600Y157000D02*
D03*
X179600Y157200D02*
D03*
X204300Y158200D02*
D03*
X202500Y153900D02*
D03*
X221200Y197500D02*
D03*
X205800Y173400D02*
D03*
X103000Y229488D02*
D03*
X211336Y89037D02*
D03*
X103000Y224764D02*
D03*
X213702Y86936D02*
D03*
X103000Y227126D02*
D03*
X198788Y158200D02*
D03*
X201544D02*
D03*
X195562Y150400D02*
D03*
X193200D02*
D03*
X202500Y150600D02*
D03*
X80700Y78800D02*
D03*
X80600Y82000D02*
D03*
X121200Y88700D02*
D03*
X94700Y183400D02*
D03*
X79832Y189913D02*
D03*
X158900Y190400D02*
D03*
X98837Y119463D02*
D03*
X94900D02*
D03*
X98837Y123400D02*
D03*
X94900D02*
D03*
X98837Y127337D02*
D03*
X94900D02*
D03*
X90963Y123400D02*
D03*
Y119463D02*
D03*
Y127337D02*
D03*
X14800Y45900D02*
D03*
X85000Y59000D02*
D03*
Y64000D02*
D03*
X251400Y35900D02*
D03*
X251100Y62300D02*
D03*
X228100Y95000D02*
D03*
X233400Y99900D02*
D03*
X176637Y119363D02*
D03*
X172700D02*
D03*
X176637Y123300D02*
D03*
X172700D02*
D03*
X176637Y127237D02*
D03*
X172700D02*
D03*
X168763Y123300D02*
D03*
Y119363D02*
D03*
Y127237D02*
D03*
X82276Y238150D02*
D03*
Y230276D02*
D03*
Y234213D02*
D03*
X119100Y122900D02*
D03*
X78600Y208600D02*
D03*
X78700Y214100D02*
D03*
X11400Y204900D02*
D03*
X42900Y190900D02*
D03*
X21100Y226700D02*
D03*
X30100Y242700D02*
D03*
X29900Y250200D02*
D03*
X30000Y246300D02*
D03*
X50300Y246600D02*
D03*
X56500Y246300D02*
D03*
X65600Y232700D02*
D03*
X59400Y232500D02*
D03*
X80641Y102500D02*
D03*
X88100Y96700D02*
D03*
X120100Y104800D02*
D03*
X150400Y96200D02*
D03*
X146500D02*
D03*
X177500Y89100D02*
D03*
X173000D02*
D03*
X168800Y89200D02*
D03*
X228200Y159200D02*
D03*
X228100Y161600D02*
D03*
X208500Y172900D02*
D03*
X165200Y240800D02*
D03*
Y247700D02*
D03*
X157400Y226400D02*
D03*
X148100Y226600D02*
D03*
X157300Y233100D02*
D03*
X142889Y251187D02*
D03*
X138778Y224600D02*
D03*
X138500Y234300D02*
D03*
X110900Y76700D02*
D03*
X106500Y76900D02*
D03*
X119100Y110400D02*
D03*
X127900Y110800D02*
D03*
X62177Y124500D02*
D03*
X150400Y177500D02*
D03*
X163600D02*
D03*
X154000Y175400D02*
D03*
X151500Y203200D02*
D03*
X139663Y135237D02*
D03*
X143600D02*
D03*
X147537D02*
D03*
X139663Y131300D02*
D03*
X143600D02*
D03*
X147537D02*
D03*
X139663Y127363D02*
D03*
X143600D02*
D03*
X147537D02*
D03*
X128897Y128315D02*
D03*
X13863Y72337D02*
D03*
X17800D02*
D03*
X21737D02*
D03*
X13863Y68400D02*
D03*
X17800D02*
D03*
X21737D02*
D03*
X13863Y64463D02*
D03*
X17800D02*
D03*
X21737D02*
D03*
X29500Y97600D02*
D03*
X32700D02*
D03*
X29400Y122900D02*
D03*
X32600D02*
D03*
X19700Y135137D02*
D03*
X23637D02*
D03*
X19700Y131200D02*
D03*
X23637D02*
D03*
X13737Y173000D02*
D03*
X9800D02*
D03*
X29474Y173100D02*
D03*
X25537D02*
D03*
X58900Y143700D02*
D03*
X62837D02*
D03*
X66774D02*
D03*
X47100Y143600D02*
D03*
X51037D02*
D03*
X54974D02*
D03*
X88653Y203866D02*
D03*
X95346Y212134D02*
D03*
X96260Y207994D02*
D03*
X96300Y231800D02*
D03*
X103000Y232000D02*
D03*
X233175Y214497D02*
D03*
X222775Y201063D02*
D03*
X223108Y183241D02*
D03*
X192397Y179082D02*
D03*
X167600Y181500D02*
D03*
X225700Y212262D02*
D03*
X205870Y71930D02*
D03*
X224152Y203462D02*
D03*
X193473Y173100D02*
D03*
X193100Y142200D02*
D03*
X82688Y224700D02*
D03*
X104486Y139686D02*
D03*
X195835Y173100D02*
D03*
X195600Y142300D02*
D03*
X80307Y224600D02*
D03*
X107270Y139130D02*
D03*
X149900Y187400D02*
D03*
X63500Y245400D02*
D03*
X109268Y62750D02*
D03*
X151600Y223025D02*
D03*
X165800D02*
D03*
X96300Y241300D02*
D03*
X77748Y243219D02*
D03*
X79754Y244466D02*
D03*
X233200Y145400D02*
D03*
X224505Y169883D02*
D03*
X150000Y196465D02*
D03*
X222500Y129000D02*
D03*
X73800Y46800D02*
D03*
X111630Y62800D02*
D03*
X115700Y193500D02*
D03*
X211000Y109600D02*
D03*
X127242Y159032D02*
D03*
X125000Y157500D02*
D03*
X164118Y164977D02*
D03*
X239800Y211400D02*
D03*
X204200Y73600D02*
D03*
X68484Y192046D02*
D03*
X70357Y188157D02*
D03*
X229000Y127762D02*
D03*
X113992Y62800D02*
D03*
X102200Y210800D02*
D03*
X104400Y215200D02*
D03*
X102825Y213078D02*
D03*
X165800Y218100D02*
D03*
Y220600D02*
D03*
X151500Y210500D02*
D03*
X152900Y217921D02*
D03*
Y213197D02*
D03*
Y215559D02*
D03*
X129600Y100900D02*
D03*
X218700Y244900D02*
D03*
X216900Y241900D02*
D03*
X225332Y242300D02*
D03*
X149224Y174300D02*
D03*
X141065Y247600D02*
D03*
X146862Y174300D02*
D03*
X139200Y245900D02*
D03*
X144500Y174300D02*
D03*
X136231Y242983D02*
D03*
X139776Y174300D02*
D03*
X185201Y242300D02*
D03*
X169368D02*
D03*
X123037Y123100D02*
D03*
X119100Y119163D02*
D03*
X123037D02*
D03*
X33000Y120000D02*
D03*
X29800D02*
D03*
X26000Y113200D02*
D03*
X29400Y100700D02*
D03*
X32600D02*
D03*
X26000Y109300D02*
D03*
X47300Y148800D02*
D03*
X75975Y155000D02*
D03*
X172600Y144100D02*
D03*
X130100Y133300D02*
D03*
X110724Y187824D02*
D03*
X138360Y76740D02*
D03*
X170700Y197400D02*
D03*
X151481Y205586D02*
D03*
X179300Y192800D02*
D03*
X152971Y196678D02*
D03*
X151499Y200738D02*
D03*
X161700Y181300D02*
D03*
X155900Y181600D02*
D03*
X105300Y156200D02*
D03*
X122815Y162200D02*
D03*
X99110Y151316D02*
D03*
X95500Y148000D02*
D03*
X93700Y146400D02*
D03*
X101100Y152800D02*
D03*
X91631Y144569D02*
D03*
X103100Y154400D02*
D03*
X97300Y149600D02*
D03*
X126400Y176000D02*
D03*
X95500Y140500D02*
D03*
X73500Y75600D02*
D03*
X111100Y197700D02*
D03*
X115650D02*
D03*
X116800Y190200D02*
D03*
X116600Y185100D02*
D03*
X118900Y187800D02*
D03*
X114600Y187700D02*
D03*
X111150Y193500D02*
D03*
X109500Y238181D02*
D03*
X129200Y185200D02*
D03*
X137900Y181500D02*
D03*
X158800Y196900D02*
D03*
X151500Y208000D02*
D03*
X241000Y76000D02*
D03*
X225100Y99700D02*
D03*
X144000Y87259D02*
D03*
X6727Y85373D02*
D03*
X9300Y30100D02*
D03*
X29400Y51600D02*
D03*
X83186Y217776D02*
D03*
X87907Y217680D02*
D03*
X85548Y217801D02*
D03*
X78500Y202900D02*
D03*
X63000Y237500D02*
D03*
X49900D02*
D03*
X13300Y226600D02*
D03*
X12000Y149000D02*
D03*
X77700Y114900D02*
D03*
X177832Y242300D02*
D03*
X193666D02*
D03*
X209499D02*
D03*
X142138Y174300D02*
D03*
X84239Y139600D02*
D03*
X80775D02*
D03*
X80614Y124300D02*
D03*
X77465D02*
D03*
X74000D02*
D03*
X84079D02*
D03*
X74161Y139600D02*
D03*
X77625D02*
D03*
X109633Y142715D02*
D03*
X100625Y208700D02*
D03*
X99838Y206456D02*
D03*
X105700Y217300D02*
D03*
X118717Y62800D02*
D03*
X116354D02*
D03*
X96095Y234195D02*
D03*
X93887Y207848D02*
D03*
X93970Y197100D02*
D03*
X121079Y62800D02*
D03*
X87400Y243100D02*
D03*
X85000D02*
D03*
X112000Y137600D02*
D03*
X102600Y89500D02*
D03*
X69400Y233500D02*
D03*
X70100Y241100D02*
D03*
X94725Y238152D02*
D03*
X82300Y251400D02*
D03*
X63516Y247764D02*
D03*
X31500Y37338D02*
D03*
Y39700D02*
D03*
X79900Y250700D02*
D03*
X85031Y251123D02*
D03*
X63500Y94442D02*
D03*
X60400Y100267D02*
D03*
Y96633D02*
D03*
Y93000D02*
D03*
Y103900D02*
D03*
X56950Y100267D02*
D03*
X53500D02*
D03*
X65000Y98300D02*
D03*
X86213Y238150D02*
D03*
X90150D02*
D03*
X86213Y234213D02*
D03*
X90150D02*
D03*
X86213Y230276D02*
D03*
X90150D02*
D03*
X61500Y169905D02*
D03*
X57563D02*
D03*
X53626D02*
D03*
X61500Y173843D02*
D03*
X57563D02*
D03*
X53626D02*
D03*
X61500Y177779D02*
D03*
X57563D02*
D03*
X53626D02*
D03*
X73475Y200000D02*
D03*
X22500Y220000D02*
D03*
X47400Y226200D02*
D03*
X43362Y204739D02*
D03*
X43300Y219500D02*
D03*
X52903Y233892D02*
D03*
X71059Y220100D02*
D03*
X55800Y219800D02*
D03*
X51076D02*
D03*
X55665Y204542D02*
D03*
X53438Y219800D02*
D03*
X53300Y204600D02*
D03*
X50900Y204700D02*
D03*
X165800Y205300D02*
D03*
X151500Y220700D02*
D03*
X53900Y128000D02*
D03*
X46000Y115100D02*
D03*
X63100Y114900D02*
D03*
X60400D02*
D03*
X51600Y109350D02*
D03*
Y112200D02*
D03*
X249300Y51600D02*
D03*
X56600Y249500D02*
D03*
X128800Y234400D02*
D03*
X58000Y131000D02*
D03*
X49300Y130900D02*
D03*
X58000Y133600D02*
D03*
X49400D02*
D03*
X58000Y128200D02*
D03*
X49300Y128300D02*
D03*
X51600Y106500D02*
D03*
X49600Y101300D02*
D03*
X45000D02*
D03*
M02*
