G04*
G04 #@! TF.GenerationSoftware,Altium Limited,Altium Designer,20.2.6 (244)*
G04*
G04 Layer_Physical_Order=3*
G04 Layer_Color=128*
%FSLAX25Y25*%
%MOIN*%
G70*
G04*
G04 #@! TF.SameCoordinates,53242240-AA46-4597-B95F-6874191C8742*
G04*
G04*
G04 #@! TF.FilePolarity,Negative*
G04*
G01*
G75*
%ADD12C,0.01000*%
%ADD18C,0.00799*%
%ADD159C,0.03937*%
%ADD160C,0.01968*%
%ADD161C,0.04000*%
%ADD162O,0.05512X0.03150*%
%ADD163O,0.07480X0.03150*%
%ADD164C,0.03347*%
%ADD165C,0.03787*%
G04:AMPARAMS|DCode=166|XSize=90mil|YSize=90mil|CornerRadius=0mil|HoleSize=0mil|Usage=FLASHONLY|Rotation=0.000|XOffset=0mil|YOffset=0mil|HoleType=Round|Shape=Relief|Width=19.68mil|Gap=10mil|Entries=4|*
%AMTHD166*
7,0,0,0.09000,0.07000,0.01968,45*
%
%ADD166THD166*%
%ADD167C,0.11417*%
%ADD168C,0.06693*%
G04:AMPARAMS|DCode=169|XSize=91.496mil|YSize=91.496mil|CornerRadius=0mil|HoleSize=0mil|Usage=FLASHONLY|Rotation=0.000|XOffset=0mil|YOffset=0mil|HoleType=Round|Shape=Relief|Width=19.68mil|Gap=10mil|Entries=4|*
%AMTHD169*
7,0,0,0.09150,0.07150,0.01968,45*
%
%ADD169THD169*%
%ADD170C,0.04331*%
%ADD171C,0.04724*%
D12*
X255906Y242126D02*
G03*
X242126Y255906I-13780J0D01*
G01*
Y0D02*
G03*
X255906Y13780I0J13780D01*
G01*
X0D02*
G03*
X13780Y0I13780J0D01*
G01*
Y255906D02*
G03*
X0Y242126I0J-13780D01*
G01*
X13780Y0D02*
X242126D01*
X255906Y13780D02*
Y242126D01*
X13780Y255906D02*
X242126D01*
X0Y13780D02*
Y242126D01*
D18*
X175400Y177300D02*
Y225600D01*
X108200D02*
X175400D01*
X108200Y177300D02*
Y225600D01*
Y177300D02*
X175400D01*
X27800Y99100D02*
Y121300D01*
Y99100D02*
X33800D01*
Y121300D01*
X27800D02*
X33800D01*
D159*
X72500Y12500D02*
D03*
X62500D02*
D03*
X37600Y45411D02*
D03*
X12000Y199495D02*
D03*
Y211305D02*
D03*
D160*
X86363Y22237D02*
D03*
Y14363D02*
D03*
Y18300D02*
D03*
X90300Y22237D02*
D03*
X94237D02*
D03*
X90300Y18300D02*
D03*
X94237D02*
D03*
X90300Y14363D02*
D03*
X94237D02*
D03*
X121563Y19737D02*
D03*
Y11863D02*
D03*
Y15800D02*
D03*
X125500Y19737D02*
D03*
X129437D02*
D03*
X125500Y15800D02*
D03*
X129437D02*
D03*
X125500Y11863D02*
D03*
X129437D02*
D03*
X198437Y194663D02*
D03*
X194500D02*
D03*
X198437Y198600D02*
D03*
X194500D02*
D03*
X198437Y202537D02*
D03*
X194500D02*
D03*
X190563Y198600D02*
D03*
Y194663D02*
D03*
Y202537D02*
D03*
X118000Y134300D02*
D03*
X131700Y124800D02*
D03*
X155800Y156900D02*
D03*
X189300Y156800D02*
D03*
X184600Y157000D02*
D03*
X179600Y157200D02*
D03*
X204300Y158200D02*
D03*
X202500Y153900D02*
D03*
X221200Y197500D02*
D03*
X205800Y173400D02*
D03*
X103000Y229488D02*
D03*
X211336Y89037D02*
D03*
X103000Y224764D02*
D03*
X213702Y86936D02*
D03*
X103000Y227126D02*
D03*
X198788Y158200D02*
D03*
X201544D02*
D03*
X195562Y150400D02*
D03*
X193200D02*
D03*
X202500Y150600D02*
D03*
X80700Y78800D02*
D03*
X80600Y82000D02*
D03*
X121200Y88700D02*
D03*
X94700Y183400D02*
D03*
X79832Y189913D02*
D03*
X158900Y190400D02*
D03*
X98837Y119463D02*
D03*
X94900D02*
D03*
X98837Y123400D02*
D03*
X94900D02*
D03*
X98837Y127337D02*
D03*
X94900D02*
D03*
X90963Y123400D02*
D03*
Y119463D02*
D03*
Y127337D02*
D03*
X14800Y45900D02*
D03*
X85000Y59000D02*
D03*
Y64000D02*
D03*
X251400Y35900D02*
D03*
X251100Y62300D02*
D03*
X228100Y95000D02*
D03*
X233400Y99900D02*
D03*
X176637Y119363D02*
D03*
X172700D02*
D03*
X176637Y123300D02*
D03*
X172700D02*
D03*
X176637Y127237D02*
D03*
X172700D02*
D03*
X168763Y123300D02*
D03*
Y119363D02*
D03*
Y127237D02*
D03*
X82276Y238150D02*
D03*
Y230276D02*
D03*
Y234213D02*
D03*
X119100Y122900D02*
D03*
X78600Y208600D02*
D03*
X78700Y214100D02*
D03*
X11400Y204900D02*
D03*
X42900Y190900D02*
D03*
X21100Y226700D02*
D03*
X30100Y242700D02*
D03*
X29900Y250200D02*
D03*
X30000Y246300D02*
D03*
X50300Y246600D02*
D03*
X56500Y246300D02*
D03*
X65600Y232700D02*
D03*
X59400Y232500D02*
D03*
X80641Y102500D02*
D03*
X88100Y96700D02*
D03*
X120100Y104800D02*
D03*
X150400Y96200D02*
D03*
X146500D02*
D03*
X177500Y89100D02*
D03*
X173000D02*
D03*
X168800Y89200D02*
D03*
X228200Y159200D02*
D03*
X228100Y161600D02*
D03*
X208500Y172900D02*
D03*
X165200Y240800D02*
D03*
Y247700D02*
D03*
X157400Y226400D02*
D03*
X148100Y226600D02*
D03*
X157300Y233100D02*
D03*
X142889Y251187D02*
D03*
X138778Y224600D02*
D03*
X138500Y234300D02*
D03*
X110900Y76700D02*
D03*
X106500Y76900D02*
D03*
X119100Y110400D02*
D03*
X127900Y110800D02*
D03*
X62177Y124500D02*
D03*
X150400Y177500D02*
D03*
X163600D02*
D03*
X154000Y175400D02*
D03*
X151500Y203200D02*
D03*
X139663Y135237D02*
D03*
X143600D02*
D03*
X147537D02*
D03*
X139663Y131300D02*
D03*
X143600D02*
D03*
X147537D02*
D03*
X139663Y127363D02*
D03*
X143600D02*
D03*
X147537D02*
D03*
X128897Y128315D02*
D03*
X13863Y72337D02*
D03*
X17800D02*
D03*
X21737D02*
D03*
X13863Y68400D02*
D03*
X17800D02*
D03*
X21737D02*
D03*
X13863Y64463D02*
D03*
X17800D02*
D03*
X21737D02*
D03*
X29500Y97600D02*
D03*
X32700D02*
D03*
X29400Y122900D02*
D03*
X32600D02*
D03*
X19700Y135137D02*
D03*
X23637D02*
D03*
X19700Y131200D02*
D03*
X23637D02*
D03*
X13737Y173000D02*
D03*
X9800D02*
D03*
X29474Y173100D02*
D03*
X25537D02*
D03*
X58900Y143700D02*
D03*
X62837D02*
D03*
X66774D02*
D03*
X47100Y143600D02*
D03*
X51037D02*
D03*
X54974D02*
D03*
X88653Y203866D02*
D03*
X95346Y212134D02*
D03*
X96260Y207994D02*
D03*
X96300Y231800D02*
D03*
X103000Y232000D02*
D03*
X233175Y214497D02*
D03*
X222775Y201063D02*
D03*
X223108Y183241D02*
D03*
X192397Y179082D02*
D03*
X225700Y212262D02*
D03*
X205870Y71930D02*
D03*
X224152Y203462D02*
D03*
X193473Y173100D02*
D03*
X193100Y142200D02*
D03*
X82688Y224700D02*
D03*
X104486Y139686D02*
D03*
X195835Y173100D02*
D03*
X195600Y142300D02*
D03*
X80307Y224600D02*
D03*
X107270Y139130D02*
D03*
X149900Y187400D02*
D03*
X109268Y62750D02*
D03*
X151600Y223025D02*
D03*
X165800D02*
D03*
X96300Y241300D02*
D03*
X77748Y243219D02*
D03*
X79754Y244466D02*
D03*
X233200Y145400D02*
D03*
X224505Y169883D02*
D03*
X150000Y196465D02*
D03*
X222500Y129000D02*
D03*
X73800Y46800D02*
D03*
X111630Y62800D02*
D03*
X115700Y193500D02*
D03*
X211000Y109600D02*
D03*
X127242Y159032D02*
D03*
X125000Y157500D02*
D03*
X239800Y211400D02*
D03*
X204200Y73600D02*
D03*
X68484Y192046D02*
D03*
X70357Y188157D02*
D03*
X229000Y127762D02*
D03*
X113992Y62800D02*
D03*
X102200Y210800D02*
D03*
X104400Y215200D02*
D03*
X102825Y213078D02*
D03*
X165800Y220600D02*
D03*
X151500Y210500D02*
D03*
X152900Y217921D02*
D03*
Y213197D02*
D03*
Y215559D02*
D03*
X129600Y100900D02*
D03*
X218700Y244900D02*
D03*
X216900Y241900D02*
D03*
X149224Y174300D02*
D03*
X141065Y247600D02*
D03*
X146862Y174300D02*
D03*
X139200Y245900D02*
D03*
X144500Y174300D02*
D03*
X136231Y242983D02*
D03*
X139776Y174300D02*
D03*
X185201Y242300D02*
D03*
X169368D02*
D03*
X123037Y123100D02*
D03*
X119100Y119163D02*
D03*
X123037D02*
D03*
X26000Y113200D02*
D03*
Y109300D02*
D03*
X47300Y148800D02*
D03*
X75975Y155000D02*
D03*
X170700Y197400D02*
D03*
X151481Y205586D02*
D03*
X152971Y196678D02*
D03*
X151499Y200738D02*
D03*
X161700Y181300D02*
D03*
X155900Y181600D02*
D03*
X105300Y156200D02*
D03*
X122815Y162200D02*
D03*
X99110Y151316D02*
D03*
X95500Y148000D02*
D03*
X93700Y146400D02*
D03*
X101100Y152800D02*
D03*
X91631Y144569D02*
D03*
X103100Y154400D02*
D03*
X97300Y149600D02*
D03*
X111100Y197700D02*
D03*
X115650D02*
D03*
X111150Y193500D02*
D03*
X109500Y238181D02*
D03*
X129200Y185200D02*
D03*
X137900Y181500D02*
D03*
X151500Y208000D02*
D03*
X29400Y51600D02*
D03*
X83186Y217776D02*
D03*
X87907Y217680D02*
D03*
X85548Y217801D02*
D03*
X142138Y174300D02*
D03*
X84239Y139600D02*
D03*
X80775D02*
D03*
X80614Y124300D02*
D03*
X77465D02*
D03*
X74000D02*
D03*
X84079D02*
D03*
X74161Y139600D02*
D03*
X77625D02*
D03*
X109633Y142715D02*
D03*
X100625Y208700D02*
D03*
X99838Y206456D02*
D03*
X105700Y217300D02*
D03*
X118717Y62800D02*
D03*
X116354D02*
D03*
X96095Y234195D02*
D03*
X93887Y207848D02*
D03*
X93970Y197100D02*
D03*
X121079Y62800D02*
D03*
X87400Y243100D02*
D03*
X85000D02*
D03*
X112000Y137600D02*
D03*
X102600Y89500D02*
D03*
X69400Y233500D02*
D03*
X70100Y241100D02*
D03*
X94725Y238152D02*
D03*
X82300Y251400D02*
D03*
X31500Y37338D02*
D03*
Y39700D02*
D03*
X79900Y250700D02*
D03*
X85031Y251123D02*
D03*
X86213Y238150D02*
D03*
X90150D02*
D03*
X86213Y234213D02*
D03*
X90150D02*
D03*
X86213Y230276D02*
D03*
X90150D02*
D03*
X61500Y169905D02*
D03*
X57563D02*
D03*
X53626D02*
D03*
X61500Y173843D02*
D03*
X57563D02*
D03*
X53626D02*
D03*
X61500Y177779D02*
D03*
X57563D02*
D03*
X53626D02*
D03*
X73475Y200000D02*
D03*
X22500Y220000D02*
D03*
X47400Y226200D02*
D03*
X43362Y204739D02*
D03*
X43300Y219500D02*
D03*
X52903Y233892D02*
D03*
X71059Y220100D02*
D03*
X55800Y219800D02*
D03*
X51076D02*
D03*
X55665Y204542D02*
D03*
X53438Y219800D02*
D03*
X53300Y204600D02*
D03*
X50900Y204700D02*
D03*
X165800Y205300D02*
D03*
X151500Y220700D02*
D03*
X53900Y128000D02*
D03*
X46000Y115100D02*
D03*
X63100Y114900D02*
D03*
X60400D02*
D03*
X51600Y109350D02*
D03*
Y112200D02*
D03*
X56600Y249500D02*
D03*
X128800Y234400D02*
D03*
X58000Y131000D02*
D03*
X49300Y130900D02*
D03*
X58000Y133600D02*
D03*
X49400D02*
D03*
X58000Y128200D02*
D03*
X49300Y128300D02*
D03*
X51600Y106500D02*
D03*
X49600Y101300D02*
D03*
X45000D02*
D03*
D161*
X0Y13780D02*
G03*
X13780Y0I13780J0D01*
G01*
X242126D02*
G03*
X255906Y13780I0J13780D01*
G01*
Y242126D02*
G03*
X242126Y255906I-13780J0D01*
G01*
X13780D02*
G03*
X0Y242126I0J-13780D01*
G01*
Y13780D02*
Y242126D01*
X13780Y255906D02*
X242126D01*
X255906Y242126D02*
X255906Y242126D01*
Y13780D02*
Y242126D01*
X255906Y13780D02*
X255906D01*
X13780Y0D02*
X242126D01*
D162*
X11043Y93228D02*
D03*
Y127244D02*
D03*
D163*
X27500Y93228D02*
D03*
Y127244D02*
D03*
D164*
X25413Y98858D02*
D03*
Y121614D02*
D03*
D165*
X31300Y15000D02*
D03*
X41300D02*
D03*
D166*
X51300D02*
D03*
D167*
X242126Y242126D02*
D03*
Y13780D02*
D03*
X13780Y242126D02*
D03*
Y13780D02*
D03*
D168*
X124500Y209047D02*
D03*
Y237000D02*
D03*
D169*
X37600Y33600D02*
D03*
D170*
X239500Y176000D02*
D03*
Y226000D02*
D03*
X249500D02*
D03*
X239500Y216000D02*
D03*
X249500D02*
D03*
X239500Y206000D02*
D03*
X249500D02*
D03*
X239500Y196000D02*
D03*
X249500D02*
D03*
X239500Y186000D02*
D03*
X249500D02*
D03*
Y176000D02*
D03*
X239500Y166000D02*
D03*
X249500D02*
D03*
X239500Y156000D02*
D03*
X249500D02*
D03*
X239500Y146000D02*
D03*
X249500D02*
D03*
X239500Y136000D02*
D03*
X249500D02*
D03*
X239500Y126000D02*
D03*
X249500D02*
D03*
X239500Y116000D02*
D03*
X249500D02*
D03*
X239500Y106000D02*
D03*
X249500D02*
D03*
X239500Y96000D02*
D03*
X249500D02*
D03*
X239500Y86000D02*
D03*
X249500D02*
D03*
D171*
X101984Y29161D02*
D03*
X133480D02*
D03*
M02*
