G04*
G04 #@! TF.GenerationSoftware,Altium Limited,Altium Designer,20.2.6 (244)*
G04*
G04 Layer_Color=8388736*
%FSLAX25Y25*%
%MOIN*%
G70*
G04*
G04 #@! TF.SameCoordinates,53242240-AA46-4597-B95F-6874191C8742*
G04*
G04*
G04 #@! TF.FilePolarity,Negative*
G04*
G01*
G75*
%ADD12C,0.01000*%
%ADD81R,0.03400X0.03400*%
%ADD82O,0.07093X0.02762*%
%ADD83R,0.06109X0.02762*%
%ADD84R,0.06109X0.01581*%
%ADD85R,0.01975X0.12211*%
%ADD86R,0.08274X0.03156*%
%ADD87R,0.02762X0.04337*%
%ADD88R,0.12998X0.12998*%
%ADD89R,0.03943X0.01187*%
%ADD90R,0.01187X0.03943*%
%ADD91R,0.02559X0.01378*%
%ADD92R,0.04331X0.07087*%
%ADD93C,0.03550*%
%ADD94R,0.03400X0.03400*%
%ADD95R,0.05400X0.03900*%
%ADD96R,0.04731X0.14967*%
%ADD97P,0.03680X8X112.5*%
%ADD98O,0.02368X0.06306*%
%ADD99R,0.02368X0.06306*%
%ADD100R,0.02368X0.03943*%
%ADD101R,0.02959X0.03943*%
%ADD102R,0.09455X0.05124*%
%ADD103R,0.08274X0.04337*%
%ADD104R,0.04337X0.08274*%
%ADD105R,0.03550X0.04337*%
%ADD106R,0.03550X0.04337*%
%ADD107R,0.03943X0.02368*%
%ADD108R,0.03943X0.02959*%
%ADD109R,0.04337X0.01680*%
%ADD110P,0.03680X8X202.5*%
%ADD111O,0.01384X0.03550*%
%ADD112O,0.03550X0.01384*%
%ADD113R,0.08274X0.08274*%
%ADD114R,0.01384X0.03550*%
%ADD115R,0.04000X0.05400*%
%ADD116R,0.04000X0.04000*%
%ADD117R,0.08274X0.08274*%
G04:AMPARAMS|DCode=118|XSize=55.18mil|YSize=78.8mil|CornerRadius=14.8mil|HoleSize=0mil|Usage=FLASHONLY|Rotation=90.000|XOffset=0mil|YOffset=0mil|HoleType=Round|Shape=RoundedRectangle|*
%AMROUNDEDRECTD118*
21,1,0.05518,0.04921,0,0,90.0*
21,1,0.02559,0.07880,0,0,90.0*
1,1,0.02959,0.02461,0.01280*
1,1,0.02959,0.02461,-0.01280*
1,1,0.02959,-0.02461,-0.01280*
1,1,0.02959,-0.02461,0.01280*
%
%ADD118ROUNDEDRECTD118*%
%ADD119O,0.06306X0.01975*%
%ADD120R,0.03156X0.07487*%
%ADD121R,0.05124X0.05518*%
%ADD122R,0.04000X0.04000*%
%ADD123O,0.04731X0.01384*%
%ADD124R,0.04337X0.04337*%
%ADD125R,0.05518X0.05124*%
%ADD126R,0.05124X0.02762*%
%ADD127R,0.04731X0.01384*%
%ADD128O,0.01384X0.04731*%
%ADD129R,0.07880X0.05518*%
%ADD130R,0.05124X0.05912*%
%ADD131R,0.08400X0.09061*%
%ADD132R,0.06699X0.05912*%
%ADD133R,0.06306X0.02762*%
%ADD134R,0.03550X0.05912*%
%ADD135R,0.08668X0.02762*%
G04:AMPARAMS|DCode=136|XSize=74.87mil|YSize=122.11mil|CornerRadius=0mil|HoleSize=0mil|Usage=FLASHONLY|Rotation=90.000|XOffset=0mil|YOffset=0mil|HoleType=Round|Shape=Octagon|*
%AMOCTAGOND136*
4,1,8,-0.06106,-0.01872,-0.06106,0.01872,-0.04234,0.03743,0.04234,0.03743,0.06106,0.01872,0.06106,-0.01872,0.04234,-0.03743,-0.04234,-0.03743,-0.06106,-0.01872,0.0*
%
%ADD136OCTAGOND136*%

%ADD137R,0.06306X0.01975*%
%ADD138R,0.05400X0.04000*%
%ADD139O,0.06699X0.04337*%
%ADD140O,0.08668X0.04337*%
%ADD141C,0.02959*%
%ADD142C,0.06400*%
%ADD143C,0.19685*%
%ADD144C,0.06306*%
%ADD145O,0.06306X0.07487*%
%ADD146C,0.06699*%
%ADD147R,0.06699X0.06699*%
%ADD148C,0.04337*%
G36*
X63665Y179945D02*
Y167740D01*
X51461D01*
Y178665D01*
X52740Y179945D01*
X63665D01*
D02*
G37*
D12*
X255906Y242126D02*
G03*
X242126Y255906I-13780J0D01*
G01*
Y0D02*
G03*
X255906Y13780I0J13780D01*
G01*
X0D02*
G03*
X13780Y0I13780J0D01*
G01*
Y255906D02*
G03*
X0Y242126I0J-13780D01*
G01*
X13780Y0D02*
X242126D01*
X255906Y13780D02*
Y242126D01*
X13780Y255906D02*
X242126D01*
X0Y13780D02*
Y242126D01*
D81*
X69400Y94442D02*
D03*
Y88324D02*
D03*
X158800Y181459D02*
D03*
Y175341D02*
D03*
X80181Y163328D02*
D03*
X85962D02*
D03*
X103305D02*
D03*
X109086D02*
D03*
X74400D02*
D03*
X97524D02*
D03*
X91743D02*
D03*
X114867D02*
D03*
X69400Y103441D02*
D03*
Y109559D02*
D03*
X63500D02*
D03*
Y103441D02*
D03*
Y88323D02*
D03*
Y94442D02*
D03*
X44000Y125059D02*
D03*
Y118941D02*
D03*
X12000Y145941D02*
D03*
Y152059D02*
D03*
X6500Y145398D02*
D03*
X134967Y187441D02*
D03*
Y193559D02*
D03*
X121000Y134441D02*
D03*
Y140559D02*
D03*
X115000Y134441D02*
D03*
Y140559D02*
D03*
X127000Y134441D02*
D03*
Y140559D02*
D03*
X152867Y193559D02*
D03*
Y187441D02*
D03*
X18500Y48559D02*
D03*
Y42441D02*
D03*
X24500Y48559D02*
D03*
Y42441D02*
D03*
X38000Y109341D02*
D03*
Y97441D02*
D03*
X135500Y87259D02*
D03*
X34700Y132941D02*
D03*
X28700D02*
D03*
X17600Y145941D02*
D03*
X23200D02*
D03*
X146900Y187441D02*
D03*
X128200Y182041D02*
D03*
X160400Y250759D02*
D03*
Y244641D02*
D03*
Y232941D02*
D03*
Y239059D02*
D03*
X128200Y188159D02*
D03*
X158833Y187441D02*
D03*
Y193559D02*
D03*
X146900D02*
D03*
X28700Y139059D02*
D03*
X34700D02*
D03*
X23200Y152059D02*
D03*
X17600D02*
D03*
X135500Y81141D02*
D03*
X146833D02*
D03*
Y87259D02*
D03*
X140933Y193559D02*
D03*
Y187441D02*
D03*
X141167Y81141D02*
D03*
Y87259D02*
D03*
X38000Y115459D02*
D03*
Y103559D02*
D03*
D82*
X35024Y206000D02*
D03*
Y201000D02*
D03*
Y196000D02*
D03*
Y191000D02*
D03*
X62976Y206000D02*
D03*
Y201000D02*
D03*
Y196000D02*
D03*
Y191000D02*
D03*
X35024Y229500D02*
D03*
Y224500D02*
D03*
Y219500D02*
D03*
Y214500D02*
D03*
X62976Y229500D02*
D03*
Y224500D02*
D03*
Y219500D02*
D03*
Y214500D02*
D03*
D83*
X31102Y119882D02*
D03*
Y122933D02*
D03*
Y100591D02*
D03*
Y97539D02*
D03*
D84*
Y117126D02*
D03*
Y111221D02*
D03*
Y113189D02*
D03*
Y115157D02*
D03*
Y103347D02*
D03*
Y109252D02*
D03*
Y107283D02*
D03*
Y105315D02*
D03*
D85*
X187765Y165400D02*
D03*
X196032D02*
D03*
X193276D02*
D03*
X190521D02*
D03*
X201544D02*
D03*
X198788D02*
D03*
X220835D02*
D03*
X215324D02*
D03*
X212568D02*
D03*
X204300D02*
D03*
X218079D02*
D03*
X209812D02*
D03*
X207056D02*
D03*
D86*
X75885Y58747D02*
D03*
Y64653D02*
D03*
D87*
X91268Y182913D02*
D03*
X99732Y197087D02*
D03*
X91268D02*
D03*
X99732Y182913D02*
D03*
X83965Y197000D02*
D03*
X75500Y182827D02*
D03*
X83965D02*
D03*
X75500Y197000D02*
D03*
X243768Y54913D02*
D03*
X252232Y69087D02*
D03*
X243768D02*
D03*
X252232Y54913D02*
D03*
X216868Y235213D02*
D03*
X225332Y249387D02*
D03*
X216868D02*
D03*
X225332Y235213D02*
D03*
X201034D02*
D03*
X209499Y249387D02*
D03*
X201034D02*
D03*
X209499Y235213D02*
D03*
X185201D02*
D03*
X193666Y249387D02*
D03*
X185201D02*
D03*
X193666Y235213D02*
D03*
X169368D02*
D03*
X177832Y249387D02*
D03*
X169368D02*
D03*
X177832Y235213D02*
D03*
X243768Y28413D02*
D03*
X252232Y42587D02*
D03*
X243768D02*
D03*
X252232Y28413D02*
D03*
D88*
X86213Y234213D02*
D03*
D89*
X72925Y223976D02*
D03*
Y225551D02*
D03*
Y227126D02*
D03*
Y228701D02*
D03*
Y230276D02*
D03*
Y231850D02*
D03*
Y233425D02*
D03*
Y235000D02*
D03*
Y236575D02*
D03*
Y238150D02*
D03*
Y239724D02*
D03*
Y241299D02*
D03*
Y242874D02*
D03*
Y244449D02*
D03*
X99500D02*
D03*
Y242874D02*
D03*
Y241299D02*
D03*
Y239724D02*
D03*
Y238150D02*
D03*
Y236575D02*
D03*
Y235000D02*
D03*
Y233425D02*
D03*
Y231850D02*
D03*
Y230276D02*
D03*
Y228701D02*
D03*
Y227126D02*
D03*
Y225551D02*
D03*
Y223976D02*
D03*
D90*
X75976Y247500D02*
D03*
X77551D02*
D03*
X79126D02*
D03*
X80701D02*
D03*
X82276D02*
D03*
X83850D02*
D03*
X85425D02*
D03*
X87000D02*
D03*
X88575D02*
D03*
X90150D02*
D03*
X91724D02*
D03*
X93299D02*
D03*
X94874D02*
D03*
X96449D02*
D03*
Y220925D02*
D03*
X94874D02*
D03*
X93299D02*
D03*
X91724D02*
D03*
X90150D02*
D03*
X88575D02*
D03*
X87000D02*
D03*
X85425D02*
D03*
X83850D02*
D03*
X82276D02*
D03*
X80701D02*
D03*
X79126D02*
D03*
X77551D02*
D03*
X75976D02*
D03*
D91*
X84972Y103484D02*
D03*
Y101516D02*
D03*
Y105453D02*
D03*
Y99547D02*
D03*
X76310Y103484D02*
D03*
Y99547D02*
D03*
Y105453D02*
D03*
Y101516D02*
D03*
D92*
X80641Y102500D02*
D03*
D93*
X62177Y124500D02*
D03*
X12000Y199495D02*
D03*
Y211305D02*
D03*
D94*
X56059Y124500D02*
D03*
X49941D02*
D03*
X12318Y30100D02*
D03*
X6200D02*
D03*
X123341Y176000D02*
D03*
X129459D02*
D03*
X83559Y93500D02*
D03*
X77441D02*
D03*
X83559Y87600D02*
D03*
X77441D02*
D03*
X141641Y93100D02*
D03*
X135523D02*
D03*
Y99000D02*
D03*
X141641D02*
D03*
X56059Y118500D02*
D03*
X49941D02*
D03*
X53559Y249500D02*
D03*
X34382Y249500D02*
D03*
X40500D02*
D03*
X53059Y243400D02*
D03*
X59841Y243500D02*
D03*
Y249500D02*
D03*
X59941Y237500D02*
D03*
X75500Y208600D02*
D03*
Y214200D02*
D03*
X16359Y226600D02*
D03*
X56059Y32200D02*
D03*
X22759Y140000D02*
D03*
X53459Y157900D02*
D03*
X59441Y158000D02*
D03*
X83700Y110600D02*
D03*
X166441Y148000D02*
D03*
X98500Y140500D02*
D03*
X228218Y99600D02*
D03*
X222100D02*
D03*
X154359Y230400D02*
D03*
X148241D02*
D03*
Y236000D02*
D03*
X154359D02*
D03*
X92382Y140500D02*
D03*
X172559Y148000D02*
D03*
X77582Y110600D02*
D03*
X243941Y48500D02*
D03*
X250059D02*
D03*
X231882Y76000D02*
D03*
X238000D02*
D03*
X34441Y237500D02*
D03*
X40559D02*
D03*
X16641Y140000D02*
D03*
X53459Y152100D02*
D03*
X47341D02*
D03*
Y157900D02*
D03*
X65559Y158000D02*
D03*
X250118Y76000D02*
D03*
X244000D02*
D03*
X66059Y237500D02*
D03*
X46941Y243400D02*
D03*
X65959Y249500D02*
D03*
Y243500D02*
D03*
X81618Y214200D02*
D03*
Y208600D02*
D03*
X10241Y226600D02*
D03*
X170680Y181500D02*
D03*
X164562D02*
D03*
X170680Y187500D02*
D03*
X164562D02*
D03*
X146841Y181500D02*
D03*
X152959D02*
D03*
X134882D02*
D03*
X141000D02*
D03*
X164562Y193500D02*
D03*
X170680D02*
D03*
X81559Y203000D02*
D03*
X75441D02*
D03*
X53016Y237500D02*
D03*
X46898D02*
D03*
X34441Y243500D02*
D03*
X40559D02*
D03*
X166441Y167500D02*
D03*
X172559D02*
D03*
X166441Y173500D02*
D03*
X172559D02*
D03*
X49841Y38100D02*
D03*
X55959D02*
D03*
X18741Y30100D02*
D03*
X24859D02*
D03*
X72059Y25500D02*
D03*
X65941D02*
D03*
X56018Y43867D02*
D03*
X49900D02*
D03*
X24859Y36200D02*
D03*
X18741D02*
D03*
X49941Y32200D02*
D03*
D95*
X53750Y138551D02*
D03*
Y131070D02*
D03*
X62300D02*
D03*
Y138551D02*
D03*
X45100Y131070D02*
D03*
Y138551D02*
D03*
D96*
X56705Y91300D02*
D03*
X44894D02*
D03*
D97*
X80181Y169447D02*
D03*
X85962D02*
D03*
X103305D02*
D03*
X109086D02*
D03*
X74400D02*
D03*
X97524D02*
D03*
X91743D02*
D03*
X114867D02*
D03*
X6500Y151516D02*
D03*
D98*
X159500Y169335D02*
D03*
X154500D02*
D03*
X149500D02*
D03*
X144500D02*
D03*
X139500D02*
D03*
X134500D02*
D03*
X129500D02*
D03*
X124500D02*
D03*
X159500Y147665D02*
D03*
X154500D02*
D03*
X149500D02*
D03*
X144500D02*
D03*
X139500D02*
D03*
X134500D02*
D03*
X129500D02*
D03*
X97500Y113157D02*
D03*
X102500D02*
D03*
X107500D02*
D03*
X92500Y132843D02*
D03*
X97500D02*
D03*
X102500D02*
D03*
X107500D02*
D03*
X97500Y85158D02*
D03*
X102500D02*
D03*
X107500D02*
D03*
X92500Y104842D02*
D03*
X97500D02*
D03*
X102500D02*
D03*
X107500D02*
D03*
X4500Y161165D02*
D03*
X9500D02*
D03*
X19500D02*
D03*
X34500Y182835D02*
D03*
X29500D02*
D03*
X24500D02*
D03*
X19500D02*
D03*
X14500D02*
D03*
X9500D02*
D03*
X4500D02*
D03*
X39500Y161165D02*
D03*
X34500D02*
D03*
X29500D02*
D03*
X24500D02*
D03*
X14500D02*
D03*
D99*
X124500Y147665D02*
D03*
X92500Y113157D02*
D03*
Y85158D02*
D03*
X39500Y182835D02*
D03*
D100*
X80775Y136450D02*
D03*
X77625D02*
D03*
X80675Y121201D02*
D03*
X77525D02*
D03*
X77625Y142750D02*
D03*
X80775D02*
D03*
X77525Y127500D02*
D03*
X80675D02*
D03*
D101*
X74161Y136450D02*
D03*
X84239D02*
D03*
X74061Y121201D02*
D03*
X84139D02*
D03*
X74161Y142750D02*
D03*
X84239D02*
D03*
X74061Y127500D02*
D03*
X84139D02*
D03*
D102*
X138500Y238181D02*
D03*
X109500D02*
D03*
Y224796D02*
D03*
X138500Y209835D02*
D03*
Y200780D02*
D03*
X109500Y203142D02*
D03*
D103*
X161508Y33752D02*
D03*
Y41547D02*
D03*
Y89106D02*
D03*
Y81075D02*
D03*
X224500Y81035D02*
D03*
Y73201D02*
D03*
Y65287D02*
D03*
Y57256D02*
D03*
Y49500D02*
D03*
Y41626D02*
D03*
Y33870D02*
D03*
X161508Y49500D02*
D03*
Y57295D02*
D03*
Y65405D02*
D03*
Y73358D02*
D03*
X224500Y88949D02*
D03*
D104*
X213421Y97163D02*
D03*
X205421D02*
D03*
X197500D02*
D03*
X189421D02*
D03*
X181421D02*
D03*
X173421D02*
D03*
D105*
X73500Y80100D02*
D03*
D106*
X87900D02*
D03*
D107*
X148150Y247816D02*
D03*
Y244666D02*
D03*
X154450Y247816D02*
D03*
Y244666D02*
D03*
D108*
X148150Y241201D02*
D03*
Y251280D02*
D03*
X154450D02*
D03*
Y241201D02*
D03*
D109*
X57000Y106720D02*
D03*
Y104161D02*
D03*
X46000D02*
D03*
Y106720D02*
D03*
Y109280D02*
D03*
Y111839D02*
D03*
X57000Y109280D02*
D03*
Y111839D02*
D03*
D110*
X47441Y249500D02*
D03*
D111*
X125984Y113189D02*
D03*
X124016D02*
D03*
X122047D02*
D03*
X120079D02*
D03*
X118110D02*
D03*
Y128937D02*
D03*
X120079D02*
D03*
X122047D02*
D03*
X124016D02*
D03*
X125984D02*
D03*
X116142D02*
D03*
D112*
X128937Y125984D02*
D03*
Y122047D02*
D03*
Y118110D02*
D03*
Y116142D02*
D03*
X113189D02*
D03*
Y118110D02*
D03*
Y120079D02*
D03*
Y122047D02*
D03*
Y124016D02*
D03*
Y125984D02*
D03*
X128937Y120079D02*
D03*
Y124016D02*
D03*
D113*
X121063Y121063D02*
D03*
D114*
X116142Y113189D02*
D03*
D115*
X9001Y49500D02*
D03*
D116*
X12701Y41500D02*
D03*
X5201D02*
D03*
D117*
X35073Y85373D02*
D03*
Y57027D02*
D03*
X6727D02*
D03*
Y85373D02*
D03*
D118*
X126299Y104827D02*
D03*
X113701D02*
D03*
Y83173D02*
D03*
D119*
X147000Y202764D02*
D03*
Y223236D02*
D03*
Y220677D02*
D03*
Y218118D02*
D03*
Y215559D02*
D03*
Y213000D02*
D03*
Y210441D02*
D03*
Y207882D02*
D03*
Y205323D02*
D03*
Y200205D02*
D03*
X170228Y223236D02*
D03*
Y220677D02*
D03*
Y218118D02*
D03*
Y215559D02*
D03*
Y213000D02*
D03*
Y210441D02*
D03*
Y207882D02*
D03*
Y205323D02*
D03*
Y202764D02*
D03*
D120*
X108677Y71000D02*
D03*
X95685D02*
D03*
X100016D02*
D03*
X104347D02*
D03*
X113008D02*
D03*
X117339D02*
D03*
X121669D02*
D03*
X126000D02*
D03*
X130331D02*
D03*
D121*
X88653Y203866D02*
D03*
X95346Y212134D02*
D03*
Y203866D02*
D03*
X88653Y212134D02*
D03*
D122*
X165500Y154299D02*
D03*
Y161799D02*
D03*
D123*
X47721Y175811D02*
D03*
Y177779D02*
D03*
Y173843D02*
D03*
Y171874D02*
D03*
Y169905D02*
D03*
Y167937D02*
D03*
X67405D02*
D03*
Y169905D02*
D03*
Y171874D02*
D03*
Y173843D02*
D03*
Y175811D02*
D03*
Y177779D02*
D03*
Y179748D02*
D03*
D124*
X57563Y173843D02*
D03*
D125*
X38634Y146153D02*
D03*
X30366Y152847D02*
D03*
Y146153D02*
D03*
X38634Y152847D02*
D03*
D126*
X106600Y181689D02*
D03*
Y193500D02*
D03*
D127*
X47721Y179748D02*
D03*
D128*
X53626Y164000D02*
D03*
X55594D02*
D03*
X57563D02*
D03*
X59531D02*
D03*
X61500D02*
D03*
X63468D02*
D03*
X51657D02*
D03*
X63468Y183685D02*
D03*
X61500D02*
D03*
X59531D02*
D03*
X57563D02*
D03*
X55594D02*
D03*
X53626D02*
D03*
X51657D02*
D03*
D129*
X126299Y83173D02*
D03*
D130*
X90567Y68532D02*
D03*
D131*
X90567Y30736D02*
D03*
X151591D02*
D03*
D132*
X148441Y68532D02*
D03*
D133*
X19858Y196542D02*
D03*
Y202447D02*
D03*
Y214258D02*
D03*
D134*
X16921Y191030D02*
D03*
X7079D02*
D03*
Y219770D02*
D03*
X16921D02*
D03*
D135*
X108293Y187594D02*
D03*
D136*
X118093D02*
D03*
D137*
X170228Y200205D02*
D03*
D138*
X173500Y157999D02*
D03*
D139*
X11043Y93228D02*
D03*
Y127244D02*
D03*
D140*
X27500Y93228D02*
D03*
Y127244D02*
D03*
D141*
X25413Y98858D02*
D03*
Y121614D02*
D03*
D142*
X31300Y15000D02*
D03*
X41300D02*
D03*
X51300D02*
D03*
D143*
X242126Y242126D02*
D03*
Y13780D02*
D03*
X13780Y242126D02*
D03*
Y13780D02*
D03*
D144*
X124500Y209047D02*
D03*
Y237000D02*
D03*
D145*
X72500Y12500D02*
D03*
X62500D02*
D03*
D146*
X239500Y176000D02*
D03*
X249500Y226000D02*
D03*
X239500Y216000D02*
D03*
X249500D02*
D03*
X239500Y206000D02*
D03*
X249500D02*
D03*
X239500Y196000D02*
D03*
X249500D02*
D03*
X239500Y186000D02*
D03*
X249500D02*
D03*
Y176000D02*
D03*
X239500Y166000D02*
D03*
X249500D02*
D03*
X239500Y156000D02*
D03*
X249500D02*
D03*
X239500Y146000D02*
D03*
X249500D02*
D03*
X239500Y136000D02*
D03*
X249500D02*
D03*
X239500Y126000D02*
D03*
X249500D02*
D03*
X239500Y116000D02*
D03*
X249500D02*
D03*
X239500Y106000D02*
D03*
X249500D02*
D03*
X239500Y96000D02*
D03*
X249500D02*
D03*
X239500Y86000D02*
D03*
X249500D02*
D03*
X37600Y45411D02*
D03*
D147*
X239500Y226000D02*
D03*
X37600Y33600D02*
D03*
D148*
X101984Y29161D02*
D03*
X133480D02*
D03*
M02*
