M48
;Layer_Color=9474304
;FILE_FORMAT=2:5
INCH,TZ
;TYPE=PLATED
T1F00S00C0.01181
T3F00S00C0.03000
T4F00S00C0.03150
T5F00S00C0.03543
T6F00S00C0.05906
;TYPE=NON_PLATED
T7F00S00C0.02559
T8F00S00C0.03937
T9F00S00C0.10630
%
T01
X9300Y30100
X14800Y45900
X13863Y64463
Y68400
Y72337
X17800
X21737
Y68400
Y64463
X17800
Y68400
X6727Y85373
X29500Y97600
X32700
X32600Y100700
X29400
X26000Y109300
Y113200
X29400Y51600
X31500Y39700
Y37338
X73800Y46800
X85000Y59000
Y64000
X80700Y78800
X80600Y82000
X73500Y75600
X63500Y94442
X60400Y93000
Y96633
Y100267
X56950
X53500
X49600Y101300
X45000
X51600Y106500
Y109350
Y112200
X46000Y115100
X60400Y114900
X63100
X60400Y103900
X65000Y98300
X80641Y102500
X88100Y96700
X102600Y89500
X106500Y76900
X110900Y76700
X111630Y62800
X113992
X116354
X118717
X121079
X109268Y62750
X121200Y88700
X120100Y104800
X119100Y110400
X127900Y110800
X129600Y100900
X146500Y96200
X150400
X144000Y87259
X138360Y76740
X168800Y89200
X173000Y89100
X177500
X129437Y19737
X125500
X121563
Y15800
Y11863
X125500
Y15800
X129437
Y11863
X94237Y14363
Y18300
Y22237
X90300
X86363
Y18300
Y14363
X90300
Y18300
X77700Y114900
X211000Y109600
X211336Y89037
X213702Y86936
X228100Y95000
X225100Y99700
X233400Y99900
X241000Y76000
X251100Y62300
X249300Y51600
X251400Y35900
X205870Y71930
X204200Y73600
X222500Y129000
X229000Y127762
X233200Y145400
X228200Y159200
X228100Y161600
X224505Y169883
X223108Y183241
X221200Y197500
X222775Y201063
X224152Y203462
X225700Y212262
X233175Y214497
X239800Y211400
X225332Y242300
X216900Y241900
X218700Y244900
X209499Y242300
X198437Y202537
Y198600
Y194663
X205800Y173400
X208500Y172900
X204300Y158200
X201544
X198788
X202500Y153900
Y150600
X195562Y150400
X193200
X193100Y142200
X195600Y142300
X189300Y156800
X184600Y157000
X179600Y157200
X172600Y144100
X172700Y127237
Y123300
Y119363
X176637
Y123300
Y127237
X168763
Y123300
Y119363
X147537Y127363
Y131300
Y135237
X143600
X139663
Y131300
Y127363
X143600
Y131300
X130100Y133300
X128897Y128315
X131700Y124800
X123037Y123100
Y119163
X119100
Y122900
X118000Y134300
X112000Y137600
X107270Y139130
X104486Y139686
X109633Y142715
X95500Y140500
Y148000
X93700Y146400
X91631Y144569
X97300Y149600
X99110Y151316
X101100Y152800
X103100Y154400
X105300Y156200
X125000Y157500
X127242Y159032
X122815Y162200
X126400Y176000
X129200Y185200
X137900Y181500
X139776Y174300
X142138
X144500
X146862
X149224
X150400Y177500
X154000Y175400
X155900Y181600
X161700Y181300
X163600Y177500
X167600Y181500
X158900Y190400
X158800Y196900
X152971Y196678
X150000Y196465
X151499Y200738
X151500Y203200
X151481Y205586
X151500Y208000
Y210500
X152900Y213197
Y215559
Y217921
X151500Y220700
X151600Y223025
X148100Y226600
X157400Y226400
X157300Y233100
X165200Y240800
X169368Y242300
X177832
X185201
X193666
X165200Y247700
X141065Y247600
X139200Y245900
X136231Y242983
X138500Y234300
X128800Y234400
X138778Y224600
X165800Y223025
Y220600
Y218100
Y205300
X170700Y197400
X179300Y192800
X190563Y194663
Y198600
X194500
Y194663
Y202537
X190563
X192397Y179082
X193473Y173100
X195835
X164118Y164977
X155800Y156900
X149900Y187400
X118900Y187800
X114600Y187700
X110724Y187824
X111150Y193500
X111100Y197700
X115650
X115700Y193500
X116800Y190200
X116600Y185100
X94700Y183400
X93970Y197100
X93887Y207848
X96260Y207994
X95346Y212134
X102200Y210800
X102825Y213078
X104400Y215200
X105700Y217300
X103000Y224764
Y227126
Y229488
X103000Y232000
X96300Y231800
X96095Y234195
X94725Y238152
X90150Y238150
X86213
X82276
Y234213
Y230276
X86213
Y234213
X90150
Y230276
X82688Y224700
X80307Y224600
X83186Y217776
X85548Y217801
X87907Y217680
X78700Y214100
X78600Y208600
X78500Y202900
X73475Y200000
X68484Y192046
X70357Y188157
X79832Y189913
X88653Y203866
X99838Y206456
X100625Y208700
X96300Y241300
X87400Y243100
X85000
X79754Y244466
X77748Y243219
X79900Y250700
X82300Y251400
X85031Y251123
X63516Y247764
X63500Y245400
X56500Y246300
X56600Y249500
X50300Y246600
X49900Y237500
X52903Y233892
X59400Y232500
X65600Y232700
X69400Y233500
X70100Y241100
X63000Y237500
X55800Y219800
X53438
X51076
X43300Y219500
X47400Y226200
X50900Y204700
X53300Y204600
X55665Y204542
X43362Y204739
X42900Y190900
X53626Y177779
Y173843
Y169905
X57563
Y173843
X61500
Y169905
Y177779
X57563
X58900Y143700
X62837
X66774
X74161Y139600
X77625
X80775
X84239
X84079Y124300
X80614
X77465
X74000
X62177Y124500
X58000Y128200
Y131000
Y133600
X49400
X49300Y130900
Y128300
X53900Y128000
X54974Y143600
X51037
X47100
X47300Y148800
X75975Y155000
X90963Y127337
X94900
Y123400
Y119463
X98837
Y123400
Y127337
X90963Y123400
Y119463
X71059Y220100
X109500Y238181
X142889Y251187
X29900Y250200
X30000Y246300
X30100Y242700
X21100Y226700
X13300Y226600
X22500Y220000
X11400Y204900
X9800Y173000
X13737
X25537Y173100
X29474
X12000Y149000
X19700Y135137
Y131200
X23637
Y135137
X29400Y122900
X32600
X33000Y120000
X29800
T03
X31300Y15000
X41300
X51300
T04
X37600Y33600
Y45411
X62500Y12500
X72500
X12000Y199495
Y211305
T05
X239500Y86000
Y96000
Y106000
X249500
Y96000
Y86000
Y116000
Y126000
Y136000
Y146000
Y156000
Y166000
Y176000
X239500
Y186000
Y196000
Y206000
Y216000
Y226000
X249500
Y216000
Y206000
Y196000
Y186000
X239500Y166000
Y156000
Y146000
Y136000
Y126000
Y116000
T06
X124500Y209047
Y237000
T07
X25413Y98858
Y121614
T08
X101984Y29161
X133480
T09
X13780Y13780
X242126
Y242126
X13780
M30
