G04*
G04 #@! TF.GenerationSoftware,Altium Limited,Altium Designer,20.2.6 (244)*
G04*
G04 Layer_Color=255*
%FSLAX25Y25*%
%MOIN*%
G70*
G04*
G04 #@! TF.SameCoordinates,691D88A1-B60F-4D24-9C51-7A430DCC900A*
G04*
G04*
G04 #@! TF.FilePolarity,Positive*
G04*
G01*
G75*
%ADD13C,0.00787*%
%ADD94C,0.03937*%
%ADD100C,0.06693*%
%ADD101R,0.06693X0.06693*%
%ADD102O,0.09843X0.07087*%
%ADD103C,0.02559*%
%ADD104O,0.03937X0.06299*%
%ADD105O,0.03937X0.08268*%
%ADD106C,0.06000*%
G04:AMPARAMS|DCode=107|XSize=60mil|YSize=66.93mil|CornerRadius=15mil|HoleSize=0mil|Usage=FLASHONLY|Rotation=0.000|XOffset=0mil|YOffset=0mil|HoleType=Round|Shape=RoundedRectangle|*
%AMROUNDEDRECTD107*
21,1,0.06000,0.03693,0,0,0.0*
21,1,0.03000,0.06693,0,0,0.0*
1,1,0.03000,0.01500,-0.01846*
1,1,0.03000,-0.01500,-0.01846*
1,1,0.03000,-0.01500,0.01846*
1,1,0.03000,0.01500,0.01846*
%
%ADD107ROUNDEDRECTD107*%
%ADD108R,0.06693X0.06693*%
%ADD109C,0.05906*%
%ADD110R,0.04724X0.11811*%
%ADD111R,0.06299X0.06299*%
%ADD112C,0.06299*%
%ADD113R,0.06299X0.06299*%
D13*
Y393701D01*
X393701D01*
Y0D02*
Y393701D01*
X0Y0D02*
X393701D01*
D94*
X283500Y375500D02*
D03*
X314996D02*
D03*
D100*
X258000Y41500D02*
D03*
X268000D02*
D03*
X278000D02*
D03*
X288000D02*
D03*
X298000D02*
D03*
X367000Y339500D02*
D03*
Y329500D02*
D03*
Y319500D02*
D03*
Y309500D02*
D03*
Y299500D02*
D03*
X367106Y196500D02*
D03*
Y186500D02*
D03*
Y176500D02*
D03*
X367000Y218000D02*
D03*
Y268000D02*
D03*
Y258000D02*
D03*
Y248000D02*
D03*
Y238000D02*
D03*
Y228000D02*
D03*
D101*
X308000Y41500D02*
D03*
D102*
X43661Y349764D02*
D03*
X119646D02*
D03*
Y64331D02*
D03*
X43661D02*
D03*
D103*
X182378Y27311D02*
D03*
X159622D02*
D03*
D104*
X188008Y12941D02*
D03*
X153992D02*
D03*
D105*
X188008Y29398D02*
D03*
X153992D02*
D03*
D106*
X185752Y339972D02*
D03*
X201500D02*
D03*
X217248D02*
D03*
D107*
X181815Y379343D02*
D03*
X221185D02*
D03*
D108*
X367000Y289500D02*
D03*
X367106Y206500D02*
D03*
X367000Y278000D02*
D03*
D109*
X230626Y20197D02*
D03*
X238500Y20197D02*
D03*
X246374Y20197D02*
D03*
D110*
X222359D02*
D03*
X254642D02*
D03*
D111*
X238189Y337500D02*
D03*
D112*
X250000D02*
D03*
X357000Y15500D02*
D03*
X367000Y25500D02*
D03*
X357000D02*
D03*
X367000Y35500D02*
D03*
X357000D02*
D03*
X367000Y45500D02*
D03*
X357000D02*
D03*
X367000Y55500D02*
D03*
X357000D02*
D03*
X367000Y65500D02*
D03*
X357000D02*
D03*
X367000Y75500D02*
D03*
X357000D02*
D03*
X367000Y85500D02*
D03*
X357000D02*
D03*
X367000Y95500D02*
D03*
X357000D02*
D03*
X367000Y105500D02*
D03*
X357000D02*
D03*
X367000Y115500D02*
D03*
X357000D02*
D03*
X367000Y125500D02*
D03*
X357000D02*
D03*
X367000Y135500D02*
D03*
X357000D02*
D03*
X367000Y145500D02*
D03*
X357000D02*
D03*
X367000Y155500D02*
D03*
X357000D02*
D03*
D113*
X367000Y15500D02*
D03*
M02*
