M48
;Layer_Color=9474304
;FILE_FORMAT=2:5
INCH,TZ
;TYPE=PLATED
T2F00S00C0.02362
T6F00S00C0.03937
T7F00S00C0.04724
;TYPE=NON_PLATED
T8F00S00C0.02362
%
G90
G05
T02
G00X153992Y11760
M15
G01Y14122
M16
G00X153992Y27232
M15
G01Y31563
M16
G00X188008Y27232
M15
G01Y31563
M16
G00X188008Y11760
M15
G01Y14122
M16
T06
G00X181815Y378949
M15
G01Y379736
M16
G00X221185Y378949
M15
G01Y379736
M16
T07
G00X44449Y64331
M15
G01X42874
M16
G00X120433Y64331
M15
G01X118858
M16
G00X120433Y349764
M15
G01X118858
M16
G00X44449Y349764
M15
G01X42874
M16
T08
G00X222359Y22953
M15
G01Y17441
M16
G00X254642Y22953
M15
G01Y17441
M16
M17
M30
