M48
;Layer_Color=9474304
;FILE_FORMAT=2:5
INCH,TZ
;TYPE=PLATED
T1F00S00C0.01181
T3F00S00C0.02756
T4F00S00C0.03150
T5F00S00C0.03543
;TYPE=NON_PLATED
T9F00S00C0.02559
T10F00S00C0.03937
%
T01
X12500Y16000
X18830Y32330
X20500Y34000
X31477Y39344
X37000Y45000
Y49000
X57500Y37500
Y33500
Y29500
X62500
Y33500
Y37500
X96723Y38625
X97000Y43500
X98396Y31404
X102500Y4500
X106000
X109000
X132000Y20500
X135000
Y23500
X132000
Y26500
X135000
X147000Y14000
X154500Y42500
X156402Y40598
X158303Y38697
X183500Y38500
X183697Y41697
X197500Y88000
X234141Y62800
X247500Y109500
X266500
X262937Y138713
Y142713
Y146713
X258937
Y142713
Y138713
X254937
Y142713
Y146713
X268500Y146000
X268474Y149014
X268918Y152212
X286500Y151500
X286000Y130000
X277814Y138152
X239089Y137862
X239000Y135500
X239058Y133040
X239500Y130508
X238254Y140224
X239500Y142319
X225000Y134000
Y131500
X283000Y12500
X289000
Y6000
X283000
X335000Y218000
X296500Y234500
X280500Y224500
X234500
X241000Y210000
X225961Y201000
X223598
X221236
X218874
X216512
X214150
X212000Y184000
X232500Y174000
Y171000
Y168000
Y164500
X236000Y171000
Y174000
X286500Y160847
X228500Y250500
X220000Y259000
X197500Y271000
X227000Y291500
X243500Y309287
X133000Y388500
X127500
X122000
X116500
X111500
X106000
X100500
X95000
X89500
X84500
X79000
X73500
X68000
X62500
X57500
X52000
X46500
X41000
X265390Y373925
X268539Y336130
X308500Y327000
X304000Y317000
X326413Y336130
X326413Y373925
T03
X230626Y20197
X238500Y20197
X246374Y20197
T04
X185752Y339972
X201500
X217248
X238189Y337500
X250000
T05
X258000Y41500
X268000
X278000
X288000
X298000
X308000
X357000Y45500
Y35500
Y25500
Y15500
X367000
Y25500
Y35500
Y45500
Y55500
X357000
Y65500
X367000
Y75500
X357000
Y85500
X367000
Y95500
X357000
Y105500
X367000
Y115500
X357000
Y125500
X367000
Y135500
X357000
Y145500
X367000
Y155500
X357000
X367106Y176500
Y186500
Y196500
Y206500
X367000Y218000
Y228000
Y238000
Y248000
Y258000
Y268000
Y278000
Y289500
Y299500
Y309500
Y319500
Y329500
Y339500
T09
X159622Y27311
X182378
T10
X283500Y375500
X314996
M30
