G04*
G04 #@! TF.GenerationSoftware,Altium Limited,Altium Designer,20.2.6 (244)*
G04*
G04 Layer_Color=32768*
%FSLAX25Y25*%
%MOIN*%
G70*
G04*
G04 #@! TF.SameCoordinates,691D88A1-B60F-4D24-9C51-7A430DCC900A*
G04*
G04*
G04 #@! TF.FilePolarity,Positive*
G04*
G01*
G75*
%ADD13C,0.00787*%
%ADD114C,0.00394*%
%ADD115C,0.00100*%
%ADD116C,0.00197*%
%ADD117C,0.00300*%
D13*
Y393701D01*
X393701D01*
Y0D02*
Y393701D01*
X0Y0D02*
X393701D01*
D114*
X217032Y191500D02*
X220969D01*
X219000Y189532D02*
Y193468D01*
X221500Y11197D02*
X255500D01*
Y197D02*
Y11197D01*
X221500Y197D02*
X255500D01*
X221500D02*
Y11197D01*
D115*
X287000Y320000D02*
G03*
X287000Y320000I-500J0D01*
G01*
X317500D02*
G03*
X317500Y320000I-500J0D01*
G01*
X300000D02*
G03*
X300000Y320000I-500J0D01*
G01*
X179500Y45000D02*
G03*
X179500Y45000I-500J0D01*
G01*
X29382Y43500D02*
G03*
X29382Y43500I-500J0D01*
G01*
Y49380D02*
G03*
X29382Y49380I-500J0D01*
G01*
X321000Y6500D02*
G03*
X321000Y6500I-500J0D01*
G01*
X279000Y17000D02*
G03*
X279000Y17000I-500J0D01*
G01*
X320500Y12500D02*
G03*
X320500Y12500I-500J0D01*
G01*
X83500Y39000D02*
G03*
X83500Y39000I-500J0D01*
G01*
X46500Y48000D02*
G03*
X46500Y48000I-500J0D01*
G01*
X143000Y11000D02*
G03*
X143000Y11000I-500J0D01*
G01*
X115000Y9000D02*
G03*
X115000Y9000I-500J0D01*
G01*
X266000Y117000D02*
G03*
X266000Y117000I-500J0D01*
G01*
X248000D02*
G03*
X248000Y117000I-500J0D01*
G01*
X282500Y135000D02*
G03*
X282500Y135000I-500J0D01*
G01*
Y158941D02*
G03*
X282500Y158941I-500J0D01*
G01*
X228559Y136500D02*
G03*
X228559Y136500I-500J0D01*
G01*
Y142500D02*
G03*
X228559Y142500I-500J0D01*
G01*
X235559Y158000D02*
G03*
X235559Y158000I-500J0D01*
G01*
X282500Y147000D02*
G03*
X282500Y147000I-500J0D01*
G01*
X235559Y152000D02*
G03*
X235559Y152000I-500J0D01*
G01*
X245000Y168000D02*
G03*
X245000Y168000I-500J0D01*
G01*
Y174000D02*
G03*
X245000Y174000I-500J0D01*
G01*
X221500Y210000D02*
G03*
X221500Y210000I-500J0D01*
G01*
X234000D02*
G03*
X234000Y210000I-500J0D01*
G01*
X232000Y255000D02*
G03*
X232000Y255000I-500J0D01*
G01*
X217500D02*
G03*
X217500Y255000I-500J0D01*
G01*
X343000Y218000D02*
G03*
X343000Y218000I-500J0D01*
G01*
X297000Y242000D02*
G03*
X297000Y242000I-500J0D01*
G01*
X296500Y224500D02*
G03*
X296500Y224500I-500J0D01*
G01*
X224441Y287000D02*
G03*
X224441Y287000I-500J0D01*
G01*
X244000Y323000D02*
G03*
X244000Y323000I-500J0D01*
G01*
Y308787D02*
G03*
X244000Y308787I-500J0D01*
G01*
X60000Y379000D02*
G03*
X60000Y379000I-500J0D01*
G01*
X135000Y379500D02*
G03*
X135000Y379500I-500J0D01*
G01*
X244000Y315787D02*
G03*
X244000Y315787I-500J0D01*
G01*
X241000Y59500D02*
G03*
X241000Y59500I-500J0D01*
G01*
X224500Y280500D02*
G03*
X224500Y280500I-500J0D01*
G01*
X209000Y210000D02*
G03*
X209000Y210000I-500J0D01*
G01*
X356000Y218001D02*
G03*
X356000Y218001I-500J0D01*
G01*
X57000Y369000D02*
G03*
X57000Y369000I-500J0D01*
G01*
X63500D02*
G03*
X63500Y369000I-500J0D01*
G01*
X132000Y370000D02*
G03*
X132000Y370000I-500J0D01*
G01*
X138500D02*
G03*
X138500Y370000I-500J0D01*
G01*
X173000Y45059D02*
G03*
X173000Y45059I-500J0D01*
G01*
X166900D02*
G03*
X166900Y45059I-500J0D01*
G01*
X11643Y23000D02*
G03*
X11643Y23000I-500J0D01*
G01*
X11100Y29682D02*
G03*
X11100Y29682I-500J0D01*
G01*
Y37206D02*
G03*
X11100Y37206I-500J0D01*
G01*
X285713Y320000D02*
X287287D01*
X286500Y319213D02*
Y320787D01*
X316213Y320000D02*
X317787D01*
X317000Y319213D02*
Y320787D01*
X298713Y320000D02*
X300287D01*
X299500Y319213D02*
Y320787D01*
X178213Y45000D02*
X179787D01*
X179000Y44213D02*
Y45787D01*
X28882Y42713D02*
Y44287D01*
X28095Y43500D02*
X29670D01*
X28882Y48593D02*
Y50168D01*
X28095Y49380D02*
X29670D01*
X320500Y5713D02*
Y7288D01*
X319713Y6500D02*
X321288D01*
X277713Y17000D02*
X279287D01*
X278500Y16213D02*
Y17787D01*
X320000Y11713D02*
Y13287D01*
X319213Y12500D02*
X320787D01*
X82213Y39000D02*
X83787D01*
X83000Y38213D02*
Y39787D01*
X46000Y47213D02*
Y48787D01*
X45213Y48000D02*
X46787D01*
X141713Y11000D02*
X143287D01*
X142500Y10213D02*
Y11787D01*
X113713Y9000D02*
X115287D01*
X114500Y8213D02*
Y9787D01*
X264713Y117000D02*
X266287D01*
X265500Y116213D02*
Y117787D01*
X246713Y117000D02*
X248287D01*
X247500Y116213D02*
Y117787D01*
X281213Y135000D02*
X282787D01*
X282000Y134213D02*
Y135787D01*
X281213Y158941D02*
X282787D01*
X282000Y158153D02*
Y159728D01*
X228059Y135713D02*
Y137287D01*
X227272Y136500D02*
X228847D01*
X228059Y141713D02*
Y143287D01*
X227272Y142500D02*
X228847D01*
X235059Y157213D02*
Y158787D01*
X234272Y158000D02*
X235846D01*
X281213Y147000D02*
X282787D01*
X282000Y146213D02*
Y147787D01*
X235059Y151213D02*
Y152787D01*
X234272Y152000D02*
X235846D01*
X244500Y167213D02*
Y168787D01*
X243713Y168000D02*
X245287D01*
X244500Y173213D02*
Y174787D01*
X243713Y174000D02*
X245287D01*
X221000Y209213D02*
Y210787D01*
X220213Y210000D02*
X221787D01*
X233500Y209213D02*
Y210787D01*
X232713Y210000D02*
X234287D01*
X231500Y254213D02*
Y255787D01*
X230713Y255000D02*
X232287D01*
X217000Y254213D02*
Y255787D01*
X216213Y255000D02*
X217787D01*
X342500Y217213D02*
Y218787D01*
X341713Y218000D02*
X343287D01*
X295713Y242000D02*
X297287D01*
X296500Y241213D02*
Y242787D01*
X295213Y224500D02*
X296787D01*
X296000Y223713D02*
Y225287D01*
X223941Y286213D02*
Y287787D01*
X223153Y287000D02*
X224728D01*
X243500Y322213D02*
Y323787D01*
X242713Y323000D02*
X244287D01*
X243500Y308000D02*
Y309575D01*
X242713Y308787D02*
X244287D01*
X59500Y378213D02*
Y379787D01*
X58713Y379000D02*
X60287D01*
X134500Y378713D02*
Y380287D01*
X133713Y379500D02*
X135287D01*
X243500Y315000D02*
Y316575D01*
X242713Y315787D02*
X244287D01*
X240500Y58713D02*
Y60287D01*
X239713Y59500D02*
X241287D01*
X224000Y279713D02*
Y281287D01*
X223213Y280500D02*
X224787D01*
X208500Y209213D02*
Y210787D01*
X207713Y210000D02*
X209287D01*
X355500Y217213D02*
Y218788D01*
X354713Y218001D02*
X356288D01*
X55713Y369000D02*
X57287D01*
X56500Y368213D02*
Y369787D01*
X62213Y369000D02*
X63787D01*
X63000Y368213D02*
Y369787D01*
X130713Y370000D02*
X132287D01*
X131500Y369213D02*
Y370787D01*
X137213Y370000D02*
X138787D01*
X138000Y369213D02*
Y370787D01*
X171713Y45059D02*
X173287D01*
X172500Y44272D02*
Y45847D01*
X165613Y45059D02*
X167187D01*
X166400Y44272D02*
Y45847D01*
X11143Y22213D02*
Y23787D01*
X10356Y23000D02*
X11931D01*
X9813Y29682D02*
X11387D01*
X10600Y28894D02*
Y30469D01*
Y36419D02*
Y37994D01*
X9813Y37206D02*
X11387D01*
D116*
X239878Y20197D02*
G03*
X239878Y20197I-1378J0D01*
G01*
X99378Y15500D02*
G03*
X99378Y15500I-1378J0D01*
G01*
X61417Y33169D02*
G03*
X61417Y33169I-1378J0D01*
G01*
X194878Y295500D02*
G03*
X194878Y295500I-1378J0D01*
G01*
X295878Y16500D02*
G03*
X295878Y16500I-1378J0D01*
G01*
X135378Y24500D02*
G03*
X135378Y24500I-1378J0D01*
G01*
X58378Y12000D02*
G03*
X58378Y12000I-1378J0D01*
G01*
X31878Y20500D02*
G03*
X31878Y20500I-1378J0D01*
G01*
X200693Y179886D02*
Y203114D01*
X237307Y179886D02*
Y203114D01*
X200693D02*
X237307D01*
X200693Y179886D02*
X237307D01*
X274980Y126669D02*
Y158756D01*
X242894Y126669D02*
Y158756D01*
X274980D01*
X242894Y126669D02*
X274980D01*
X238500Y18229D02*
Y22166D01*
X236532Y20197D02*
X240469D01*
X96031Y15500D02*
X99968D01*
X98000Y13532D02*
Y17469D01*
X60039Y31201D02*
Y35138D01*
X58071Y33169D02*
X62008D01*
X191532Y295500D02*
X195468D01*
X193500Y293531D02*
Y297468D01*
X292531Y16500D02*
X296468D01*
X294500Y14532D02*
Y18469D01*
X132032Y24500D02*
X135968D01*
X134000Y22532D02*
Y26469D01*
X55032Y12000D02*
X58969D01*
X57000Y10031D02*
Y13969D01*
X28532Y20500D02*
X32469D01*
X30500Y18531D02*
Y22468D01*
D117*
X268000Y14000D02*
X270000D01*
X269000Y13000D02*
Y15000D01*
M02*
