G04*
G04 #@! TF.GenerationSoftware,Altium Limited,Altium Designer,20.2.6 (244)*
G04*
G04 Layer_Color=128*
%FSLAX25Y25*%
%MOIN*%
G70*
G04*
G04 #@! TF.SameCoordinates,691D88A1-B60F-4D24-9C51-7A430DCC900A*
G04*
G04*
G04 #@! TF.FilePolarity,Positive*
G04*
G01*
G75*
%ADD13C,0.00787*%
%ADD118C,0.00200*%
D13*
Y393701D01*
X393701D01*
Y0D02*
Y393701D01*
X0Y0D02*
X393701D01*
D118*
X256228Y41500D02*
X259772D01*
X258000Y39728D02*
Y43272D01*
X266228Y41500D02*
X269772D01*
X268000Y39728D02*
Y43272D01*
X276228Y41500D02*
X279772D01*
X278000Y39728D02*
Y43272D01*
X286228Y41500D02*
X289772D01*
X288000Y39728D02*
Y43272D01*
X296228Y41500D02*
X299772D01*
X298000Y39728D02*
Y43272D01*
X306228Y41500D02*
X309772D01*
X308000Y39728D02*
Y43272D01*
X40512Y349764D02*
X46811D01*
X43661Y346614D02*
Y352913D01*
X116496Y349764D02*
X122795D01*
X119646Y346614D02*
Y352913D01*
X116496Y64331D02*
X122795D01*
X119646Y61181D02*
Y67480D01*
X40512Y64331D02*
X46811D01*
X43661Y61181D02*
Y67480D01*
X181098Y27311D02*
X183658D01*
X182378Y26032D02*
Y28591D01*
X158343Y27311D02*
X160902D01*
X159622Y26032D02*
Y28591D01*
X185646Y12941D02*
X190370D01*
X188008Y10579D02*
Y15303D01*
X184661Y29398D02*
X191354D01*
X188008Y26051D02*
Y32744D01*
X151630Y12941D02*
X156354D01*
X153992Y10579D02*
Y15303D01*
X150646Y29398D02*
X157339D01*
X153992Y26051D02*
Y32744D01*
X184177Y339972D02*
X187327D01*
X185752Y338398D02*
Y341547D01*
X199925Y339972D02*
X203075D01*
X201500Y338398D02*
Y341547D01*
X215673Y339972D02*
X218823D01*
X217248Y338398D02*
Y341547D01*
X179453Y379343D02*
X184177D01*
X181815Y376980D02*
Y381705D01*
X218823Y379343D02*
X223547D01*
X221185Y376980D02*
Y381705D01*
X281532Y375500D02*
X285469D01*
X283500Y373532D02*
Y377468D01*
X313028Y375500D02*
X316965D01*
X314996Y373532D02*
Y377468D01*
X365228Y339500D02*
X368772D01*
X367000Y337728D02*
Y341272D01*
X365228Y329500D02*
X368772D01*
X367000Y327728D02*
Y331272D01*
X365228Y319500D02*
X368772D01*
X367000Y317728D02*
Y321272D01*
X365228Y309500D02*
X368772D01*
X367000Y307728D02*
Y311272D01*
X365228Y299500D02*
X368772D01*
X367000Y297728D02*
Y301272D01*
X365228Y289500D02*
X368772D01*
X367000Y287728D02*
Y291272D01*
X229248Y20197D02*
X232004D01*
X230626Y18819D02*
Y21575D01*
X237122Y20197D02*
X239878D01*
X238500Y18819D02*
Y21575D01*
X244996Y20197D02*
X247752D01*
X246374Y18819D02*
Y21575D01*
X221178Y20197D02*
X223540D01*
X222359Y19016D02*
Y21378D01*
X253461Y20197D02*
X255823D01*
X254642Y19016D02*
Y21378D01*
X236614Y337500D02*
X239764D01*
X238189Y335925D02*
Y339075D01*
X248425Y337500D02*
X251575D01*
X250000Y335925D02*
Y339075D01*
X365335Y206500D02*
X368878D01*
X367106Y204728D02*
Y208272D01*
X365335Y196500D02*
X368878D01*
X367106Y194728D02*
Y198272D01*
X365335Y186500D02*
X368878D01*
X367106Y184728D02*
Y188272D01*
X365335Y176500D02*
X368878D01*
X367106Y174728D02*
Y178272D01*
X365228Y15500D02*
X368772D01*
X367000Y13728D02*
Y17272D01*
X355228Y15500D02*
X358772D01*
X357000Y13728D02*
Y17272D01*
X365228Y25500D02*
X368772D01*
X367000Y23728D02*
Y27272D01*
X355228Y25500D02*
X358772D01*
X357000Y23728D02*
Y27272D01*
X365228Y35500D02*
X368772D01*
X367000Y33728D02*
Y37272D01*
X355228Y35500D02*
X358772D01*
X357000Y33728D02*
Y37272D01*
X365228Y45500D02*
X368772D01*
X367000Y43728D02*
Y47272D01*
X355228Y45500D02*
X358772D01*
X357000Y43728D02*
Y47272D01*
X365228Y55500D02*
X368772D01*
X367000Y53728D02*
Y57272D01*
X355228Y55500D02*
X358772D01*
X357000Y53728D02*
Y57272D01*
X365228Y65500D02*
X368772D01*
X367000Y63728D02*
Y67272D01*
X355228Y65500D02*
X358772D01*
X357000Y63728D02*
Y67272D01*
X365228Y75500D02*
X368772D01*
X367000Y73728D02*
Y77272D01*
X355228Y75500D02*
X358772D01*
X357000Y73728D02*
Y77272D01*
X365228Y85500D02*
X368772D01*
X367000Y83728D02*
Y87272D01*
X355228Y85500D02*
X358772D01*
X357000Y83728D02*
Y87272D01*
X365228Y95500D02*
X368772D01*
X367000Y93728D02*
Y97272D01*
X355228Y95500D02*
X358772D01*
X357000Y93728D02*
Y97272D01*
X365228Y105500D02*
X368772D01*
X367000Y103728D02*
Y107272D01*
X355228Y105500D02*
X358772D01*
X357000Y103728D02*
Y107272D01*
X365228Y115500D02*
X368772D01*
X367000Y113728D02*
Y117272D01*
X355228Y115500D02*
X358772D01*
X357000Y113728D02*
Y117272D01*
X365228Y125500D02*
X368772D01*
X367000Y123728D02*
Y127272D01*
X355228Y125500D02*
X358772D01*
X357000Y123728D02*
Y127272D01*
X365228Y135500D02*
X368772D01*
X367000Y133728D02*
Y137272D01*
X355228Y135500D02*
X358772D01*
X357000Y133728D02*
Y137272D01*
X365228Y145500D02*
X368772D01*
X367000Y143728D02*
Y147272D01*
X355228Y145500D02*
X358772D01*
X357000Y143728D02*
Y147272D01*
X365228Y155500D02*
X368772D01*
X367000Y153728D02*
Y157272D01*
X355228Y155500D02*
X358772D01*
X357000Y153728D02*
Y157272D01*
X365228Y218000D02*
X368772D01*
X367000Y216228D02*
Y219772D01*
X365228Y278000D02*
X368772D01*
X367000Y276228D02*
Y279772D01*
X365228Y268000D02*
X368772D01*
X367000Y266228D02*
Y269772D01*
X365228Y258000D02*
X368772D01*
X367000Y256228D02*
Y259772D01*
X365228Y248000D02*
X368772D01*
X367000Y246228D02*
Y249772D01*
X365228Y238000D02*
X368772D01*
X367000Y236228D02*
Y239772D01*
X365228Y228000D02*
X368772D01*
X367000Y226228D02*
Y229772D01*
X96409Y43500D02*
X97591D01*
X97000Y42909D02*
Y44091D01*
X262347Y146713D02*
X263528D01*
X262937Y146122D02*
Y147303D01*
X262347Y142713D02*
X263528D01*
X262937Y142122D02*
Y143303D01*
X262347Y138713D02*
X263528D01*
X262937Y138122D02*
Y139303D01*
X258347Y146713D02*
X259528D01*
X258937Y146122D02*
Y147303D01*
X258347Y142713D02*
X259528D01*
X258937Y142122D02*
Y143303D01*
X258347Y138713D02*
X259528D01*
X258937Y138122D02*
Y139303D01*
X254346Y146713D02*
X255528D01*
X254937Y146122D02*
Y147303D01*
X254346Y142713D02*
X255528D01*
X254937Y142122D02*
Y143303D01*
X254346Y138713D02*
X255528D01*
X254937Y138122D02*
Y139303D01*
X325823Y373925D02*
X327004D01*
X326413Y373335D02*
Y374516D01*
X325823Y336130D02*
X327004D01*
X326413Y335539D02*
Y336720D01*
X267949Y336130D02*
X269130D01*
X268539Y335539D02*
Y336720D01*
X264799Y373925D02*
X265980D01*
X265390Y373335D02*
Y374516D01*
X307909Y327000D02*
X309090D01*
X308500Y326410D02*
Y327590D01*
X303410Y317000D02*
X304591D01*
X304000Y316409D02*
Y317590D01*
X242910Y309287D02*
X244091D01*
X243500Y308697D02*
Y309878D01*
X183106Y41697D02*
X184287D01*
X183697Y41106D02*
Y42287D01*
X56910Y29500D02*
X58091D01*
X57500Y28909D02*
Y30091D01*
X61910Y37500D02*
X63090D01*
X62500Y36909D02*
Y38091D01*
X267910Y146000D02*
X269091D01*
X268500Y145409D02*
Y146591D01*
X277224Y138152D02*
X278405D01*
X277814Y137561D02*
Y138742D01*
X238498Y137862D02*
X239680D01*
X239089Y137272D02*
Y138453D01*
X267883Y149014D02*
X269064D01*
X268474Y148423D02*
Y149604D01*
X238910Y130508D02*
X240090D01*
X239500Y129917D02*
Y131098D01*
X238910Y142319D02*
X240090D01*
X239500Y141728D02*
Y142909D01*
X238409Y135500D02*
X239591D01*
X239000Y134909D02*
Y136091D01*
X238468Y133040D02*
X239649D01*
X239058Y132450D02*
Y133631D01*
X268327Y152212D02*
X269508D01*
X268918Y151621D02*
Y152802D01*
X237663Y140224D02*
X238844D01*
X238254Y139634D02*
Y140815D01*
X246909Y109500D02*
X248091D01*
X247500Y108909D02*
Y110091D01*
X265910Y109500D02*
X267091D01*
X266500Y108909D02*
Y110091D01*
X285409Y130000D02*
X286591D01*
X286000Y129409D02*
Y130591D01*
X285910Y151500D02*
X287090D01*
X286500Y150909D02*
Y152091D01*
X285910Y160847D02*
X287090D01*
X286500Y160256D02*
Y161437D01*
X334409Y218000D02*
X335591D01*
X335000Y217409D02*
Y218590D01*
X295910Y234500D02*
X297091D01*
X296500Y233910D02*
Y235090D01*
X279909Y224500D02*
X281090D01*
X280500Y223909D02*
Y225091D01*
X121409Y388500D02*
X122591D01*
X122000Y387910D02*
Y389090D01*
X126909Y388500D02*
X128091D01*
X127500Y387910D02*
Y389090D01*
X132409Y388500D02*
X133591D01*
X133000Y387910D02*
Y389090D01*
X94410Y388500D02*
X95591D01*
X95000Y387910D02*
Y389090D01*
X99910Y388500D02*
X101091D01*
X100500Y387910D02*
Y389090D01*
X105409Y388500D02*
X106591D01*
X106000Y387910D02*
Y389090D01*
X110909Y388500D02*
X112091D01*
X111500Y387910D02*
Y389090D01*
X115909Y388500D02*
X117091D01*
X116500Y387910D02*
Y389090D01*
X67409Y388500D02*
X68590D01*
X68000Y387910D02*
Y389090D01*
X72909Y388500D02*
X74090D01*
X73500Y387910D02*
Y389090D01*
X78409Y388500D02*
X79590D01*
X79000Y387910D02*
Y389090D01*
X83909Y388500D02*
X85091D01*
X84500Y387910D02*
Y389090D01*
X88910Y388500D02*
X90091D01*
X89500Y387910D02*
Y389090D01*
X61910Y388500D02*
X63090D01*
X62500Y387910D02*
Y389090D01*
X56910Y388500D02*
X58091D01*
X57500Y387910D02*
Y389090D01*
X51410Y388500D02*
X52591D01*
X52000Y387910D02*
Y389090D01*
X45909Y388500D02*
X47091D01*
X46500Y387910D02*
Y389090D01*
X40409Y388500D02*
X41591D01*
X41000Y387910D02*
Y389090D01*
X226410Y291500D02*
X227590D01*
X227000Y290910D02*
Y292091D01*
X219409Y259000D02*
X220590D01*
X220000Y258410D02*
Y259591D01*
X240409Y210000D02*
X241590D01*
X241000Y209409D02*
Y210591D01*
X233910Y224500D02*
X235090D01*
X234500Y223909D02*
Y225091D01*
X211409Y184000D02*
X212591D01*
X212000Y183409D02*
Y184591D01*
X231909Y164500D02*
X233090D01*
X232500Y163909D02*
Y165091D01*
X231909Y168000D02*
X233090D01*
X232500Y167409D02*
Y168591D01*
X235409Y171000D02*
X236591D01*
X236000Y170409D02*
Y171591D01*
X231909Y171000D02*
X233090D01*
X232500Y170409D02*
Y171591D01*
X235409Y174000D02*
X236591D01*
X236000Y173409D02*
Y174591D01*
X231909Y174000D02*
X233090D01*
X232500Y173409D02*
Y174591D01*
X224410Y134000D02*
X225590D01*
X225000Y133409D02*
Y134591D01*
X224410Y131500D02*
X225590D01*
X225000Y130909D02*
Y132091D01*
X288409Y6000D02*
X289591D01*
X289000Y5409D02*
Y6591D01*
X282410Y12500D02*
X283591D01*
X283000Y11909D02*
Y13091D01*
X288409Y12500D02*
X289591D01*
X289000Y11909D02*
Y13091D01*
X282410Y6000D02*
X283591D01*
X283000Y5409D02*
Y6591D01*
X233551Y62800D02*
X234732D01*
X234141Y62209D02*
Y63390D01*
X146409Y14000D02*
X147591D01*
X147000Y13409D02*
Y14591D01*
X182909Y38500D02*
X184091D01*
X183500Y37909D02*
Y39091D01*
X157713Y38697D02*
X158894D01*
X158303Y38106D02*
Y39287D01*
X155811Y40598D02*
X156992D01*
X156402Y40008D02*
Y41189D01*
X153909Y42500D02*
X155091D01*
X154500Y41909D02*
Y43091D01*
X108409Y4500D02*
X109591D01*
X109000Y3909D02*
Y5091D01*
X105409Y4500D02*
X106591D01*
X106000Y3909D02*
Y5091D01*
X101909Y4500D02*
X103091D01*
X102500Y3909D02*
Y5091D01*
X36409Y45000D02*
X37591D01*
X37000Y44409D02*
Y45591D01*
X36409Y49000D02*
X37591D01*
X37000Y48409D02*
Y49591D01*
X97805Y31404D02*
X98986D01*
X98396Y30813D02*
Y31994D01*
X96132Y38625D02*
X97313D01*
X96723Y38034D02*
Y39215D01*
X30886Y39344D02*
X32067D01*
X31477Y38754D02*
Y39935D01*
X11909Y16000D02*
X13091D01*
X12500Y15409D02*
Y16590D01*
X18239Y32330D02*
X19420D01*
X18830Y31739D02*
Y32920D01*
X19909Y34000D02*
X21091D01*
X20500Y33409D02*
Y34591D01*
X61910Y29500D02*
X63090D01*
X62500Y28909D02*
Y30091D01*
X61910Y33500D02*
X63090D01*
X62500Y32909D02*
Y34091D01*
X56910Y33500D02*
X58091D01*
X57500Y32909D02*
Y34091D01*
X56910Y37500D02*
X58091D01*
X57500Y36909D02*
Y38091D01*
X227909Y250500D02*
X229090D01*
X228500Y249909D02*
Y251091D01*
X196909Y271000D02*
X198091D01*
X197500Y270409D02*
Y271590D01*
X196909Y88000D02*
X198091D01*
X197500Y87410D02*
Y88591D01*
X225370Y201000D02*
X226551D01*
X225961Y200409D02*
Y201591D01*
X223008Y201000D02*
X224189D01*
X223598Y200409D02*
Y201591D01*
X220646Y201000D02*
X221827D01*
X221236Y200409D02*
Y201591D01*
X213559Y201000D02*
X214740D01*
X214150Y200409D02*
Y201591D01*
X215921Y201000D02*
X217102D01*
X216512Y200409D02*
Y201591D01*
X218284Y201000D02*
X219465D01*
X218874Y200409D02*
Y201591D01*
X134409Y20500D02*
X135591D01*
X135000Y19909D02*
Y21091D01*
X131409Y20500D02*
X132591D01*
X132000Y19909D02*
Y21091D01*
X134409Y23500D02*
X135591D01*
X135000Y22909D02*
Y24091D01*
X131409Y23500D02*
X132591D01*
X132000Y22909D02*
Y24091D01*
X134409Y26500D02*
X135591D01*
X135000Y25909D02*
Y27091D01*
X131409Y26500D02*
X132591D01*
X132000Y25909D02*
Y27091D01*
M02*
